<?xml version="1.0" standalone="no"?>
<!DOCTYPE svg PUBLIC "-//W3C//DTD SVG 1.1//EN" "http://www.w3.org/Graphics/SVG/1.1/DTD/svg11.dtd" >
<svg xmlns="http://www.w3.org/2000/svg">
<metadata></metadata>
<defs>
<font id="asgaltregular" horiz-adv-x="639" >
<font-face units-per-em="2048" ascent="1280" descent="-768" />
<missing-glyph horiz-adv-x="595" />
<glyph horiz-adv-x="0" />
<glyph unicode="&#xd;" horiz-adv-x="681" />
<glyph unicode=" "  horiz-adv-x="595" />
<glyph unicode="&#x09;" horiz-adv-x="595" />
<glyph unicode="&#xa0;" horiz-adv-x="595" />
<glyph unicode="!" horiz-adv-x="197" d="M0 2v94h63v-94h-63zM0 192v820h63v-820h-63z" />
<glyph unicode="&#x22;" horiz-adv-x="324" d="M0 823v190h63v-190h-63zM127 823v190h63v-190h-63z" />
<glyph unicode="#" horiz-adv-x="892" d="M0 2l165 378h-153l28 63h154l69 158h-154l27 63h154l151 348h70l-152 -348h178l152 348h69l-151 -348h149l-29 -63h-149l-69 -158h149l-27 -63h-149l-167 -378h-67l165 378h-179l-165 -378h-69zM263 443h177l69 158h-177z" />
<glyph unicode="$" horiz-adv-x="765" d="M0 0v61h363q84 0 144.5 60.5t60.5 146t-60.5 145t-144.5 59.5h-110v2q-107 6 -180 82.5t-73 184t73 184.5t180 85h378v-64h-362q-84 0 -145 -60.5t-61 -145t60.5 -144.5t145.5 -60h109q107 -6 180 -84t73 -184.5t-72.5 -184t-180.5 -83.5h-378zM169 -96v1200h63v-1200 h-63zM399 -96v1200h64v-1200h-64z" />
<glyph unicode="%" horiz-adv-x="644" d="M0 2l441 1010h70l-442 -1010h-69zM0 886q0 53 37.5 89.5t89.5 36.5t89 -36.5t37 -89.5t-37 -89.5t-89 -36.5t-89.5 36.5t-37.5 89.5zM63 886q0 -26 18.5 -44.5t44.5 -18.5t45 18.5t19 44.5t-19 44t-45 18t-44.5 -18t-18.5 -44zM253 127.5q0 52.5 36.5 90t89.5 37.5 t89.5 -37.5t36.5 -90t-36.5 -89t-89.5 -36.5t-89.5 36.5t-36.5 89zM315 128q0 -26 19 -44.5t45 -18.5t44 18.5t18 44.5t-18 45t-44 19t-45 -19t-19 -45z" />
<glyph unicode="'" horiz-adv-x="197" d="M0 822v188h63v-188h-63z" />
<glyph unicode="(" horiz-adv-x="343" d="M0 505.5q0 271.5 134 504.5h75q-146 -230 -146 -505t146 -505h-75q-134 234 -134 505.5z" />
<glyph unicode=")" horiz-adv-x="343" d="M0 0q146 230 146 504.5t-146 505.5h73q136 -232 136 -504t-136 -506h-73z" />
<glyph unicode="*" d="M0 726v63h177l-125 125l44 44l125 -125v177h63v-177l125 125l44 -44l-125 -125h177v-63h-177l125 -125l-44 -44l-125 124v-176h-63v176l-125 -124l-44 44l125 125h-177z" />
<glyph unicode="+" d="M0 345v64h221v221h63v-221h221v-64h-221v-220h-63v220h-221z" />
<glyph unicode="," horiz-adv-x="251" d="M0 -154l52 252h65l-52 -252h-65z" />
<glyph unicode="-" d="M0 342v63h505v-63h-505z" />
<glyph unicode="." horiz-adv-x="228" d="M0 51q0 47 47 47t47 -47t-47 -47t-47 47z" />
<glyph unicode="/" horiz-adv-x="644" d="M0 0l441 1010h70l-442 -1010h-69z" />
<glyph unicode="0" d="M0 253v505q0 104 74 178t178.5 74t178.5 -74t74 -178v-505q0 -106 -74 -179.5t-178.5 -73.5t-178.5 74t-74 179zM63 253q0 -79 56 -134.5t133.5 -55.5t133 56t55.5 134v505q0 79 -55.5 133.5t-133 54.5t-133.5 -54.5t-56 -133.5v-505z" />
<glyph unicode="1" d="M0 505l505 505v-89v-921h-64v858l-351 -353h-90z" />
<glyph unicode="2" d="M0 0l278 443l46 73l89 140q42 67 24.5 144t-84.5 118.5t-143 24t-118 -84.5q-29 -46 -29 -100h-63q0 73 38 135q56 88 158 111t191 -32.5t112 -157.5t-33 -190l-351 -561h390v-63h-315h-115h-75z" />
<glyph unicode="3" d="M0 253h63q0 -79 56 -134.5t133.5 -55.5t133 56t55.5 134v31q0 79 -55.5 134.5t-132.5 55.5v63q77 0 132.5 55t55.5 134v32q0 79 -55.5 133.5t-133 54.5t-133.5 -54.5t-56 -133.5h-63q0 104 74 178t178.5 74t178.5 -74t74 -178v-32q0 -69 -35.5 -129t-95.5 -92 q60 -33 95.5 -91.5t35.5 -129.5v-31q0 -106 -74 -179.5t-178.5 -73.5t-178.5 74t-74 179z" />
<glyph unicode="4" d="M0 253l505 757v-114l-388 -581h324v190h64v-505h-64v253h-441z" />
<glyph unicode="5" d="M0 253h63q0 -79 56 -134.5t133.5 -55.5t133 56t55.5 134v62q0 79 -55.5 134.5t-132.5 55.5h-253v505h505v-64h-442v-378h190q104 0 178 -74t74 -179v-62q0 -106 -74 -179.5t-178.5 -73.5t-178.5 74t-74 179z" />
<glyph unicode="6" d="M0 253v505q0 104 74 178t178.5 74t178.5 -74t74 -178h-64q0 79 -55.5 133.5t-133 54.5t-133.5 -54.5t-56 -133.5v-213q75 86 190 86q104 0 178 -73.5t74 -179.5v-125q0 -106 -74 -179.5t-178.5 -73.5t-178.5 74t-74 179zM63 253q0 -79 56 -134.5t133.5 -55.5t133 56 t55.5 134v125q0 79 -55.5 134.5t-133 55.5t-133.5 -55.5t-56 -134.5v-125z" />
<glyph unicode="7" d="M0 0l409 946h-409v64h505l-436 -1010h-69z" />
<glyph unicode="8" d="M0 253v31q0 71 35.5 129.5t95.5 91.5q-60 33 -95.5 92t-35.5 129v32q0 104 74 178t178.5 74t178.5 -74t74 -178v-32q0 -69 -35.5 -129t-95.5 -92q60 -33 95.5 -91.5t35.5 -129.5v-31q0 -106 -74 -179.5t-178.5 -73.5t-178.5 74t-74 179zM63 253q0 -79 56 -134.5 t133.5 -55.5t133 56t55.5 134v31q0 79 -55.5 134.5t-133 55.5t-133.5 -55.5t-56 -134.5v-31zM63 726q0 -79 56 -134t133.5 -55t133 55t55.5 134v32q0 79 -55.5 133.5t-133 54.5t-133.5 -54.5t-56 -133.5v-32z" />
<glyph unicode="9" horiz-adv-x="641" d="M0 253h63q0 -79 56 -134.5t133.5 -55.5t133 56t55.5 134v211q-75 -86 -188 -86q-106 0 -179.5 74t-73.5 179v127q0 104 74 178t178.5 74t178.5 -74t74 -178v-505q0 -106 -74 -179.5t-178.5 -73.5t-178.5 74t-74 179zM63 631q0 -79 56 -134.5t133.5 -55.5t133 56t55.5 134 v127q0 79 -55.5 133.5t-133 54.5t-133.5 -54.5t-56 -133.5v-127z" />
<glyph unicode=":" horiz-adv-x="228" d="M0 47q0 47 47 47t47 -47t-47 -47t-47 47zM0 458q0 47 47 47t47 -47t-47 -47t-47 47z" />
<glyph unicode=";" horiz-adv-x="264" d="M0 -154l52 252h65l-52 -252h-65zM35 462q0 47 48 47t48 -47t-48 -47t-48 47z" />
<glyph unicode="&#x3c;" horiz-adv-x="641" d="M0 505l505 505v-89l-415 -416l415 -415v-90z" />
<glyph unicode="=" d="M0 253v64h505v-64h-505zM0 441v64h505v-64h-505z" />
<glyph unicode="&#x3e;" d="M0 0v90l417 415l-417 416v89l505 -505z" />
<glyph unicode="?" d="M0 758q0 104 74 178t178.5 74t178.5 -74t74 -178.5t-74 -178.5t-178 -74q-27 0 -45 -18.5t-18 -45.5v-251h-63v251q0 48 30 83q36 44 96 44q77 0 132.5 55.5t55.5 134.5t-55.5 133.5t-133 54.5t-133.5 -54.5t-56 -133.5h-63zM127 0v94h63v-94h-63z" />
<glyph unicode="@" horiz-adv-x="1209" d="M0 314q0 222 157.5 379t379 157t379 -157t157.5 -378q0 -94 -33 -184l-1 -1t-1 -2v-1q-1 -10 -7 -20q-19 -42 -55.5 -70.5t-82.5 -36.5q-15 -2 -29 -2h-12q-25 2 -50 12q-54 23 -71 80q-8 -10 -15 -17q-75 -75 -179.5 -75t-178.5 74t-74 179v127q0 104 74 178t179 74 q113 0 189 -85v85h63v-279v-73v-153q0 -40 36 -58q19 -6 39 -6q71 0 105 60q36 83 41 173v21q0 196 -138.5 334t-335 138t-335 -138t-138.5 -335t138.5 -335t335.5 -138q88 0 169 30h135q-136 -94 -304 -94q-223 0 -380 157.5t-157 379.5zM347 251q0 -79 56 -134.5 t134 -55.5q90 0 148 73q41 52 41 117v54v73q0 77 -55 132.5t-133.5 55.5t-134.5 -55.5t-56 -132.5v-127z" />
<glyph unicode="A" horiz-adv-x="765" d="M0 0l315 1010l316 -1010h-65l-251 798l-250 -798h-65z" />
<glyph unicode="B" d="M0 0v1010h221q106 0 179.5 -74t73.5 -178q0 -69 -34.5 -127.5t-92.5 -91.5q71 -36 114.5 -104t43.5 -151q0 -117 -83.5 -200.5t-200.5 -83.5h-221zM63 63h158q92 0 156 64.5t64 156.5t-64 156.5t-156 64.5v63q79 0 134.5 55.5t55.5 134.5t-56 133.5t-134 54.5h-158v-883z " />
<glyph unicode="C" d="M0 253v505q0 104 74 178t178.5 74t178.5 -74t74 -178h-64q0 79 -55.5 133.5t-133 54.5t-133.5 -54.5t-56 -133.5v-505q0 -79 56 -134.5t133.5 -55.5t133 56t55.5 134h64q0 -106 -74 -179.5t-178.5 -73.5t-178.5 74t-74 179z" />
<glyph unicode="D" d="M0 0v1010q209 0 357 -148t148 -357t-148 -357t-357 -148zM63 67q161 23 269.5 148t108.5 291t-108 289.5t-270 146.5v-875z" />
<glyph unicode="E" d="M0 0v1010h505v-64h-442v-409h315v-63h-315v-411h442v-63h-505z" />
<glyph unicode="F" d="M0 0v1010h505v-64h-442v-409h315v-63h-315v-474h-63z" />
<glyph unicode="G" d="M0 253v505q0 104 74 178t178.5 74t178.5 -74t74 -178h-64q0 79 -55.5 133.5t-133 54.5t-133.5 -54.5t-56 -133.5v-505q0 -79 56 -134.5t133.5 -55.5t133 56t55.5 134v188h-188v64h252v-252q0 -106 -74 -179.5t-178.5 -73.5t-178.5 74t-74 179z" />
<glyph unicode="H" horiz-adv-x="641" d="M0 0v1010h63v-473h378v473h64v-1010h-64v474h-378v-474h-63z" />
<glyph unicode="I" d="M0 0v63h221v883h-221v64h505v-64h-221v-883h221v-63h-505z" />
<glyph unicode="J" d="M0 253h63q0 -79 56 -134.5t133.5 -55.5t133 56t55.5 134v757h64v-757q0 -106 -74 -179.5t-178.5 -73.5t-178.5 74t-74 179z" />
<glyph unicode="K" horiz-adv-x="765" d="M0 0v1010h63v-473h135l355 473h78l-378 -505l378 -505h-78l-355 474h-135v-474h-63z" />
<glyph unicode="L" horiz-adv-x="641" d="M0 0v1012h63v-949h442v-63h-505z" />
<glyph unicode="M" horiz-adv-x="892" d="M0 0v1010l378 -505l380 505v-1010h-63v822l-317 -423l-315 423v-822h-63z" />
<glyph unicode="N" horiz-adv-x="813" d="M0 0v1010l616 -820v820h63v-1010l-616 822v-822h-63z" />
<glyph unicode="O" d="M0 221v32v505q0 104 74 178t178.5 74t178.5 -74t74 -178v-505q0 -106 -74 -179.5t-178 -73.5q-96 0 -168 63.5t-83 157.5h-2zM63 253q0 -79 56 -134.5t133.5 -55.5t133 55.5t55.5 134.5v505q0 79 -55.5 133.5t-133 54.5t-133.5 -54.5t-56 -133.5v-505z" />
<glyph unicode="P" horiz-adv-x="641" d="M0 0v1010h253q104 0 178 -74t74 -178.5t-74 -178.5t-178 -74h-96v63h96q77 0 132.5 55.5t55.5 134.5t-55.5 133.5t-132.5 54.5h-190v-946h-63z" />
<glyph unicode="Q" d="M0 253v505q0 104 74 178t178.5 74t178.5 -74t74 -178v-505q0 -106 -73 -178l73 -75h-88l-37 35q-58 -35 -127 -35q-106 0 -179.5 74t-73.5 179zM63 253q0 -79 56 -134.5t133.5 -55.5t133 55.5t55.5 134.5v505q0 79 -55.5 133.5t-133 54.5t-133.5 -54.5t-56 -133.5v-505z " />
<glyph unicode="R" horiz-adv-x="765" d="M0 0v1010h253q104 0 178 -74t74 -178q0 -94 -60.5 -165t-152.5 -84l339 -509h-76l-378 568h76q77 0 132.5 55.5t55.5 134.5t-55.5 133.5t-132.5 54.5h-190v-946h-63z" />
<glyph unicode="S" horiz-adv-x="765" d="M0 0v63h363q84 0 144.5 59.5t60.5 145t-60.5 145t-144.5 59.5h-110v2q-107 6 -180 83.5t-73 184t73 184.5t180 84h252v-64h-236q-84 0 -145 -59.5t-61 -145t60.5 -145.5t145.5 -60h109q107 -6 180 -84t73 -184.5t-72.5 -184t-180.5 -83.5h-378z" />
<glyph unicode="T" d="M0 946v64h505v-64h-221v-946h-63v946h-221z" />
<glyph unicode="U" d="M0 253v757h63v-757q0 -79 56 -134.5t133.5 -55.5t133 56t55.5 134v757h64v-757q0 -106 -74 -179.5t-178.5 -73.5t-178.5 74t-74 179z" />
<glyph unicode="V" horiz-adv-x="765" d="M0 1010h65l250 -799l251 799h65l-316 -1010z" />
<glyph unicode="W" horiz-adv-x="988" d="M0 1010h65l250 -799l78 248l-172 551h67l138 -444l140 444h65l-172 -551l78 -248l250 799h65l-315 -1010l-111 353l-111 -353z" />
<glyph unicode="X" horiz-adv-x="844" d="M0 1010h75l280 -448l280 448h75l-318 -507l314 -503h-75l-276 441l-276 -441h-75l315 503z" />
<glyph unicode="Y" horiz-adv-x="892" d="M0 1010h79l299 -400l301 400h79l-347 -463v-547h-64v547z" />
<glyph unicode="Z" horiz-adv-x="840" d="M0 0l591 948h-591v64h706l-593 -949h582v-63h-695z" />
<glyph unicode="[" horiz-adv-x="293" d="M0 0v1010h157v-64h-94v-883h94v-63h-157z" />
<glyph unicode="\" horiz-adv-x="644" d="M0 1010h69l442 -1010h-70z" />
<glyph unicode="]" horiz-adv-x="293" d="M0 0v63h94v883h-94v64h157v-1010h-157z" />
<glyph unicode="_" horiz-adv-x="821" d="M0 0v63h687v-63h-687z" />
<glyph unicode="a" horiz-adv-x="664" d="M0 253v125q0 106 74 179.5t179 73.5q113 0 188 -86v86h64v-504q0 -27 18 -45.5t45 -18.5v-63q-42 0 -75.5 26t-45.5 66q-77 -92 -194 -92q-106 0 -179.5 74t-73.5 179zM63 253q0 -79 56 -134.5t133.5 -55.5t133 56t55.5 134v125q0 79 -55.5 134.5t-133 55.5t-133.5 -55.5 t-56 -134.5v-125z" />
<glyph unicode="b" horiz-adv-x="664" d="M0 0v63q27 0 45 18.5t18 45.5v883h64v-465q75 86 188 86q106 0 179.5 -73.5t73.5 -179.5v-125q0 -106 -74 -179.5t-179 -73.5q-117 0 -194 92q-12 -40 -45.5 -66t-75.5 -26zM127 253q0 -79 55.5 -134.5t133 -55.5t133.5 56t56 134v125q0 79 -56 134.5t-133.5 55.5 t-133 -55.5t-55.5 -134.5v-125z" />
<glyph unicode="c" horiz-adv-x="619" d="M0 267v98q0 111 77.5 188.5t189.5 77.5q90 0 162 -56.5t95 -142.5h-71q-6 21 -17 38q-27 44 -72 69t-98 25t-98 -25t-72 -69q-29 -48 -29 -105v-98q0 -58 29 -106q27 -44 72 -69t98 -25t98 25t72 69q11 18 17 39h71q-23 -86 -95 -143t-162 -57q-111 0 -189 77.5 t-78 189.5z" />
<glyph unicode="d" horiz-adv-x="664" d="M0 253v127q0 104 74 177.5t179 73.5q113 0 188 -84v465h64v-885q0 -25 18 -44.5t45 -19.5v-63q-42 0 -75.5 26t-45.5 66q-77 -92 -194 -92q-106 0 -179.5 74t-73.5 179zM63 253q0 -79 56 -134.5t133.5 -55.5t133 56t55.5 134v127q0 79 -55.5 133.5t-133 54.5 t-133.5 -54.5t-56 -133.5v-127z" />
<glyph unicode="e" horiz-adv-x="627" d="M0 267v100q0 109 77.5 186.5t188 77.5t188.5 -77.5t78 -186.5v-100h-465q0 -58 29 -106q27 -42 72 -68t97 -26q90 0 150 67h80q-35 -61 -96 -97.5t-134 -36.5q-109 0 -187 78.5t-78 188.5zM67 334h397v33q0 58 -28 105q-27 42 -72 68t-98 26t-98 -26t-72 -68 q-29 -48 -29 -105v-2v-2v-2v-2v-2v-2v-2v-2v-17z" />
<glyph unicode="f" horiz-adv-x="349" d="M0 0v758q0 104 74 178t179 74v-64q-50 0 -93 -24t-68 -64q-29 -46 -29 -100v-190h190v-63h-190v-505h-63z" />
<glyph unicode="g" horiz-adv-x="664" d="M0 -127h63q0 -79 56 -133.5t133.5 -54.5t133 55t55.5 133v213q-75 -86 -188 -86q-106 0 -179.5 74t-73.5 179v125q0 106 74 179.5t179 73.5q117 0 194 -92q12 40 45.5 66t75.5 26v-63q-27 0 -45 -18t-18 -45v-632q0 -94 -64 -167q-75 -84 -188 -84q-106 0 -179.5 74 t-73.5 177zM63 253q0 -79 56 -134.5t133.5 -55.5t133 56t55.5 134v125q0 79 -55.5 134.5t-133 55.5t-133.5 -55.5t-56 -134.5v-125z" />
<glyph unicode="h" horiz-adv-x="602" d="M0 0v1010h63v-465q75 86 190 86q104 0 178 -73.5t74 -179.5v-378h-64v378q0 79 -55.5 134.5t-133 55.5t-133.5 -55.5t-56 -134.5v-378h-63z" />
<glyph unicode="i" horiz-adv-x="222" d="M0 127v506h63v-506q0 -25 18.5 -44.5t45.5 -19.5v-61q-52 0 -89.5 36.5t-37.5 88.5zM0 664v94h63v-94h-63z" />
<glyph unicode="j" horiz-adv-x="349" d="M0 -315q50 0 92 24t69 66q29 46 29 100v758h63v-758q0 -106 -73.5 -179.5t-179.5 -73.5v63zM190 664v94h63v-94h-63z" />
<glyph unicode="k" horiz-adv-x="602" d="M0 0v1010h63v-542l302 163h132l-405 -218l413 -413h-88l-354 353v-353h-63z" />
<glyph unicode="l" horiz-adv-x="222" d="M0 127v883h63v-883q0 -27 18.5 -45.5t45.5 -18.5v-63q-52 0 -89.5 37.5t-37.5 89.5z" />
<glyph unicode="m" horiz-adv-x="917" d="M0 568v63q36 0 67 -19t46 -52q61 71 156 71q54 0 100 -25.5t72 -69.5q29 44 75 69.5t100 25.5q84 0 145 -60.5t61 -144.5v-426h-66q2 420 2 426q0 60 -42 101t-100.5 41t-100 -41t-41.5 -101v-426h-63v426q0 60 -42.5 101t-101 41t-99.5 -41t-41 -101v-426h-64v505 q0 27 -18 45t-45 18z" />
<glyph unicode="n" horiz-adv-x="635" d="M0 572v59q40 0 72 -24.5t43 -61.5q73 86 186 86q98 0 169 -71t71 -168v-392h-59v392q0 73 -54 126.5t-128 53.5t-126.5 -54t-52.5 -126v-392h-61v511q0 25 -17.5 43t-42.5 18z" />
<glyph unicode="o" horiz-adv-x="602" d="M0 253v125q0 106 74 179.5t178.5 73.5t178.5 -73.5t74 -179.5v-125q0 -106 -74 -179.5t-178.5 -73.5t-178.5 74t-74 179zM63 253q0 -25 6 -48q15 -61 66 -101.5t117.5 -40.5t117 40.5t66.5 101.5q5 20 5 41v7v125q0 25 -5 48q-15 61 -66 101.5t-117.5 40.5t-117.5 -40 t-66 -102q-6 -23 -6 -48v-125z" />
<glyph unicode="p" horiz-adv-x="666" d="M0 568v63q42 0 75.5 -25.5t45.5 -66.5q77 92 194 92q106 0 179.5 -73.5t73.5 -179.5v-125q0 -106 -74 -179.5t-179 -73.5q-113 0 -188 86v-464h-64v883q0 27 -18 45t-45 18zM127 253q0 -79 55.5 -134.5t133 -55.5t133.5 56t56 134v125q0 79 -56 134.5t-133.5 55.5 t-133 -55.5t-55.5 -134.5v-125z" />
<glyph unicode="q" horiz-adv-x="666" d="M0 253v125q0 106 74 179.5t179 73.5q117 0 194 -92q12 40 45.5 66t75.5 26v-63q-27 0 -45 -18t-18 -45v-883h-64v464q-75 -86 -188 -86q-106 0 -179.5 74t-73.5 179zM63 253q0 -79 56 -134.5t133.5 -55.5t133 56t55.5 134v125q0 79 -55.5 134.5t-133 55.5t-133.5 -55.5 t-56 -134.5v-125z" />
<glyph unicode="r" horiz-adv-x="410" d="M0 568v63q42 0 75.5 -25.5t45.5 -66.5q77 92 194 92v-63q-77 0 -132.5 -55.5t-55.5 -134.5v-378h-64v505q0 27 -18 45t-45 18z" />
<glyph unicode="s" horiz-adv-x="600" d="M0 0v63h315q54 0 90 36.5t36 89.5t-36 89.5t-90 36.5h-158q-65 0 -111 47t-46 112t46 111t111 46h190v-63h-190q-38 0 -66 -28t-28 -67t28 -67t66 -28h158q79 0 134.5 -54.5t55.5 -133.5t-56 -134.5t-134 -55.5h-315z" />
<glyph unicode="t" horiz-adv-x="347" d="M0 253v757h63v-379h190v-63h-190v-315q0 -25 6 -48q15 -61 66 -101.5t118 -40.5v-63q-106 0 -179.5 74t-73.5 179z" />
<glyph unicode="u" horiz-adv-x="602" d="M0 253v378h63v-378q0 -25 6 -48q15 -61 66 -101.5t117.5 -40.5t117 40.5t66.5 101.5q6 23 5 48v378h64v-378q0 -106 -74 -179.5t-178.5 -73.5t-178.5 74t-74 179z" />
<glyph unicode="v" horiz-adv-x="600" d="M0 631h67l186 -460l185 460h67l-252 -631z" />
<glyph unicode="w" horiz-adv-x="792" d="M0 631h67l186 -460l60 151l-123 309h67l90 -224l91 224h67l-123 -309l59 -151l185 460h69l-254 -631l-94 236l-94 -236z" />
<glyph unicode="x" horiz-adv-x="681" d="M0 631h81l211 -266l211 266h80l-251 -316l251 -315h-80l-211 265l-209 -265h-81l249 315z" />
<glyph unicode="y" horiz-adv-x="669" d="M0 633h67l219 -547l219 547h69l-405 -1011h-67l151 378z" />
<glyph unicode="z" horiz-adv-x="681" d="M0 0l455 568h-455v63h585l-454 -568h454v-63h-585z" />
<glyph unicode="|" horiz-adv-x="197" d="M0 0v1010h63v-1010h-63z" />
<glyph unicode="&#xa1;" horiz-adv-x="197" d="M0 0v820h63v-820h-63zM0 916v94h63v-94h-63z" />
<glyph unicode="&#xa3;" horiz-adv-x="641" d="M0 745q-2 61 23 117.5t77 95.5q83 63 186.5 49.5t166.5 -95.5q21 -29 35 -60h-71q-6 12 -14 21q-48 61 -125.5 72t-140 -37t-73 -126t37.5 -139q44 -58 71 -125q21 -52 30 -107h271v-64h-263q10 -152 -63 -284h357v-63h-478q134 148 121 347h-117v64h109q-21 106 -88 194 q-48 61 -52 140z" />
<glyph unicode="&#xa5;" horiz-adv-x="641" d="M0 190v63h221v125h-221v63h221v127l-221 442h71l182 -363l181 363h71l-221 -442v-127h221v-63h-221v-125h221v-63h-221v-190h-63v190h-221z" />
<glyph unicode="&#xab;" horiz-adv-x="1021" d="M0 505l505 505v-89l-415 -416l415 -415v-90zM0 505l505 505v-89l-415 -416l415 -415v-90zM380 509l507 504v-90l-417 -414l417 -417v-90z" />
<glyph unicode="&#xad;" d="M0 342v63h505v-63h-505z" />
<glyph unicode="&#xbb;" horiz-adv-x="1011" d="M0 -6v89l417 416l-417 417v88l505 -505zM370 0v90l417 415l-417 416v89l505 -505z" />
<glyph unicode="&#xbf;" d="M0 252.5q0 104.5 74 178.5t179 74q25 0 43.5 18t18.5 45v252h63v-252q0 -48 -29 -82q-38 -44 -96 -45q-79 0 -134.5 -55.5t-55.5 -134t56 -133.5t133.5 -55t133 55t55.5 133h64q0 -104 -74 -177.5t-178.5 -73.5t-178.5 74t-74 178.5zM315 916v94h63v-94h-63z" />
<glyph unicode="&#xe0;" horiz-adv-x="666" d="M0 253v127q0 104 74 177.5t179 73.5q113 0 188 -84v84h64v-504q0 -25 18 -44.5t45 -19.5v-63q-42 0 -75.5 26t-45.5 66q-77 -92 -194 -92q-106 0 -179.5 74t-73.5 179zM63 253q0 -79 56 -134.5t133.5 -55.5t133 56t55.5 134v127q0 79 -55.5 133.5t-133 54.5t-133.5 -54.5 t-56 -133.5v-127zM94 754v68l317 -106v-65z" />
<glyph unicode="&#xe1;" horiz-adv-x="666" d="M0 253v127q0 104 74 177.5t179 73.5q113 0 188 -84v84h64v-504q0 -25 18 -44.5t45 -19.5v-63q-42 0 -75.5 26t-45.5 66q-77 -92 -194 -92q-106 0 -179.5 74t-73.5 179zM63 253q0 -79 56 -134.5t133.5 -55.5t133 56t55.5 134v127q0 79 -55.5 133.5t-133 54.5t-133.5 -54.5 t-56 -133.5v-127zM94 651v65l317 106v-68z" />
<glyph unicode="&#xe2;" horiz-adv-x="664" d="M0 253v125q0 106 74 179.5t179 73.5q113 0 188 -86v86h64v-504q0 -27 18 -45.5t45 -18.5v-63q-42 0 -75.5 26t-45.5 66q-77 -92 -194 -92q-106 0 -179.5 74t-73.5 179zM63 253q0 -79 56 -134.5t133.5 -55.5t133 56t55.5 134v125q0 79 -55.5 134.5t-133 55.5t-133.5 -55.5 t-56 -134.5v-125zM94 670v67l159 52l158 -52v-67l-158 54z" />
<glyph unicode="&#xe4;" horiz-adv-x="666" d="M0 251v127q0 106 74 179.5t179 73.5q113 0 188 -86v86h64v-504q0 -27 18 -45.5t45 -18.5v-63q-42 0 -75.5 26t-45.5 64q-77 -90 -194 -90q-106 0 -179.5 74t-73.5 177zM63 251q0 -77 56 -132.5t133.5 -55.5t133 56t55.5 132v127q0 79 -55.5 134.5t-133 55.5t-133.5 -55.5 t-56 -134.5v-127zM121 705q0 47 48 47t48 -47t-48 -47t-48 47zM296 705q0 47 47 47t47 -47t-47 -47t-47 47z" />
<glyph unicode="&#xe8;" horiz-adv-x="627" d="M0 267v100q0 109 77.5 186.5t188 77.5t188.5 -77.5t78 -186.5v-100h-465q0 -58 29 -106q27 -44 72 -69t97 -25q90 0 150 65h80q-35 -60 -96 -96t-134 -36q-109 0 -187 77.5t-78 189.5zM67 332h397v35q0 56 -28 103q-27 44 -72 69t-98 25t-98 -25t-72 -69 q-29 -48 -29 -103v-2v-2v-2v-2v-2v-2v-2v-2v-2v-17zM107 754v68l317 -106v-67z" />
<glyph unicode="&#xe9;" horiz-adv-x="627" d="M0 265v2v98q0 111 77.5 188.5t188 77.5t188.5 -77.5t78 -188.5v-100h-465q0 -56 29 -104q27 -44 72 -69t97 -25q90 0 150 65h80q-35 -60 -96 -96t-134 -36q-109 0 -187 77.5t-78 187.5zM67 332h397v33q0 58 -28 105q-27 44 -72 69t-98 25t-98 -25t-72 -69 q-29 -48 -29 -105v-2v-2v-2v-2v-2v-2v-2v-2v-17zM107 649v67l317 106v-68z" />
<glyph unicode="&#xea;" horiz-adv-x="627" d="M0 265v2v98q0 111 77.5 188.5t188 77.5t188.5 -77.5t78 -188.5v-100h-465q0 -56 29 -104q27 -44 72 -69t97 -25q90 0 150 65h80q-35 -60 -96 -96t-134 -36q-109 0 -187 77.5t-78 187.5zM67 332h397v33q0 58 -28 105q-27 44 -72 69t-98 25t-98 -25t-72 -69 q-29 -48 -29 -105v-2v-2v-2v-2v-2v-2v-2v-2v-17zM107 670v67l158 52l159 -52v-67l-159 54z" />
<glyph unicode="&#xeb;" horiz-adv-x="627" d="M0 265v2v98q0 111 77.5 188.5t188 77.5t188.5 -77.5t78 -188.5v-100h-465q0 -56 29 -104q27 -44 72 -69t97 -25q90 0 150 65h80q-35 -60 -96 -96t-134 -36q-109 0 -187 77.5t-78 187.5zM67 332h397v33q0 58 -28 105q-27 44 -72 69t-98 25t-98 -25t-72 -69 q-29 -48 -29 -105v-18v-2v-3v-4v-2v-4zM132 705q0 47 47 47t47 -47t-47 -47t-47 47zM305 705q0 47 47 47t47 -47t-47 -47t-47 47z" />
<glyph unicode="&#xf2;" horiz-adv-x="600" d="M0 253v125q0 106 74 179.5t178.5 73.5t178.5 -73.5t74 -179.5v-125q0 -106 -74 -179.5t-178.5 -73.5t-178.5 74t-74 179zM63 253q0 -25 6 -48q15 -61 66 -101.5t117.5 -40.5t117 40.5t66.5 101.5q6 23 5 48v125q0 25 -5 48q-15 61 -66 101.5t-117.5 40.5t-117.5 -40 t-66 -102q-6 -23 -6 -48v-125zM94 754v68l317 -106v-67z" />
<glyph unicode="&#xf3;" horiz-adv-x="600" d="M0 253v125q0 106 74 179.5t178.5 73.5t178.5 -73.5t74 -179.5v-125q0 -106 -74 -179.5t-178.5 -73.5t-178.5 74t-74 179zM63 253q0 -25 6 -48q15 -61 66 -101.5t117.5 -40.5t117 40.5t66.5 101.5q6 23 5 48v125q0 25 -5 48q-15 61 -66 101.5t-117.5 40.5t-117.5 -40 t-66 -102q-6 -23 -6 -48v-125zM94 649v67l317 106v-68z" />
<glyph unicode="&#xf4;" horiz-adv-x="600" d="M0 253v125q0 106 74 179.5t178.5 73.5t178.5 -73.5t74 -179.5v-125q0 -106 -74 -179.5t-178.5 -73.5t-178.5 74t-74 179zM63 253q0 -25 6 -48q15 -61 66 -101.5t117.5 -40.5t117 40.5t66.5 101.5q6 23 5 48v125q0 25 -5 48q-15 61 -66 101.5t-117.5 40.5t-117.5 -40 t-66 -102q-6 -23 -6 -48v-125zM94 670v67l159 52l158 -52v-67l-158 54z" />
<glyph unicode="&#xf6;" horiz-adv-x="602" d="M0 253v125q0 106 74 179.5t178.5 73.5t178.5 -73.5t74 -179.5v-125q0 -106 -74 -179.5t-178.5 -73.5t-178.5 74t-74 179zM63 253q0 -25 6 -48q15 -61 66 -101.5t117.5 -40.5t117 40.5t66.5 101.5q6 23 5 48v125q0 25 -5 48q-15 61 -66 101.5t-117.5 40.5t-117.5 -40 t-66 -102q-6 -23 -6 -48v-125zM119 705q0 47 47 47t47 -47t-47 -47t-47 47zM292 705q0 47 47 47t47 -47t-47 -47t-47 47z" />
<glyph unicode="&#xf9;" horiz-adv-x="600" d="M0 253v378h63v-378q0 -25 6 -48q15 -61 66 -101.5t117.5 -40.5t117 40.5t66.5 101.5q6 23 5 48v378h64v-378q0 -106 -74 -179.5t-178.5 -73.5t-178.5 74t-74 179zM94 754v68l317 -106v-67z" />
<glyph unicode="&#xfa;" horiz-adv-x="600" d="M0 253v378h63v-378q0 -25 6 -48q15 -61 66 -101.5t117.5 -40.5t117 40.5t66.5 101.5q6 23 5 48v378h64v-378q0 -106 -74 -179.5t-178.5 -73.5t-178.5 74t-74 179zM94 649v67l317 106v-68z" />
<glyph unicode="&#xfb;" horiz-adv-x="600" d="M0 253v378h63v-378q0 -25 6 -48q15 -61 66 -101.5t117.5 -40.5t117 40.5t66.5 101.5q6 23 5 48v378h64v-378q0 -106 -74 -179.5t-178.5 -73.5t-178.5 74t-74 179zM94 670v67l159 52l158 -52v-67l-158 54z" />
<glyph unicode="&#xfc;" horiz-adv-x="600" d="M0 253v378h63v-378q0 -25 6 -48q15 -61 66 -101.5t117.5 -40.5t117 40.5t66.5 101.5q6 23 5 48v378h64v-378q0 -106 -74 -179.5t-178.5 -73.5t-178.5 74t-74 179zM119 705q0 47 47 47t47 -47t-47 -47t-47 47zM292 705q0 47 47 47t47 -47t-47 -47t-47 47z" />
<glyph unicode="&#x2000;" horiz-adv-x="640" />
<glyph unicode="&#x2001;" horiz-adv-x="1280" />
<glyph unicode="&#x2002;" horiz-adv-x="640" />
<glyph unicode="&#x2003;" horiz-adv-x="1280" />
<glyph unicode="&#x2004;" horiz-adv-x="426" />
<glyph unicode="&#x2005;" horiz-adv-x="320" />
<glyph unicode="&#x2006;" horiz-adv-x="213" />
<glyph unicode="&#x2007;" horiz-adv-x="213" />
<glyph unicode="&#x2008;" horiz-adv-x="160" />
<glyph unicode="&#x2009;" horiz-adv-x="256" />
<glyph unicode="&#x200a;" horiz-adv-x="71" />
<glyph unicode="&#x2010;" d="M0 342v63h505v-63h-505z" />
<glyph unicode="&#x2011;" d="M0 342v63h505v-63h-505z" />
<glyph unicode="&#x2012;" d="M0 342v63h505v-63h-505z" />
<glyph unicode="&#x2013;" horiz-adv-x="1158" d="M0 342v63h1024v-63h-1024z" />
<glyph unicode="&#x2014;" horiz-adv-x="2182" d="M0 342v63h2048v-63h-2048z" />
<glyph unicode="&#x202f;" horiz-adv-x="256" />
<glyph unicode="&#x205f;" horiz-adv-x="320" />
<glyph unicode="&#x25fc;" horiz-adv-x="633" d="M0 0v633h633v-633h-633z" />
</font>
</defs>
</svg>
