<?xml version="1.0" standalone="no"?>
<!DOCTYPE svg PUBLIC "-//W3C//DTD SVG 1.1//EN" "http://www.w3.org/Graphics/SVG/1.1/DTD/svg11.dtd" >
<svg xmlns="http://www.w3.org/2000/svg">
<metadata></metadata>
<defs>
<font id="bree_serifitalic" horiz-adv-x="1097" >
<font-face units-per-em="2048" ascent="1536" descent="-512" />
<missing-glyph horiz-adv-x="415" />
<glyph unicode="&#xfb01;" horiz-adv-x="1226" d="M-203 -406l80 175q65 -35 133 -35q63 0 96 33t50 122l174 971h-137l30 172h137l15 84q32 193 142 279t306 86q103 0 210.5 -34t160.5 -73l-82 -153q-140 79 -281 79q-95 0 -145 -43.5t-68 -132.5l-16 -92h629l-148 -837q-4 -29 4 -38t37 -7l78 2l-26 -154 q-71 -23 -170 -23q-112 0 -148.5 57t-15.5 167l108 602q12 59 -45 59h-332l-176 -973q-9 -48 -15 -76.5t-20 -71t-29.5 -68t-42.5 -55.5t-60.5 -46.5t-82 -27.5t-108.5 -11q-67 0 -133.5 17t-108.5 46z" />
<glyph unicode="&#xfb02;" horiz-adv-x="1232" d="M-203 -406l80 175q65 -35 133 -35q63 0 96 33t50 122l174 971h-137l30 172h137l15 84q50 332 340 361q18 4 92 4q158 -8 287 -82l143 61h76l-223 -1265q-4 -29 3.5 -38t34.5 -7l80 2l-26 -154q-77 -23 -170 -23q-112 0 -149 57t-17 167l180 1013q0 3 1 9.5t1 9.5 q-109 69 -235 69q-73 0 -115 -44t-60 -132l-16 -92h256l-29 -172h-256l-176 -973q-9 -48 -15 -76.5t-20 -71t-29.5 -68t-42.5 -55.5t-60.5 -46.5t-82 -27.5t-108.5 -11q-67 0 -133.5 17t-108.5 46z" />
<glyph unicode="&#xfb03;" horiz-adv-x="1875" d="M-203 -406l80 175q65 -35 133 -35q63 0 96 33t50 122l174 971h-137l30 172h137l11 64q9 59 23.5 107.5t44 98t70.5 83t105.5 54.5t147.5 21q133 0 246 -65l-66 -152q-66 37 -156 37q-76 0 -118 -45t-54 -135l-12 -68h408l14 84q32 192 142 278.5t307 86.5q103 0 210 -34 t160 -73l-82 -153q-140 79 -280 79q-95 0 -145 -43.5t-68 -132.5l-17 -92h629l-147 -837q-4 -29 4 -38t37 -7l77 2l-26 -154q-71 -23 -170 -23q-112 0 -148.5 57t-15.5 167l108 602q12 59 -45 59h-331l-176 -973q-8 -42 -13.5 -67t-16 -63t-23 -61.5t-31.5 -52.5t-44 -46.5 t-58 -34t-76.5 -24t-96.5 -7.5q-67 0 -133.5 17t-108.5 46l80 175q65 -35 133 -35q63 0 96 33t50 122l174 971h-406l-176 -973q-9 -48 -15 -76.5t-20 -71t-29.5 -68t-42.5 -55.5t-60.5 -46.5t-82 -27.5t-108.5 -11q-67 0 -133.5 17t-108.5 46z" />
<glyph unicode="&#xfb04;" horiz-adv-x="1882" d="M-203 -406l80 175q65 -35 133 -35q63 0 96 33t50 122l174 971h-137l30 172h137l11 64q9 59 23.5 107.5t44 98t70.5 83t105.5 54.5t147.5 21q133 0 246 -65l-66 -152q-66 37 -156 37q-76 0 -118 -45t-54 -135l-12 -68h408l14 84q50 332 340 361q18 4 92 4q158 -8 287 -82 l143 61h76l-223 -1265q-4 -29 4 -38t35 -7l80 2l-27 -154q-77 -23 -170 -23q-112 0 -149 57t-17 167l180 1013q0 3 1 9.5t1 9.5q-109 69 -235 69q-73 0 -114.5 -43.5t-59.5 -132.5l-17 -92h256l-28 -172h-256l-176 -973q-8 -42 -13.5 -67t-16 -63t-23 -61.5t-31.5 -52.5 t-44 -46.5t-58 -34t-76.5 -24t-96.5 -7.5q-67 0 -133.5 17t-108.5 46l80 175q65 -35 133 -35q63 0 96 33t50 122l174 971h-406l-176 -973q-9 -48 -15 -76.5t-20 -71t-29.5 -68t-42.5 -55.5t-60.5 -46.5t-82 -27.5t-108.5 -11q-67 0 -133.5 17t-108.5 46z" />
<glyph horiz-adv-x="0" />
<glyph horiz-adv-x="0" />
<glyph horiz-adv-x="682" />
<glyph unicode="&#xd;" horiz-adv-x="450" />
<glyph unicode=" "  horiz-adv-x="415" />
<glyph unicode="&#x09;" horiz-adv-x="415" />
<glyph unicode="&#xa0;" horiz-adv-x="415" />
<glyph unicode="!" horiz-adv-x="567" d="M156 84q0 63 48 109.5t115 46.5q58 0 90.5 -31t32.5 -80q0 -64 -47.5 -112t-118.5 -48q-58 0 -89 32.5t-31 82.5zM274 360l80 689l43 241q14 96 129 96q63 0 85 -26.5t14 -71.5l-43 -239l-162 -689h-146z" />
<glyph unicode="&#x22;" horiz-adv-x="714" d="M293 891l61 471h191l-101 -471h-151zM586 891l61 471h193l-103 -471h-151z" />
<glyph unicode="#" horiz-adv-x="1093" d="M98 322l25 137h217l86 317h-209l23 135h221l86 328h149l-88 -328h226l88 328h149l-88 -328h207l-23 -135h-219l-84 -317h207l-24 -137h-218l-84 -322h-149l84 322h-225l-84 -322h-150l84 322h-207zM489 459h228l84 317h-226z" />
<glyph unicode="$" horiz-adv-x="1081" d="M82 70l59 321l205 15l-22 -132q-6 -26 -2 -40t26 -21q62 -16 150 -16l71 409q-128 52 -173 80q-138 84 -147 234q-1 12 -1 24q0 168 112.5 278t341.5 134l31 174h152l-31 -170q178 -7 307 -70l-55 -309l-199 -16l23 129q6 24 0.5 38t-27.5 21q-27 9 -84 12l-65 -374 q131 -61 165 -82q112 -68 140 -172q12 -43 12 -95q0 -176 -111.5 -294t-345.5 -142l-39 -227h-151l39 221q-227 2 -381 70zM506 991q0 -61 25 -90.5t81 -52.5l56 309q-71 -14 -116.5 -54t-45.5 -112zM651 213q158 41 158 184q0 48 -23 81.5t-77 62.5z" />
<glyph unicode="%" horiz-adv-x="1640" d="M219 860q0 218 102 352t279 134q252 0 252 -265q0 -70 -11.5 -135.5t-39 -129.5t-69 -111t-107.5 -76t-148 -29q-120 0 -189 66.5t-69 193.5zM391 858q0 -125 103 -125q107 0 151 133q29 91 29 219q0 71 -24.5 100t-71.5 29q-138 0 -177 -237q-10 -78 -10 -119zM449 55 l823 1282l153 -69l-829 -1284zM1012 227q0 218 102 352t279 134q252 0 252 -264q0 -70 -11.5 -136t-39 -130t-69 -111t-107.5 -76t-148 -29q-120 0 -189 66.5t-69 193.5zM1184 225q0 -125 102 -125q108 0 152 133q28 88 28 220q0 71 -24.5 100t-71.5 29q-137 0 -176 -238 q-10 -78 -10 -119z" />
<glyph unicode="&#x26;" horiz-adv-x="1492" d="M184 371q0 153 82.5 258.5t229.5 181.5q-33 80 -33 143q0 73 17 136t55 118t95.5 94t143.5 61.5t193 22.5q224 0 376 -86l-49 -282l-200 -19l18 113q6 24 3 36.5t-19 22.5q-42 25 -135 25q-123 0 -196 -62.5t-73 -181.5q0 -94 55.5 -154t182.5 -104l-74 -164 q-165 52 -254 134q-88 -52 -134 -113.5t-46 -153.5q0 -112 77.5 -175.5t223.5 -63.5q98 0 180 33.5t135.5 106.5t53.5 173q0 88 -58 182l53 129q92 -5 222 15.5t231 56.5l27 -186q-31 -18 -99 -28.5t-139 -10.5q-41 0 -59 2q47 -83 47 -180q0 -96 -39 -181t-113 -152.5 t-194 -107t-271 -39.5q-248 0 -382 108t-134 292z" />
<glyph unicode="'" horiz-adv-x="421" d="M293 891l61 471h191l-101 -471h-151z" />
<glyph unicode="(" horiz-adv-x="667" d="M215 346q0 295 114.5 576t336.5 577l186 -98q-204 -298 -298.5 -540t-94.5 -511q0 -314 98 -620l-203 -88q-67 153 -103 342.5t-36 361.5z" />
<glyph unicode=")" horiz-adv-x="667" d="M6 -260q208 308 301.5 543t93.5 505q0 320 -96 617l207 78q61 -164 95 -348.5t34 -354.5q0 -301 -116 -581.5t-341 -563.5z" />
<glyph unicode="*" horiz-adv-x="866" d="M274 1184l23 86q12 43 38 63.5t57 17t61 -25.5l159 -121l-14 314l76 20q70 18 97 -17.5t3 -97.5l-94 -221l297 162l31 -59q29 -57 9.5 -96.5t-79.5 -45.5l-250 -18l219 -199l-55 -61q-40 -46 -85 -42.5t-67 62.5l-75 203l-172 -268l-80 34q-48 23 -47.5 63.5t53.5 76.5 l199 137z" />
<glyph unicode="+" horiz-adv-x="1095" d="M223 545l35 200h317l58 330h207l-60 -330h318l-35 -200h-318l-57 -328h-207l60 328h-318z" />
<glyph unicode="," horiz-adv-x="495" d="M96 31l54 188q99 31 166 18.5t100.5 -51t31.5 -98t-40 -121.5l-177 -291l-125 52l95 247q11 34 -2 45t-54 11h-49z" />
<glyph unicode="-" horiz-adv-x="653" d="M141 496l35 188h537l-35 -188h-537z" />
<glyph unicode="." horiz-adv-x="473" d="M109 90q0 72 48.5 119t123.5 47q61 0 94 -30.5t33 -82.5q0 -71 -48 -120.5t-124 -49.5q-62 0 -94.5 31t-32.5 86z" />
<glyph unicode="/" horiz-adv-x="884" d="M0 -147l924 1693l194 -92l-932 -1696z" />
<glyph unicode="0" horiz-adv-x="1124" d="M172 442q0 192 36.5 353.5t109 286t191 194.5t273.5 70q398 0 398 -472q0 -154 -19.5 -284.5t-65 -245t-114.5 -194t-173 -125t-235 -45.5q-195 0 -298 115.5t-103 346.5zM412 436q0 -260 186 -260q105 0 170 70.5t104 202.5q30 104 47 226.5t17 211.5q0 260 -182 260 q-137 0 -212.5 -120.5t-109.5 -356.5q-20 -129 -20 -234z" />
<glyph unicode="1" horiz-adv-x="903" d="M154 0l26 152l199 12q32 2 45 13t20 50l150 852q-66 -57 -167 -102t-169 -55l-45 178q121 23 241 81.5t214 137.5h213l-205 -1151l237 -14l-28 -154h-731z" />
<glyph unicode="2" horiz-adv-x="1030" d="M82 0l27 158l528 508q63 63 91.5 94t60 74.5t42.5 81.5t11 85q0 80 -46 114t-145 34q-67 0 -129 -16q-23 -7 -30.5 -19t-12.5 -41l-20 -115l-199 -14l53 313q81 40 190.5 64.5t221.5 24.5q187 0 282 -85t95 -237q0 -118 -63 -221.5t-193 -222.5l-432 -402h600l-31 -178 h-901z" />
<glyph unicode="3" horiz-adv-x="1019" d="M127 178q69 -5 141.5 -2.5t141 7t129 22.5t106 44.5t72 73t26.5 107.5q0 90 -57 130t-170 40h-123l49 170h205q70 37 121 99.5t51 136.5q0 143 -170 143q-83 0 -133 -16q-27 -10 -33.5 -21t-11.5 -43l-18 -102l-201 -19l53 309q199 89 408 89q181 0 271.5 -81t90.5 -214 q0 -118 -65.5 -204t-190.5 -151q78 -38 125 -106t47 -162q0 -128 -62.5 -221t-177.5 -145.5t-268.5 -73.5t-343.5 -11z" />
<glyph unicode="4" horiz-adv-x="1083" d="M111 346l32 184l541 822l195 -97l-494 -731h315l23 123l137 248h146l-66 -371h184l-32 -180h-185l-30 -176l129 -10l-27 -158h-508l27 154l88 8q32 5 44.5 15.5t16.5 45.5l23 123h-559z" />
<glyph unicode="5" horiz-adv-x="980" d="M119 176q116 -3 207 3t170 25.5t131.5 52.5t82 85t29.5 123q0 33 -9.5 60t-23.5 47t-40 35.5t-49.5 25.5t-62 17.5t-68 11t-76.5 5.5t-78 2.5t-82 0.5l192 649h430q32 0 45 11t19 42l12 68l197 8l-53 -309h-482l-94 -308q473 -32 473 -360q0 -180 -103 -296t-293 -165 t-464 -37z" />
<glyph unicode="6" horiz-adv-x="1075" d="M188 432q0 82 12.5 165t42.5 171.5t75 169t114.5 156t156 134.5t204.5 101.5t256 59.5l18 -189q-220 -30 -373 -141t-217 -305q147 88 307 88q143 0 225.5 -87t82.5 -241q0 -106 -35 -202.5t-99 -171t-162.5 -119t-217.5 -44.5q-202 0 -296 120t-94 335zM424 397 q0 -117 40.5 -177t129.5 -60q111 0 183.5 94.5t72.5 241.5q0 83 -39.5 129.5t-116.5 46.5q-60 0 -135.5 -27t-116.5 -61q-18 -105 -18 -187z" />
<glyph unicode="7" horiz-adv-x="997" d="M197 979l59 340h934l-27 -160q-138 -148 -239 -285.5t-178.5 -286t-131.5 -285t-120 -333.5l-250 43q122 371 272 626t387 501h-434q-29 0 -38 -9.5t-15 -42.5l-21 -98z" />
<glyph unicode="8" horiz-adv-x="1032" d="M133 279q0 63 18.5 120t48.5 99.5t74.5 81.5t88 66.5t98.5 55.5q-168 100 -168 273q0 163 122.5 267t348.5 104q178 0 270 -79t92 -196q0 -67 -32.5 -131t-69.5 -101.5t-78 -64.5l-143 92q58 56 76 85q28 45 28 98q0 62 -43.5 97.5t-124.5 35.5q-39 0 -72.5 -7.5t-66 -26 t-51.5 -55.5t-19 -89q0 -28 9.5 -53t20 -41.5t37.5 -37.5t42.5 -31.5t54.5 -33.5q9 -5 13 -8q87 -54 143.5 -95t103 -89.5t67.5 -100t21 -111.5q0 -63 -16.5 -122t-55 -115.5t-96 -98t-146 -67t-198.5 -25.5q-107 0 -186.5 25.5t-124 69.5t-65.5 96t-21 113zM360 322 q0 -84 50.5 -126t138.5 -42q113 0 178.5 65t65.5 160q0 41 -16 76t-47.5 63t-58.5 46t-67 40q-58 -31 -95.5 -56t-75 -59.5t-55.5 -76t-18 -90.5z" />
<glyph unicode="9" horiz-adv-x="1077" d="M209 182q532 61 627 379q-66 -41 -149 -64.5t-161 -23.5q-156 0 -236.5 97t-80.5 257q0 229 140.5 374t377.5 145q199 0 295 -124t96 -356q0 -83 -9.5 -159.5t-35.5 -162.5t-68 -159t-111.5 -143.5t-160.5 -123t-221 -90t-287 -51.5zM451 844q0 -99 38 -149t121 -50 q63 0 139.5 27.5t112.5 60.5q19 108 19 185q0 247 -176 247q-108 0 -181 -88.5t-73 -232.5z" />
<glyph unicode=":" horiz-adv-x="505" d="M123 90q0 72 48.5 119t123.5 47q61 0 94 -30.5t33 -82.5q0 -71 -48 -120.5t-124 -49.5q-62 0 -94.5 31t-32.5 86zM268 862q0 72 48.5 119t123.5 47q61 0 94 -30.5t33 -82.5q0 -71 -48 -120.5t-124 -49.5q-62 0 -94.5 31t-32.5 86z" />
<glyph unicode=";" horiz-adv-x="512" d="M111 31l53 188q99 31 166 18.5t100.5 -51t31.5 -98t-40 -121.5l-176 -291l-125 52l94 247q11 34 -1.5 45t-53.5 11h-49zM266 862q0 72 48.5 119t123.5 47q61 0 94 -30.5t33 -82.5q0 -71 -48 -120.5t-124 -49.5q-62 0 -94.5 31t-32.5 86z" />
<glyph unicode="&#x3c;" horiz-adv-x="1095" d="M242 573l28 166l805 355l60 -189l-609 -260l504 -264l-106 -176z" />
<glyph unicode="=" horiz-adv-x="1095" d="M193 334l32 196h830l-33 -196h-829zM262 725l33 197h829l-32 -197h-830z" />
<glyph unicode="&#x3e;" horiz-adv-x="1095" d="M215 399l606 260l-502 265l105 176l684 -369l-29 -166l-805 -354z" />
<glyph unicode="?" horiz-adv-x="876" d="M242 86q0 63 48.5 109.5t115.5 46.5q58 0 89 -31t31 -82q0 -62 -47 -110t-117 -48q-58 0 -89 31.5t-31 83.5zM272 1022l52 289q70 33 165 54t189 21q166 0 244.5 -74.5t78.5 -189.5q0 -116 -60 -207t-220 -192q-104 -66 -136.5 -109t-49.5 -143l-19 -104h-188l16 153 q12 120 55.5 184t163.5 138q11 7 37.5 23.5t36 23t30.5 21t28.5 22.5t22 22.5t20 26.5t12.5 29t9.5 35t2.5 40q0 113 -131 113q-66 0 -105 -10q-12 -3 -19 -10.5t-9 -15.5t-6 -27l-19 -99z" />
<glyph unicode="@" horiz-adv-x="1949" d="M197 283q0 218 70 407.5t200.5 331.5t330.5 223.5t445 81.5q324 0 506 -163.5t182 -465.5q0 -331 -170 -514.5t-458 -183.5h-117l4 111l-2 1q-2 1 -6 1q-46 -56 -101.5 -87.5t-146.5 -31.5q-145 0 -216 88.5t-71 232.5q0 91 16 173t54 158.5t96 132t147.5 89t202.5 33.5 q179 0 326 -65l-121 -689q80 6 146.5 39t120.5 96.5t84 169.5t30 246q0 216 -130 342.5t-390 126.5q-157 0 -292.5 -45t-235.5 -125t-171.5 -187.5t-107 -235t-35.5 -265.5q0 -260 129 -405.5t387 -145.5q181 0 334 66l29 -150q-166 -69 -398 -69q-141 0 -255 35.5 t-190.5 97t-128 148.5t-74.5 185.5t-23 211.5zM852 336q0 -193 141 -193q49 0 87 17t60.5 45.5t35.5 57.5t20 61l72 407q-38 23 -117 23q-63 0 -114.5 -25t-85 -66.5t-56.5 -96.5t-33 -112.5t-10 -117.5z" />
<glyph unicode="A" horiz-adv-x="1370" d="M20 0l27 154l59 8q29 4 42 14t30 41l502 971l-107 12l29 162h453l211 -1169q5 -28 14 -36t39 -7l78 2l-27 -152q-67 -23 -156 -23q-103 0 -146 45t-56 144l-39 221h-463l-113 -219l105 -6l-29 -162h-453zM582 559h381l-86 580h-5z" />
<glyph unicode="B" horiz-adv-x="1265" d="M96 0l27 154l63 6q31 5 43 16t19 45l170 971l-107 8l29 162h569q63 0 117.5 -8t107 -28.5t89.5 -52.5t59.5 -84t22.5 -118q0 -127 -75.5 -213t-199.5 -123q107 -20 169.5 -96.5t62.5 -192.5q0 -213 -155.5 -329.5t-447.5 -116.5h-563zM489 180h191q89 0 153 22t98 61 t49 83t15 98q0 90 -59 136.5t-170 46.5h-199zM598 797h152q148 0 220 66t72 175q0 86 -53 119t-158 33h-163z" />
<glyph unicode="C" horiz-adv-x="1263" d="M199 547q0 128 23.5 239t65 195.5t100 152.5t126.5 114.5t146 78t157 45.5t162 14q105 0 209 -20t178 -59l-57 -328l-201 -14l25 149q5 29 0.5 38.5t-27.5 16.5q-60 17 -135 17q-243 0 -376.5 -165t-133.5 -470q0 -176 78.5 -276.5t248.5 -100.5q92 0 156 23q26 7 34 18 t13 41l25 121l198 10l-57 -332q-164 -80 -395 -80q-275 0 -419 147.5t-144 424.5z" />
<glyph unicode="D" horiz-adv-x="1400" d="M96 0l27 154l63 6q31 5 43.5 16t18.5 45l170 971l-107 8l29 162h516q279 0 430.5 -134.5t151.5 -389.5q0 -179 -43 -322.5t-115.5 -238.5t-173 -158.5t-211 -91t-233.5 -27.5h-566zM489 184h175q243 0 379.5 170t136.5 455q0 184 -79 277.5t-265 93.5h-170z" />
<glyph unicode="E" horiz-adv-x="1144" d="M96 0l27 154l63 6q32 4 45 19t19 52l168 961l-107 8l29 162h930l-56 -315l-200 -11l16 94q5 30 -4 40t-39 10h-321l-70 -389h491l-32 -189h-492l-74 -420h340q29 0 39.5 9t18.5 40l20 95l201 6l-59 -332h-953z" />
<glyph unicode="F" horiz-adv-x="1128" d="M96 0l27 154l61 6q33 5 45.5 16.5t18.5 46.5l170 969l-107 8l29 162h948l-55 -328l-201 -12l15 100q6 31 -3 44.5t-40 13.5h-338l-76 -424h479l-33 -191h-479l-70 -395l199 -8l-29 -162h-561z" />
<glyph unicode="G" horiz-adv-x="1353" d="M197 528q0 180 43.5 325.5t117.5 243.5t176.5 164t217.5 95.5t243 29.5q120 0 233 -22.5t177 -58.5l-57 -326l-201 -14l27 145q5 26 0 38t-27 19q-74 19 -166 19q-132 0 -233 -48t-163.5 -136t-94 -207.5t-31.5 -268.5q0 -169 76 -261.5t227 -92.5q125 0 221 47l59 328 l-133 8l27 160h479l-26 -154l-66 -8q-29 -4 -38.5 -15t-14.5 -42l-72 -406q-89 -57 -214 -86t-249 -29q-260 0 -399 142.5t-139 410.5z" />
<glyph unicode="H" horiz-adv-x="1486" d="M96 0l27 154l63 6q31 5 43.5 16.5t18.5 46.5l170 969l-107 8l29 162h471l-27 -156l-61 -6q-32 -5 -46 -16.5t-20 -44.5l-59 -342h576l69 395l-102 8l28 162h465l-26 -156l-62 -6q-31 -5 -44 -16.5t-19 -46.5l-170 -969l104 -6l-28 -162h-469l26 156l64 6q32 5 44.5 17 t18.5 46l66 379h-576l-76 -436l105 -6l-29 -162h-467z" />
<glyph unicode="I" horiz-adv-x="657" d="M92 0l27 154l61 6q36 5 49 17t19 50l168 965l-107 8l29 162h471l-27 -156l-63 -6q-32 -5 -44 -15.5t-18 -43.5l-172 -973l109 -6l-29 -162h-473z" />
<glyph unicode="J" horiz-adv-x="1019" d="M98 57l58 326l200 16l-26 -159q-5 -26 -1 -38t23 -18q50 -16 109 -16q94 0 135 46t57 144l146 834l-148 10l29 160h512l-29 -156l-61 -6q-31 -5 -43.5 -15.5t-18.5 -39.5l-116 -656q-20 -124 -47 -227q-43 -150 -135.5 -218.5t-274.5 -68.5q-109 0 -215 25t-154 57z" />
<glyph unicode="K" horiz-adv-x="1335" d="M96 0l27 154l70 8q28 4 39 18t16 43l170 969l-109 8l27 162h463l-27 -156l-59 -6q-49 -3 -58 -55l-82 -445l535 490v6l-98 6l28 160h445l-27 -154l-55 -6q-27 -4 -45.5 -16t-48.5 -41l-359 -346l240 -588q11 -31 23 -42t40 -11h43q23 0 37 2l-24 -160q-64 -23 -164 -23 q-88 0 -127.5 36t-71.5 122l-196 500l-218 -193l-47 -274l107 -6l-29 -162h-465z" />
<glyph unicode="L" horiz-adv-x="1124" d="M96 0l27 154l63 6q32 5 45 15.5t19 43.5l170 973l-109 8l29 162h479l-26 -154l-68 -8q-34 -5 -46.5 -15.5t-19.5 -49.5l-167 -953h327q34 0 47 12t19 44l26 120l199 9l-63 -367h-951z" />
<glyph unicode="M" horiz-adv-x="1769" d="M76 0l26 154l62 6q29 5 43 19t24 52l234 961l-107 8l29 162h404l167 -924h5l507 924h416l-26 -156l-66 -6q-30 -1 -43 -16.5t-18 -48.5l-113 -967l109 -6l-29 -162h-451l27 154l65 6q31 5 43.5 20t16.5 56l98 768h-4l-485 -850h-193l-172 841h-4l-192 -827l102 -6 l-29 -162h-446z" />
<glyph unicode="N" horiz-adv-x="1480" d="M96 0l27 154l65 6q31 5 43.5 15.5t18.5 41.5l170 975l-107 8l29 162h360l418 -981h4l144 811l-113 8l29 162h461l-27 -156l-64 -6q-19 -3 -25.5 -4.5t-15.5 -7.5t-12.5 -17t-7.5 -32l-203 -1139h-237l-428 989h-4l-144 -821l111 -6l-29 -162h-463z" />
<glyph unicode="O" horiz-adv-x="1372" d="M195 510q0 194 54.5 358t151 277.5t232 177t293.5 63.5q105 0 191.5 -30t154.5 -91.5t105.5 -166.5t37.5 -244q0 -143 -28 -272.5t-86 -240.5t-142 -192.5t-202.5 -127.5t-260.5 -46q-242 0 -371.5 135t-129.5 400zM453 504q0 -145 67.5 -232.5t210.5 -87.5 q67 0 128.5 25t116 79t94.5 131.5t63.5 190t23.5 248.5q0 62 -13.5 116.5t-42 101.5t-80.5 74.5t-122 27.5q-71 0 -132 -23t-106 -62t-81 -93t-59.5 -113.5t-39 -127t-22 -130.5t-6.5 -125z" />
<glyph unicode="P" horiz-adv-x="1232" d="M96 0l27 154l65 8q31 5 42.5 16t17.5 45l170 969l-107 8l29 162h528q225 0 344 -95t119 -282q0 -242 -164 -375t-450 -133h-174l-56 -307l195 -8l-29 -162h-557zM573 659h138q358 0 358 324q0 61 -19.5 101.5t-59 60.5t-86 27.5t-113.5 7.5h-125z" />
<glyph unicode="Q" horiz-adv-x="1349" d="M223 739q0 94 23.5 184.5t75 175t125.5 148t184 101.5t241 38q232 0 368 -123.5t136 -367.5q0 -310 -204.5 -536.5t-528.5 -280.5v-10q135 -58 307 -58h19q165 0 338 49l-35 -217q-119 -41 -287 -41q-195 0 -369.5 52t-279.5 118l49 203q207 17 372 104.5t264 242.5 t99 351q0 156 -65 231t-215 75q-178 0 -276.5 -118.5t-98.5 -299.5q0 -261 276 -295l-59 -160q-205 5 -332 121t-127 313z" />
<glyph unicode="R" horiz-adv-x="1335" d="M96 0l27 154l65 8q31 5 42.5 16.5t17.5 46.5l168 967l-107 8l29 162h534q99 0 178.5 -18t140.5 -56.5t94.5 -103t33.5 -152.5q0 -171 -96.5 -269.5t-257.5 -133.5q51 -16 78 -50t53 -100l110 -272q11 -27 24 -38t38 -11h45q23 0 37 2l-25 -160q-67 -23 -162 -23 q-85 0 -123.5 35.5t-70.5 122.5l-107 283q-26 69 -59.5 94t-102.5 25h-149l-66 -369l109 -6l-29 -162h-469zM582 711h172q140 0 222.5 78t82.5 221q0 98 -64 134t-192 36h-137z" />
<glyph unicode="S" horiz-adv-x="1116" d="M125 49l57 328l205 16l-22 -139q-6 -26 -2 -40t26 -21q66 -19 160 -19q56 0 102.5 9.5t90 33t68 69t24.5 109.5q0 24 -5.5 44.5t-20.5 38t-26.5 29t-39.5 26t-41.5 21t-51 22.5t-51.5 22q-41 17 -64 27t-61 29.5t-60 37t-49.5 45.5t-42.5 58.5t-25.5 71.5t-10.5 89 q0 201 147.5 315.5t390.5 114.5q109 0 213 -21.5t174 -57.5l-55 -320l-201 -16l23 135q6 26 0.5 40t-27.5 21q-71 21 -151 21q-44 0 -83 -8t-78 -26.5t-62 -58t-23 -94.5q0 -33 10.5 -58.5t25 -43t48.5 -36.5t60 -30.5t81 -33.5q47 -20 73 -31.5t66.5 -32.5t63 -39t50 -46.5 t41.5 -58.5t24 -70.5t10 -88.5q0 -216 -148 -336.5t-428 -120.5q-107 0 -218 20t-187 54z" />
<glyph unicode="T" horiz-adv-x="1226" d="M233 1006l62 356h1120l-59 -342l-201 -12l21 116q5 29 -3 42.5t-38 13.5h-193l-176 -1012l145 -6l-28 -162h-547l26 154l95 8q36 5 49 16.5t20 46.5l168 955h-176q-30 0 -42 -12.5t-17 -41.5l-23 -110z" />
<glyph unicode="U" horiz-adv-x="1417" d="M266 276q-5 30 -5 63q0 56 13 122l129 731l-106 8l29 162h471l-27 -156l-65 -6q-32 -5 -44 -15.5t-18 -45.5l-125 -707q-7 -41 -7 -76q0 -88 44 -131q61 -61 197 -61q261 0 307 258l135 772l-100 6l28 162h449l-27 -156l-59 -6q-33 -5 -46.5 -15.5t-19.5 -43.5l-129 -742 q-73 -424 -549 -424q-102 0 -182.5 17t-144 53.5t-100 93.5t-48.5 137z" />
<glyph unicode="V" horiz-adv-x="1296" d="M225 1200l29 162h485l-28 -156l-60 -6q-39 -5 -52 -22t-9 -58l117 -858h4l452 932l-102 6l29 162h436l-27 -156l-45 -4q-29 -1 -46 -15t-34 -50l-573 -1137h-285l-188 1192z" />
<glyph unicode="W" horiz-adv-x="1808" d="M236 1200l28 162h467l-26 -156l-60 -4q-65 -10 -65 -71v-5l26 -815h4l389 942h265l57 -929h4l338 868l-104 8l28 162h438l-26 -156l-45 -4q-30 -2 -47.5 -15.5t-34.5 -51.5l-457 -1135h-278l-62 924h-6l-385 -924h-285l-63 1192z" />
<glyph unicode="X" horiz-adv-x="1292" d="M25 0l26 154l43 4q26 5 44 15.5t40 37.5l445 510l-248 471l-92 10l28 160h475l-26 -154l-55 -4q-33 -4 -38.5 -18.5t7.5 -38.5l137 -277l4 2l264 322l-86 8l29 160h430l-27 -156l-41 -4q-30 -4 -45 -14t-45 -43l-368 -432l284 -545l90 -6l-28 -162h-494l27 156l76 6 q20 2 26.5 15t-4.5 36l-168 338h-4l-319 -385l96 -8l-27 -158h-456z" />
<glyph unicode="Y" horiz-adv-x="1161" d="M211 1200l29 162h475l-27 -156l-63 -4q-43 -2 -43 -34q0 -12 6 -27l131 -414h4l319 467l-94 8l29 160h418l-27 -156l-45 -4q-28 -4 -46 -18t-42 -47l-436 -619l-62 -350l131 -6l-28 -162h-521l27 154l84 6q34 5 48 16.5t20 46.5l51 291l-248 680z" />
<glyph unicode="Z" horiz-adv-x="1134" d="M92 0l33 176l811 1008h-389q-35 0 -49.5 -14.5t-20.5 -49.5l-22 -112l-197 -11l64 365h933l-32 -176l-809 -1008h417q35 0 48.5 12t19.5 48l25 118l196 9l-63 -365h-965z" />
<glyph unicode="[" horiz-adv-x="632" d="M113 -340l317 1802h430l-26 -166h-207l-260 -1470h206l-30 -166h-430z" />
<glyph unicode="\" horiz-adv-x="876" d="M285 1495l223 51l330 -1693l-222 -52z" />
<glyph unicode="]" horiz-adv-x="632" d="M-33 -340l27 166h207l260 1470h-207l31 166h430l-318 -1802h-430z" />
<glyph unicode="^" horiz-adv-x="1132" d="M209 618l518 764h178l244 -764l-203 -32l-170 549l-364 -549z" />
<glyph unicode="_" horiz-adv-x="1024" d="M-53 -301l26 149h1024l-26 -149h-1024z" />
<glyph unicode="`" horiz-adv-x="1024" d="M578 1479q0 40 20.5 63.5t71.5 42.5l78 29l182 -406l-92 -53l-211 231q-49 49 -49 93z" />
<glyph unicode="a" horiz-adv-x="1157" d="M164 340q0 157 39 287t116 227t199.5 151t280.5 54q178 0 356 -74l-137 -797q-5 -25 2.5 -34t36.5 -9q27 0 43 2q15 0 33 3l-27 -152q-64 -23 -152 -23q-86 -1 -122 41q-29 34 -28 84q0 11 1 23h-6q-43 -69 -121.5 -110.5t-179.5 -41.5q-172 0 -253 99.5t-81 269.5z M416 354q0 -44 6.5 -77.5t22 -63.5t47 -46.5t77.5 -16.5q87 0 153.5 60t88.5 179l80 463q-66 27 -135 27q-75 0 -135 -32.5t-97.5 -84t-62.5 -122t-35 -141t-10 -145.5z" />
<glyph unicode="b" horiz-adv-x="1148" d="M174 59l209 1182q6 31 -4 44t-37 15l-66 7l29 153h357l-91 -520h2q96 119 277 119q153 0 232 -99.5t79 -293.5q0 -326 -152 -510.5t-446 -184.5q-101 0 -217 26.5t-172 61.5zM438 190q61 -36 156 -36q85 0 149 46t98 121.5t50 156t16 165.5q0 116 -38 176t-128 60 q-83 0 -139.5 -46t-73.5 -141z" />
<glyph unicode="c" horiz-adv-x="987" d="M164 379q0 147 34.5 265t91.5 194.5t135 127t161 72t174 21.5q188 0 301 -80l-47 -279l-193 -12l19 109q5 27 0 39.5t-25 19.5q-29 10 -80 10q-145 0 -231 -118.5t-86 -339.5q0 -110 48 -174t152 -64q115 0 252 88l68 -170q-72 -52 -169.5 -84.5t-207.5 -32.5 q-193 0 -295 107t-102 301z" />
<glyph unicode="d" horiz-adv-x="1161" d="M164 340q0 156 39 287t113.5 227.5t190 150.5t261.5 54q93 0 160 -19l35 201q6 31 -3.5 42.5t-37.5 16.5l-70 7l29 153h360l-223 -1274q-5 -25 3.5 -34t37.5 -9l74 4l-27 -151q-64 -23 -154 -23q-86 0 -120 41q-28 33 -29 84q0 12 2 25h-6q-109 -152 -312 -152 q-164 0 -243.5 100t-79.5 269zM416 350q0 -42 6.5 -74.5t22 -61.5t46.5 -44.5t76 -15.5q91 0 158.5 67t91.5 197l76 434q-59 27 -137 27q-90 0 -159 -50.5t-107 -131.5t-56 -169t-18 -178z" />
<glyph unicode="e" horiz-adv-x="1013" d="M164 371q0 142 42 266.5t118.5 218.5t193.5 148.5t258 54.5q139 0 215 -64.5t76 -197.5q0 -112 -46 -190.5t-134.5 -122.5t-206.5 -61q-87 -13 -194 -13q-38 0 -78 2q-2 -20 -2 -38q0 -212 204 -212q143 0 275 84l51 -170q-49 -34 -151 -69.5t-230 -35.5 q-198 0 -294.5 109t-96.5 291zM434 586q20 0 40 -1q72 1 128 7q72 8 129.5 27.5t87 58.5t29.5 96q0 107 -115 107q-113 0 -195 -87.5t-104 -207.5z" />
<glyph unicode="f" horiz-adv-x="737" d="M-203 -406l80 175q65 -35 133 -35q63 0 96 33t50 122l174 971h-137l30 172h137l15 84q13 84 39 147t72.5 114t122 77.5t179.5 26.5q154 0 254 -66l-79 -160q-74 45 -170 45q-76 0 -117 -39.5t-58 -136.5l-16 -92h283l-29 -172h-283l-176 -973q-9 -47 -15.5 -76.5 t-20.5 -71t-30 -68t-43 -56t-60.5 -46t-81.5 -27.5t-107 -11q-67 0 -133.5 17t-108.5 46z" />
<glyph unicode="g" horiz-adv-x="1114" d="M147 -219q0 67 24.5 121t71.5 94t96.5 67.5t119.5 55.5q-59 6 -108.5 28.5t-90.5 62t-64.5 104t-23.5 147.5q0 266 167 432t427 166q96 0 199 -19.5t180 -54.5l-133 -760l-41 -215q-52 -243 -176 -361t-340 -118q-150 0 -229 68t-79 182zM373 -178q0 -111 123 -111 q46 0 83 18t61.5 46.5t44 73.5t31.5 88.5t23 101.5l21 117q-37 -39 -73 -64.5t-101 -56.5q-56 -26 -85 -42t-63.5 -42.5t-49.5 -57.5t-15 -71zM414 461q0 -101 38.5 -158t135.5 -57q85 0 145 54t78 159l68 395q-62 23 -140 23q-69 0 -125 -24.5t-92.5 -65.5t-61.5 -95.5 t-35.5 -112t-10.5 -118.5z" />
<glyph unicode="h" horiz-adv-x="1189" d="M172 0l217 1239q6 34 -1.5 44t-37.5 15l-67 9l28 153h353l-99 -565h2q113 164 307 164q157 0 227 -89q48 -61 48 -165q0 -47 -10 -103l-92 -507q-4 -28 3.5 -36.5t34.5 -8.5h39q19 0 29 2l-27 -152q-67 -23 -157 -23q-112 0 -149 54q-25 36 -25 95q0 28 6 62l86 463 q10 45 10 81q0 130 -129 130q-203 0 -252 -284l-102 -578h-242z" />
<glyph unicode="i" horiz-adv-x="589" d="M203 199l110 612q6 35 -1.5 45.5t-37.5 15.5l-59 5l29 155h350l-148 -837q-4 -29 3 -37t36 -8h45q23 0 35 2l-28 -154q-71 -23 -168 -23q-111 0 -149 57q-24 37 -25 95q0 33 8 72zM356 1303q0 67 51 114t125 47q59 0 93 -31t34 -83q0 -71 -52 -118.5t-126 -47.5 q-59 0 -92 32t-33 87z" />
<glyph unicode="j" horiz-adv-x="581" d="M-203 -406l80 175q65 -35 133 -35q63 0 96 37t50 129l161 911q6 32 -1.5 44.5t-36.5 16.5l-66 5l27 155h360l-203 -1138q-9 -50 -15 -77.5t-19.5 -72t-29 -70t-42.5 -56.5t-60.5 -47.5t-82.5 -28t-109 -11.5q-67 0 -133.5 17t-108.5 46zM356 1303q0 67 51 114t125 47 q59 0 93 -31t34 -83q0 -71 -52 -118.5t-126 -47.5q-59 0 -92 32t-33 87z" />
<glyph unicode="k" horiz-adv-x="1140" d="M172 0l217 1241q6 34 -1 43t-38 14l-65 9l28 153h357l-117 -653h6q62 125 157 188.5t210 63.5q128 0 188 -57.5t60 -174.5q0 -125 -74 -226.5t-219 -166.5l82 -225q12 -29 23 -40t36 -11h49q23 0 33 2l-27 -160q-64 -23 -166 -23q-82 0 -118.5 36t-63.5 124l-80 238 q-69 -18 -172 -21l-63 -354h-242zM498 508q197 18 310.5 88.5t113.5 185.5q0 95 -95 95q-91 0 -178.5 -92t-150.5 -277z" />
<glyph unicode="l" horiz-adv-x="593" d="M207 199l188 1042q6 34 -2 43t-39 14l-57 9l29 153h348l-223 -1265q-4 -28 3.5 -36.5t34.5 -8.5h48q22 0 32 2l-26 -154q-77 -23 -170 -23q-112 0 -149 57q-24 37 -24 96q0 32 7 71z" />
<glyph unicode="m" horiz-adv-x="1742" d="M176 0l143 811q6 34 -2 45t-38 16l-64 5l27 155h331l-20 -139h2q53 83 137.5 124.5t181.5 41.5q199 0 240 -176q115 176 330 176q155 0 219 -90q43 -61 43 -159q0 -48 -10 -105l-90 -515q-5 -22 2.5 -32.5t36.5 -10.5h38q15 0 33 3l-26 -152q-67 -23 -160 -23 q-112 0 -149 54q-25 36 -25 95q0 28 6 62l84 467q8 43 8 78q0 45 -14 75q-24 54 -109 54q-93 0 -149 -61.5t-74 -165.5l-115 -633h-239l114 651q8 45 8 80q0 45 -14 75q-24 54 -114 54q-89 0 -145.5 -67.5t-76.5 -178.5l-110 -614h-240z" />
<glyph unicode="n" horiz-adv-x="1193" d="M176 0l143 811q6 32 -1.5 43t-36.5 16l-60 7l29 155h330l-23 -137h2q59 82 135 123t183 41q158 0 228 -89q48 -61 48 -165q0 -47 -10 -103l-92 -509q-4 -29 3.5 -37.5t37.5 -8.5h41q11 0 26 3l-26 -152q-67 -23 -160 -23q-112 0 -149 54q-25 36 -25 95q0 28 6 62l86 465 q9 45 9 80q0 129 -126 129q-52 0 -93 -16t-67.5 -41t-46 -63.5t-29.5 -76t-18 -85.5l-104 -578h-240z" />
<glyph unicode="o" d="M164 358q0 114 20.5 215.5t65.5 191t111 154.5t162 102.5t214 37.5q48 0 93.5 -8t98.5 -32.5t92 -64t65 -110t26 -162.5q0 -114 -19.5 -216t-63.5 -193.5t-109.5 -158t-162.5 -105t-216 -38.5q-184 0 -280.5 98t-96.5 289zM412 362q0 -99 35.5 -152.5t123.5 -53.5 q68 0 121.5 37t85 92.5t51.5 127.5t27.5 134.5t7.5 122.5q0 209 -159 209q-69 0 -123 -36.5t-85 -91.5t-51 -127.5t-27 -135.5t-7 -126z" />
<glyph unicode="p" horiz-adv-x="1153" d="M92 -444l221 1257q2 6 2 23q0 18 -8 23.5t-33 10.5l-63 7l27 155h335l-16 -127q115 154 307 154q152 0 227.5 -104t75.5 -273q0 -211 -60.5 -370t-182.5 -250t-291 -91q-126 0 -213 60l-86 -475h-242zM451 219q83 -59 165 -59q77 0 136 41.5t93 111.5t51 154t17 178 q0 44 -4.5 77t-18.5 70t-46.5 57.5t-81.5 20.5q-88 0 -151.5 -63t-86.5 -182z" />
<glyph unicode="q" horiz-adv-x="1132" d="M164 340q0 157 39 287t116 227t199.5 151t280.5 54q180 0 358 -74l-217 -1241q-5 -25 2.5 -34t36.5 -9q21 0 39 2q21 0 35 2l-25 -151q-64 -23 -154 -23q-91 0 -129 49q-28 35 -28 89q0 20 4 42l74 414q-60 -79 -128.5 -116.5t-168.5 -37.5q-172 0 -253 99.5t-81 269.5z M416 344q0 -190 153 -190q85 0 155 66.5t93 209.5l74 422q-66 27 -135 27q-91 0 -159.5 -50.5t-106.5 -132.5t-56 -171t-18 -181z" />
<glyph unicode="r" horiz-adv-x="952" d="M174 0l143 815q6 30 -0.5 40t-33.5 15l-70 7l29 155h329l-22 -153h2q107 180 321 180q119 0 183 -39l-60 -338l-207 -14l23 120q9 46 -8 56q-16 8 -58 8q-84 0 -142 -65.5t-81 -184.5l-106 -602h-242z" />
<glyph unicode="s" horiz-adv-x="931" d="M111 43l45 257l188 17l-16 -104q-4 -23 0.5 -33t23.5 -18q44 -19 123 -19q84 0 137.5 36.5t53.5 111.5q0 18 -4 32.5t-14.5 26.5t-19 19.5t-28 16.5t-30 13.5t-36 13.5t-36.5 13q-35 12 -55 19.5t-52.5 23t-52 29.5t-43.5 37.5t-37 49.5t-22 62t-9 78q0 160 116.5 247 t330.5 87q91 0 179 -18t146 -52l-45 -241l-184 -17l16 90q5 26 0.5 37.5t-22.5 18.5q-44 14 -111 14q-81 0 -133.5 -32.5t-52.5 -100.5q0 -24 10.5 -43.5t22.5 -32t41.5 -26.5t44.5 -20t55 -20q122 -47 164 -74q102 -65 109 -189q1 -11 1 -23q0 -168 -115.5 -263.5 t-332.5 -95.5q-96 0 -198.5 21.5t-157.5 50.5z" />
<glyph unicode="t" horiz-adv-x="776" d="M188 854l52 160q99 16 156 74t118 178h133l-43 -234h268l-45 -178h-254l-92 -535q-8 -42 -8 -71q0 -36 12 -54q21 -32 86 -32q67 0 160 43l29 -166q-115 -68 -271 -68q-63 0 -110.5 11.5t-77 30t-48.5 47t-27 56.5t-8 64q0 5 -1 8q-1 32 3 56q4 28 11 63l99 547h-142z " />
<glyph unicode="u" horiz-adv-x="1173" d="M211 877l27 155h352l-119 -665q-8 -47 -8 -82q0 -45 13 -71q23 -48 110 -48q37 0 72 12t69.5 38t61 76t38.5 118l109 622h244l-150 -839q-4 -26 4 -34.5t37 -8.5t45 2q19 0 29 2l-27 -156q-70 -25 -151 -25t-123 37q-36 32 -36 102q0 10 1 21h-6q-52 -82 -132.5 -122 t-176.5 -40q-166 0 -234 97q-47 67 -46 169q0 45 9 97l84 479q6 31 -2.5 42.5t-36.5 16.5z" />
<glyph unicode="v" horiz-adv-x="1128" d="M203 874l26 152q71 23 160 23q110 1 146 -57q23 -37 23 -95q0 -32 -7 -70l-76 -450q-5 -34 -7 -53t-3 -47.5t5.5 -44.5t18.5 -32.5t35 -24t56 -7.5q78 0 138 48.5t95.5 134t53.5 194t18 237.5q0 142 -11 250h238q14 -138 14 -237q0 -824 -589 -824q-189 -1 -266 99 q-54 70 -54 182q0 48 10 104l82 475q4 28 -4 37t-35 9q-7 0 -21.5 -1.5t-21.5 -1.5h-24z" />
<glyph unicode="w" horiz-adv-x="1683" d="M205 874l26 152q71 23 160 23q110 1 146 -57q23 -37 23 -95q0 -32 -7 -70l-78 -442q-4 -29 -5.5 -42t-4 -39t-0.5 -38t5.5 -31t12 -28.5t21 -20t32 -14.5t44.5 -4q86 0 143 50t74 138l118 676h242l-115 -643q-4 -27 -5.5 -36t-4 -34t-2 -35t2 -30t6.5 -29t13.5 -22.5 t20.5 -19.5t30 -10.5t40 -4.5q95 0 163 82.5t100 217t32 306.5q0 156 -13 258h240q14 -147 14 -250q0 -182 -33 -328.5t-99.5 -255.5t-173 -168t-247.5 -59q-222 0 -260 172q-128 -172 -352 -172q-175 0 -246 100q-50 70 -50 178q0 45 9 97l84 488q4 25 -4.5 34t-34.5 9 q-3 0 -18 -1.5t-23 -1.5h-26z" />
<glyph unicode="x" horiz-adv-x="1105" d="M57 0l27 150l47 6q32 5 47 12.5t33 30.5l295 338l-158 297q-11 21 -22 27.5t-37 6.5q-4 0 -20.5 -1t-26.5 -1h-33l22 160q90 23 148 23q73 0 114.5 -31t75.5 -103l121 -253h4l178 208l-94 9l27 153h418l-27 -155l-51 -5q-28 -1 -45.5 -11t-38.5 -34l-266 -303l159 -315 q17 -25 31.5 -33t40.5 -8h49q23 0 37 2l-25 -160q-56 -22 -141 -22q-82 0 -125.5 32t-81.5 109l-133 268h-2l-198 -239l102 -6l-27 -152h-424z" />
<glyph unicode="y" horiz-adv-x="1159" d="M172 -215q0 113 68 191t213 147q-220 34 -220 236q0 40 9 87l69 385q1 8 1 14q0 32 -38 32q-3 0 -17.5 -1.5t-23.5 -1.5h-28l26 152q67 23 162 23q111 0 145 -55q22 -36 22 -95q0 -32 -7 -72l-64 -360q-8 -47 -8 -83q0 -47 13 -76q25 -50 124 -50q76 0 141.5 53.5 t82.5 141.5l102 579h244l-166 -934q-55 -295 -180 -431t-355 -136q-68 0 -123 13.5t-99 42.5t-68.5 79.5t-24.5 118.5zM399 -182q0 -103 119 -103q104 0 163 77t85 224l31 162q-46 -46 -144 -106q-153 -88 -203.5 -134t-50.5 -120z" />
<glyph unicode="z" horiz-adv-x="997" d="M123 166l639 696h-279q-30 0 -41.5 -9.5t-17.5 -41.5l-18 -82l-191 -10l53 313h758l35 -143l-660 -715q54 6 62 6q41 0 109 -14t114 -14q37 0 54 9t24 34l22 108l195 12l-53 -303q-103 -41 -215 -41q-75 0 -207 23.5t-195 23.5q-53 0 -166 -24z" />
<glyph unicode="{" horiz-adv-x="663" d="M176 -150q0 67 41 238q43 178 57 242q34 155 -96 170l29 151q82 10 117 60.5t53 167.5l22 178q2 17 5.5 46t6 51.5t5.5 41.5q18 150 92 213.5t217 63.5q77 0 156 -23l-47 -150q-57 11 -80 11q-62 0 -86 -32.5t-37 -111.5q-17 -107 -23 -172q-12 -128 -20 -174 q-19 -102 -59.5 -159t-118.5 -87q54 -20 78 -58.5t24 -104.5q0 -72 -49 -244q-60 -190 -60 -260q0 -94 84 -94q19 0 84 10l-6 -154q-90 -20 -168 -20q-112 0 -166.5 55.5t-54.5 144.5z" />
<glyph unicode="|" horiz-adv-x="561" d="M141 -180l301 1710h215l-301 -1710h-215z" />
<glyph unicode="}" horiz-adv-x="663" d="M-12 -330l43 154q55 -10 80 -10q62 0 88 36.5t41 118.5q12 75 22 201q10 106 21 170q17 107 54.5 158t121.5 77q-101 43 -101 181q0 77 54 284q41 146 41 185q0 45 -17.5 65.5t-62.5 20.5q-15 0 -86 -11l4 154q77 19 168 19q103 0 161 -52t58 -155q0 -79 -39 -215 q-51 -160 -51 -232q0 -87 18 -124t80 -44l-27 -151q-81 -10 -116.5 -61t-48.5 -156l-19 -156q-13 -134 -26 -217q-42 -260 -308 -260q-80 0 -153 20z" />
<glyph unicode="~" horiz-adv-x="1271" d="M223 578q80 105 162.5 161t175.5 56q55 0 111.5 -24.5t96 -53.5t91 -53.5t96.5 -24.5q89 0 181 125l129 -105q-71 -110 -158 -161.5t-176 -51.5q-59 0 -118.5 24t-99.5 52t-87.5 52t-85.5 24q-44 0 -87 -30.5t-102 -96.5z" />
<glyph unicode="&#xa1;" horiz-adv-x="563" d="M127 -262l43 239l162 689h145l-80 -689l-43 -241q-14 -96 -129 -96q-116 0 -98 98zM309 897q0 64 47.5 112t118.5 48q58 0 89.5 -32.5t31.5 -82.5q0 -63 -48.5 -109.5t-115.5 -46.5q-58 0 -90.5 31t-32.5 80z" />
<glyph unicode="&#xa2;" horiz-adv-x="1017" d="M213 514q0 273 131 441t348 206l43 242h152l-41 -234q177 -8 272 -75l-45 -275l-192 -12l18 108q5 28 -1.5 43t-33.5 21l-51 6l-123 -694q113 3 240 90l65 -170q-140 -104 -340 -111l-39 -223h-151l41 232q-151 31 -222 140t-71 265zM465 539q0 -147 80 -209l110 620 q-89 -46 -139.5 -150.5t-50.5 -260.5z" />
<glyph unicode="&#xa3;" horiz-adv-x="1157" d="M92 170q79 35 152 126t108 216l27 100h-182l49 162h170l28 125q26 115 76 202t118 140t147.5 79t170.5 26q185 0 344 -76l-51 -293l-202 -19l22 129q5 26 -0.5 37t-28.5 17q-46 12 -92 12q-65 0 -113.5 -20.5t-80 -61.5t-51 -88.5t-35.5 -114.5l-21 -94h338l-49 -160 h-328l-20 -77q-31 -121 -72 -190t-131 -136q0 -1 1 -4t1 -4q94 24 162 24q49 0 163.5 -21.5t157.5 -21.5q25 0 37.5 8t18.5 31l30 121l197 12l-59 -331q-79 -37 -205 -37q-94 0 -267.5 31.5t-250.5 31.5q-109 0 -230 -57z" />
<glyph unicode="&#xa5;" horiz-adv-x="1118" d="M190 317l29 166h316l22 123h-317l28 156h228l-150 389l-82 6l29 162h463l-27 -156l-70 -6q-30 -5 -36 -15.5t4 -39.5l104 -301h2l240 350l-86 6l28 162h400l-27 -156l-51 -4q-28 -4 -38.5 -12t-29.5 -33l-256 -352h230l-29 -156h-311l-21 -123h312l-29 -166h-311 l-27 -149l137 -6l-28 -162h-525l29 154l82 6q34 5 47.5 16.5t19.5 46.5l17 94h-316z" />
<glyph unicode="&#xa6;" horiz-adv-x="563" d="M141 -180l135 768h216l-136 -768h-215zM319 827l123 703h215l-122 -703h-216z" />
<glyph unicode="&#xa7;" horiz-adv-x="1105" d="M94 -344l45 252l193 14l-19 -100q-8 -46 27 -58q38 -10 96 -10q96 0 149.5 50t53.5 130q0 43 -25 81t-64.5 68t-87.5 60.5t-96.5 64.5t-88 73t-64.5 94t-25 119q0 98 60.5 184.5t165.5 144.5q-37 58 -37 148q0 49 14.5 99t49.5 102t87.5 92.5t136.5 66t187 25.5 q97 0 184 -22t135 -54l-43 -252l-192 -16l18 104q6 41 -20 53q-33 13 -94 13q-99 0 -154 -42.5t-55 -121.5q0 -41 25 -78t65 -66.5t88 -59t96 -64t88 -74t65 -95.5t25 -122q0 -97 -61 -184t-178 -156q47 -72 47 -152q0 -50 -13 -100.5t-47 -103.5t-84.5 -93t-133.5 -66 t-187 -26q-95 0 -191.5 23.5t-140.5 54.5zM410 555q0 -40 22 -76.5t61 -69t79.5 -59.5t92 -62t83.5 -63q104 71 104 164q0 49 -40.5 97t-91 80.5t-117.5 75t-99 71.5q-94 -67 -94 -158z" />
<glyph unicode="&#xa8;" horiz-adv-x="1024" d="M412 1303q0 64 46 109.5t117 45.5q55 0 87 -32t32 -83q0 -65 -49 -109t-117 -44q-55 0 -85.5 30.5t-30.5 82.5zM815 1303q0 64 47.5 109.5t118.5 45.5q54 0 85.5 -32t31.5 -83q0 -65 -48 -109t-116 -44q-56 0 -87.5 30.5t-31.5 82.5z" />
<glyph unicode="&#xa9;" horiz-adv-x="1667" d="M236 668q0 148 52 280t143 228t222.5 152t282.5 56q156 0 291.5 -56t228.5 -151t146 -224t53 -273q0 -203 -91.5 -367.5t-256.5 -259t-371 -94.5q-321 0 -510.5 196.5t-189.5 512.5zM397 668q0 -255 150.5 -408.5t390.5 -153.5q157 0 284 73t199 203t72 292 q0 241 -158.5 402t-396.5 161q-159 0 -283 -75.5t-191 -205t-67 -288.5zM588 678q0 91 23 163.5t59 117t84 74t94.5 41t93.5 11.5q193 0 307 -153l-114 -90q-43 48 -89 75t-108 27q-36 0 -67.5 -13t-59 -41.5t-43.5 -82t-16 -127.5q0 -274 198 -274q57 0 101.5 22t95.5 64 l82 -111q-111 -115 -283 -115q-178 0 -268 109t-90 303z" />
<glyph unicode="&#xaa;" horiz-adv-x="858" d="M233 782q0 207 120.5 337t328.5 130q135 0 256 -49l-90 -504q-4 -22 3.5 -31t29.5 -14l32 -4l-18 -108h-233l12 82h-8q-86 -97 -207 -97q-116 0 -171 72t-55 186zM424 809q0 -71 23.5 -109t80.5 -38q58 0 98 30t46 70l59 336q-40 14 -88 14q-61 0 -105.5 -28t-68 -75 t-34.5 -97t-11 -103z" />
<glyph unicode="&#xab;" d="M168 514q0 29 14 51.5t49 48.5l396 308l92 -103l-316 -309l201 -289l-106 -88l-293 301q-37 40 -37 80zM594 514q0 29 14 51.5t49 48.5l396 308l92 -103l-316 -309l201 -289l-106 -88l-293 301q-37 40 -37 80z" />
<glyph unicode="&#xac;" horiz-adv-x="1095" d="M221 647l35 197h879l-86 -492h-197l51 295h-682z" />
<glyph unicode="&#xad;" horiz-adv-x="659" d="M174 502l33 188h485l-33 -188h-485z" />
<glyph unicode="&#xae;" horiz-adv-x="948" d="M262 997q0 167 110.5 278t282.5 111q177 0 290.5 -109.5t113.5 -275.5q0 -172 -113 -281.5t-291 -109.5q-180 0 -286.5 107.5t-106.5 279.5zM362 997q0 -134 81.5 -217.5t211.5 -83.5q135 0 220.5 83t85.5 218q0 132 -87 217.5t-219 85.5q-134 0 -213.5 -84t-79.5 -219z M518 786v433h158q67 0 103 -29.5t36 -85.5q0 -87 -70 -119q11 -5 27 -31l76 -168h-96l-66 146q-13 29 -33 29h-51v-175h-84zM602 1030h47q74 0 74 66q0 33 -21 44t-61 11h-39v-121z" />
<glyph unicode="&#xaf;" horiz-adv-x="1021" d="M434 1245l31 176h586l-31 -176h-586z" />
<glyph unicode="&#xb0;" horiz-adv-x="610" d="M283 1186q0 118 81 200t199 82q94 0 145.5 -54t51.5 -138q0 -120 -82 -202.5t-205 -82.5q-93 0 -141.5 53.5t-48.5 141.5zM412 1202q0 -43 22.5 -69.5t65.5 -26.5q60 0 95.5 42.5t35.5 106.5q0 44 -22.5 70.5t-65.5 26.5q-64 0 -97.5 -43t-33.5 -107z" />
<glyph unicode="&#xb1;" horiz-adv-x="1095" d="M147 78l35 198h307l50 275h-308l33 201h307l58 319h207l-58 -319h316l-33 -201h-316l-49 -275h316l-35 -198h-830z" />
<glyph unicode="&#xb2;" horiz-adv-x="700" d="M201 698l20 119l305 291q65 65 94 105t29 83q0 72 -90 72q-44 0 -82 -10q-19 -6 -24.5 -15.5t-10.5 -37.5l-14 -68l-143 -8l37 217q129 63 284 63q119 0 178.5 -49.5t59.5 -138.5q0 -70 -36.5 -129t-121.5 -137l-223 -209h325l-24 -148h-563z" />
<glyph unicode="&#xb3;" horiz-adv-x="669" d="M184 756l64 123q98 -52 190 -52q71 0 113.5 31t42.5 94q0 95 -145 95h-60l31 120h123q44 29 69 60t25 76q0 67 -86 67q-40 0 -82 -10q-16 -6 -22 -15.5t-11 -31.5l-10 -56l-137 -6l37 205q127 53 260 53q115 0 172 -49.5t57 -124.5q0 -125 -151 -219q100 -43 100 -153 q0 -117 -83 -196t-235 -79q-79 0 -150 20.5t-112 47.5z" />
<glyph unicode="&#xb4;" horiz-adv-x="1021" d="M522 1233l303 383l88 -39q56 -21 56 -70q0 -34 -17 -55.5t-65 -58.5l-293 -230z" />
<glyph unicode="&#xb5;" horiz-adv-x="1196" d="M80 -442l260 1474h221l-112 -629q-21 -123 17 -191.5t144 -68.5q103 0 178.5 81t100.5 216l104 592h224l-146 -825q-6 -39 4.5 -53.5t38.5 -14.5q26 0 84 23l6 -137q-100 -50 -194 -50q-151 0 -129 170q-116 -176 -289 -176q-144 0 -207 109l-92 -520h-213z" />
<glyph unicode="&#xb6;" horiz-adv-x="1120" d="M240 803q0 116 30 210t83 158.5t127 108t160 63t185 19.5h449l-27 -156l-61 -4q-30 -2 -43 -13.5t-19 -45.5l-172 -975q-23 -137 -61 -230.5t-107.5 -167t-175 -118.5t-262.5 -72l-18 205q186 41 272 119t111 223l186 1059h-147l-132 -746q-168 5 -273 96.5t-105 266.5z " />
<glyph unicode="&#xb7;" horiz-adv-x="630" d="M283 604q0 70 47.5 117t118.5 47q60 0 91 -30t31 -81q0 -70 -45 -119t-120 -49q-60 0 -91.5 31.5t-31.5 83.5z" />
<glyph unicode="&#xb8;" horiz-adv-x="1024" d="M207 -414l49 109q84 -27 131 -27q62 0 89.5 22.5t27.5 57.5t-43 47t-129 12l102 199h119l-53 -106q70 -6 114.5 -44.5t44.5 -103.5q0 -56 -24 -97.5t-64.5 -64t-86 -33t-95.5 -10.5q-112 0 -182 39z" />
<glyph unicode="&#xb9;" horiz-adv-x="677" d="M270 698l23 140l115 6q24 2 34.5 10.5t14.5 32.5l78 430q-86 -52 -187 -80l-43 135q183 53 295 125h143l-114 -649l141 -10l-25 -140h-475z" />
<glyph unicode="&#xba;" horiz-adv-x="839" d="M240 809q0 98 26 176.5t66.5 126.5t95.5 80t107.5 44.5t107.5 12.5q40 0 76 -7t73.5 -26.5t64.5 -49t44 -79t17 -112.5q0 -204 -113.5 -327.5t-290.5 -123.5q-129 0 -201.5 75t-72.5 210zM432 821q0 -76 24 -114.5t81 -38.5q88 0 138 78.5t50 222.5q0 145 -111 145 q-86 0 -134 -88t-48 -205z" />
<glyph unicode="&#xbb;" d="M121 229l311 320l-205 289l109 88l289 -301q41 -38 41 -80q0 -29 -14.5 -50.5t-51.5 -52.5l-393 -309zM547 229l311 320l-205 289l109 88l289 -301q41 -38 41 -80q0 -29 -14.5 -50.5t-51.5 -52.5l-393 -309z" />
<glyph unicode="&#xbc;" horiz-adv-x="1689" d="M215 535l23 139l114 6q24 2 34.5 10.5t14.5 32.5l78 430q-87 -52 -186 -80l-43 135q183 53 295 125h143l-115 -649l142 -10l-25 -139h-475zM496 43l858 1331l149 -82l-860 -1333zM1094 174l20 111l342 536l131 -67l-295 -449h156l12 64l99 155h106l-39 -219h125l-22 -135 h-127l-29 -170h-174l31 174h-336z" />
<glyph unicode="&#xbd;" horiz-adv-x="1689" d="M172 535l23 139l114 6q24 2 34.5 10.5t14.5 32.5l78 430q-87 -52 -186 -80l-43 135q183 53 295 125h143l-115 -649l142 -10l-25 -139h-475zM440 43l858 1331l150 -82l-860 -1333zM1102 0l20 119l305 291q65 65 94 105t29 83q0 72 -90 72q-40 0 -82 -11 q-19 -6 -24.5 -15.5t-10.5 -37.5l-14 -67l-143 -9l37 218q129 63 284 63q119 0 178.5 -49.5t59.5 -138.5q0 -70 -36.5 -129.5t-121.5 -137.5l-223 -209h326l-25 -147h-563z" />
<glyph unicode="&#xbe;" horiz-adv-x="1689" d="M211 592l63 123q96 -51 191 -51q72 0 114 30.5t42 93.5q0 95 -146 95h-59l30 121h123q44 29 69.5 60t25.5 75q0 67 -86 67q-40 0 -82 -10q-16 -6 -22 -15.5t-11 -31.5l-10 -55l-138 -7l37 205q129 54 260 54q115 0 172.5 -50t57.5 -125q0 -124 -152 -219 q101 -43 101 -153q0 -117 -83 -196t-235 -79q-79 0 -150 20.5t-112 47.5zM500 43l858 1331l149 -82l-860 -1333zM1094 174l20 111l342 536l131 -67l-295 -449h156l12 64l99 155h106l-39 -219h125l-22 -135h-127l-29 -170h-174l31 174h-336z" />
<glyph unicode="&#xbf;" horiz-adv-x="876" d="M76 -96q0 116 60 207t220 192q105 67 137.5 109.5t49.5 142.5l18 104h189l-17 -153q-12 -120 -55.5 -184t-163.5 -138q-11 -7 -37.5 -23.5t-36 -23t-30.5 -21t-28.5 -22.5t-22 -22.5t-20 -26.5t-12.5 -29t-9.5 -35t-2.5 -40q0 -113 131 -113q66 0 105 10q17 4 23.5 15 t11.5 38l18 99l201 14l-51 -289q-70 -33 -165.5 -54t-189.5 -21q-166 0 -244.5 74.5t-78.5 189.5zM551 897q0 62 47 110t117 48q58 0 89.5 -32t31.5 -83q0 -63 -48.5 -109.5t-115.5 -46.5q-58 0 -89.5 31t-31.5 82z" />
<glyph unicode="&#xc0;" horiz-adv-x="1370" d="M20 0l27 154l59 8q29 4 42 14t30 41l502 971l-107 12l29 162h453l211 -1169q5 -28 14 -36t39 -7l78 2l-27 -152q-67 -23 -156 -23q-103 0 -146 45t-56 144l-39 221h-463l-113 -219l105 -6l-29 -162h-453zM582 559h381l-86 580h-5zM637 1716q0 52 63 96l70 48l305 -328 l-74 -80l-301 178q-63 40 -63 86z" />
<glyph unicode="&#xc1;" horiz-adv-x="1370" d="M20 0l27 154l59 8q29 4 42 14t30 41l502 971l-107 12l29 162h453l211 -1169q5 -28 14 -36t39 -7l78 2l-27 -152q-67 -23 -156 -23q-103 0 -146 45t-56 144l-39 221h-463l-113 -219l105 -6l-29 -162h-453zM582 559h381l-86 580h-5zM731 1538l389 320l68 -64q31 -28 31 -63 q0 -34 -24.5 -60t-80.5 -53l-328 -164z" />
<glyph unicode="&#xc2;" horiz-adv-x="1370" d="M20 0l27 154l59 8q29 4 42 14t30 41l502 971l-107 12l29 162h453l211 -1169q5 -28 14 -36t39 -7l78 2l-27 -152q-67 -23 -156 -23q-103 0 -146 45t-56 144l-39 221h-463l-113 -219l105 -6l-29 -162h-453zM553 1530l248 233q69 64 123 64q33 0 60.5 -19.5t62.5 -68.5 l151 -215l-80 -74l-215 178l-274 -178zM582 559h381l-86 580h-5z" />
<glyph unicode="&#xc3;" horiz-adv-x="1370" d="M20 0l27 154l59 8q29 4 42 14t30 41l502 971l-107 12l29 162h453l211 -1169q5 -28 14 -36t39 -7l78 2l-27 -152q-67 -23 -156 -23q-103 0 -146 45t-56 144l-39 221h-463l-113 -219l105 -6l-29 -162h-453zM543 1559q57 92 111 127.5t118 35.5q52 0 139.5 -28.5 t120.5 -28.5q61 0 107 61l96 -59q-87 -168 -231 -168q-48 0 -136 28.5t-125 28.5q-34 0 -58 -13.5t-58 -47.5zM582 559h381l-86 580h-5z" />
<glyph unicode="&#xc4;" horiz-adv-x="1370" d="M20 0l27 154l59 8q29 4 42 14t30 41l502 971l-107 12l29 162h453l211 -1169q5 -28 14 -36t39 -7l78 2l-27 -152q-67 -23 -156 -23q-103 0 -146 45t-56 144l-39 221h-463l-113 -219l105 -6l-29 -162h-453zM541 1589q0 64 47.5 109t118.5 45q53 0 84.5 -31.5t31.5 -81.5 q0 -65 -48 -109t-118 -44q-54 0 -85 30.5t-31 81.5zM582 559h381l-86 580h-5zM956 1589q0 64 47.5 109t118.5 45q53 0 85 -31.5t32 -81.5q0 -65 -48 -109t-118 -44q-55 0 -86 30t-31 82z" />
<glyph unicode="&#xc5;" horiz-adv-x="1370" d="M20 0l27 154l59 8q29 4 42 14t30 41l502 971l-107 12l29 162h453l211 -1169q5 -28 14 -36t39 -7l78 2l-27 -152q-67 -23 -156 -23q-103 0 -146 45t-56 144l-39 221h-463l-113 -219l105 -6l-29 -162h-453zM582 559h381l-86 580h-5zM700 1610q0 104 74 174.5t187 70.5 q89 0 135.5 -48t46.5 -124q0 -113 -72 -182t-180 -69q-95 0 -143 48.5t-48 129.5zM834 1616q0 -70 71 -70q52 0 77.5 34t25.5 91q0 70 -72 70q-102 0 -102 -125z" />
<glyph unicode="&#xc6;" horiz-adv-x="1748" d="M20 0l27 154l59 8q19 4 27 6.5t19 12t22 28.5l506 979l-107 12l29 162h1272l-55 -315l-201 -11l16 94q5 28 -3.5 39t-39.5 11h-512l72 -389h541l-33 -189h-475l76 -420h172q32 0 42.5 9.5t16.5 41.5l20 93l201 6l-59 -332h-801l27 154l69 8q27 5 39 17t6 42l-28 166h-463 l-113 -219l105 -6l-29 -162h-445zM573 559h381l-86 580h-4z" />
<glyph unicode="&#xc7;" horiz-adv-x="1263" d="M199 547q0 128 23.5 239t65 195.5t100 152.5t126.5 114.5t146 78t157 45.5t162 14q105 0 209 -20t178 -59l-57 -328l-201 -14l25 149q5 29 0.5 38.5t-27.5 16.5q-60 17 -135 17q-243 0 -376.5 -165t-133.5 -470q0 -176 78.5 -276.5t248.5 -100.5q92 0 156 23q26 7 34 18 t13 41l25 121l198 10l-57 -332q-151 -76 -387 -80l-37 -75q70 -6 115 -44.5t45 -103.5q0 -56 -24 -97.5t-64.5 -64t-86 -33t-95.5 -10.5q-113 0 -183 39l49 109q84 -27 132 -27q116 0 116 80q0 35 -43 47t-129 12l90 175q-223 29 -339.5 173.5t-116.5 391.5z" />
<glyph unicode="&#xc8;" horiz-adv-x="1144" d="M96 0l27 154l63 6q32 4 45 19t19 52l168 961l-107 8l29 162h930l-56 -315l-200 -11l16 94q5 30 -4 40t-39 10h-321l-70 -389h491l-32 -189h-492l-74 -420h340q29 0 39.5 9t18.5 40l20 95l201 6l-59 -332h-953zM621 1716q0 52 63 96l70 48l305 -328l-74 -80l-301 178 q-63 40 -63 86z" />
<glyph unicode="&#xc9;" horiz-adv-x="1144" d="M96 0l27 154l63 6q32 4 45 19t19 52l168 961l-107 8l29 162h930l-56 -315l-200 -11l16 94q5 30 -4 40t-39 10h-321l-70 -389h491l-32 -189h-492l-74 -420h340q29 0 39.5 9t18.5 40l20 95l201 6l-59 -332h-953zM670 1538l389 320l67 -64q31 -28 31 -63t-24.5 -60.5 t-79.5 -52.5l-328 -164z" />
<glyph unicode="&#xca;" horiz-adv-x="1144" d="M96 0l27 154l63 6q32 4 45 19t19 52l168 961l-107 8l29 162h930l-56 -315l-200 -11l16 94q5 30 -4 40t-39 10h-321l-70 -389h491l-32 -189h-492l-74 -420h340q29 0 39.5 9t18.5 40l20 95l201 6l-59 -332h-953zM522 1530l248 233q69 64 123 64q33 0 60.5 -19.5t62.5 -68.5 l151 -215l-80 -74l-215 178l-274 -178z" />
<glyph unicode="&#xcb;" horiz-adv-x="1144" d="M96 0l27 154l63 6q32 4 45 19t19 52l168 961l-107 8l29 162h930l-56 -315l-200 -11l16 94q5 30 -4 40t-39 10h-321l-70 -389h491l-32 -189h-492l-74 -420h340q29 0 39.5 9t18.5 40l20 95l201 6l-59 -332h-953zM508 1589q0 64 47.5 109t118.5 45q53 0 85 -31.5t32 -81.5 q0 -65 -48 -109t-118 -44q-54 0 -85.5 30.5t-31.5 81.5zM924 1589q0 64 47.5 109t118.5 45q53 0 84.5 -31.5t31.5 -81.5q0 -65 -48 -109t-118 -44q-55 0 -85.5 30t-30.5 82z" />
<glyph unicode="&#xcc;" horiz-adv-x="657" d="M92 0l27 154l61 6q36 5 49 17t19 50l168 965l-107 8l29 162h471l-27 -156l-63 -6q-32 -5 -44 -15.5t-18 -43.5l-172 -973l109 -6l-29 -162h-473zM338 1716q0 52 63 96l70 48l305 -328l-74 -80l-301 178q-63 40 -63 86z" />
<glyph unicode="&#xcd;" horiz-adv-x="657" d="M92 0l27 154l61 6q36 5 49 17t19 50l168 965l-107 8l29 162h471l-27 -156l-63 -6q-32 -5 -44 -15.5t-18 -43.5l-172 -973l109 -6l-29 -162h-473zM403 1538l390 320l67 -64q31 -28 31 -63q0 -34 -24.5 -60t-80.5 -53l-327 -164z" />
<glyph unicode="&#xce;" horiz-adv-x="657" d="M92 0l27 154l61 6q36 5 49 17t19 50l168 965l-107 8l29 162h471l-27 -156l-63 -6q-32 -5 -44 -15.5t-18 -43.5l-172 -973l109 -6l-29 -162h-473zM266 1530l248 233q69 64 123 64q33 0 60.5 -19.5t62.5 -68.5l151 -215l-80 -74l-215 178l-274 -178z" />
<glyph unicode="&#xcf;" horiz-adv-x="657" d="M92 0l27 154l61 6q36 5 49 17t19 50l168 965l-107 8l29 162h471l-27 -156l-63 -6q-32 -5 -44 -15.5t-18 -43.5l-172 -973l109 -6l-29 -162h-473zM266 1589q0 64 47.5 109t118.5 45q53 0 85 -31.5t32 -81.5q0 -65 -48 -109t-118 -44q-54 0 -85.5 30.5t-31.5 81.5z M682 1589q0 64 47.5 109t118.5 45q53 0 85 -31.5t32 -81.5q0 -65 -48 -109t-118 -44q-55 0 -86 30t-31 82z" />
<glyph unicode="&#xd0;" horiz-adv-x="1400" d="M96 0l27 154l63 6q31 5 43.5 16t18.5 45l65 377h-141l31 174h141l74 420l-107 8l29 162h516q279 0 430.5 -134.5t151.5 -389.5q0 -179 -43 -322.5t-115.5 -238.5t-173 -158.5t-211 -91t-233.5 -27.5h-566zM489 184h175q243 0 379.5 170t136.5 455q0 184 -79 277.5 t-265 93.5h-170l-74 -408h352l-33 -174h-350z" />
<glyph unicode="&#xd1;" horiz-adv-x="1480" d="M96 0l27 154l65 6q31 5 43.5 15.5t18.5 41.5l170 975l-107 8l29 162h360l418 -981h4l144 811l-113 8l29 162h461l-27 -156l-64 -6q-19 -3 -25.5 -4.5t-15.5 -7.5t-12.5 -17t-7.5 -32l-203 -1139h-237l-428 989h-4l-144 -821l111 -6l-29 -162h-463zM688 1559 q57 92 111 127.5t119 35.5q52 0 139.5 -28.5t120.5 -28.5q60 0 106 61l96 -59q-87 -168 -231 -168q-48 0 -135.5 28.5t-124.5 28.5q-34 0 -58.5 -13.5t-58.5 -47.5z" />
<glyph unicode="&#xd2;" horiz-adv-x="1372" d="M195 510q0 194 54.5 358t151 277.5t232 177t293.5 63.5q105 0 191.5 -30t154.5 -91.5t105.5 -166.5t37.5 -244q0 -143 -28 -272.5t-86 -240.5t-142 -192.5t-202.5 -127.5t-260.5 -46q-242 0 -371.5 135t-129.5 400zM453 504q0 -145 67.5 -232.5t210.5 -87.5 q67 0 128.5 25t116 79t94.5 131.5t63.5 190t23.5 248.5q0 62 -13.5 116.5t-42 101.5t-80.5 74.5t-122 27.5q-71 0 -132 -23t-106 -62t-81 -93t-59.5 -113.5t-39 -127t-22 -130.5t-6.5 -125zM733 1716q0 52 64 96l69 48l305 -328l-73 -80l-301 178q-64 40 -64 86z" />
<glyph unicode="&#xd3;" horiz-adv-x="1372" d="M195 510q0 194 54.5 358t151 277.5t232 177t293.5 63.5q105 0 191.5 -30t154.5 -91.5t105.5 -166.5t37.5 -244q0 -143 -28 -272.5t-86 -240.5t-142 -192.5t-202.5 -127.5t-260.5 -46q-242 0 -371.5 135t-129.5 400zM453 504q0 -145 67.5 -232.5t210.5 -87.5 q67 0 128.5 25t116 79t94.5 131.5t63.5 190t23.5 248.5q0 62 -13.5 116.5t-42 101.5t-80.5 74.5t-122 27.5q-71 0 -132 -23t-106 -62t-81 -93t-59.5 -113.5t-39 -127t-22 -130.5t-6.5 -125zM762 1538l389 320l68 -64q30 -27 30 -63q0 -35 -24.5 -60.5t-79.5 -52.5l-328 -164 z" />
<glyph unicode="&#xd4;" horiz-adv-x="1372" d="M195 510q0 194 54.5 358t151 277.5t232 177t293.5 63.5q105 0 191.5 -30t154.5 -91.5t105.5 -166.5t37.5 -244q0 -143 -28 -272.5t-86 -240.5t-142 -192.5t-202.5 -127.5t-260.5 -46q-242 0 -371.5 135t-129.5 400zM453 504q0 -145 67.5 -232.5t210.5 -87.5 q67 0 128.5 25t116 79t94.5 131.5t63.5 190t23.5 248.5q0 62 -13.5 116.5t-42 101.5t-80.5 74.5t-122 27.5q-71 0 -132 -23t-106 -62t-81 -93t-59.5 -113.5t-39 -127t-22 -130.5t-6.5 -125zM637 1530l248 233q69 64 123 64q33 0 60 -19.5t62 -68.5l152 -215l-80 -74 l-215 178l-274 -178z" />
<glyph unicode="&#xd5;" horiz-adv-x="1372" d="M195 510q0 194 54.5 358t151 277.5t232 177t293.5 63.5q105 0 191.5 -30t154.5 -91.5t105.5 -166.5t37.5 -244q0 -143 -28 -272.5t-86 -240.5t-142 -192.5t-202.5 -127.5t-260.5 -46q-242 0 -371.5 135t-129.5 400zM453 504q0 -145 67.5 -232.5t210.5 -87.5 q67 0 128.5 25t116 79t94.5 131.5t63.5 190t23.5 248.5q0 62 -13.5 116.5t-42 101.5t-80.5 74.5t-122 27.5q-71 0 -132 -23t-106 -62t-81 -93t-59.5 -113.5t-39 -127t-22 -130.5t-6.5 -125zM635 1559q57 92 111 127.5t118 35.5q52 0 139.5 -28.5t120.5 -28.5q61 0 107 61 l96 -59q-87 -168 -231 -168q-48 0 -135.5 28.5t-124.5 28.5q-34 0 -58.5 -13.5t-58.5 -47.5z" />
<glyph unicode="&#xd6;" horiz-adv-x="1372" d="M195 510q0 194 54.5 358t151 277.5t232 177t293.5 63.5q105 0 191.5 -30t154.5 -91.5t105.5 -166.5t37.5 -244q0 -143 -28 -272.5t-86 -240.5t-142 -192.5t-202.5 -127.5t-260.5 -46q-242 0 -371.5 135t-129.5 400zM453 504q0 -145 67.5 -232.5t210.5 -87.5 q67 0 128.5 25t116 79t94.5 131.5t63.5 190t23.5 248.5q0 62 -13.5 116.5t-42 101.5t-80.5 74.5t-122 27.5q-71 0 -132 -23t-106 -62t-81 -93t-59.5 -113.5t-39 -127t-22 -130.5t-6.5 -125zM625 1589q0 64 47.5 109t118.5 45q53 0 84.5 -31.5t31.5 -81.5q0 -65 -48 -109 t-118 -44q-54 0 -85 30.5t-31 81.5zM1040 1589q0 64 47.5 109t118.5 45q53 0 85 -31.5t32 -81.5q0 -65 -48 -109t-118 -44q-55 0 -86 30t-31 82z" />
<glyph unicode="&#xd7;" horiz-adv-x="1095" d="M244 410l282 239l-194 234l166 141l192 -233l271 229l124 -148l-272 -231l186 -225l-168 -142l-182 226l-282 -238z" />
<glyph unicode="&#xd8;" horiz-adv-x="1372" d="M172 -98l145 217q-122 137 -122 391q0 194 54.5 358t151 277.5t232 177t293.5 63.5q118 0 209 -36l116 176l166 -101l-123 -184q121 -144 121 -387q0 -143 -28 -272.5t-86 -240.5t-142 -192.5t-202.5 -127.5t-260.5 -46q-118 0 -219 37l-139 -211zM453 504q0 -89 22 -148 l531 801q-47 21 -107 21q-71 0 -132 -23t-106 -62t-81 -93t-59.5 -113.5t-39 -127t-22 -130.5t-6.5 -125zM606 207q61 -23 125 -23q67 0 128.5 25t116 79t94.5 131.5t63.5 190t23.5 248.5q0 69 -22 143z" />
<glyph unicode="&#xd9;" horiz-adv-x="1417" d="M265.5 276q-12.5 80 8.5 185l129 731l-106 8l29 162h471l-27 -156l-65 -6q-32 -5 -44 -15.5t-18 -45.5l-125 -707q-24 -146 37 -207t197 -61q261 0 307 258l135 772l-100 6l28 162h449l-27 -156l-59 -6q-33 -5 -46.5 -15.5t-19.5 -43.5l-129 -742q-73 -424 -549 -424 q-102 0 -182.5 17t-144 53.5t-100 93.5t-49 137zM741 1716q0 52 64 96l69 48l306 -328l-74 -80l-301 178q-64 40 -64 86z" />
<glyph unicode="&#xda;" horiz-adv-x="1417" d="M265.5 276q-12.5 80 8.5 185l129 731l-106 8l29 162h471l-27 -156l-65 -6q-32 -5 -44 -15.5t-18 -45.5l-125 -707q-24 -146 37 -207t197 -61q261 0 307 258l135 772l-100 6l28 162h449l-27 -156l-59 -6q-33 -5 -46.5 -15.5t-19.5 -43.5l-129 -742q-73 -424 -549 -424 q-102 0 -182.5 17t-144 53.5t-100 93.5t-49 137zM786 1538l390 320l67 -64q31 -28 31 -63q0 -34 -24.5 -60t-80.5 -53l-327 -164z" />
<glyph unicode="&#xdb;" horiz-adv-x="1417" d="M265.5 276q-12.5 80 8.5 185l129 731l-106 8l29 162h471l-27 -156l-65 -6q-32 -5 -44 -15.5t-18 -45.5l-125 -707q-24 -146 37 -207t197 -61q261 0 307 258l135 772l-100 6l28 162h449l-27 -156l-59 -6q-33 -5 -46.5 -15.5t-19.5 -43.5l-129 -742q-73 -424 -549 -424 q-102 0 -182.5 17t-144 53.5t-100 93.5t-49 137zM666 1530l247 233q69 64 123 64q33 0 60.5 -19.5t62.5 -68.5l152 -215l-80 -74l-215 178l-275 -178z" />
<glyph unicode="&#xdc;" horiz-adv-x="1417" d="M265.5 276q-12.5 80 8.5 185l129 731l-106 8l29 162h471l-27 -156l-65 -6q-32 -5 -44 -15.5t-18 -45.5l-125 -707q-24 -146 37 -207t197 -61q261 0 307 258l135 772l-100 6l28 162h449l-27 -156l-59 -6q-33 -5 -46.5 -15.5t-19.5 -43.5l-129 -742q-73 -424 -549 -424 q-102 0 -182.5 17t-144 53.5t-100 93.5t-49 137zM643 1589q0 64 47.5 109t118.5 45q53 0 85 -31.5t32 -81.5q0 -65 -48 -109t-118 -44q-54 0 -85.5 30.5t-31.5 81.5zM1059 1589q0 64 47.5 109t118.5 45q53 0 84.5 -31.5t31.5 -81.5q0 -66 -47.5 -109.5t-117.5 -43.5 q-55 0 -86 30t-31 82z" />
<glyph unicode="&#xdd;" horiz-adv-x="1161" d="M211 1200l29 162h475l-27 -156l-63 -4q-58 -3 -37 -61l131 -414h4l319 467l-94 8l29 160h418l-27 -156l-45 -4q-28 -4 -46 -18t-42 -47l-436 -619l-62 -350l131 -6l-28 -162h-521l27 154l84 6q34 5 48 16.5t20 46.5l51 291l-248 680zM678 1538l389 320l68 -64 q30 -27 30 -63q0 -35 -24.5 -60.5t-79.5 -52.5l-328 -164z" />
<glyph unicode="&#xde;" horiz-adv-x="1204" d="M96 0l27 154l65 8q33 5 44 16.5t18 52.5l168 961l-107 8l29 162h557l-27 -156l-153 -6q-49 -3 -58 -53l-8 -47h211q441 0 441 -330q0 -157 -77.5 -266t-205 -159t-293.5 -50h-217l-23 -125l195 -8l-29 -162h-557zM539 477h153q169 0 258.5 63t89.5 214q0 46 -15 77 t-37.5 48t-65 26t-79.5 11t-100 2h-125z" />
<glyph unicode="&#xdf;" horiz-adv-x="1247" d="M-207 -406l80 175q65 -35 133 -35q69 0 100.5 39t49.5 135l192 1085q43 249 180.5 368.5t386.5 119.5q110 0 190.5 -21t126 -59t66.5 -83t21 -99q0 -59 -25.5 -112.5t-64 -91t-83.5 -75t-83.5 -66t-64 -62.5t-25.5 -67q0 -32 20.5 -61.5t51.5 -51t67 -50t67 -58t51.5 -76 t20.5 -102.5q0 -92 -31.5 -164.5t-85.5 -118t-123.5 -69t-148.5 -23.5q-91 0 -180 21t-150 51l46 258l188 16l-18 -129q-1 -4 -1.5 -7.5t0 -6l1 -5t2.5 -4t3 -3t4 -3l4 -2t4.5 -2t4.5 -1.5q37 -11 84 -11q150 0 150 164q0 44 -28 78.5t-68 59.5t-79.5 52.5t-67.5 72.5 t-28 106q0 69 36 131.5t87 107.5t102 86t87 85.5t36 87.5q0 64 -44.5 95t-141.5 31q-125 0 -197.5 -65t-93.5 -180l-211 -1168q-9 -47 -15.5 -76.5t-20.5 -71t-30 -68t-43 -56t-60.5 -46t-81.5 -27.5t-107 -11q-67 0 -133.5 17t-108.5 46z" />
<glyph unicode="&#xe0;" horiz-adv-x="1157" d="M164 340q0 157 39 287t116 227t199.5 151t280.5 54q178 0 356 -74l-137 -797q-5 -25 2.5 -34t36.5 -9q27 0 43 2q15 0 33 3l-27 -152q-64 -23 -152 -23q-86 0 -121.5 41.5t-27.5 106.5h-6q-43 -69 -121.5 -110.5t-179.5 -41.5q-172 0 -253 99.5t-81 269.5zM416 354 q0 -44 6.5 -77.5t22 -63.5t47 -46.5t77.5 -16.5q87 0 153.5 60t88.5 179l80 463q-66 27 -135 27q-75 0 -135 -32.5t-97.5 -84t-62.5 -122t-35 -141t-10 -145.5zM627 1479q0 40 20.5 63.5t71.5 42.5l78 29l182 -406l-92 -53l-211 231q-49 49 -49 93z" />
<glyph unicode="&#xe1;" horiz-adv-x="1157" d="M164 340q0 157 39 287t116 227t199.5 151t280.5 54q178 0 356 -74l-137 -797q-5 -25 2.5 -34t36.5 -9q27 0 43 2q15 0 33 3l-27 -152q-64 -23 -152 -23q-86 0 -121.5 41.5t-27.5 106.5h-6q-43 -69 -121.5 -110.5t-179.5 -41.5q-172 0 -253 99.5t-81 269.5zM416 354 q0 -44 6.5 -77.5t22 -63.5t47 -46.5t77.5 -16.5q87 0 153.5 60t88.5 179l80 463q-66 27 -135 27q-75 0 -135 -32.5t-97.5 -84t-62.5 -122t-35 -141t-10 -145.5zM655 1233l303 383l89 -39q55 -21 55 -70q0 -34 -17 -55.5t-65 -58.5l-293 -230z" />
<glyph unicode="&#xe2;" horiz-adv-x="1157" d="M164 340q0 157 39 287t116 227t199.5 151t280.5 54q178 0 356 -74l-137 -797q-5 -25 2.5 -34t36.5 -9q27 0 43 2q15 0 33 3l-27 -152q-64 -23 -152 -23q-86 0 -121.5 41.5t-27.5 106.5h-6q-43 -69 -121.5 -110.5t-179.5 -41.5q-172 0 -253 99.5t-81 269.5zM416 354 q0 -44 6.5 -77.5t22 -63.5t47 -46.5t77.5 -16.5q87 0 153.5 60t88.5 179l80 463q-66 27 -135 27q-75 0 -135 -32.5t-97.5 -84t-62.5 -122t-35 -141t-10 -145.5zM498 1229l254 274q31 31 44 42.5t36 22.5t49 11q37 0 58.5 -15t45.5 -55l162 -288l-88 -66l-203 211l-276 -211z " />
<glyph unicode="&#xe3;" horiz-adv-x="1157" d="M164 340q0 157 39 287t116 227t199.5 151t280.5 54q178 0 356 -74l-137 -797q-5 -25 2.5 -34t36.5 -9q27 0 43 2q15 0 33 3l-27 -152q-64 -23 -152 -23q-86 0 -121.5 41.5t-27.5 106.5h-6q-43 -69 -121.5 -110.5t-179.5 -41.5q-172 0 -253 99.5t-81 269.5zM416 354 q0 -44 6.5 -77.5t22 -63.5t47 -46.5t77.5 -16.5q87 0 153.5 60t88.5 179l80 463q-66 27 -135 27q-75 0 -135 -32.5t-97.5 -84t-62.5 -122t-35 -141t-10 -145.5zM502 1286q57 92 111 128t118 36q52 0 139.5 -28.5t120.5 -28.5q61 0 107 61l96 -59q-87 -168 -231 -168 q-48 0 -136 28.5t-125 28.5q-34 0 -58 -13.5t-58 -47.5z" />
<glyph unicode="&#xe4;" horiz-adv-x="1157" d="M164 340q0 157 39 287t116 227t199.5 151t280.5 54q178 0 356 -74l-137 -797q-5 -25 2.5 -34t36.5 -9q27 0 43 2q15 0 33 3l-27 -152q-64 -23 -152 -23q-86 0 -121.5 41.5t-27.5 106.5h-6q-43 -69 -121.5 -110.5t-179.5 -41.5q-172 0 -253 99.5t-81 269.5zM416 354 q0 -44 6.5 -77.5t22 -63.5t47 -46.5t77.5 -16.5q87 0 153.5 60t88.5 179l80 463q-66 27 -135 27q-75 0 -135 -32.5t-97.5 -84t-62.5 -122t-35 -141t-10 -145.5zM510 1303q0 64 46.5 109.5t117.5 45.5q54 0 86.5 -32t32.5 -83q0 -65 -49 -109t-117 -44q-55 0 -86 30.5 t-31 82.5zM913 1303q0 64 47.5 109.5t118.5 45.5q54 0 85.5 -32t31.5 -83q0 -65 -48 -109t-116 -44q-56 0 -87.5 30.5t-31.5 82.5z" />
<glyph unicode="&#xe5;" horiz-adv-x="1157" d="M164 340q0 157 39 287t116 227t199.5 151t280.5 54q178 0 356 -74l-137 -797q-5 -25 2.5 -34t36.5 -9q27 0 43 2q15 0 33 3l-27 -152q-64 -23 -152 -23q-86 0 -121.5 41.5t-27.5 106.5h-6q-43 -69 -121.5 -110.5t-179.5 -41.5q-172 0 -253 99.5t-81 269.5zM416 354 q0 -44 6.5 -77.5t22 -63.5t47 -46.5t77.5 -16.5q87 0 153.5 60t88.5 179l80 463q-66 27 -135 27q-75 0 -135 -32.5t-97.5 -84t-62.5 -122t-35 -141t-10 -145.5zM618 1337q0 104 74 175t187 71q89 0 135.5 -48t46.5 -124q0 -113 -72 -182.5t-180 -69.5q-95 0 -143 48.5 t-48 129.5zM752 1343q0 -69 71 -69q52 0 77.5 34t25.5 91q0 69 -72 69q-102 0 -102 -125z" />
<glyph unicode="&#xe6;" horiz-adv-x="1579" d="M164 348q0 155 40 284.5t116.5 224.5t195 148.5t268.5 53.5t271 -68q116 68 288 68q137 0 211 -65.5t74 -194.5q0 -408 -659 -379q-11 -127 38.5 -192.5t172.5 -65.5q143 0 266 84l51 -170q-55 -35 -156.5 -70t-222.5 -35q-212 0 -305 121q-146 -121 -319 -121 q-91 0 -157 29.5t-103 83.5t-53.5 119t-16.5 145zM416 362q0 -104 33 -158t122 -54q90 0 174 67q-20 61 -20 160q0 130 39 254.5t121 222.5q-61 25 -133 25q-91 0 -159 -48.5t-105 -127.5t-54.5 -165t-17.5 -176zM995 580q76 -2 134 1.5t113 16t90 34.5t56 59.5t21 88.5 q0 49 -29.5 75t-81.5 26q-120 0 -200.5 -88t-102.5 -213z" />
<glyph unicode="&#xe7;" horiz-adv-x="987" d="M164 379q0 147 34.5 265t91.5 194.5t135 127t161 72t174 21.5q188 0 301 -80l-47 -279l-193 -12l19 109q5 27 0 39.5t-25 19.5q-29 10 -80 10q-145 0 -231 -118.5t-86 -339.5q0 -110 48 -174t152 -64q115 0 252 88l68 -170q-144 -108 -356 -117l-35 -71q70 -6 115 -44.5 t45 -103.5q0 -56 -24 -97.5t-65 -64t-86.5 -33t-95.5 -10.5q-112 0 -182 39l49 109q84 -27 131 -27q62 0 89.5 22.5t27.5 57.5t-43 47t-129 12l88 173q-148 25 -225.5 128.5t-77.5 270.5z" />
<glyph unicode="&#xe8;" horiz-adv-x="1013" d="M164 371q0 142 42 266.5t118.5 218.5t193.5 148.5t258 54.5q139 0 215 -64.5t76 -197.5q0 -112 -46 -190.5t-134.5 -122.5t-206 -61t-272.5 -11q-19 -250 202 -250q143 0 275 84l51 -170q-49 -34 -151 -69.5t-230 -35.5q-198 0 -294.5 109t-96.5 291zM434 586 q97 -2 168.5 5.5t129 27.5t87 59t29.5 96q0 107 -115 107q-113 0 -195 -87.5t-104 -207.5zM571 1479q0 40 21 63.5t72 42.5l77 29l183 -406l-93 -53l-210 231q-50 50 -50 93z" />
<glyph unicode="&#xe9;" horiz-adv-x="1013" d="M164 371q0 142 42 266.5t118.5 218.5t193.5 148.5t258 54.5q139 0 215 -64.5t76 -197.5q0 -112 -46 -190.5t-134.5 -122.5t-206 -61t-272.5 -11q-19 -250 202 -250q143 0 275 84l51 -170q-49 -34 -151 -69.5t-230 -35.5q-198 0 -294.5 109t-96.5 291zM434 586 q97 -2 168.5 5.5t129 27.5t87 59t29.5 96q0 107 -115 107q-113 0 -195 -87.5t-104 -207.5zM623 1233l303 383l88 -39q55 -21 55 -70q0 -34 -17 -55.5t-65 -58.5l-293 -230z" />
<glyph unicode="&#xea;" horiz-adv-x="1013" d="M164 371q0 142 42 266.5t118.5 218.5t193.5 148.5t258 54.5q139 0 215 -64.5t76 -197.5q0 -112 -46 -190.5t-134.5 -122.5t-206 -61t-272.5 -11q-19 -250 202 -250q143 0 275 84l51 -170q-49 -34 -151 -69.5t-230 -35.5q-198 0 -294.5 109t-96.5 291zM434 586 q97 -2 168.5 5.5t129 27.5t87 59t29.5 96q0 107 -115 107q-113 0 -195 -87.5t-104 -207.5zM457 1229l254 274q31 31 44 42.5t36 22.5t49 11q37 0 58.5 -15t45.5 -55l162 -288l-88 -66l-203 211l-276 -211z" />
<glyph unicode="&#xeb;" horiz-adv-x="1013" d="M164 371q0 142 42 266.5t118.5 218.5t193.5 148.5t258 54.5q139 0 215 -64.5t76 -197.5q0 -112 -46 -190.5t-134.5 -122.5t-206 -61t-272.5 -11q-19 -250 202 -250q143 0 275 84l51 -170q-49 -34 -151 -69.5t-230 -35.5q-198 0 -294.5 109t-96.5 291zM434 586 q97 -2 168.5 5.5t129 27.5t87 59t29.5 96q0 107 -115 107q-113 0 -195 -87.5t-104 -207.5zM451 1303q0 64 46 109.5t117 45.5q54 0 86.5 -32t32.5 -83q0 -65 -49 -109t-117 -44q-55 0 -85.5 30.5t-30.5 82.5zM854 1303q0 64 47.5 109.5t118.5 45.5q54 0 85.5 -32t31.5 -83 q0 -65 -48 -109t-116 -44q-56 0 -87.5 30.5t-31.5 82.5z" />
<glyph unicode="&#xec;" horiz-adv-x="589" d="M203 199l110 612q6 35 -1.5 45.5t-37.5 15.5l-59 5l29 155h350l-148 -837q-5 -29 2.5 -37.5t36.5 -7.5l80 2l-28 -154q-71 -23 -168 -23q-112 0 -149.5 57t-16.5 167zM268 1479q0 40 20.5 63.5t71.5 42.5l78 29l183 -406l-93 -53l-211 231q-49 49 -49 93z" />
<glyph unicode="&#xed;" horiz-adv-x="589" d="M203 199l110 612q6 35 -1.5 45.5t-37.5 15.5l-59 5l29 155h350l-148 -837q-5 -29 2.5 -37.5t36.5 -7.5l80 2l-28 -154q-71 -23 -168 -23q-112 0 -149.5 57t-16.5 167zM317 1233l304 383l88 -39q55 -21 55 -70q0 -34 -17 -55.5t-65 -58.5l-293 -230z" />
<glyph unicode="&#xee;" horiz-adv-x="589" d="M154 1229l254 274q31 31 44 42.5t36 22.5t49 11q37 0 58.5 -15t45.5 -55l162 -288l-88 -66l-203 211l-276 -211zM203 199l110 612q6 35 -1.5 45.5t-37.5 15.5l-59 5l29 155h350l-148 -837q-5 -29 2.5 -37.5t36.5 -7.5l80 2l-28 -154q-71 -23 -168 -23q-112 0 -149.5 57 t-16.5 167z" />
<glyph unicode="&#xef;" horiz-adv-x="589" d="M152 1303q0 64 46 109.5t117 45.5q55 0 87 -32t32 -83q0 -65 -49 -109t-117 -44q-55 0 -85.5 30.5t-30.5 82.5zM203 199l110 612q6 35 -1.5 45.5t-37.5 15.5l-59 5l29 155h350l-148 -837q-5 -29 2.5 -37.5t36.5 -7.5l80 2l-28 -154q-71 -23 -168 -23q-112 0 -149.5 57 t-16.5 167zM555 1303q0 64 47.5 109.5t118.5 45.5q54 0 85.5 -32t31.5 -83q0 -65 -48 -109t-116 -44q-56 0 -87.5 30.5t-31.5 82.5z" />
<glyph unicode="&#xf0;" horiz-adv-x="1062" d="M145 358q0 243 137.5 397t360.5 154q132 0 213 -65q-13 145 -88 250l-188 -117l-74 133l156 94q-77 53 -197 74l80 188q215 -35 338 -143l231 143l76 -139l-201 -121q105 -159 105 -448q0 -122 -20.5 -234.5t-65.5 -214.5t-110.5 -177t-161.5 -119t-212 -44 q-188 0 -283.5 107t-95.5 282zM379 352q0 -200 170 -200q105 0 180.5 101.5t110.5 289.5q3 18 7 57.5t7 58.5q-75 72 -195 72q-64 0 -114.5 -26t-80.5 -65.5t-50 -92t-27.5 -100.5t-7.5 -95z" />
<glyph unicode="&#xf1;" horiz-adv-x="1193" d="M176 0l143 811q6 32 -1.5 43t-36.5 16l-60 7l29 155h330l-23 -137h2q59 82 135 123t183 41q158 0 228 -89t38 -268l-92 -509q-4 -29 3.5 -37.5t37.5 -8.5h41q11 0 26 3l-26 -152q-67 -23 -160 -23q-112 0 -149 54t-19 157l86 465q44 209 -117 209q-52 0 -93 -16 t-67.5 -41t-46 -63.5t-29.5 -76t-18 -85.5l-104 -578h-240zM479 1286q57 92 111.5 128t118.5 36q52 0 139.5 -28.5t120.5 -28.5q60 0 106 61l96 -59q-87 -168 -231 -168q-48 0 -135.5 28.5t-124.5 28.5q-34 0 -58.5 -13.5t-58.5 -47.5z" />
<glyph unicode="&#xf2;" d="M164 358q0 114 20.5 215.5t65.5 191t111 154.5t162 102.5t214 37.5q48 0 93.5 -8t98.5 -32.5t92 -64t65 -110t26 -162.5q0 -114 -19.5 -216t-63.5 -193.5t-109.5 -158t-162.5 -105t-216 -38.5q-184 0 -280.5 98t-96.5 289zM412 362q0 -99 35.5 -152.5t123.5 -53.5 q68 0 121.5 37t85 92.5t51.5 127.5t27.5 134.5t7.5 122.5q0 209 -159 209q-69 0 -123 -36.5t-85 -91.5t-51 -127.5t-27 -135.5t-7 -126zM582 1479q0 40 20.5 63.5t71.5 42.5l78 29l182 -406l-92 -53l-211 231q-49 49 -49 93z" />
<glyph unicode="&#xf3;" d="M164 358q0 114 20.5 215.5t65.5 191t111 154.5t162 102.5t214 37.5q48 0 93.5 -8t98.5 -32.5t92 -64t65 -110t26 -162.5q0 -114 -19.5 -216t-63.5 -193.5t-109.5 -158t-162.5 -105t-216 -38.5q-184 0 -280.5 98t-96.5 289zM412 362q0 -99 35.5 -152.5t123.5 -53.5 q68 0 121.5 37t85 92.5t51.5 127.5t27.5 134.5t7.5 122.5q0 209 -159 209q-69 0 -123 -36.5t-85 -91.5t-51 -127.5t-27 -135.5t-7 -126zM606 1233l303 383l88 -39q56 -21 56 -70q0 -34 -17 -55.5t-65 -58.5l-293 -230z" />
<glyph unicode="&#xf4;" d="M164 358q0 114 20.5 215.5t65.5 191t111 154.5t162 102.5t214 37.5q48 0 93.5 -8t98.5 -32.5t92 -64t65 -110t26 -162.5q0 -114 -19.5 -216t-63.5 -193.5t-109.5 -158t-162.5 -105t-216 -38.5q-184 0 -280.5 98t-96.5 289zM412 362q0 -99 35.5 -152.5t123.5 -53.5 q68 0 121.5 37t85 92.5t51.5 127.5t27.5 134.5t7.5 122.5q0 209 -159 209q-69 0 -123 -36.5t-85 -91.5t-51 -127.5t-27 -135.5t-7 -126zM453 1229l254 274q31 31 44 42.5t36 22.5t49 11q37 0 58.5 -15t45.5 -55l162 -288l-88 -66l-203 211l-276 -211z" />
<glyph unicode="&#xf5;" d="M164 358q0 114 20.5 215.5t65.5 191t111 154.5t162 102.5t214 37.5q48 0 93.5 -8t98.5 -32.5t92 -64t65 -110t26 -162.5q0 -114 -19.5 -216t-63.5 -193.5t-109.5 -158t-162.5 -105t-216 -38.5q-184 0 -280.5 98t-96.5 289zM412 362q0 -99 35.5 -152.5t123.5 -53.5 q68 0 121.5 37t85 92.5t51.5 127.5t27.5 134.5t7.5 122.5q0 209 -159 209q-69 0 -123 -36.5t-85 -91.5t-51 -127.5t-27 -135.5t-7 -126zM444 1286q57 92 111.5 128t118.5 36q52 0 139.5 -28.5t120.5 -28.5q60 0 106 61l97 -59q-87 -168 -232 -168q-48 0 -135.5 28.5 t-124.5 28.5q-34 0 -58.5 -13.5t-58.5 -47.5z" />
<glyph unicode="&#xf6;" d="M164 358q0 114 20.5 215.5t65.5 191t111 154.5t162 102.5t214 37.5q48 0 93.5 -8t98.5 -32.5t92 -64t65 -110t26 -162.5q0 -114 -19.5 -216t-63.5 -193.5t-109.5 -158t-162.5 -105t-216 -38.5q-184 0 -280.5 98t-96.5 289zM412 362q0 -99 35.5 -152.5t123.5 -53.5 q68 0 121.5 37t85 92.5t51.5 127.5t27.5 134.5t7.5 122.5q0 209 -159 209q-69 0 -123 -36.5t-85 -91.5t-51 -127.5t-27 -135.5t-7 -126zM449 1303q0 64 46 109.5t117 45.5q54 0 86.5 -32t32.5 -83q0 -65 -49 -109t-117 -44q-55 0 -85.5 30.5t-30.5 82.5zM852 1303 q0 64 47.5 109.5t118.5 45.5q54 0 85.5 -32t31.5 -83q0 -65 -48 -109t-116 -44q-56 0 -87.5 30.5t-31.5 82.5z" />
<glyph unicode="&#xf7;" horiz-adv-x="1093" d="M229 545l33 198h830l-33 -198h-830zM461 233q0 68 44.5 117t112.5 49q55 0 85 -30t30 -82q0 -67 -46.5 -115.5t-113.5 -48.5q-54 0 -83 29.5t-29 80.5zM596 1008q0 67 46.5 116.5t113.5 49.5q54 0 84 -31t30 -82q0 -69 -46 -117.5t-115 -48.5q-54 0 -83.5 30.5 t-29.5 82.5z" />
<glyph unicode="&#xf8;" d="M164 358q0 114 20.5 215.5t65.5 191t111 154.5t162 102.5t214 37.5q73 0 125 -17l99 166l129 -75l-93 -158q115 -96 115 -293q0 -114 -19.5 -216t-63.5 -193.5t-109.5 -158t-162.5 -105t-216 -38.5q-59 0 -129 17l-107 -181l-129 76l100 170q-112 100 -112 305zM412 362 q0 -58 4 -73l344 581q-24 9 -55 9q-69 0 -123 -36.5t-85 -91.5t-51 -127.5t-27 -135.5t-7 -126zM516 162q24 -6 55 -6q68 0 121.5 37t85 92.5t51.5 127.5t27.5 134.5t7.5 122.5q0 41 -6 71z" />
<glyph unicode="&#xf9;" horiz-adv-x="1173" d="M211 877l27 155h352l-119 -665q-18 -106 5 -153.5t110 -47.5q37 0 72 12t69.5 38t61 76t38.5 118l109 622h244l-150 -839q-4 -26 4 -34.5t37 -8.5t45 2q19 0 29 2l-27 -156q-70 -25 -151 -25t-122.5 37t-35.5 123h-6q-52 -82 -132.5 -122t-176.5 -40q-166 0 -233.5 97 t-37.5 266l84 479q6 31 -2.5 42.5t-36.5 16.5zM573 1479q0 40 21 63.5t72 42.5l77 29l183 -406l-92 -53l-211 231q-50 50 -50 93z" />
<glyph unicode="&#xfa;" horiz-adv-x="1173" d="M211 877l27 155h352l-119 -665q-18 -106 5 -153.5t110 -47.5q37 0 72 12t69.5 38t61 76t38.5 118l109 622h244l-150 -839q-4 -26 4 -34.5t37 -8.5t45 2q19 0 29 2l-27 -156q-70 -25 -151 -25t-122.5 37t-35.5 123h-6q-52 -82 -132.5 -122t-176.5 -40q-166 0 -233.5 97 t-37.5 266l84 479q6 31 -2.5 42.5t-36.5 16.5zM625 1233l303 383l88 -39q55 -21 55 -70q0 -34 -17 -55.5t-65 -58.5l-293 -230z" />
<glyph unicode="&#xfb;" horiz-adv-x="1173" d="M211 877l27 155h352l-119 -665q-18 -106 5 -153.5t110 -47.5q37 0 72 12t69.5 38t61 76t38.5 118l109 622h244l-150 -839q-4 -26 4 -34.5t37 -8.5t45 2q19 0 29 2l-27 -156q-70 -25 -151 -25t-122.5 37t-35.5 123h-6q-52 -82 -132.5 -122t-176.5 -40q-166 0 -233.5 97 t-37.5 266l84 479q6 31 -2.5 42.5t-36.5 16.5zM455 1229l254 274q31 31 44 42.5t36 22.5t49 11q37 0 58.5 -15t45.5 -55l162 -288l-88 -66l-203 211l-276 -211z" />
<glyph unicode="&#xfc;" horiz-adv-x="1173" d="M211 877l27 155h352l-119 -665q-18 -106 5 -153.5t110 -47.5q37 0 72 12t69.5 38t61 76t38.5 118l109 622h244l-150 -839q-4 -26 4 -34.5t37 -8.5t45 2q19 0 29 2l-27 -156q-70 -25 -151 -25t-122.5 37t-35.5 123h-6q-52 -82 -132.5 -122t-176.5 -40q-166 0 -233.5 97 t-37.5 266l84 479q6 31 -2.5 42.5t-36.5 16.5zM434 1303q0 64 46.5 109.5t117.5 45.5q54 0 86.5 -32t32.5 -83q0 -65 -49 -109t-117 -44q-55 0 -86 30.5t-31 82.5zM838 1303q0 64 47.5 109.5t118.5 45.5q54 0 85 -32t31 -83q0 -65 -48 -109t-116 -44q-56 0 -87 30.5 t-31 82.5z" />
<glyph unicode="&#xfd;" horiz-adv-x="1159" d="M172 -215q0 113 68 191t213 147q-263 41 -211 323l69 385q9 46 -37 46q-3 0 -17.5 -1.5t-23.5 -1.5h-28l26 152q67 23 162 23q111 0 145 -55.5t15 -166.5l-64 -360q-19 -108 5.5 -158.5t123.5 -50.5q76 0 141.5 53.5t82.5 141.5l102 579h244l-166 -934 q-55 -295 -180 -431t-355 -136q-68 0 -123 13.5t-99 42.5t-68.5 79.5t-24.5 118.5zM399 -182q0 -103 119 -103q104 0 163 77t85 224l31 162q-46 -46 -144 -106q-153 -88 -203.5 -134t-50.5 -120zM631 1233l303 383l88 -39q55 -21 55 -70q0 -34 -17 -55.5t-65 -58.5 l-293 -230z" />
<glyph unicode="&#xfe;" horiz-adv-x="1153" d="M92 -444l297 1685q6 31 -3 43t-36 14l-65 9l28 153h336l-92 -553h2q112 152 307 152q150 0 225.5 -105.5t75.5 -271.5q0 -211 -60.5 -370t-182.5 -250t-291 -91q-126 0 -213 60l-86 -475h-242zM451 219q77 -59 170 -59q75 0 132.5 42t91.5 112.5t51 154.5t17 176 q0 44 -4.5 77t-18.5 70t-46.5 57.5t-81.5 20.5q-84 0 -148.5 -59.5t-91.5 -198.5z" />
<glyph unicode="&#xff;" horiz-adv-x="1159" d="M172 -215q0 113 68 191t213 147q-263 41 -211 323l69 385q9 46 -37 46q-3 0 -17.5 -1.5t-23.5 -1.5h-28l26 152q67 23 162 23q111 0 145 -55.5t15 -166.5l-64 -360q-19 -108 5.5 -158.5t123.5 -50.5q76 0 141.5 53.5t82.5 141.5l102 579h244l-166 -934 q-55 -295 -180 -431t-355 -136q-68 0 -123 13.5t-99 42.5t-68.5 79.5t-24.5 118.5zM399 -182q0 -103 119 -103q104 0 163 77t85 224l31 162q-46 -46 -144 -106q-153 -88 -203.5 -134t-50.5 -120zM444 1303q0 64 46.5 109.5t117.5 45.5q54 0 86.5 -32t32.5 -83 q0 -65 -49 -109t-117 -44q-55 0 -86 30.5t-31 82.5zM848 1303q0 64 47.5 109.5t118.5 45.5q54 0 85 -32t31 -83q0 -65 -47.5 -109t-115.5 -44q-56 0 -87.5 30.5t-31.5 82.5z" />
<glyph unicode="&#x152;" horiz-adv-x="1867" d="M195 514q0 129 26 251.5t84.5 236t143.5 198t212 135.5t281 51q104 0 180 -24h869l-56 -315l-200 -11l16 90q5 31 -3.5 42.5t-39.5 11.5h-322l-69 -389h491l-32 -189h-492l-74 -420h344q28 0 39 12.5t17 43.5l18 88l201 6l-60 -332h-899q-98 -25 -192 -25 q-226 0 -354.5 138t-128.5 401zM453 514q0 -330 276 -330q71 0 141 13.5t101 35.5l153 883q-33 26 -90 44t-127 18q-85 0 -155.5 -30t-119 -82.5t-84.5 -118t-56 -142t-29.5 -148.5t-9.5 -143z" />
<glyph unicode="&#x153;" horiz-adv-x="1677" d="M164 358q0 109 19 208.5t62.5 190.5t107 158t158 106.5t210.5 39.5q91 0 176 -38t135 -122q152 158 408 158q139 0 215 -64.5t76 -197.5q0 -89 -33.5 -157.5t-92 -112t-143 -69.5t-180.5 -34.5t-211 -3.5q-13 -113 34.5 -185.5t168.5 -72.5q142 0 274 84l51 -170 q-49 -34 -150.5 -69.5t-229.5 -35.5q-227 0 -314 152q-139 -154 -364 -154q-184 0 -280.5 99t-96.5 290zM412 362q0 -98 35.5 -153t123.5 -55q68 0 121.5 36t85 91t51.5 127t27.5 135.5t7.5 126.5q0 211 -159 211q-57 0 -104 -25t-78 -68t-53.5 -95t-34.5 -112.5 t-17.5 -113.5t-5.5 -105zM1098 580q98 -2 168.5 5t128.5 28t87 62t29 103q0 50 -29 76.5t-79 26.5q-119 0 -199 -85.5t-106 -215.5z" />
<glyph unicode="&#x178;" horiz-adv-x="1161" d="M211 1200l29 162h475l-27 -156l-63 -4q-58 -3 -37 -61l131 -414h4l319 467l-94 8l29 160h418l-27 -156l-45 -4q-28 -4 -46 -18t-42 -47l-436 -619l-62 -350l131 -6l-28 -162h-521l27 154l84 6q34 5 48 16.5t20 46.5l51 291l-248 680zM516 1589q0 64 47.5 109t118.5 45 q53 0 85 -31.5t32 -81.5q0 -65 -48 -109t-118 -44q-54 0 -85.5 30.5t-31.5 81.5zM932 1589q0 64 47.5 109t118.5 45q53 0 84.5 -31.5t31.5 -81.5q0 -66 -47.5 -109.5t-117.5 -43.5q-55 0 -86 30t-31 82z" />
<glyph unicode="&#x2c6;" horiz-adv-x="1024" d="M403 1229l254 274q31 31 44 42.5t36 22.5t49 11q37 0 59 -15t46 -55l162 -288l-88 -66l-203 211l-277 -211z" />
<glyph unicode="&#x2dc;" horiz-adv-x="1024" d="M408 1286q57 92 111 128t118 36q52 0 139.5 -28.5t120.5 -28.5q61 0 107 61l96 -59q-87 -168 -232 -168q-48 0 -135.5 28.5t-124.5 28.5q-34 0 -58 -13.5t-58 -47.5z" />
<glyph unicode="&#x2000;" horiz-adv-x="930" />
<glyph unicode="&#x2001;" horiz-adv-x="1860" />
<glyph unicode="&#x2002;" horiz-adv-x="930" />
<glyph unicode="&#x2003;" horiz-adv-x="1860" />
<glyph unicode="&#x2004;" horiz-adv-x="620" />
<glyph unicode="&#x2005;" horiz-adv-x="465" />
<glyph unicode="&#x2006;" horiz-adv-x="310" />
<glyph unicode="&#x2007;" horiz-adv-x="310" />
<glyph unicode="&#x2008;" horiz-adv-x="232" />
<glyph unicode="&#x2009;" horiz-adv-x="372" />
<glyph unicode="&#x200a;" horiz-adv-x="103" />
<glyph unicode="&#x2010;" horiz-adv-x="653" d="M141 496l35 188h537l-35 -188h-537z" />
<glyph unicode="&#x2011;" horiz-adv-x="653" d="M141 496l35 188h537l-35 -188h-537z" />
<glyph unicode="&#x2012;" horiz-adv-x="653" d="M141 496l35 188h537l-35 -188h-537z" />
<glyph unicode="&#x2013;" horiz-adv-x="1024" d="M88 502l29 168h1024l-29 -168h-1024z" />
<glyph unicode="&#x2014;" horiz-adv-x="2048" d="M88 502l29 168h2048l-29 -168h-2048z" />
<glyph unicode="&#x2018;" horiz-adv-x="466" d="M291.5 1129q2.5 59 38.5 124l145 258l129 -49l-84 -227q-12 -31 1.5 -43t53.5 -12h50l-50 -179q-96 -30 -159.5 -18t-95 49.5t-29 96.5z" />
<glyph unicode="&#x2019;" horiz-adv-x="466" d="M276 1288l50 178q95 30 158.5 17.5t95.5 -50.5t29.5 -97t-38.5 -122l-145 -258l-129 50l84 227q12 31 -1.5 43t-53.5 12h-50z" />
<glyph unicode="&#x201a;" horiz-adv-x="491" d="M100 49l50 178q95 29 158 17t94.5 -50t29 -97t-38.5 -124l-145 -258l-129 52l86 225q11 33 -3 45t-55 12h-47z" />
<glyph unicode="&#x201c;" horiz-adv-x="868" d="M291.5 1129q2.5 59 38.5 124l145 258l129 -49l-84 -227q-12 -31 1.5 -43t53.5 -12h50l-50 -179q-96 -30 -159.5 -18t-95 49.5t-29 96.5zM692.5 1129q2.5 59 38.5 124l146 258l129 -49l-84 -227q-12 -31 1.5 -43t53.5 -12h49l-49 -179q-96 -30 -159.5 -18t-95.5 49.5 t-29.5 96.5z" />
<glyph unicode="&#x201d;" horiz-adv-x="868" d="M276 1288l50 178q95 30 158.5 17.5t95.5 -50.5t29.5 -97t-38.5 -122l-145 -258l-129 50l84 227q12 31 -1.5 43t-53.5 12h-50zM678 1288l49 178q95 30 158.5 17.5t95.5 -50.5t30 -97t-38 -122l-146 -258l-129 50l84 227q12 31 -1.5 43t-53.5 12h-49z" />
<glyph unicode="&#x201e;" horiz-adv-x="851" d="M86 49l49 178q95 29 158.5 17t95 -50t29 -97t-38.5 -124l-146 -258l-129 52l86 225q11 34 -2.5 45.5t-54.5 11.5h-47zM489 49l50 178q95 29 158 17t94.5 -50t29 -97t-38.5 -124l-145 -258l-129 52l86 225q11 34 -2.5 45.5t-54.5 11.5h-48z" />
<glyph unicode="&#x2022;" horiz-adv-x="1024" d="M379 590q0 130 85.5 213.5t205.5 83.5q100 0 148 -57.5t48 -153.5q0 -140 -82.5 -217.5t-199.5 -77.5q-93 0 -149 56.5t-56 152.5z" />
<glyph unicode="&#x2026;" horiz-adv-x="1519" d="M109 90q0 72 48.5 119t123.5 47q61 0 94 -30.5t33 -82.5q0 -71 -48 -120.5t-124 -49.5q-62 0 -94.5 31t-32.5 86zM639 90q0 72 48.5 119t123.5 47q61 0 94 -30.5t33 -82.5q0 -71 -48 -120.5t-124 -49.5q-62 0 -94.5 31t-32.5 86zM1155 90q0 72 48.5 119t123.5 47 q61 0 94 -30.5t33 -82.5q0 -71 -48 -120.5t-124 -49.5q-62 0 -94.5 31t-32.5 86z" />
<glyph unicode="&#x202f;" horiz-adv-x="372" />
<glyph unicode="&#x2039;" horiz-adv-x="669" d="M168 514q0 29 14 51.5t49 48.5l396 308l92 -103l-316 -309l201 -289l-106 -88l-293 301q-37 40 -37 80z" />
<glyph unicode="&#x203a;" horiz-adv-x="671" d="M121 229l311 320l-205 289l109 88l289 -301q41 -38 41 -80q0 -29 -14.5 -50.5t-51.5 -52.5l-393 -309z" />
<glyph unicode="&#x205f;" horiz-adv-x="465" />
<glyph unicode="&#x20ac;" horiz-adv-x="1116" d="M133 422l29 168h807l-31 -168h-418q0 -121 53 -183.5t179 -62.5q137 0 268 94l78 -157q-172 -138 -398 -138q-433 0 -421 447h-146zM182 707l31 167h145q64 228 229.5 350t379.5 122q189 0 315 -78l-49 -277l-201 -16l19 104q6 23 2.5 34t-21.5 17q-39 13 -104 13 q-139 0 -217 -65.5t-121 -203.5h428l-29 -167h-807z" />
<glyph unicode="&#x2122;" horiz-adv-x="1542" d="M256 1167v195h602v-195l-108 -8v41q0 14 -1 19.5t-8 9.5t-22 4h-80v-451l80 -4v-104h-326v102l43 4q39 6 39 41v412h-90q-20 -2 -20 -33v-41zM866 674v102l35 6q32 3 35 37q12 121 29 426l-58 4v113h240l160 -463h2l170 463h231v-109q-16 0 -23.5 -0.5t-17.5 -4t-14 -12 t-4 -22.5q0 -20 2 -34l26 -398l62 -4v-104h-273v102l35 6q22 5 30 14t7 31l-18 320l-158 -424h-119l-153 420l-25 -361l68 -4v-104h-269z" />
<glyph unicode="&#x25fc;" horiz-adv-x="1044" d="M0 0v1044h1044v-1044h-1044z" />
</font>
</defs>
</svg>
