<?xml version="1.0" standalone="no"?>
<!DOCTYPE svg PUBLIC "-//W3C//DTD SVG 1.1//EN" "http://www.w3.org/Graphics/SVG/1.1/DTD/svg11.dtd" >
<svg xmlns="http://www.w3.org/2000/svg">
<metadata></metadata>
<defs>
<font id="fishfingerslight" horiz-adv-x="548" >
<font-face units-per-em="2048" ascent="1536" descent="-512" />
<missing-glyph horiz-adv-x="421" />
<glyph horiz-adv-x="0" />
<glyph horiz-adv-x="682" />
<glyph unicode=" "  horiz-adv-x="421" />
<glyph unicode="&#x09;" horiz-adv-x="421" />
<glyph unicode="&#xa0;" horiz-adv-x="421" />
<glyph unicode="!" horiz-adv-x="219" d="M2 27q-2 14 2.5 34.5t20.5 36.5q41 47 94 4q18 -16 27.5 -36.5t-3.5 -51.5q-8 -16 -29.5 -25t-45.5 -9q-23 0 -43.5 10t-22.5 37zM45 223.5v34.5v45t2 43q2 14 2 28.5v22.5v80q0 55 -1 137t-2 175.5t-1 188.5v177v153.5t2 65.5q4 6 16.5 10.5t26.5 4.5t28.5 -4.5 t22.5 -12.5q12 -12 10.5 -46t-6.5 -81l-6 -76q-2 -76 -5 -159.5t-5 -159.5q-4 -102 -7 -214t-6 -207t-6.5 -159.5t-5.5 -72.5q-6 -16 -27.5 -22.5t-27.5 20.5q-4 12 -4 28.5z" />
<glyph unicode="&#x22;" horiz-adv-x="399" d="M51 1275.5v98.5q0 33 12.5 46.5t28.5 13.5t29.5 -12.5t15.5 -37.5q0 -25 -1 -86t-3 -130.5t-5 -135t-5 -98.5q-4 -23 -29.5 -23t-30.5 23q-4 31 -7 89t-4 124.5t-1 128zM238 1275.5v98.5q0 33 13 46.5t30 13.5q16 0 29.5 -12.5t15.5 -37.5q0 -25 -1 -86t-3.5 -130.5 t-5.5 -135t-5 -98.5q-4 -23 -29.5 -23t-29.5 23q-6 31 -8 89t-4 124.5t-2 128z" />
<glyph unicode="#" horiz-adv-x="712" d="M23 592q0 8 7 17t33 9q33 4 68 4.5t39 12.5v117q0 33 12.5 46t28.5 13q18 0 31.5 -12.5t15.5 -38.5q0 -18 -1 -38t-1 -36q0 -29 10 -39t41 -6h68l33 2q6 4 10 9t4 24v76q0 33 12 46t29 13q16 0 29.5 -12.5t15.5 -38.5v-82q2 -25 26.5 -27t55.5 -4q16 0 28.5 -3t16.5 -7 q14 -23 7 -41t-21 -25h-17q-14 0 -32.5 1t-34 0t-25.5 -7t-10 -18q0 -39 -2 -76t-2 -74q-4 -16 24.5 -19t59.5 -3h28.5t16.5 2q6 0 9 -12.5t3 -26.5t-3 -26.5t-9 -12.5h-32t-41.5 -2t-38.5 -5t-23 -9q-4 -6 -3.5 -28t3.5 -44q2 -16 2 -28.5v-16.5q0 -12 -9.5 -19.5 t-19.5 -7.5t-19.5 6.5t-11.5 18.5q0 6 -1 35.5t-1 44.5q0 16 -4 30.5t-31 14.5q-29 0 -58.5 -2t-59.5 -2q-18 0 -25.5 -13.5t-9.5 -31t-1 -36t1 -30.5v-8q0 -12 -9.5 -19.5t-20.5 -7.5t-20.5 6.5t-11.5 18.5v31q0 14 1 29.5t0 28.5t-7 22.5t-18 9.5h-13q-16 0 -40.5 1t-46 5 t-33 12t-0.5 25q4 6 34.5 12t81.5 14q10 2 20.5 9.5t10.5 23.5q-2 31 -2 69t-2 87q2 8 -13.5 15t-37.5 9q-35 4 -64.5 4.5t-29.5 20.5zM252 393q0 -27 9 -30t20 -3l114 11h2q20 4 24.5 10t6.5 16q0 2 1 13.5t3 60.5q0 41 -7 66.5t-22 31.5q-10 2 -33.5 3t-80.5 1 q-23 -2 -29 -16t-6 -25q-2 -29 -2 -70.5v-68.5z" />
<glyph unicode="$" horiz-adv-x="544" d="M8 866q0 66 7.5 131.5t19.5 123t30.5 103.5t43.5 72q14 16 30.5 24.5t36.5 16.5q12 6 19.5 10.5t10.5 10.5t4 17t1 32q2 18 12 26.5t25 8.5q12 0 23.5 -8.5t9.5 -26.5v-10q-4 -31 0 -41t26 -17q70 -16 122 -74.5t58 -138.5q4 -35 -11 -52t-34 -17q-16 0 -28.5 12 t-12.5 37q0 31 -14 72t-47 63q-4 2 -15.5 4t-23.5 -1t-20.5 -11t-8.5 -27l-4 -645q14 -37 42 -53t57 -27q20 -8 40.5 -15t34.5 -24q47 -41 47 -116q0 -39 -14 -79t-39.5 -73t-61.5 -53.5t-81 -22.5q-12 0 -18.5 -8t-9.5 -21.5t-5 -27.5t-2 -25q0 -2 -1 -4t-1 -4 q-8 -14 -26.5 -17t-26.5 15q-4 16 -4 33q-2 27 -6.5 50.5t-28.5 33.5l-14 4q-53 25 -91.5 59.5t-48.5 49.5q-4 16 4.5 29.5t21.5 20.5t27.5 6t26.5 -13q10 -20 25.5 -45t34.5 -37q12 -6 23 -7.5t26 27.5q0 57 1 113.5t1 111.5q2 20 -11.5 30.5t-37.5 25.5l-54 34 q-25 18 -42 51t-27.5 78.5t-15.5 97.5t-5 107zM76 844q0 -92 22.5 -168t77.5 -109h2q12 -8 18.5 39t9.5 122t4 166t1 171v160q-4 31 -20.5 25.5t-30.5 -19.5q-14 -16 -28.5 -56t-27 -93.5t-20.5 -115t-8 -122.5zM264 205q4 -33 23.5 -32t34.5 7q49 23 69.5 56.5t20.5 66.5 q0 29 -11.5 52.5t-27.5 35.5q-14 10 -34 20.5t-36 16.5t-27.5 3t-9.5 -21z" />
<glyph unicode="%" horiz-adv-x="817" d="M12 963q-2 100 37 160.5t125 62.5q170 4 180 -160q2 -43 -5 -82t-25.5 -68.5t-46 -49t-64.5 -21.5q-39 -2 -75 4t-63.5 24.5t-45 50t-17.5 79.5zM25 86q6 29 28.5 69t42.5 70l21 37l88 170q37 72 84 163t95 185t94 184.5t83 161t60.5 114.5t27.5 46h2q6 4 18.5 1t26 -10 t23.5 -17.5t14 -20.5q4 -14 -12 -43t-41 -70l-43 -65q-8 -12 -26.5 -47t-46 -84t-62.5 -110.5t-72 -129.5q-57 -104 -117.5 -213.5t-111.5 -200t-86 -149.5t-41 -66q-6 -6 -16.5 -8t-18.5 1t-13.5 10.5t-0.5 21.5zM80 1001q-4 -59 22.5 -98t77.5 -39q53 0 81 37t28 92 q0 53 -18.5 92t-77.5 43q-57 4 -83 -31.5t-30 -95.5zM434 424q-2 100 37 160.5t125 62.5q170 4 180 -160q2 -43 -5 -81.5t-25.5 -68.5t-46 -49.5t-64.5 -21.5q-39 -2 -75 4t-63.5 24.5t-45 50.5t-17.5 79zM502 463q-4 -59 22.5 -98t77.5 -39q53 0 81 36.5t28 92.5 q0 53 -19 92t-78 43q-57 4 -82.5 -32t-29.5 -95z" />
<glyph unicode="&#x26;" horiz-adv-x="512" d="M6 934q0 104 43 199.5t141 158.5q16 10 28.5 30.5t2.5 80.5q-4 25 8.5 38t26.5 13q18 0 32.5 -12t16.5 -37q2 -18 3 -34.5t1 -12.5q0 -14 2 -16.5t13 -2.5l71 9q16 0 23.5 -12.5t7.5 -28.5q0 -18 -6 -37t-17 -17h-2q-80 6 -138 -19.5t-98 -71.5t-59.5 -107.5 t-19.5 -128.5q0 -66 18.5 -132.5t55.5 -122t92 -95t127 -54.5q20 -4 27.5 -16t7.5 -29q0 -25 -10.5 -44t-20.5 -23q-123 -23 -178 -59t-55 -70q0 -49 79.5 -84t212.5 -31q16 0 20.5 -12.5t1.5 -27.5t-11.5 -27.5t-16.5 -14.5q-23 -2 -51.5 -2t-48.5 2q-12 0 -22.5 -3 t-12.5 -26q0 -10 -1 -21t-1 -20q0 -12 -9 -18t-20.5 -6t-20.5 6t-11 18l-7 58q-2 6 -4 18t-24 21q-70 23 -107 62.5t-37 86.5t45.5 98.5t141.5 92.5q23 18 19.5 23t-7.5 9q-59 33 -106.5 82t-80 109.5t-49 126t-16.5 133.5z" />
<glyph unicode="'" horiz-adv-x="208" d="M51 1275.5v98.5q0 33 12.5 46.5t28.5 13.5q18 0 31.5 -12.5t15.5 -37.5q0 -25 -1 -86t-3 -130.5t-5 -135t-5 -98.5q-4 -23 -30.5 -23t-31.5 23q-4 31 -7 89t-4 124.5t-1 128z" />
<glyph unicode="(" horiz-adv-x="391" d="M12 608q0 145 20.5 290.5t59.5 270.5t92 219.5t119 137.5q14 8 29.5 5t27 -13.5t13.5 -24.5t-11 -27q-66 -61 -117.5 -153t-88.5 -205t-56.5 -236.5t-19.5 -248.5q0 -98 13 -193.5t41 -181.5t70 -160t99 -127q16 -16 15 -30.5t-12 -24.5t-25.5 -13.5t-26.5 5.5 q-66 47 -111 121.5t-74.5 168t-43 201t-13.5 219.5z" />
<glyph unicode=")" horiz-adv-x="419" d="M8 1492.5q2 14.5 12.5 25t27 13.5t30.5 -5q66 -43 119 -137.5t92 -219.5t59.5 -270t20.5 -291q0 -113 -13.5 -220t-43 -200.5t-76 -168t-109.5 -121.5q-12 -8 -27.5 -5t-26 13t-11.5 24.5t16 30.5q57 53 99 127t69.5 160t41 181t13.5 194q0 125 -19.5 248.5t-56.5 236.5 t-89 205t-118 153q-12 12 -10 26.5z" />
<glyph unicode="*" horiz-adv-x="743" d="M14 459q0 2 20.5 8t51.5 12t70 12.5t75 10.5q16 4 27.5 9t-4.5 28q-29 35 -58.5 75.5t-58.5 77.5q-12 18 7.5 34.5t37.5 4.5l29 -37q14 -18 29.5 -37.5t31 -35t28.5 -23.5t19 -4q12 4 13.5 30.5t-2.5 59.5q-2 18 -3 38.5t-1 29.5q0 59 34 59q16 0 29.5 -12.5t16.5 -38.5 l4 -144q8 -35 19 -32.5t22 12.5q37 37 71.5 70.5t50.5 50.5q20 18 37 8t11 -33q-4 -8 -18.5 -25.5t-29.5 -33.5q-12 -14 -29.5 -33.5t-31.5 -38.5q-16 -23 -7 -33t25 -10q51 2 99.5 1t52.5 -5q25 -23 15.5 -47.5t-23.5 -26.5h-15q-6 0 -13 1t-17 1q-16 0 -33.5 1t-34.5 1 q-37 0 -64.5 -4t-23.5 -20v4q-2 -6 12.5 -28.5t34 -48t40 -49.5t28.5 -32q25 -29 25.5 -49t-9.5 -30.5t-30.5 -6.5t-38.5 27q-29 31 -51.5 65.5t-39.5 59.5q-29 47 -43 52t-14 -42l2 -211q0 -12 -9 -18.5t-19.5 -6.5t-19.5 6.5t-11 18.5q-4 6 -2 34t6 60q4 43 5 85t-9 55 q-16 -2 -45 -28t-56 -54l-63 -70q-23 -4 -38 15.5t-11 35.5q0 4 23.5 25.5t52.5 50.5l43 43q33 33 14 38t-45 3l-90 -4q-18 -2 -33.5 -3t-26.5 -1q-12 -2 -24 -2q-10 4 -15.5 18t-1.5 27z" />
<glyph unicode="+" horiz-adv-x="569" d="M3 444.5q-3 14.5 7 28.5q6 8 62.5 15.5t136.5 15.5q25 4 27 23.5t2 66.5v41.5t2 52.5q0 31 10 44t26 13q18 0 23.5 -12t7.5 -37v-135q0 -16 7.5 -34.5t45.5 -12.5q25 2 52.5 4t50 2h38t19.5 -2q8 -4 12.5 -13t4.5 -19.5t-2.5 -18.5t-4.5 -10q-8 -4 -25.5 -7.5t-39.5 -3.5 h-53.5t-59.5 -4q-25 -2 -32 -14t-7 -35l-6 -188q-2 -25 -26.5 -24t-28.5 24t-6 70l-4 94q0 37 -9.5 51t-25.5 12l-78 -4q-41 -4 -72.5 -4t-42.5 2q-8 4 -11 18.5z" />
<glyph unicode="," horiz-adv-x="174" d="M23 41v2q-2 16 8 28.5t24.5 19.5t31.5 6t32 -9q14 -16 12 -44t-12 -53.5t-24.5 -42t-24.5 -11.5l-2 2l10 38q2 6 -1 14.5t-14 12.5q-16 2 -27 13.5t-13 23.5z" />
<glyph unicode="-" horiz-adv-x="563" d="M22 443.5q-3 5.5 1 13.5q6 8 54 21.5t113.5 25.5t134 20t117.5 8q51 0 58 -8q8 -27 7 -49t-11 -29q-10 -2 -48 -7t-89.5 -10t-106.5 -9t-102.5 -7t-78 -4t-30.5 3q0 12 -14 22h2q-4 4 -7 9.5z" />
<glyph unicode="." horiz-adv-x="186" d="M23 27q-2 12 2 28.5t16 30.5q29 31 65 0q12 -10 20.5 -25.5t-1.5 -37.5q-4 -10 -20.5 -16.5t-36.5 -6.5q-16 0 -29.5 6t-15.5 21z" />
<glyph unicode="/" horiz-adv-x="483" d="M23 72q0 25 12 66.5t24 76.5l15 43q4 8 19.5 70.5t37.5 152.5q20 80 46 178.5t51.5 197.5t50 192.5t44 166t32 116.5t14.5 46h2q6 6 19 6t26.5 -3t26 -11t18.5 -16q6 -12 -4.5 -45t-26.5 -80l-24 -74q-4 -12 -14.5 -45t-25 -80t-31 -105.5t-34.5 -119.5 q-35 -119 -73 -248t-69.5 -237.5t-55 -181t-27.5 -79.5q-12 -16 -34 -16t-19 29z" />
<glyph unicode="0" horiz-adv-x="839" d="M12 631q0 113 8.5 224.5t21.5 204.5t33.5 157.5t45.5 85.5q47 35 125 56t164 21q72 0 142.5 -17t121.5 -52q16 -16 33.5 -78t31 -152t22.5 -199.5t9 -219.5q0 -78 -5 -154t-16.5 -143.5t-28.5 -124t-42 -93.5q-49 -70 -138 -99.5t-184 -29.5q-80 0 -148.5 18.5 t-98.5 49.5v-2q-25 25 -43.5 79t-29.5 128t-17.5 161t-6.5 179zM96 631q0 -84 5 -164t14.5 -145.5t24 -111.5t34.5 -63q29 -25 77 -37t101 -12q80 0 156 28t117 81q14 20 26.5 71.5t20.5 122t12 155.5t4 173t-5 174t-14.5 156.5t-24.5 121t-36 68.5q-35 29 -87 44.5 t-111 15.5q-70 0 -130.5 -19.5t-89.5 -54.5q-25 -29 -42 -91.5t-29.5 -144t-17.5 -178t-5 -190.5z" />
<glyph unicode="1" horiz-adv-x="249" d="M-6 1267.5q6 16.5 25.5 34t46 34t50 27.5t39 11t13.5 -14v-422q0 -145 1 -299t1 -285q0 -119 -1 -201.5t-3 -99.5q-4 -6 -15.5 -13t-23.5 -11t-22.5 -3t-12.5 11q-4 23 -6 90.5t-2 165.5q0 86 1 186.5t3 204.5q2 117 3 229.5t1 202.5v75t-2 60l-86 -6q-16 6 -10 22.5z " />
<glyph unicode="2" horiz-adv-x="714" d="M12 59q0 12 5.5 25.5t13.5 30.5v-2l82 135q41 66 92 148.5t100 166.5t92 161t68 130q25 55 39 118.5t14 123.5q0 92 -41 156.5t-141 68.5q-51 2 -91 -19.5t-67.5 -54.5t-40 -72.5t-8.5 -76.5q4 -33 -13.5 -50.5t-35.5 -17.5q-14 0 -24.5 11.5t-10.5 37.5q0 33 8 84 t39 102.5t88.5 90.5t155.5 47q57 4 106.5 -16.5t86 -61.5t58 -100.5t21.5 -130.5q0 -61 -16.5 -129t-50.5 -140q-68 -135 -138.5 -255.5t-126.5 -213.5q-57 -96 -91.5 -162.5t-18.5 -76.5h-2q6 -4 27.5 -6t56.5 -2q43 0 98 2t110.5 6t103.5 8t73 8q18 0 30.5 -14.5 t12.5 -32.5q0 -20 -8.5 -39.5t-22.5 -15.5q-8 2 -24.5 2h-40.5q-55 0 -138.5 -2t-160.5 -6q-61 -4 -111.5 -5.5t-77.5 -1.5q-80 0 -80 41z" />
<glyph unicode="3" horiz-adv-x="651" d="M13 1210.5q-7 26.5 14 55.5q35 53 101.5 91t141.5 38q76 0 148 -45q43 -29 75.5 -78t55 -110.5t35 -130t12.5 -134.5q0 -45 -5 -87t-18 -81q-25 -78 -46 -121t-38 -69q-12 -23 -21 -38.5t-9 -31.5q0 -8 8 -16.5t16 -16.5q23 -18 51.5 -55t28.5 -96q0 -37 -11 -81 t-40 -102q-33 -61 -81 -84.5t-99 -23.5q-43 0 -86 11t-79 27.5t-62.5 34t-36.5 27.5q-14 14 -13.5 32.5t11 33t28 18.5t35.5 -8q14 -12 37.5 -27.5t52.5 -29t60.5 -22.5t62.5 -9q35 0 65.5 15.5t47.5 54.5q31 76 30 127q0 55 -29.5 83.5t-72.5 41t-91 13.5t-85 1 q-10 0 -16.5 13t-6.5 32q0 14 9.5 25.5t25.5 11.5q76 -8 125 15.5t81 65.5t51.5 93t35.5 100q16 59 16 123q0 74 -20.5 147.5t-55 133t-82.5 96.5t-106 37q-41 0 -85 -25t-89 -74q-29 -29 -47 -28q-23 0 -30 26.5z" />
<glyph unicode="4" horiz-adv-x="733" d="M10 825q0 88 2 177.5t6.5 164t7.5 127t7 66.5q4 25 16 37t25 12q10 0 17 -9t9 -32q2 -20 1 -95t-5 -177q-4 -98 -5 -205t-1 -193q0 -74 3 -128t13 -64q12 -4 56.5 -6t95.5 -2q53 0 98 4t58 16q8 6 14 67.5t10 149.5t7.5 191.5t5.5 198t3 164t1 89.5q0 29 13 40.5t30 11.5 q16 0 31.5 -13.5t11.5 -42.5q-4 -23 -8.5 -99.5t-8.5 -178t-7 -210t-3 -194.5q0 -72 3 -119t9 -57q16 -16 32.5 -17t39.5 3q12 4 29.5 5t34.5 -1q12 -6 23 -18.5t11 -24.5q0 -16 -7 -27.5t-23 -11.5h-33q-37 2 -67.5 -2t-37.5 -27q-4 -27 -7 -91t-3 -130q0 -94 6 -137 q0 -14 -11 -22.5t-26 -8.5q-20 0 -36.5 10.5t-16.5 32.5v78t-1 110.5t-4 104.5t-7 59q-4 10 -26.5 13.5t-57.5 3.5q-20 0 -43 -1t-45 -1h-76q-47 0 -84 2t-47 8t-16.5 41t-10.5 90t-5 125t-1 143z" />
<glyph unicode="5" horiz-adv-x="651" d="M10 1245q0 33 1 55.5t3 32.5q8 14 55.5 24.5t111 16.5t134 9t125.5 3h56.5t38.5 -2h2q23 -4 33 -15t10 -26q0 -12 -10.5 -23t-24.5 -11q-10 2 -29.5 2h-42.5q-47 0 -109.5 -3t-120 -9.5t-99.5 -16.5t-46 -25q-4 -20 -4 -116q0 -51 1 -115.5t4 -133.5t7.5 -133.5 t9.5 -116.5t10 -85t13 -37h-2q4 -4 23.5 -5t38.5 1q16 0 31.5 1t33.5 1q49 0 106.5 -7t106.5 -29.5t83 -67.5t36 -121q2 -86 -41 -143.5t-105.5 -91t-135 -48t-130.5 -14.5q-61 0 -96 14q-31 14 -31 43q0 25 19.5 42.5t46.5 6.5q25 -10 86 -10q45 0 100.5 9.5t103.5 31 t80.5 59t30.5 93.5q0 45 -23.5 73.5t-60.5 43t-83 19.5t-91 5q-18 0 -35.5 -1t-33.5 -1q-31 -2 -57.5 -2t-43.5 4q-14 4 -25.5 50t-21.5 118t-17 161t-12.5 179t-7.5 172t-2 139z" />
<glyph unicode="6" horiz-adv-x="624" d="M12 344q0 43 6 90q8 72 21.5 162t27 184t28 187.5t26.5 171.5t21.5 134t15.5 79q6 35 30.5 57.5t44.5 22.5q23 0 23 -43q0 -27 -8 -60q-10 -45 -26.5 -125t-34 -172t-34 -187t-27.5 -174t-14 -131.5t5 -58.5q10 -8 29.5 -4t43.5 10q31 6 67 13.5t77 7.5t84 -13.5 t78 -52.5q41 -41 63.5 -100t22.5 -121q0 -43 -12.5 -83t-38 -72.5t-65.5 -53t-95 -24.5q-174 -10 -266.5 86t-92.5 270zM86 299q0 -57 37 -121.5t131 -99.5q49 -16 88 -17q39 0 68.5 15.5t48 40t28 55.5t9.5 64q0 68 -31 114q-35 51 -81 69.5t-97 18.5q-57 0 -107.5 -18.5 t-68.5 -38.5q-10 -12 -17.5 -33.5t-7.5 -48.5z" />
<glyph unicode="7" horiz-adv-x="643" d="M10 1323q0 12 15.5 22.5t37.5 14.5q37 6 114 12t157 6q43 0 85 -2t77.5 -6t61.5 -13t38 -22q10 -12 7 -67.5t-15.5 -138t-32.5 -185t-43 -212t-48.5 -216t-47 -196t-38 -153t-24.5 -87.5q-25 -61 -51 -62q-16 0 -23.5 28t3.5 75l41 170q18 78 40.5 177t45 201.5t44 203 t36 181.5t19.5 136t-3 70q-12 23 -55 29.5t-101 6.5q-35 0 -70.5 -1t-70.5 -3q-43 -4 -80.5 -6t-60.5 2q-57 8 -58 35z" />
<glyph unicode="8" horiz-adv-x="720" d="M6 872q0 113 34 233t97 216q27 37 73 53.5t97 16.5q72 0 139.5 -22.5t96.5 -51.5q66 -70 94.5 -177.5t28.5 -221.5q0 -127 -32 -241t-75 -173q-18 -20 -18 -30.5t16 -35.5v2l8 -14q23 -37 35 -87t12 -101q0 -53 -15 -102.5t-46 -80.5q-29 -29 -83 -43t-114 -14 q-68 0 -126 15.5t-83 43.5q-35 37 -48 88.5t-13 102.5q0 53 12.5 97t32.5 63q27 27 26 36t-16 25l-16 18q-55 66 -86 167.5t-31 217.5zM86 881q0 -98 19.5 -183.5t56.5 -142.5q18 -29 68.5 -43t109.5 -14q53 0 100 14t66 43q45 72 67.5 169t22.5 198q0 100 -23.5 189 t-76.5 140q-29 29 -73 42.5t-91 13.5q-41 0 -77 -11t-56 -34q-59 -68 -86 -170.5t-27 -210.5zM145 250q0 -70 52 -133q27 -27 66.5 -40.5t82.5 -13.5q37 0 72.5 7.5t60.5 23.5q31 18 49.5 65.5t18.5 94.5q0 31 -6 59.5t-23 51.5q-18 29 -63 42t-99 13q-53 0 -99 -13.5 t-71 -41.5q-41 -53 -41 -115z" />
<glyph unicode="9" horiz-adv-x="620" d="M4 827q0 25 2 51.5t6 55.5q29 209 101.5 326.5t193.5 119.5q72 2 102.5 -22.5t43.5 -38.5q16 -23 23.5 -20.5t25.5 47.5q2 6 11 14t20.5 11t20.5 -1t13 -18q2 -10 0 -69.5t-7 -152t-12 -207t-15.5 -234.5t-15.5 -234.5t-14 -206.5t-12.5 -152.5t-7.5 -70.5 q-2 -16 -13 -24.5t-24 -8.5q-12 0 -21 9t-9 32t5 77t13 119q4 43 8 84t7.5 75t3.5 58.5t-2 30.5q-4 10 -19.5 7t-32.5 -9q-29 -12 -69.5 -25.5t-87.5 -5.5q-104 16 -171 118t-67 265zM78 836q0 -90 19.5 -148.5t47 -93.5t60.5 -51.5t57 -24.5q27 -8 58.5 1t59.5 27.5 t47.5 42.5t23.5 44q12 61 21 142t9 167q0 94 -16 188q-16 80 -50 121t-106 49q-43 4 -81 -30.5t-68.5 -93t-51 -132t-28.5 -147.5q-2 -14 -2 -31.5v-29.5z" />
<glyph unicode=":" horiz-adv-x="186" d="M23 258q-2 12 2 27.5t16 29.5q29 31 65 0q12 -10 20.5 -25.5t-1.5 -37.5h2q-4 -10 -21.5 -16.5t-37.5 -6.5q-16 0 -29.5 6.5t-15.5 22.5zM23 676q-2 12 2 27.5t16 29.5q29 31 65 0q12 -10 20.5 -24.5t-1.5 -36.5h2q-4 -10 -21.5 -17.5t-37.5 -7.5q-16 0 -29.5 6t-15.5 23 z" />
<glyph unicode=";" horiz-adv-x="186" d="M20 283v2q-2 14 8.5 26.5t25 19.5t31.5 6t32 -9q14 -16 11 -44t-14.5 -53.5t-25.5 -43t-25 -11.5q2 0 5 8l8 33q0 10 -2 16.5t-13 10.5q-16 2 -27 14t-14 25zM23 676q-2 12 2 27.5t16 29.5q29 31 65 0q12 -10 20.5 -24.5t-1.5 -36.5h2q-4 -10 -21.5 -17.5t-37.5 -7.5 q-16 0 -29.5 6t-15.5 23z" />
<glyph unicode="&#x3c;" horiz-adv-x="571" d="M12 453q0 43 29 75q18 20 48 46t65.5 54.5t74.5 57.5t76 53q41 33 74 55.5t41 30.5q23 23 49 23q29 0 41 -26.5t-6 -55.5q2 2 -8.5 -5t-27.5 -18.5t-39.5 -26t-45.5 -28.5q-43 -29 -92 -61.5t-90 -62t-68 -54.5t-27 -37q0 -14 27 -31.5t68 -35t90 -35t94 -31.5 q49 -16 84 -28.5t43 -16.5q12 -10 13 -27.5t-6 -34t-21.5 -25.5t-30.5 -3l-188 82l-220 94q-20 10 -33.5 29.5t-13.5 42.5z" />
<glyph unicode="=" horiz-adv-x="630" d="M20.5 333.5q0.5 16.5 4.5 26.5q6 8 55 18.5t116.5 20t143.5 15.5t133 6q41 0 64.5 -3t25.5 -9q10 -31 9 -52.5t-13 -25.5q-6 -2 -47 -5t-99.5 -5.5t-125 -3.5t-123.5 -1q-53 0 -86 -1t-35 -1q-23 4 -22.5 20.5zM20.5 542.5q0.5 16.5 4.5 26.5q6 8 55 18.5t116.5 19.5 t143.5 15.5t133 6.5q41 0 64.5 -3t25.5 -10q10 -31 9 -52t-13 -25q-6 -2 -47 -5.5t-99.5 -5.5t-125 -3t-123.5 -1q-53 0 -86 -1t-35 -1q-23 4 -22.5 20.5z" />
<glyph unicode="&#x3e;" horiz-adv-x="571" d="M9 267.5q1 17.5 14 27.5q8 4 42.5 16.5t81.5 28.5q45 14 94.5 31.5t90.5 35t68.5 35t27.5 31.5q0 12 -26.5 35.5t-68.5 54.5t-91 63.5t-92 61.5q-47 31 -81 51.5t-38 26.5q-23 31 -9.5 56.5t41.5 25.5q10 0 25 -5.5t27 -17.5q8 -8 39.5 -30.5t74.5 -55.5q37 -25 76 -53.5 t75 -57t65.5 -54t48.5 -46.5q29 -33 28 -75q0 -23 -13 -42.5t-36 -29.5q-6 -2 -26.5 -10.5t-51 -21.5t-67.5 -29.5t-74 -32.5l-188 -82q-16 -6 -29.5 3t-21 25.5t-6.5 34z" />
<glyph unicode="?" horiz-adv-x="493" d="M4 70q-2 -35 20.5 -54.5t49.5 -19.5q23 0 40 14.5t21 48.5v2q4 35 -17.5 54.5t-47.5 19.5q-27 0 -46.5 -15.5t-19.5 -49.5zM14 295.5v38.5q0 45 6.5 90t24.5 76q12 16 34.5 31.5t49.5 33.5q33 18 70 45t69.5 66t56 90t29.5 123q6 111 -27.5 189.5t-83.5 132t-104.5 85 t-85.5 45.5v-2l-24 13h2q-12 8 -11.5 22.5t9 28.5t21.5 22.5t28 4.5q20 -6 84.5 -42t132 -102.5t115 -165t32.5 -229.5q-10 -92 -34.5 -153.5t-56.5 -101.5t-69.5 -65.5t-70.5 -46.5h2q-45 -25 -77 -49t-42 -67q-8 -33 -8 -70q0 -25 3 -42t7 -34q6 -29 6 -39q0 -12 -14 -21 t-29.5 -11.5t-28 4t-12.5 26.5q0 8 -1 17.5t-1 23.5q-2 16 -2 33.5z" />
<glyph unicode="@" horiz-adv-x="985" d="M10 621q0 88 8.5 177t24.5 172t37.5 153.5t50.5 121.5q51 86 134 129t175 43q55 0 111.5 -13t106 -39t90 -61.5t67.5 -80.5q47 -78 72.5 -196t25.5 -245q0 -117 -21.5 -224t-62.5 -187q-37 -70 -65.5 -96.5t-54.5 -26.5q-23 0 -45.5 16.5t-45.5 34.5l-24 20 q-12 10 -21.5 11.5t-16.5 -2.5t-13 -11.5t-13 -11.5q-20 -18 -64 -41.5t-95 -23.5q-49 0 -99 36q-35 29 -49 79.5t-14 101.5q0 53 12 99t29 69q25 29 58.5 41t68.5 12t68.5 -8t60.5 -15l26 -6h-2q16 -4 18.5 2t2.5 23v45q2 18 9 26.5t18 8.5q23 0 43 -20.5t22 -47.5 q0 -16 -1 -38.5t-3 -47.5t-4 -51.5t-2 -50.5q0 -37 5 -70t19 -55q16 -29 46 -28t61 56q12 27 24.5 68t23.5 92t17.5 109.5t6.5 117.5q0 98 -21.5 200t-71.5 179q-57 78 -137 121t-155 43q-82 0 -152 -37t-104 -102q-20 -37 -38 -104.5t-31 -152.5t-21.5 -180.5t-8.5 -187.5 q0 -145 23.5 -261t77.5 -161q49 -41 106 -55t115 -14q43 0 83 8t73.5 19.5t60.5 22.5t41 19q25 12 44 9.5t30.5 -14t13.5 -27t-8 -25.5q-16 -10 -52 -24.5t-85.5 -30t-107.5 -25.5t-116 -10q-72 0 -139.5 19.5t-116.5 72.5q-33 35 -57.5 90.5t-39.5 126t-23.5 150.5 t-8.5 164zM272 453q0 -35 10.5 -66t32.5 -49q20 -16 52 -15t65 11t60.5 29.5t44.5 39.5q23 35 23.5 71t-3.5 58q0 4 -1 5.5t-1 3.5v2q0 6 -18.5 16t-45 18.5t-58.5 14.5t-58 6q-27 0 -46.5 -6t-27.5 -21v2q-10 -23 -19.5 -54.5t-9.5 -65.5z" />
<glyph unicode="A" horiz-adv-x="821" d="M4 28v10q0 16 4 38q6 28 17.5 64t25.5 71q6 14 24.5 67.5t44 129t57.5 169t63.5 188.5t62.5 187t54.5 165t40 120t18.5 55l6 27q6 25 13.5 45t19.5 20q20 0 43.5 -15t23.5 -81q0 -20 12.5 -89t33 -164t45 -207.5t50 -223t48 -209t39.5 -166.5l20 -94q6 -23 6 -48.5 t-24 -37.5q-27 -12 -49.5 15.5t-30.5 56.5q-2 4 -5 24.5t-8 53.5q-6 41 -15 97t-19 116q-4 8 -54.5 5t-115.5 -7l-49 -4q-8 0 -16.5 -1.5t-16.5 -1.5q-70 -4 -125 -12t-60 -22q-25 -98 -37 -146.5t-14 -52.5q-6 -18 -17 -48t-26 -58q-16 -28 -36 -46q-15 -14 -30 -13 q-5 0 -10 1q-12 2 -14 22zM227 498v2q-2 -4 -2 -6q1 -8 11 -12q14 -6 42 -6h19q20 0 44 1q36 2 75 6q8 0 14 1t14 1q63 4 110.5 13.5t47.5 23.5q-18 104 -39.5 209t-41 187.5t-38 135t-30.5 52.5q-14 0 -40 -56.5t-57.5 -144.5t-64.5 -195.5t-64 -211.5z" />
<glyph unicode="B" horiz-adv-x="679" d="M29 784q0 111 1 213.5t3 181t5 127t7 52.5q14 10 54 17t91 7q72 0 153 -16t130 -51q72 -55 107.5 -148.5t35.5 -193.5q0 -80 -18 -158t-52 -141.5t-82 -107.5t-108 -56l11 -16q2 4 29.5 -8.5t60 -37t62.5 -60.5t36 -81q2 -16 3 -31.5t1 -25.5q0 -74 -27.5 -106.5 t-66.5 -59.5q-23 -14 -61.5 -24.5t-84 -17.5t-91.5 -10t-85 -3q-31 0 -54 2t-34 6q-6 6 -11 74.5t-8 174t-5 236.5t-2 262zM111 692q0 -80 5 -133t15 -59v2q14 -8 42 -1t59.5 21.5t61.5 32.5t48 31q104 78 156.5 177t52.5 198q0 76 -31 147.5t-90 126.5q-18 16 -46 27.5 t-59.5 19.5t-65.5 11t-60 3q-35 0 -57.5 -7t-22.5 -19q1 -20 1 -51t-1 -73q-2 -83 -4 -167q-2 -74 -3 -148.5t-1 -138.5zM117 387q0 -39 1 -82t4 -81t8 -66.5t11 -36.5t39 -15.5t80 -7.5q39 0 82 8.5t77 30t51 57.5q12 25 12 61q0 17 -3 36q-4 33 -30.5 54.5t-63.5 33.5 t-79 17t-81 5t-68.5 -5t-39.5 -9z" />
<glyph unicode="C" horiz-adv-x="598" d="M16 707q0 82 9.5 165.5t26 159.5t40 137.5t51.5 102.5q49 53 105.5 77.5t101.5 24.5q47 0 81 -11t44 -17q29 -16 29 -41q0 -27 -43 -35q-16 -4 -33.5 -3t-34.5 5q-33 3 -64 3h-16q-39 -1 -75 -30q-37 -33 -65 -86t-44 -120.5t-24.5 -144.5t-8.5 -157q0 -88 9.5 -174 t24.5 -161.5t36.5 -135t48.5 -94.5q41 -47 98 -47q29 0 58.5 8t56.5 17q27 10 46.5 13t29.5 -1q27 -18 38 -37q3 -5 3 -10q0 -14 -25 -29q-27 -16 -79 -32.5t-117 -16.5q-39 0 -80 11t-76 36q-35 31 -62.5 94.5t-48 147.5t-31 182t-10.5 199z" />
<glyph unicode="D" horiz-adv-x="724" d="M25 63q0 6 1 44t3 98.5t4 136.5t6 158q4 123 9 256t8 244.5t4 189.5t1 94q-1 8 -1 16q0 36 16 48q20 14 45 14q27 0 81 -13.5t156 -60.5q76 -35 128.5 -94t85 -134t48 -162t15.5 -177q0 -78 -11.5 -157t-32 -149.5t-48 -132t-60.5 -106.5q-45 -55 -106.5 -90t-119.5 -52 q-57 -18 -105 -23q-34 -4 -51 -4q-7 0 -11 1q-29 4 -46 14.5t-19 40.5zM117 303q0 -78 2 -126t8 -56q8 -13 38 -15q3 0 7 -1q28 1 62 11q38 12 81 35t82 60q35 33 63.5 85t48 116.5t31 137.5t11.5 148q0 111 -25.5 216.5t-81.5 191.5q-31 45 -74.5 75.5t-85.5 47t-76 19.5 q-9 1 -17 1q-20 0 -27 -6q-6 -4 -11.5 -54t-10.5 -129t-10 -177.5t-8 -201.5t-5 -201.5t-2 -176.5z" />
<glyph unicode="E" horiz-adv-x="630" d="M25 1057q0 133 4 220t12 97q10 10 59.5 15.5t108.5 5.5q43 0 87 -2t80 -4.5t60.5 -6.5t30.5 -6q4 -4 9 -11t8 -15.5t1 -16.5t-12 -10h2q-10 -4 -43 -5t-74 -3q-31 -2 -62.5 -3t-60 -4t-51 -7.5t-32.5 -10.5t-19.5 -59t-15.5 -131t-9.5 -169t-3.5 -173q0 -98 5.5 -165 t15.5 -73q10 -8 52 -5t95 7q39 4 79 7t69 3q37 0 49 -8q10 -23 6 -46t-20 -34q-10 -4 -38 -4t-63 2q-25 0 -51.5 1t-50.5 1q-47 0 -80 -5t-41 -21q-8 -14 -11 -44t-3 -65q0 -25 2 -55.5t7 -57t11 -46t17 -23.5q16 -8 67 -10t111 -6q70 -4 131 -8.5t76 -12.5q17 -15 17 -37 q0 -17 -9 -28q-10 -2 -38 -5.5t-68 -5.5t-86 -3t-91 -1q-70 0 -124 3t-64 10q-8 4 -14.5 54t-11.5 132t-10 187.5t-8 219t-5 228t-2 213.5z" />
<glyph unicode="F" horiz-adv-x="530" d="M25 1057q0 133 4 220t12 97q8 8 34.5 11.5t67.5 3.5q45 0 98.5 -4.5t101.5 -9.5t84 -10t48 -7q10 -5 10 -19q0 -11 -18 -16h2q-10 -4 -42 -5t-73 -3q-31 -2 -63.5 -3t-61 -4t-51 -7.5t-33.5 -10.5h2q-10 -6 -17 -43t-12 -93t-7 -127t-2 -144q0 -68 2 -133.5t6 -116.5 t10 -84t12 -37h-2q10 -10 47 -6t80 8q29 4 59.5 6t53.5 2q37 0 47 -6q16 -14 13 -40.5t-19 -37.5q-8 -4 -33 -3t-53 3q-18 2 -42 2h-40q-39 0 -68.5 -5t-38.5 -21q-10 -20 -13 -48t-3 -61q0 -37 4 -80t8 -80t8.5 -70.5t-0.5 -51.5q-19 -11 -33 -13h-5q-13 0 -33 13 q-8 4 -14.5 54t-11.5 132t-10 187.5t-8 219t-5 228t-2 213.5z" />
<glyph unicode="G" horiz-adv-x="714" d="M23 623q0 109 15 219t44 207.5t70 173t94 116.5q45 37 88 51.5t84 14.5q51 0 86 -16.5t49 -32.5q18 -23 12 -33t-18 -20q-14 -4 -32.5 -2t-41.5 8q-16 4 -34.5 9t-41.5 5t-47 -8t-47 -29q-47 -45 -85 -116.5t-64.5 -157.5t-40 -181.5t-13.5 -187.5q0 -74 9.5 -145.5 t28 -134t46 -113.5t66.5 -88q39 -35 78 -47.5t73 -12.5q37 0 65 10.5t40 16.5q35 23 50 73t15 95q0 29 -5 53.5t-15 32.5q-12 10 -59.5 12t-98.5 2q-45 0 -78.5 1t-38.5 10q-2 2 -1 3t-1 3v-2q-6 10 -9 18t9 16q8 6 35 12.5t62 11.5t73.5 8t73.5 3q66 0 84 -12 q14 -10 22.5 -52t8.5 -102q0 -41 -5 -83t-15.5 -79.5t-27 -66.5t-40.5 -41q-70 -33 -146 -33q-43 0 -88 11.5t-86 29.5q-49 31 -86 89.5t-63.5 134t-39.5 164.5t-13 182z" />
<glyph unicode="H" horiz-adv-x="706" d="M18 1305.5v37.5q2 20 16 31q14 12 30 14h5q13 0 24 -6q13 -8 13 -22v-24.5t-1 -48t-1 -58.5v-55q0 -68 -1 -148t-1 -153.5v-135v-92.5v-62.5t2 -84.5v4q0 -8 31 -9h13q27 0 64 3q46 4 99.5 12t100.5 17.5t79.5 18.5t36.5 15l4 -8q0 35 -1 70.5t-1 72.5q-2 102 -3 198.5 t-1 178.5q0 92 2 153.5t9 80.5v2q6 20 20 30.5t30.5 12.5t30 -3.5t17.5 -13.5q1 -4 1 -26v-26q-1 -46 -3 -116.5t-5 -160t-7.5 -182.5t-8.5 -184t-6 -165q-4 -59 -5 -102t-1 -62v-65v-67t2 -54q0 -14 1 -24.5t1 -18.5q0 -14 -16.5 -26.5t-32.5 -12.5q-10 0 -18.5 11t-4.5 44 q0 8 1.5 28.5t2.5 49.5t1 62.5v66.5q0 47 -1 84t-6 47v-10q-2 8 -32.5 11t-75.5 3t-97.5 -5t-97.5 -11t-77.5 -13.5t-36.5 -15.5l-4 19q-4 -4 -5.5 -29t-0.5 -61.5t3.5 -78.5t4.5 -81q3 -36 3 -68v-15q-1 -38 -8 -48q-2 -6 -14 -9.5t-27.5 -3.5t-27.5 4.5t-14 14.5 q-1 5 -1 36v37q1 64 2 156t4 198.5t5 199.5q2 86 3 147t1 80q0 25 -2 79t-6 117l-4 82t-4.5 76t-2.5 60.5z" />
<glyph unicode="I" horiz-adv-x="231" d="M35 38.5v35.5v44.5t2 43.5q2 12 2 26.5v22.5v82q0 61 -1 158.5t-2 208t-1 224v212.5v184.5t2 75.5q4 6 16.5 9t26.5 3t28.5 -3t22.5 -11q10 -10 10 -37v-9q-2 -34 -6 -79l-6 -76q0 -12 -1 -49t-3 -89t-3 -116.5t-3 -132.5q-4 -121 -7 -250t-6.5 -238.5t-7.5 -183.5 t-6 -82q-6 -16 -26 -22q-4 -1 -8 -1q-14 0 -19 21q-4 12 -4 28.5z" />
<glyph unicode="J" horiz-adv-x="647" d="M22 348q-1 17 -1 30q0 15 2 25q2 33 28 33q18 0 34.5 -12t16.5 -27q0 -16 1 -68.5t14.5 -109.5t45.5 -102t93 -47h10q49 0 84 17q39 19 63.5 55t37 84t16.5 104q10 137 15 260t5 233q0 131 -4 234.5t-8 175.5q-2 47 -4 76t2 37q2 12 17.5 21t31.5 11h8q12 0 22 -5 q13 -7 11 -25v-531v-156.5t-1 -142t-3 -115t-4 -71.5q-6 -47 -19.5 -102.5t-43 -104.5t-80 -84t-129.5 -41q-61 0 -105.5 25.5t-74 64.5t-46 86t-24.5 91t-11 81z" />
<glyph unicode="K" horiz-adv-x="671" d="M33 38.5v35.5v44.5t2 43.5q2 12 2 26.5v22.5v82q0 61 -1 158.5t-2 208t-1 224v212.5v172.5t2 87.5q6 4 18.5 8t26.5 4t27.5 -3t21.5 -11q12 -12 10 -46t-6 -79l-6 -76q0 -12 -4 -61.5t-7 -116t-7.5 -141t-5.5 -138t-1 -106.5t7 -45q1 -1 2 -1q9 0 39 48q32 53 77 138 t95.5 187.5t95.5 192.5q41 82 68.5 142.5t43.5 78.5q8 8 29 5t38 -15q17 -11 27 -31q5 -9 5 -20q0 -12 -6 -25q-8 -14 -46 -76.5t-88.5 -147.5t-106.5 -179t-103.5 -176t-78 -137.5t-30.5 -59.5q0 -8 26.5 -38t68.5 -69.5t91.5 -85t93.5 -85t78.5 -68.5t44.5 -37 q8 -12 9.5 -29.5t-6 -34t-19.5 -24.5t-27 -2q-10 2 -29.5 20.5t-46 44t-58 58.5t-64.5 65q-37 39 -73 75l-63.5 63.5t-46 44t-20.5 16.5q-16 -8 -23.5 -47t-7.5 -90q0 -41 1 -82t3 -76q0 -16 1 -28.5t1 -22.5t2 -21q-4 -10 -14 -17t-22 -9q-4 -1 -7 -1q-7 0 -14 3 q-10 4 -12 18q-4 12 -4 28.5z" />
<glyph unicode="L" d="M31 240q0 94 1 210.5t3 236.5t4 234.5t5 206t6 146.5t5 59q2 6 14.5 13.5t26.5 10.5q7 2 13.5 1.5t12.5 -1.5q13 -3 17 -22v-56t-2 -97.5t-6 -128t-8 -146.5q-4 -90 -9 -183t-9.5 -181t-6.5 -165t-2 -134q0 -53 2 -84t8 -37v2q13 -13 54 -13h16q54 3 119 9q33 4 64.5 7 t56 4t40 -1t15.5 -8q4 -31 4 -50.5t-12 -19.5q-8 0 -29.5 -3t-50.5 -7q-45 -6 -103.5 -13t-111.5 -12.5t-91 -5.5t-42 6v-2q-2 4 -3 64.5t-1 159.5z" />
<glyph unicode="M" horiz-adv-x="1114" d="M27 25q-1 8 -1 19.5t1 27.5q2 30 6 65l8 78q2 18 11 104.5t23.5 205t29 253.5t28.5 252t23.5 199t11.5 96q2 18 19.5 26.5t39.5 8.5q23 0 43.5 -8.5t26.5 -18.5q8 -25 23.5 -72t33 -106t36 -128t36.5 -132q12 -49 27.5 -102.5t29 -100.5t23.5 -83t16 -50q8 -27 16.5 -33 t14.5 -1t10 15.5t6 16.5q6 18 22.5 68.5t37 117t42 140t40.5 141.5q29 98 53 179t37 120q18 51 63 51q25 0 47.5 -17.5t28.5 -39.5q0 -8 6 -79t12.5 -174t14.5 -226t16 -234.5t12.5 -196.5t6.5 -114q2 -63 5 -110.5t7 -80.5q2 -12 3 -23t1 -18q2 -12 -15.5 -25t-35.5 -13 q-10 0 -16.5 11t-8.5 42l-65 1122l-12.5 12.5t-12.5 8.5t-12 -3.5t-10 -25.5l-48 -158q-27 -88 -59.5 -196.5t-62 -203.5t-54 -162t-32.5 -71q-16 -8 -42 -6t-36 15q-2 2 -12.5 31.5t-24.5 77.5t-32.5 108.5t-37.5 126.5q-20 72 -41.5 144.5t-40 134t-33 105.5t-20.5 58 q-4 4 -10 11t-12.5 10.5t-13.5 -1t-9 -22.5l-8 -92q-6 -55 -14.5 -140.5t-19.5 -213.5t-25.5 -304t-28.5 -413q-2 -6 -16.5 -10.5t-30.5 -6.5q-8 -1 -15 -1t-14 1q-14 2 -16 13z" />
<glyph unicode="N" horiz-adv-x="749" d="M39 1137q0 96 1 154.5t5 62.5q8 8 23.5 19t33 16.5t33 3.5t25.5 -19q4 -10 18.5 -48t33.5 -97.5t45 -135t54 -157.5q43 -125 89 -257t86 -240.5t70 -178.5q28 -65 37 -65h1h2q8 4 11 42.5t3 104.5q0 51 -1 122t-3 150.5t-4 163.5t-4 162q-2 86 -4 166t-4 142.5t-2 100 t2 40.5q8 12 24 21q5 3 11 3q14 0 32 -16q6 -6 10.5 -55.5t7.5 -128t4 -181t1 -213.5q0 -137 -2 -274t-5 -249t-7 -184.5t-9 -78.5q-15 -23 -33 -27q-3 -1 -6 -1q-16 0 -38 18q-6 6 -29 59t-54.5 137t-69.5 189.5t-77 214.5q-39 106 -76.5 207.5t-68.5 180.5t-53.5 126 t-32.5 47q-10 -14 -10 -84q0 -45 2 -109.5t5 -141.5t6 -161t7 -166q4 -86 7 -164.5t5 -142t2 -104.5t-2 -52q-8 -31 -29.5 -29.5t-35.5 19.5q-4 4 -9.5 61.5t-9.5 147.5t-7 203.5t-6 232.5t-4 234.5t-1 208.5z" />
<glyph unicode="O" horiz-adv-x="839" d="M14 627q0 113 7.5 223.5t21.5 202.5t34.5 157.5t45.5 83.5q45 35 122 57.5t163 22.5q72 0 142.5 -18.5t119.5 -52.5q18 -14 34.5 -76t31 -151t22.5 -197.5t8 -219.5q0 -78 -5 -153.5t-15.5 -143t-28.5 -123t-43 -92.5q-25 -35 -59.5 -59.5t-76.5 -39.5t-89.5 -22.5 t-94.5 -7.5q-80 0 -147.5 18.5t-97.5 49.5v-2q-25 25 -42.5 79t-29.5 126.5t-17.5 160t-5.5 177.5zM96 627q0 -84 5 -163t14.5 -144.5t25 -110.5t33.5 -62q29 -25 76 -37t100 -12q80 0 156 27t117 80q14 20 25 70.5t19.5 121t12.5 155.5t4 173t-5 173t-14.5 155.5t-23.5 121 t-35 68.5q-35 29 -87 43t-111 14q-68 0 -128.5 -18t-89.5 -53q-25 -29 -42 -91.5t-28 -144.5t-17.5 -177t-6.5 -189z" />
<glyph unicode="P" horiz-adv-x="667" d="M23 233q0 78 2 190t6 265q4 131 5 257t1 224v116.5t-2 62.5q-2 27 16.5 34t42.5 11q16 2 61.5 2t102.5 -11.5t120.5 -41t117.5 -84.5q52 -54 86 -139q32 -80 32 -194v-14q-8 -152 -48 -250t-96 -157.5t-123.5 -85t-133.5 -31.5q-37 -4 -59.5 -7t-34.5 -18 q-8 -10 -10.5 -59t-4.5 -108q-2 -53 -5 -101.5t-7 -60.5q-10 -19 -30 -25q-5 -1 -9 -2q-12 0 -18 12t-9 61.5t-3 153.5zM100 1249q0 -6 1 -56t2 -124t2 -161t3.5 -166.5t3.5 -140t1 -83.5v-6q2 -23 10 -42q7 -16 32 -16q5 0 11 1h-2q10 0 43 4t76 17t89 40t85 75t65.5 121.5 t26.5 178.5q0 104 -24.5 175t-62.5 116t-85 67.5t-91 31.5t-78 9h-48q-45 0 -52.5 -9t-7.5 -28v-4z" />
<glyph unicode="Q" horiz-adv-x="802" d="M12 561q0 109 12.5 218.5t33 202.5t47 164t55.5 101q45 49 107.5 81t133.5 32q90 -1 172 -64q35 -29 63 -83t46 -125.5t27.5 -155.5t9.5 -172q0 -80 -8.5 -162t-25.5 -159t-43 -144.5t-58 -120.5q-16 -16 -14.5 -30.5t12.5 -26.5q33 -47 50 -79t13 -36q-35 -37 -57 -37 q-7 0 -13 4q-4 4 -19 23.5t-38 48.5q-16 25 -28.5 22.5t-22.5 -10.5h2q-61 -33 -139 -33q-47 0 -97.5 17.5t-93.5 58.5q-35 31 -58.5 80t-38.5 110.5t-22.5 131t-7.5 143.5zM98 567q0 -66 8.5 -130t24.5 -119.5t41 -100.5t59 -72q54 -36 104 -36h3q59 0 109 40t81 99 q27 51 47.5 116.5t35 138t20.5 148.5t6 150q0 76 -7 146.5t-22.5 128t-38 99.5t-53.5 60q-66 41 -133 41q-100 0 -172 -98q-16 -25 -35.5 -86.5t-37 -145.5t-29 -182t-11.5 -197z" />
<glyph unicode="R" horiz-adv-x="667" d="M23 233q0 78 2 190t6 265q4 131 5 257t1 224v116.5t-2 62.5q-2 29 17.5 35t41.5 10q16 2 61.5 2t102.5 -11.5t120.5 -41t117 -84t86 -139.5t32.5 -208q-10 -129 -42.5 -222t-81 -154.5t-105.5 -95t-115 -46.5q-29 -8 -25.5 -13t15.5 -18q49 -45 100.5 -90t97.5 -83.5 t79.5 -66.5t46.5 -36q8 -12 7 -29.5t-9.5 -34t-22.5 -24.5q-8 -5 -16 -5q-6 0 -13 3q-8 2 -34.5 25.5t-63.5 60.5l-82 82l-88 88l-106 104q-16 16 -24.5 13.5t-12.5 -7.5q-8 -10 -10.5 -59t-4.5 -108q-2 -53 -5 -101.5t-7 -60.5q-10 -20 -29.5 -25.5t-27.5 10.5 q-6 12 -9 61.5t-3 153.5zM100 1249q0 -6 1 -56t2 -124t2 -161t3.5 -166.5t3.5 -140t1 -83.5v-6q2 -23 10 -42q7 -16 32 -16q5 0 11 1h-2q12 0 44 4t75 17t89 40t85 75t64.5 120.5t27.5 179.5v15q1 96 -23 161q-26 70 -64 115t-85 67.5t-91 31.5t-78 9h-48q-45 0 -52.5 -9 t-7.5 -28v-4z" />
<glyph unicode="S" horiz-adv-x="573" d="M4 110q0 16 12 28t35 16t47 -9q31 -16 86.5 -32.5t106.5 -16.5q57 0 97 25.5t40 93.5q0 45 -14.5 81t-41 66.5t-59 56t-69.5 52.5q-43 31 -85 63.5t-75 73.5q-34 42 -54 96q-19 50 -18 113v12q2 98 9.5 199.5t33 182.5t73.5 134.5t132 57.5q12 1 24 1q54 0 93 -16 q47 -18 74.5 -45.5t41 -55t19.5 -42.5q4 -9 4 -17q0 -10 -6 -18q-10 -14 -25.5 -19t-32 1t-22.5 29q-4 18 -11 35.5t-23.5 32t-48.5 23.5t-87 9q-45 0 -76.5 -37t-51.5 -104q-22 -66 -30 -158q-7 -74 -6 -161v-42q0 -57 18.5 -100t48.5 -77t66.5 -61.5t75.5 -52.5 q37 -25 73 -51t63.5 -57t45 -69t19.5 -87v-16q0 -116 -58 -174q-62 -62 -165 -62q-55 0 -122 17.5t-138 50.5q-19 13 -19 30z" />
<glyph unicode="T" horiz-adv-x="649" d="M13 1312q4 28 16 38q6 4 55 9t118.5 9t145.5 7t133 3q74 0 90 -4q19 -6 25 -32q2 -7 1 -14q0 -18 -13 -30q-10 -6 -32 -8t-46 -4q-33 -2 -65.5 -5t-49.5 -19q-10 -10 -15 -99.5t-5 -220.5q0 -82 1 -188.5t3 -198.5q0 -82 1 -157.5t1 -141.5q0 -96 -1 -156.5t-5 -66.5 q-15 -25 -38 -25h-4q-26 2 -42 17q-2 2 -2 69q0 66 3 178.5t7 243.5q4 147 8 296t4 259q0 86 -5 139.5t-15 57.5q-16 6 -54 5t-79 -5t-78 -6t-47 6q-17 13 -17 35q0 4 1 9z" />
<glyph unicode="U" horiz-adv-x="731" d="M25 662q0 106 2 215.5t4 200.5t4 150.5t2 63.5q2 23 14 29t25.5 3t26 -14.5t14.5 -23.5q2 -6 1 -49t-5 -109q-2 -57 -5.5 -125.5t-5.5 -142.5t-4 -148.5t-2 -142.5q0 -86 3 -154.5t12 -103.5q8 -37 24.5 -77.5t41 -76.5t58 -60.5t76.5 -26.5h10q49 0 91 17q46 19 78 55 t51.5 84t23.5 104q10 137 15.5 260t5.5 233q0 131 -4 234.5t-9 175.5q-2 47 -4 76t2 37q2 12 16.5 21t30.5 11h8q12 0 22 -5q11 -6 12 -19q0 -3 -1 -6v-531v-156.5t-1 -142t-3 -115t-4 -71.5q-6 -47 -25.5 -101.5t-56.5 -103.5t-94 -84t-137 -43q-70 0 -122 31.5t-89 79 t-59.5 101.5t-30.5 101q-6 49 -9 143.5t-3 205.5z" />
<glyph unicode="V" horiz-adv-x="808" d="M14 1327q17 40 32 40q6 0 11 -5q4 -8 17.5 -50t32 -106.5t41 -146.5t47.5 -170q33 -115 64.5 -227.5t58 -203.5t47 -147.5t28.5 -56.5q6 0 19.5 36t32 96t41 140t46.5 166q18 70 40 144.5t42.5 147.5t40 138.5t35 115.5t25.5 81t14 33q4 -2 11.5 -2h11.5q10 -2 13 -7.5 t11 -21.5q0 -18 -13 -82.5t-37 -158t-54.5 -206t-63.5 -227.5t-66.5 -223.5t-63 -192.5t-53.5 -135t-36 -53h-1q-10 0 -32 51q-22 53 -52 141.5t-63.5 201t-66.5 231t-63.5 234.5t-52.5 208q-24 92 -36 150q-9 44 -9 60q0 5 1 7z" />
<glyph unicode="W" horiz-adv-x="1095" d="M23 1319q-2 12 16 25.5t37 13.5q10 0 18 -11.5t6 -39.5l78 -1139q6 -6 10.5 -12t7.5 -8.5t7 4t8 24.5l6 -2q10 27 25.5 83t31.5 118q27 90 57.5 195.5t58.5 195.5t48.5 151.5t28.5 65.5q16 8 43 6t37 -14q2 -4 11 -34t23.5 -77t32 -107.5t35.5 -123.5q16 -59 39 -131 t43.5 -138.5t37.5 -118.5t24 -73q2 -4 6 -10t8 -9t7 1t5 20l111 1182v-4q2 6 15 11t29 6h11q9 0 19 -1q14 -2 16 -12q1 -12 1 -26q0 -36 -7 -87l-8 -78q-2 -18 -11.5 -103t-23 -204t-28.5 -254t-28.5 -251.5t-23.5 -199.5t-12 -98q-2 -18 -18.5 -26.5t-39.5 -8.5t-44 8.5 t-27 18.5q-10 25 -24.5 72t-31 107.5t-35 127t-36.5 131.5q-14 49 -28.5 102.5t-28 100.5t-24 83t-16.5 52q-8 25 -16 31t-14.5 2t-10.5 -14.5t-6 -16.5q-8 -18 -24.5 -69t-36 -117t-41 -140.5t-39.5 -142.5q-29 -98 -53.5 -178t-36.5 -121q-10 -27 -26.5 -38t-39.5 -11 q-27 0 -48 16.5t-25 38.5q0 8 -6.5 79t-13.5 175.5t-15 227.5t-15.5 234.5t-12.5 196.5t-7 114q-2 61 -5 108t-7 80q-2 12 -3 22.5t-1 18.5z" />
<glyph unicode="X" horiz-adv-x="886" d="M5 1388q5 22 19 34q11 10 25 9q3 -1 7 -1q18 -4 32 -33q6 -14 20.5 -52t34 -91.5t43 -117t45.5 -126.5q29 -78 57.5 -156t53.5 -141.5t42 -103.5t22 -42q8 -2 30.5 41t53 110.5t66.5 153.5t71 170q25 61 48 119t42.5 103t33 74.5t17.5 39.5v-2q16 31 43 31q23 1 38 -25 q7 -12 7 -25q0 -16 -10 -34q-10 -20 -47 -100t-84 -187q-39 -92 -82 -189t-80 -178t-62.5 -134.5t-31.5 -57.5q-6 -6 5 -44t31.5 -90t45 -108.5t43.5 -99.5l14 -33q12 -31 12 -56v-6q-2 -28 -12 -42t-26.5 -11t-30.5 29q-8 16 -25.5 64.5t-36.5 101.5q-23 63 -43 111.5 t-30 52.5q-8 2 -19.5 -16.5t-26 -48t-31 -67.5t-30.5 -75q-23 -53 -39 -94t-22 -49q-10 -14 -30 -15h-4q-18 0 -31 8q-15 9 -21 26t10 40t49 84.5t66.5 129t59 122.5t28.5 66q0 8 -24 72.5t-61.5 159.5t-81.5 205t-84 206t-69 164.5t-35 81.5q-7 13 -7 27q0 8 2 15z" />
<glyph unicode="Y" horiz-adv-x="753" d="M8 1323q-2 8 -2 16q0 11 5 21q9 18 24.5 27.5t33 7.5t25.5 -21q6 -14 21.5 -61t37 -113.5t45 -147.5l47 -162t45 -153.5t36.5 -124.5q4 -16 10 -29.5t10 -23.5q6 -10 10 -18q10 20 21 47q10 23 21.5 54.5t25.5 70.5q27 86 59.5 191.5t63.5 203.5t54.5 175t31.5 103 q12 47 41 48q20 0 34 -25q10 -16 10 -39q0 -12 -3 -27q-4 -16 -21.5 -67t-44 -125t-57.5 -161t-62 -171q-27 -78 -52 -149.5t-44.5 -129t-31 -94t-11.5 -40.5q2 -8 4 -58.5t4 -111t3 -115.5t1 -74q0 -16 -16 -27.5t-33 -11.5q-12 0 -22 10.5t-13 32.5q-2 20 -2 45v54 q0 59 1 120.5t1 96.5v28q0 6 -21.5 73t-54 164t-71.5 210.5t-74 215t-59.5 175.5t-30.5 90z" />
<glyph unicode="Z" horiz-adv-x="704" d="M8 1348q0 14 8 26q6 10 19 10h4q20 -2 88 -3t152 -3q55 0 111 -1t104.5 -3t82 -4t46.5 -4q31 -6 24.5 -30.5t-22.5 -57.5q-10 -23 -40 -96.5t-71 -177t-87 -221t-89 -226t-76 -196t-47 -125.5l-12 -35q-11 -35 -10 -54q0 -9 2 -13q6 -11 41 -12q10 0 22 1l205 10 q43 2 87 4t66 4q16 -2 27.5 -10t11.5 -20q0 -23 -13 -43.5t-32 -22.5q-16 -2 -67 -4t-116 -4t-131.5 -4t-113.5 -2h-39t-20 2q-15 3 -29 31q-8 16 -8 35q0 14 4 30q2 2 15.5 35t32 83t42 110.5t47.5 119.5q43 106 89 223t89.5 224.5t76 193.5t48.5 129q12 41 -1 47t-48 6 h-10q-18 2 -44 2.5t-50 0.5q-41 0 -83 -1.5t-82 -3.5t-73.5 -4t-56.5 -4q-39 -4 -56.5 15.5t-17.5 42.5zM90 129q0 6 4 10q-4 -8 -4 -9v-1z" />
<glyph unicode="[" horiz-adv-x="362" d="M10 1462q0 20 28 32.5t63.5 19t69.5 7.5t48 -1q27 -2 37 -11.5t10 -21.5q0 -16 -9 -27.5t-26 -13.5h-38q-23 2 -48.5 -1t-35.5 -20q-8 -16 -9 -155q0 -90 2 -216t7.5 -263.5t10.5 -275.5t12 -248.5t14.5 -184.5t13.5 -82q20 -14 53 -16t66 -2h20q18 0 27.5 -10.5 t11.5 -24t-7 -23.5t-28 -10q-12 0 -27.5 -2t-33.5 -6q-25 -4 -49.5 -8t-47.5 -4q-47 0 -53 18q-4 10 -9 80.5t-12.5 178.5t-13.5 242t-13 273t-13 274.5t-10.5 243t-7.5 177t-3 81.5z" />
<glyph unicode="\" horiz-adv-x="491" d="M14 1354q6 8 18.5 16t27 11t26.5 3t18 -6h2q2 -2 14.5 -46t32 -116.5t44 -166t50 -192.5t51.5 -197.5t46 -178.5q20 -78 38.5 -145.5t20.5 -77.5l13 -43q12 -35 24.5 -77t12.5 -66q2 -29 -19.5 -29t-32.5 16q-4 6 -27.5 79t-56 181.5t-70.5 237.5t-71 248 q-39 131 -67.5 228t-36.5 122l-27 74q-16 47 -26.5 79.5t-4.5 45.5z" />
<glyph unicode="]" horiz-adv-x="362" d="M-2 -52.5q2 13.5 11 24t28 10.5h20q31 0 65 2t54 16q6 8 13.5 82t13.5 184.5t12 248.5t10 275.5t7.5 264.5t3.5 215q0 68 -3.5 108.5t-7.5 46.5q-10 16 -34.5 19.5t-47.5 1.5q-12 0 -22 -1t-21 1q-12 2 -21 13t-9 28q0 12 10 21.5t35 11.5q14 2 49 1t69.5 -7.5 t62.5 -18.5t28 -33q0 -12 -3.5 -80.5t-7.5 -174t-10 -237.5t-12 -270.5t-13.5 -271.5t-13.5 -241.5t-11 -182.5t-9 -90q-8 -20 -54 -20q-23 0 -48 4t-48 8q-18 4 -33.5 6t-27.5 2q-18 0 -27.5 10t-7.5 23.5z" />
<glyph unicode="_" horiz-adv-x="770" d="M17.5 -13q-5.5 7 2.5 21q6 8 78 21.5t168 26t199.5 20.5t175.5 8q37 0 59.5 -2t26.5 -6q8 -29 7 -50.5t-11 -27.5q-10 -2 -48 -4t-94.5 -6t-123 -7.5t-133 -5.5t-127 -4t-101.5 -2q-16 0 -32.5 1t-28.5 5.5t-17.5 11.5z" />
<glyph unicode="`" horiz-adv-x="284" d="M20 712.5q7 14.5 20 25t29.5 14t22.5 -6.5q39 -53 73 -102t75 -111q14 -23 12 -40t-13.5 -24t-27.5 -2t-29 28l-157 196q-12 8 -5 22.5zM23 694q0 -2 2 -4z" />
<glyph unicode="a" horiz-adv-x="724" d="M18 274q2 66 27 107t65 64.5t90 31.5t101 8q49 0 96 -5t80 -9q33 -6 51 -6q10 0 15 2q10 4 16 58.5t6 138.5q0 76 -4 168t-12 175t-19.5 147.5t-25.5 86.5q-27 29 -75 40t-95 11q-29 0 -53.5 -1t-47.5 -3q-18 -2 -33.5 -2h-27.5q-25 0 -36 11.5t-11 25.5t14.5 28.5 t34.5 20.5q23 4 61.5 6t83.5 2q39 0 79 -3t75 -9t59.5 -16.5t34.5 -24.5q25 -39 40.5 -122t23.5 -190.5t11 -230t3 -241.5q0 -98 -1 -202.5t-3 -176.5q-2 -47 -2 -80v-57q2 -10 -10.5 -16.5t-29.5 -6.5t-31.5 5t-14.5 16q0 2 1 5t1 7q4 23 3 38t-21 25q-10 4 -60 -12 q-25 -8 -55.5 -19.5t-65 -21.5t-71.5 -17t-72 -7q-41 0 -77 11t-64 40q-28 30 -42 78q-13 43 -12 105v17zM115 289q0 -100 49 -137t117 -37q43 0 90 12t87 28.5t66.5 33t32.5 24.5q14 29 14 68q0 25 -7 49.5t-21 36.5q-6 4 -30 11t-57.5 13t-73.5 11.5t-79 5.5 q-76 0 -132 -25t-56 -94z" />
<glyph unicode="b" horiz-adv-x="667" d="M23 1184q0 104 3 152t9 63q6 12 18 12q5 0 9 -1q18 -5 28 -26q4 -14 7 -62t5 -101q2 -59 4.5 -109.5t12.5 -58.5v2q12 -16 34.5 -19.5t61.5 -7.5q63 -6 132 -31.5t125 -86t96 -160t48 -250.5v-14q0 -116 -32 -196q-34 -85 -86 -139.5t-114 -84t-118.5 -42t-97.5 -13.5 h-24q-20 0 -27 1q-10 0 -23 4q-23 4 -42 10t-17 35q2 16 2 62.5v116.5q0 98 -1 225t-5 260q-4 154 -6 267.5t-2 191.5zM98 158q0 -20 7.5 -29.5t54.5 -9.5h49t79 9t91 31.5t85 67.5t62.5 116t24.5 177q-2 106 -27.5 179t-64.5 122t-86 76t-90 40t-75 16t-44 5h2q-6 1 -11 1 q-25 0 -32 -16q-8 -19 -10 -40v-6q0 -4 -1 -58.5t-3.5 -134t-4.5 -172t-3 -173t-2 -136t-1 -61.5v-4z" />
<glyph unicode="c" horiz-adv-x="598" d="M16 711q0 84 9.5 168t26 159.5t40 137t51.5 102.5q51 53 106.5 77.5t102.5 24.5t81 -10t44 -16q29 -16 29 -41t-43 -37q-16 -4 -33.5 -3t-36.5 5q-33 5 -68 5h-11q-40 -1 -76 -32q-37 -33 -65 -86t-44 -120.5t-24.5 -145.5t-8.5 -158q0 -88 9.5 -174t24.5 -161.5 t36.5 -136t48.5 -95.5q20 -25 46 -37t54 -12q29 0 57.5 8t57.5 17q27 10 46.5 14t29.5 0q27 -20 38 -39q3 -5 3 -10q0 -14 -25 -29q-27 -16 -79 -32.5t-117 -16.5q-41 0 -82 12t-76 35q-35 31 -63.5 95.5t-48 148.5t-30 183t-10.5 200z" />
<glyph unicode="d" horiz-adv-x="667" d="M14 500q8 152 48 251t97.5 159.5t125 86t133.5 31.5q37 4 59.5 7t36.5 20v-2q8 8 10 58t4 110q2 53 5.5 101t7.5 62q11 20 29 26q5 1 8 1q12 0 18 -12q6 -14 9 -62.5t3 -152.5q0 -78 -2 -191.5t-6 -267.5q-4 -133 -5 -260t-1 -225v-116.5t2 -62.5q2 -29 -16.5 -35 t-40.5 -10l-23 -4q-7 -1 -28 -1h-24q-42 1 -98.5 13.5t-119 42t-114.5 84t-86 139.5q-32 80 -32 196v14zM80 520v-15q0 -96 24 -162q26 -71 64.5 -116t85.5 -67.5t90 -31.5t78 -9h49q47 0 54 9t7 30v4q0 6 -1 56t-2 124t-2 162t-3 168t-3 141t-1 84v6q-2 20 -10 40 q-6 16 -31 16q-6 0 -14 -1h2q-12 -2 -44 -5t-75 -16t-90 -40t-86 -76t-65.5 -121.5t-26.5 -179.5z" />
<glyph unicode="e" horiz-adv-x="681" d="M18 446v41v140.5t2.5 171.5t7.5 180t13 167t22.5 134t34.5 80q27 29 54.5 41t60.5 12q41 0 83 -18.5t80 -47t68.5 -64.5t51.5 -71q31 -53 52 -114.5t34.5 -127t19.5 -131t6 -126.5q0 -86 -11 -153.5t-28 -96.5q-14 -23 -49 -35t-79 -18.5t-92 -6.5h-91h-95t-50 -16 q-11 -17 -11 -56q0 -37 16 -79q16 -43 49.5 -82t88.5 -55q37 -10 80 -11q63 0 119.5 21.5t79.5 54.5q25 10 42 5t26 -17q8 -11 8 -24q0 -16 -9 -25q-16 -14 -43 -33.5t-61.5 -38t-76.5 -31t-91 -12.5q-53 0 -103 14q-72 20 -112.5 60.5t-62 95.5t-28 125t-6.5 147zM86 711 q0 -88 6 -149.5t23 -65.5q10 -2 31.5 -3t50.5 -1q45 0 99 3t102 9t82 15t38 22q8 53 11 106t3 101q0 121 -23.5 223t-62.5 178q-45 78 -100 126t-102 48t-82 -39q-18 -23 -32.5 -86t-24 -145t-14.5 -173.5t-5 -168.5z" />
<glyph unicode="f" horiz-adv-x="540" d="M6 475q0 14 6 24.5t23 10.5h41q16 -1 34 -1t36 1q38 2 49 14q2 0 4 19.5t2 54.5q0 29 -1 69t-1 87q-2 49 -2 103v108q0 61 1 120.5t4 108.5t8 86t13 53q16 35 42 53.5t55.5 26.5t58.5 9t51 1q33 -6 33 -51q0 -16 -7 -27.5t-18 -13.5q-9 1 -18 1q-27 0 -58 -5 q-40 -6 -63 -35q-6 -12 -11 -56t-8.5 -106.5t-4.5 -138.5t-1 -149v-108.5t1 -95.5t3.5 -70.5t4.5 -35.5q4 -10 20 -15t37.5 -7t45.5 -2h46h39q12 0 18.5 -15.5t6.5 -33t-10.5 -30.5t-32.5 -11q-23 2 -48.5 4t-49 3t-43 0t-27.5 -7q-10 -8 -13 -58q-1 -22 -1 -47q0 -30 2 -63 q3 -62 7.5 -119t4.5 -84q0 -20 -12.5 -28.5t-30.5 -8.5q-23 0 -37 10.5t-12 26.5q2 20 3 75.5t2 115.5v58.5v52.5q-1 50 -5 63q-6 18 -38 20t-63 0q-18 0 -34.5 -1t-26.5 3q-12 2 -18.5 14.5t-6.5 26.5z" />
<glyph unicode="g" horiz-adv-x="831" d="M6 901q0 68 6 132.5t18.5 117.5t30 93t39.5 59q47 37 131 61.5t175 24.5q72 0 137 -18.5t108 -59.5h-2q14 -12 33.5 7t36.5 40q4 4 10 11t4 9h2q6 0 17.5 -7t23.5 -18.5t21.5 -22.5t11.5 -19q-4 -4 -15.5 -12.5t-25.5 -16.5q-20 -14 -35.5 -24.5t-19.5 -20.5h2 q-4 -4 -2 -28.5t6 -65.5q6 -59 13 -139t7 -166q0 -88 -13 -170t-44 -133q-27 -37 -69 -61.5t-89 -38t-97 -19.5t-93 -6q-29 0 -58.5 1t-50.5 3q-29 -36 -29 -55q0 -8 6 -13q17 -16 70 -16q20 0 50 1t61 5q33 4 71 6t70 2q47 0 81 -8t50 -29q14 -23 22.5 -60.5t8.5 -76.5 q0 -43 -10 -79t-37 -46q-53 -23 -138 -32t-165 -9q-53 0 -101 4t-77 8q-51 8 -68.5 34t-17.5 61q0 29 10 64.5t20 64.5q4 18 11 34q4 8 6 19q-25 23 -34 42t-9 36q0 23 9 39t19 28q14 29 9 35v-2q-29 27 -48.5 73t-33 103.5t-19.5 123t-6 130.5zM88 891q0 -59 6 -114.5 t17.5 -103.5t28 -84t38.5 -54q29 -23 69 -34.5t87 -11.5q39 0 81 7.5t81 23t71.5 37t55.5 49.5q16 23 27.5 104t11.5 183q0 55 -4.5 111.5t-13.5 105.5t-23.5 86t-32.5 53q-35 29 -87 44.5t-112 15.5q-70 0 -130 -19.5t-89 -54.5q-43 -53 -62.5 -146.5t-19.5 -197.5z M156 154v-9q0 -16 5 -29q7 -16 23 -22q18 -6 54 -8t77 -2q37 0 76 2t75 6t63.5 9t39.5 14q20 12 29 33q9 20 9 39q0 22 -9 41q-8 18 -20 22q-18 6 -66.5 9t-108.5 3q-68 0 -128 -7.5t-80 -23.5q-18 -14 -27.5 -35.5t-11.5 -41.5z" />
<glyph unicode="h" horiz-adv-x="706" d="M18 641v221.5v206.5v221.5t2 106.5t13.5 23t25.5 7q18 0 35 -8t17 -22v-25.5t-2 -40.5q-4 -47 -6.5 -112.5t-2.5 -120.5q0 -57 7.5 -96t17.5 -39h8t14 2q23 4 64 10t88 6q66 0 137.5 -17.5t120.5 -66.5q18 -20 30.5 -59t20.5 -90.5t11.5 -113t3.5 -124.5q0 -80 -4.5 -159 t-8.5 -143.5t-9 -107.5t-5 -53q-2 -12 -14.5 -17t-28.5 -5t-29.5 7t-11.5 25q2 12 8 58.5t12.5 111t10.5 142t4 153.5q0 104 -13.5 189.5t-48.5 119.5q-35 35 -89 49.5t-107 14.5q-63 0 -113.5 -17.5t-60.5 -39.5q-4 -8 -6.5 -33t-4.5 -61.5t-2 -83v-95.5q0 -61 1 -127.5 t1 -128.5v-266q-4 -27 -20 -42t-35 -15q-27 0 -26 41q0 16 -1.5 72.5t-1.5 140.5t-1 187t-1 214z" />
<glyph unicode="i" horiz-adv-x="231" d="M35 39.5q0 -16.5 4 -29.5q5 -22 19 -22q4 0 8 2q20 6 26 22q2 8 6 59.5t7 134.5t6.5 189.5t7.5 227.5q2 68 3 132t3 116.5t3 89t1 49.5l6 75q4 45 6 79t-10 46q-8 8 -22.5 11.5t-28.5 3.5t-26.5 -3.5t-16.5 -9.5q-2 -4 -2 -75.5v-184.5v-383.5v-247v-140.5v-66.5v-24.5 v-16v-34.5zM35 1315q-2 10 -2 20q0 15 4 31q2 10 18.5 16.5t38.5 6.5q20 0 35.5 -5.5t15.5 -15.5v-21.5t-1 -13.5t-3 -14t-4 -21q-2 -10 -18.5 -13t-36.5 -3q-16 0 -30.5 2t-14.5 6q0 6 -1 12.5t-1 12.5z" />
<glyph unicode="j" horiz-adv-x="647" d="M22 350q-1 17 -1 30q0 16 2 26q2 33 28 32q16 0 33.5 -12t17.5 -27v-39.5t3.5 -63.5t11.5 -76t25.5 -71.5t45 -54t68.5 -22.5h10q51 0 85 18q38 19 62.5 54.5t38 83.5t17.5 104q10 137 15 250.5t5 205.5q0 111 -4 189t-8 129q-2 33 -3 54.5t1 27.5q2 12 17.5 20.5 t32 10.5t29.5 -4.5t11 -24.5v-445v-129t-1 -118.5t-3 -98.5t-4 -65q-6 -47 -19.5 -102.5t-43 -104.5t-81 -85t-130.5 -42q-61 0 -105.5 25.5t-74 64.5t-46 86t-24.5 92t-11 82zM471 1315q-2 10 -2 20q0 15 4 31q2 10 19.5 16.5t39.5 6.5q18 0 34 -5.5t16 -15.5v-21.5 t-1 -13.5t-3.5 -14t-4.5 -21q-2 -10 -18 -13t-35 -3q-18 0 -32.5 2t-14.5 6q0 6 -1 12.5t-1 12.5z" />
<glyph unicode="k" horiz-adv-x="671" d="M33 38.5v35.5v44.5t2 45.5q2 12 2 26.5v22.5v82q0 63 -1 160.5t-2 208t-1 225.5v213v174t2 88q10 10 44 12h7q28 0 43 -14q12 -12 10 -46t-6 -81l-6 -76q-2 -12 -5 -62t-6 -117t-7.5 -141.5t-6.5 -138.5q-1 -43 -1 -77v-31q1 -43 5 -45q1 -1 2 -1q10 0 40 49 q34 54 79 140t95.5 188.5t95.5 192.5q41 84 69.5 144.5t44.5 78.5q8 10 29 9.5t39 -12.5t28 -34q5 -10 4 -23q0 -13 -5 -28q-10 -14 -47 -75.5t-88.5 -146.5t-107.5 -181t-104.5 -178t-79 -137.5t-30.5 -59.5q0 -10 23.5 -24.5t61.5 -31t84 -33.5t91 -34q53 -18 95 -33.5 t50 -21.5q12 -10 13.5 -27.5t-6 -34t-20.5 -25.5t-30 -3q-10 4 -33.5 14t-56.5 27q-45 20 -98 44.5t-99 46t-78 36t-34 14.5q-18 -10 -27.5 -50t-9.5 -91q0 -39 1 -81t3 -77q0 -16 1 -28.5t1 -22.5t2 -21q-4 -10 -14 -17t-20 -9q-4 -1 -7 -1q-7 0 -14 3q-10 4 -12 18 q-4 12 -4 28.5z" />
<glyph unicode="l" d="M31 240q0 94 1 211.5t3 239.5t4 237.5t5 206t5 146.5t4 60q2 6 14.5 13.5t26.5 10.5q7 2 14.5 1.5t13.5 -1.5q13 -3 17 -22v-56t-2 -97t-6 -129t-8 -148q-4 -90 -9 -184t-9.5 -183t-6.5 -167t-2 -135q0 -51 2 -83t8 -38v2q13 -13 54 -13h16q54 3 121 9q33 4 64.5 7t56 4 t40 -1t15.5 -8q4 -31 4 -49.5t-12 -18.5q-8 0 -29.5 -4t-50.5 -8q-47 -6 -105.5 -13t-111.5 -12.5t-91 -5.5t-42 6v-2q-2 4 -3 64.5t-1 159.5z" />
<glyph unicode="m" horiz-adv-x="1251" d="M37 37l12 1339q0 10 10.5 14.5t24.5 3.5t27.5 -4.5t19.5 -9.5q0 -4 -1 -7t-1 -7q-2 -23 -4 -44.5t14 -23.5q6 6 20.5 21.5t35 32t48 30t64.5 13.5h11q46 -1 86 -15q44 -16 78 -45.5t58.5 -68.5t43.5 -82l24 49q12 31 27.5 58.5t37 50t54.5 36t82 17.5q10 1 19 1 q56 0 93 -22q44 -24 71.5 -63t42 -87t26.5 -94l8 -36q10 -45 25.5 -136.5t31 -204t30.5 -231.5t27.5 -218t19.5 -164.5t7 -69.5q0 -23 -9 -31t-19 -8q-18 0 -33.5 9t-18.5 23l-16 158q-10 96 -24.5 226.5t-30 257t-31.5 231t-31 151.5q-4 6 -6 16.5t-6 18.5q-12 33 -24.5 68 t-30 63.5t-40 48t-54.5 21.5h-10q-48 1 -81 -17q-36 -20 -57.5 -54.5t-32 -84t-12.5 -106.5q-8 -139 -10 -238.5t-2 -169.5q0 -47 1 -81.5t1 -59.5v-46.5t-2 -29.5q-4 -12 -20.5 -20t-32.5 -8t-26.5 6t-10.5 20q-1 22 -1 44.5t1 46.5q2 48 6 104q2 53 4 108.5t2 110.5 q0 61 -3 119.5t-13 113.5q-6 35 -22.5 77t-42.5 79t-60.5 61.5t-77.5 24.5h-10q-48 1 -82 -17q-37 -20 -59.5 -56t-34 -84t-15.5 -105q-10 -135 -15 -259t-5 -235q0 -133 4 -237.5t8 -173.5q2 -47 4 -78t-2 -39q-2 -12 -17.5 -20.5t-31.5 -10.5h-9q-12 0 -21 4q-13 6 -11 25 zM131 1380v6l2 -8q-2 0 -2 2z" />
<glyph unicode="n" horiz-adv-x="798" d="M25 737q0 111 1 215.5t2 189.5t3 145.5t4 80.5v2q2 10 24 10h9q30 -2 47 -18q6 -6 4 -29.5t-6 -50.5q-4 -35 -5.5 -60.5t17.5 -35.5q12 4 32.5 32.5t53.5 62.5t77 60.5t105 28.5q90 0 144.5 -33.5t85 -85t42 -110t17.5 -105.5q4 -37 11 -136t15.5 -224t15.5 -255t13 -228 q4 -61 6 -102.5t2 -53.5q2 -18 -10 -24.5t-28.5 -4.5t-32 10.5t-17.5 20.5t-5 57t-7 121q-6 135 -17.5 346t-33.5 475q-10 116 -58 180q-43 58 -122 59q-7 0 -15 -1q-72 -4 -120 -42t-78.5 -89t-47 -105.5t-24.5 -91.5q-8 -41 -13 -95t-8.5 -116.5t-4.5 -129t-1 -134.5 q0 -59 1 -114.5t1 -108.5q0 -41 1 -77t1 -67t-1 -56t-1 -42q0 -10 -9 -16t-21 -7h-4q-11 0 -20 5q-11 6 -15 20q-2 8 -4 74t-3 168t-2 229t-1 256z" />
<glyph unicode="o" horiz-adv-x="761" d="M8 670q0 109 8.5 214t22.5 193t35.5 150.5t48.5 85.5q95 71 214 71h3q72 0 142.5 -26.5t129.5 -75.5q53 -47 77 -148.5t24 -228.5q0 -115 -16.5 -237.5t-41 -231t-55.5 -191.5t-59 -120q-47 -47 -110.5 -81t-133.5 -34q-90 0 -174 66q-29 25 -50.5 84t-35.5 139 t-21.5 176t-7.5 195zM88 682q0 -92 6 -181t18.5 -163t30 -127t37.5 -74q29 -20 64 -31.5t67 -11.5q49 0 95.5 23.5t80.5 77.5q18 27 42 98.5t46.5 165.5t38 202.5t15.5 212.5q0 115 -24.5 209.5t-86.5 147.5q-41 35 -92 53.5t-100 18.5q-41 0 -79 -14.5t-65 -43.5 q-25 -27 -42 -83t-29.5 -132t-17.5 -166t-5 -182z" />
<glyph unicode="p" horiz-adv-x="667" d="M23 233q0 78 2 192t6 267q4 131 5 258t1 226v117t-2 63q-2 27 16.5 34t40.5 11l25 4q7 1 27 1h24q41 -1 97.5 -13.5t118.5 -42t114.5 -84t85.5 -139.5q32 -80 32 -195v-14q-8 -152 -48 -251.5t-96 -160t-124.5 -86t-132.5 -31.5q-39 -4 -61.5 -7t-34.5 -20v3 q-10 -10 -12.5 -59.5t-4.5 -108.5q-2 -53 -5 -102.5t-7 -61.5q-10 -20 -28 -25q-5 -2 -9 -2q-12 0 -18 12t-9 61.5t-3 153.5zM98 1255q0 -6 1 -56t2 -124t3 -162t4.5 -167.5t3.5 -141t1 -84.5v-6q2 -20 10 -40q7 -18 32 -18q5 0 11 1h-2q10 2 44 5t76 17.5t89 41t86 75.5 t65.5 122t26.5 179t-24.5 177t-62.5 116t-85 67.5t-91 31.5t-79 9h-49q-47 0 -54.5 -9t-7.5 -29v-5z" />
<glyph unicode="q" horiz-adv-x="790" d="M10 565q0 109 12.5 218.5t34 203.5t48 165t55.5 101q45 51 107.5 83t133.5 32q92 0 174 -63q37 -29 64 -84.5t45 -127t27.5 -156.5t9.5 -173q0 -164 -33 -322.5t-102 -267.5v2q-16 -18 -14.5 -32.5t12.5 -26.5q33 -47 51 -79t14 -36q-37 -37 -59 -37q-7 0 -12 4 q-4 4 -19.5 23.5t-38.5 48.5q-16 25 -28.5 23.5t-22.5 -9.5h2q-63 -35 -141 -35q-47 0 -97.5 17.5t-93.5 58.5q-70 66 -99.5 193t-29.5 276zM98 571q0 -68 8.5 -132t24.5 -120.5t41 -101.5t59 -72q29 -18 62 -26t61 -8q35 0 60.5 10t25.5 24l-4 -2q2 12 -11 37t-35.5 56.5 t-49.5 69.5t-53 75q-35 47 -61.5 84t-37.5 43q10 4 9.5 7t3.5 9q2 8 5 15.5t13 5.5q8 0 35 -28t64.5 -71t82.5 -97t88 -109q2 0 5.5 -1t5.5 -1q8 -4 12 -5.5t18 13.5v2q27 53 47.5 118.5t35 138.5t20.5 149.5t6 150.5q0 76 -7 147.5t-22.5 129t-38 99.5t-53.5 60 q-33 20 -65.5 31.5t-67.5 11.5q-100 0 -174 -98q-16 -25 -35.5 -88.5t-37 -147.5t-29 -182t-11.5 -197z" />
<glyph unicode="r" horiz-adv-x="667" d="M23 233q0 78 2 192t6 267q4 131 5 258t1 226v117t-2 63q-2 27 16.5 34t40.5 11l25 4q8 2 29.5 4t52.5 2q53 0 124.5 -18.5t136 -68.5t110.5 -138t46 -228q-10 -131 -42.5 -224t-81 -155.5t-106.5 -96t-116 -46.5q-31 -8 -25.5 -16t21.5 -19q70 -39 133.5 -70.5 t106.5 -54.5q35 -18 55.5 -27t24.5 -13q12 -10 12 -28t-9 -34t-24.5 -25.5t-32.5 -3.5q-18 10 -85.5 54.5t-149.5 101.5q-37 25 -74 51.5t-69 48.5h2q-16 16 -24.5 12.5t-12.5 -7.5t-7 -21.5t-4.5 -44.5t-3.5 -58.5t-2 -64.5q-2 -61 -5 -116.5t-7 -67.5q-10 -19 -28 -25 q-5 -1 -9 -2q-12 0 -18 12t-9 61.5t-3 153.5zM98 1255q0 -6 1 -53t2 -117.5t3 -152.5t4.5 -158t3.5 -134t1 -79v-6q2 -19 10 -39q7 -16 32 -17q5 0 11 1h-2q12 0 45 4t76 17.5t89 40t85 75.5t64.5 121.5t27.5 179.5v16q-1 82 -19 140q-20 64 -53 104.5t-73.5 62t-82.5 30.5 t-80 11h-24q-22 0 -39 -2q-6 0 -11 -1t-9 -1q-47 0 -54.5 -9t-7.5 -29v-5z" />
<glyph unicode="s" horiz-adv-x="550" d="M18 172q6 16 18.5 27.5t28 15.5t27.5 -6q10 -18 36 -42t60 -41q33 -18 71 -24q11 -2 21 -1q27 0 52 12q49 23 69.5 62.5t20.5 84.5q0 76 -43 129q-18 23 -50 35t-71 22q-35 12 -79 30t-79 42q-18 20 -33.5 59t-25.5 91.5t-15.5 114t-5.5 126.5q0 74 6.5 147.5t18.5 136 t29.5 112t40.5 73.5q25 31 59.5 43.5t71.5 12.5q43 0 86 -16.5t77.5 -46.5t57.5 -71t27 -90q4 -37 -13.5 -53t-38.5 -16q-16 0 -30.5 12t-14.5 37q0 23 -10 49.5t-27.5 49t-42 37.5t-53.5 15q-51 0 -104 -59q-14 -18 -25.5 -61t-20 -100.5t-13.5 -124t-5 -130.5 q0 -98 13.5 -179t42.5 -105q29 -23 63.5 -33t65.5 -21q45 -12 89 -27.5t76 -56.5q27 -29 43.5 -75.5t16.5 -100.5q0 -63 -36 -130.5t-95 -108.5q-16 -8 -39 -13.5t-41 -5.5q-47 0 -93 16.5t-84 39t-64.5 45t-33.5 32.5q-4 7 -4 15q-1 7 2 14z" />
<glyph unicode="t" horiz-adv-x="532" d="M6 463q0 14 6 25.5t19 15.5q8 4 25.5 3t35.5 -1q31 -2 59.5 1t34.5 21q2 6 4.5 50.5t4.5 110t3 147.5t2 164.5t2 158.5t1 131q0 35 -1 57.5t-1 30.5q-2 18 16.5 28.5t40.5 10.5q18 0 33.5 -8t15.5 -31q0 -16 -3 -74.5t-7 -140.5q-4 -70 -8 -150.5t-7 -157.5t-5.5 -145.5 t-2.5 -113.5q0 -29 2.5 -49.5t8.5 -26.5q14 -8 48 -8q11 0 23 1q52 3 97 7q23 2 33 -11t10 -30.5t-6.5 -33t-18.5 -15.5h-39h-45t-46.5 -2t-37.5 -8t-20 -14q-4 -10 -6.5 -41t-2.5 -66q0 -49 5.5 -96t19.5 -68q25 -33 63 -37q26 -3 51 -3q12 0 25 1q12 0 18.5 -12t6.5 -29 q0 -45 -33 -51q-23 0 -51.5 1t-58 9.5t-55 26.5t-42.5 53q-16 35 -21 80t-5 88v35.5t2 34.5q2 35 2 56.5t-6 27.5v-2q-10 12 -48 14q-19 1 -37 1t-34 -1h-41q-16 0 -22.5 10.5t-6.5 24.5z" />
<glyph unicode="u" horiz-adv-x="802" d="M10 1317q-2 18 11.5 24.5t30 4t30.5 -10.5t18 -20q2 -10 4 -56.5t7 -121.5q6 -135 18 -345t35 -477q10 -115 57 -178q44 -59 126 -59h11q72 4 119 42t78 89t46 105.5t22 91.5q16 82 22 212t6 265q0 57 -2 112.5t-2 108.5q-2 39 -2 74.5v66.5q0 33 -2 57.5t0 43.5 q2 10 12.5 16t23.5 7h4q11 0 21 -5q12 -6 17 -21q2 -8 4 -73.5t3 -168t2 -229.5t1 -256q0 -111 -1 -215t-2 -189t-3 -145.5t-4 -80.5v-2q-1 -6 -11 -8q-8 -2 -15 -2h-7q-12 1 -25.5 5.5t-21.5 12.5q-6 6 -4 29.5t6 52.5q4 31 6 58.5t-18 37.5q-25 -6 -28 -17.5t-15 -25.5 q-16 -18 -37 -43t-48.5 -47.5t-62 -37.5t-75.5 -15q-92 0 -146.5 33.5t-84.5 85t-41 109.5t-17 105q-4 37 -11.5 136.5t-15.5 224.5t-16 255t-15 228q-4 61 -6 103.5t-2 52.5z" />
<glyph unicode="v" horiz-adv-x="808" d="M12 1335q17 40 34 40q6 0 11 -5q4 -8 16.5 -50t31 -107.5t42 -147.5t48.5 -170q33 -115 64.5 -229.5t59 -205.5t48 -148.5t28.5 -57.5q6 0 19.5 37t32 98.5t41 141t47.5 165.5q29 104 61.5 220t60 213.5t48 162t26.5 68.5q4 -2 11.5 -2h11.5q10 -2 14 -7t12 -22 q0 -18 -13 -83.5t-36.5 -159t-54.5 -207t-64.5 -229t-67.5 -224.5t-63.5 -194t-53.5 -136t-36 -53h-1q-10 1 -32 53q-22 54 -53 142t-64.5 201.5t-67.5 233.5t-64.5 235.5t-52.5 207.5q-24 92 -36 152q-9 45 -9 60q0 5 1 7z" />
<glyph unicode="w" horiz-adv-x="1028" d="M10 1327q-2 12 15.5 25.5t35.5 13.5q10 0 18.5 -11.5t6.5 -39.5l70 -1145l12 -12t12 -8.5t12.5 3t12.5 25.5v-2q10 27 25.5 83t31.5 118q27 92 57.5 197.5t58.5 196.5t49.5 152.5t29.5 65.5q16 8 42.5 6t37.5 -14q2 -4 11 -35t23.5 -78t32 -107.5t35.5 -123.5 q16 -59 37.5 -131t41 -139.5t36 -120.5t22.5 -72q2 -4 9.5 -11t13.5 -9t12 2t10 20l10 100q6 57 15.5 146.5t21 219.5t24.5 307t30 415v-4q2 6 15 11t29 6h11q9 0 19 -1q14 -2 16 -12q1 -12 1 -26q0 -36 -7 -89l-9 -78q-2 -14 -7 -66t-14 -130t-19.5 -173t-21.5 -193.5 t-22.5 -194t-19.5 -171t-14.5 -125.5t-8.5 -61q-2 -20 -19 -28.5t-40 -8.5t-43 8.5t-27 18.5q-10 25 -24.5 73t-31.5 108.5t-36.5 128t-38.5 132.5q-12 49 -26.5 102.5t-27.5 100.5t-23.5 83t-16.5 52q-10 27 -18.5 33t-14.5 1t-10 -15t-6 -17q-6 -18 -22.5 -68t-37 -116.5 t-42 -141.5t-39.5 -143q-29 -100 -53.5 -181t-36.5 -120q-10 -29 -28 -40t-38 -11q-27 0 -48.5 16.5t-27.5 41.5q0 8 -6 78.5t-12 176t-15.5 228.5t-15.5 234.5t-12 197.5t-6 115q-2 63 -5.5 109t-7.5 81q-2 12 -3 22.5t-1 18.5z" />
<glyph unicode="x" horiz-adv-x="886" d="M4 1396q6 22 20 36q10 9 22 9q4 0 8 -1q18 -4 34 -35q6 -14 20.5 -52t34 -91.5t43 -117t45.5 -128.5q29 -78 58.5 -157t54.5 -142.5t42 -103.5t22 -42q8 -2 30.5 41t53 112t66.5 154t71 171q27 63 50 120.5t41.5 102.5t32 74.5t17.5 39.5v-2q20 31 45 31q23 1 37 -25 q7 -12 7 -26q0 -15 -9 -33q-10 -20 -47 -100t-84 -189q-41 -92 -84 -189t-80 -179t-63.5 -135.5t-32.5 -57.5q-6 -6 5 -44t31.5 -91t46 -110.5t44.5 -100.5l14 -33q12 -31 12 -56v-6q-2 -28 -12 -42t-26.5 -12t-30.5 30q-8 16 -25.5 64.5t-36.5 103.5q-25 63 -44 111.5 t-29 52.5q-8 2 -20.5 -16.5t-27 -49t-31 -68.5t-30.5 -75q-20 -51 -37.5 -93t-23.5 -50q-10 -14 -30 -15h-4q-18 0 -32 8q-16 9 -22 27t10 41t50 84.5t68 128.5q32 66 58 122q29 63 29 69q0 11 -23 71q-25 66 -61.5 161t-81.5 206t-85 207t-70 165.5t-36 82.5q-6 12 -6 26 q0 8 2 16z" />
<glyph unicode="y" horiz-adv-x="753" d="M6 1331q-2 8 -2 16q0 11 5 21q9 18 25.5 27.5t34 6.5t25.5 -22q6 -12 21.5 -59t36 -114.5t45 -149.5t48 -162t45 -153.5t36.5 -125.5q4 -16 11 -29.5t11 -23.5l10 -20q10 23 21 49q10 23 21.5 54.5t23.5 70.5q27 86 60.5 192.5t64.5 204.5t54.5 176t31.5 105q14 47 43 47 q18 0 32 -24q10 -16 10 -39q0 -12 -3 -27q-4 -16 -21.5 -68.5t-44 -126.5t-57.5 -161t-62 -173q-27 -78 -52 -150.5t-44.5 -130t-31 -94t-11.5 -40.5q2 -8 3 -58.5t3 -112t3 -116.5t1 -74q0 -16 -15 -27.5t-32 -11.5q-12 0 -23 10.5t-14 34.5q-2 18 -2 43v54q0 59 1 121.5 t1 97.5v28q0 6 -21.5 73t-54 165t-71.5 213t-74 216t-60.5 176t-31.5 91z" />
<glyph unicode="z" horiz-adv-x="704" d="M6 1356q0 14 8 26q7 11 21 11h4q20 -2 88 -3t152 -4q57 0 113.5 -2t104.5 -3t81.5 -3t46.5 -4q33 -6 26.5 -30.5t-22.5 -57.5q-10 -23 -41 -97.5t-72 -178t-88 -222t-89 -228t-76 -198t-48 -126.5l-12 -33q-11 -35 -10 -54q0 -9 2 -15q6 -12 42 -12q9 0 21 1l207 10 q43 2 87 4t66 4q16 -2 28.5 -10t12.5 -20q0 -23 -13 -43.5t-34 -22.5q-16 -2 -67 -4t-115.5 -4t-132.5 -4t-115 -2h-39t-20 2q-19 3 -31 31q-7 15 -6 34q0 15 4 31q2 2 14.5 35t32 84t44 112.5t48.5 120.5q43 106 89.5 224t89.5 225.5t75.5 193.5t48.5 129q12 41 -1 48.5 t-48 7.5h-10q-18 2 -45 2h-49q-82 0 -166 -4.5t-131 -8.5q-39 -4 -57.5 15.5t-18.5 42.5zM90 129q0 6 2 10z" />
<glyph unicode="{" horiz-adv-x="407" d="M11 437.5q-1 17.5 4 32.5t18 15q16 0 35.5 2t36 15.5t26.5 41t10 81.5q0 16 -1 33.5t-3 37.5q-10 86 -18 176.5t-16.5 178.5t-12.5 172t-4 155q0 39 20.5 67t51 46t67.5 26.5t68 8.5q27 0 38 -12.5t11 -26.5q0 -16 -9 -30.5t-26 -10.5q-47 6 -87 -18.5t-50 -67.5 q-10 -47 -10 -113q0 -72 9 -155.5t21 -165.5q10 -66 17.5 -127.5t9.5 -110.5q4 -100 -13.5 -143t-31.5 -64q-6 -8 -11 -14t-3 -21q2 -12 7 -19t15 -15q16 -16 31.5 -37t17.5 -58q2 -23 1 -49t-3 -55q0 -23 -1 -45.5t-1 -44.5q0 -33 2 -61.5t11 -47.5q16 -33 33.5 -37t39.5 0 q10 2 20.5 3.5t20.5 -0.5q16 -2 22.5 -15.5t6.5 -30.5q0 -16 -6 -29.5t-21 -17.5q-12 -4 -36.5 -10t-51.5 -6q-37 0 -68.5 20.5t-39.5 79.5q-4 25 -4 51.5v51.5v56.5t2 53.5q2 43 2 76t-8 53v-2q-14 47 -45 67.5t-64 16.5q-14 -2 -21.5 11.5t-8.5 31z" />
<glyph unicode="|" horiz-adv-x="190" d="M35 254v238t1 260t2 256t3 225t3 169t3 89q2 18 12.5 26.5t24.5 8.5q12 0 22.5 -8.5t10.5 -24.5q-2 -23 -3 -88.5t-2 -158.5t-2 -208.5t-1 -238.5q0 -154 -1.5 -305.5t-3.5 -274.5t-4 -204t-6 -91q-8 -16 -27.5 -20t-27.5 18q-2 10 -3 101.5t-1 230.5z" />
<glyph unicode="}" horiz-adv-x="428" d="M10 -66q0 16 7.5 29.5t21.5 16.5q12 2 22.5 1t20.5 -4q23 -4 40 0.5t34 36.5q8 18 10 47t2 62q0 23 -1 45t-1 45q-2 29 -3 55.5t1 48.5q2 37 17.5 57.5t31.5 37.5q18 18 23 34q0 8 -5.5 17.5t-9.5 17.5q-6 10 -15 24.5t-16.5 38t-11.5 58.5t-2 86q2 49 9.5 110.5 t17.5 127.5q12 82 21 166t9 155q0 33 -2 61.5t-8 51.5q-10 43 -50 67.5t-87 18.5q-16 -4 -25.5 10t-9.5 31q0 14 11 26.5t38 12.5q31 0 68 -8.5t67.5 -26.5t51 -46t20.5 -67q0 -72 -4 -155.5t-12 -171.5t-17.5 -178.5t-17.5 -176.5q-2 -20 -3 -37.5t-1 -33.5q0 -53 10 -81 t26.5 -41.5t36 -15.5t35.5 -2q14 -4 19.5 -19t3.5 -31.5t-10 -30t-21 -9.5q-31 8 -62.5 -14.5t-47.5 -69.5v2q-6 -20 -6 -53t2 -76q2 -27 2 -54.5v-55.5v-51.5t-4 -51.5q-8 -59 -40 -79.5t-69 -20.5q-29 0 -53.5 6t-38.5 10q-10 4 -17.5 17.5t-7.5 29.5z" />
<glyph unicode="~" horiz-adv-x="665" d="M5 413.5q-3 14.5 13 32.5q14 18 40 44t54.5 48.5t59 39t53.5 16.5q23 2 58.5 -24.5t64.5 -51.5q20 -16 34.5 -25.5t23.5 -9.5q12 2 32.5 12.5t43 25t44 31.5t33.5 32q8 10 19.5 9t20.5 -7t13 -17.5t-2 -23.5q-6 -14 -32.5 -41t-58.5 -52.5t-63.5 -45t-47.5 -19.5 q-25 2 -57 24.5t-58 43.5q-20 16 -37.5 30.5t-32.5 12.5q-16 -4 -38.5 -16.5t-45 -30t-42 -34t-27.5 -26.5t-23.5 -9t-27 9t-14.5 22.5z" />
<glyph unicode="&#xa1;" horiz-adv-x="198" d="M8 48q-2 -34 10 -46q8 -8 22.5 -12t29 -4t27 4t16.5 10q2 4 2 65.5v153.5v177.5t-1 188.5t-2 175t-1 137v80v22.5t2 28.5q2 18 2 43v45v34.5t-4 29.5q-6 27 -28 20.5t-28 -22.5q-4 -8 -7 -73t-6 -160t-6 -206.5t-5 -214.5q-2 -76 -5 -159.5t-6 -159.5l-6 -76 q-4 -47 -6 -81zM13.5 1308.5q-9.5 20.5 2.5 51.5q8 16 30 25.5t46 9.5q23 0 43.5 -10.5t22.5 -36.5q2 -14 -2.5 -35t-20.5 -37q-41 -47 -94 -4q-18 16 -27.5 36.5z" />
<glyph unicode="&#xa2;" horiz-adv-x="598" d="M14 725q0 70 8.5 139.5t23.5 131t40 113.5t57 87q25 27 45.5 39t36.5 22q20 10 31.5 20.5t11.5 29.5v12q0 27 1 51.5t3 34.5v2q2 18 12.5 26.5t26.5 8.5q10 0 20.5 -8.5t10.5 -24.5q-2 -10 -3 -30.5t-1 -63.5q0 -29 25.5 -29t56.5 4q16 4 32.5 3t20.5 -5 q25 -25 18.5 -49.5t-28.5 -28.5q-39 -10 -84 -4q-12 0 -29.5 -9t-13.5 -28l-4 -438q0 -119 -1 -235.5t-3 -210.5q4 -27 8 -34t10 -7q12 -4 31.5 -2t41 7t43 12t38.5 11q8 4 14 4q16 4 26.5 -10t10.5 -35q0 -12 -6 -23t-21 -15q-29 -10 -59.5 -16.5t-56.5 -10.5 q-37 -8 -61.5 -16.5t-20.5 -24.5q-2 -41 -3 -66.5t-4 -31.5v2q-6 -16 -27.5 -22.5t-27.5 20.5q-4 12 -4 112q0 16 -11 25.5t-34 19.5h2q-8 4 -17.5 8.5t-19.5 10.5q-41 25 -71.5 77t-52 122.5t-32 153.5t-10.5 169zM78 698q0 -72 10 -139t28.5 -124.5t46 -101.5t62.5 -67h-2 q12 -10 20.5 -9t16.5 30v145v177t1 186.5t2 182.5t3 167q0 10 -3 20.5t-21 14.5q-41 -35 -72 -88.5t-51.5 -117t-30.5 -134t-10 -142.5zM221 268q0 -2 2 -2z" />
<glyph unicode="&#xa3;" horiz-adv-x="710" d="M10.5 434.5q-6.5 14.5 5.5 32.5q4 6 18.5 10t31.5 8q29 6 53 17.5t24 34.5q-4 47 -6 93t-2 93q0 86 7.5 170t22.5 157.5t39.5 132t57.5 95.5q53 59 107.5 80.5t101.5 21.5t81 -10t44 -16q27 -14 27 -41q0 -25 -41 -37q-16 -4 -34 -3t-36 5q-39 6 -79 5t-77 -32 q-39 -33 -66.5 -87t-45 -122.5t-25.5 -146.5t-8 -158q0 -96 12 -188q10 -25 15.5 -29t15.5 -4q53 8 101 12t83 4q47 0 54 -8q8 -29 7 -51t-12 -27q-4 -2 -22.5 -4t-46 -5t-61 -6t-70.5 -5q-10 0 -21.5 -7t-15.5 -30q16 -70 36.5 -127t47.5 -88q20 -25 46 -37t54 -12 q29 0 57.5 8t57.5 17q27 10 46 14t28 0q29 -20 40 -39t-22 -39q-23 -12 -72 -25.5t-108 -13.5q-66 0 -124 21.5t-85 76.5q-10 23 -18.5 28t-18.5 -32q-4 -20 -15.5 -43.5t-26.5 -44t-33.5 -36t-37.5 -21.5q-20 0 -37.5 11t-17.5 28q0 10 8 22.5t25 18.5q51 23 74.5 83 t23.5 126q0 47 -12 90q-6 14 -23.5 24.5t-39 14.5t-44 6t-36.5 2q-6 -2 -12.5 12.5z" />
<glyph unicode="&#xa4;" horiz-adv-x="743" d="M18 727q0 86 6.5 170t18.5 155.5t28.5 128t39.5 85.5q4 4 7 14t3 35q-6 23 -12.5 39t-10.5 26t-6 14.5t-2 8.5q0 12 9.5 19.5t20.5 9.5t21.5 0t12.5 -11v-2q16 -49 33.5 -72.5t50.5 -11.5h-2q49 12 102 13q51 0 106 -13h-2q18 -6 28.5 -9t17 -1t11.5 10t13 25l33 65v-2 q8 10 32.5 8.5t34.5 -20.5q4 -4 -5 -27.5t-23 -56.5q-8 -37 -4 -47t10 -16q55 -51 77.5 -147.5t22.5 -211.5q0 -96 -12 -193.5t-30.5 -183.5t-42 -154.5t-46.5 -107.5l-16 -28v2q-12 -16 2 -53t30 -76q14 -31 25.5 -58.5t7.5 -32.5q-10 -16 -32.5 -16t-30.5 10 q-10 14 -24.5 48t-35.5 83v-2q-4 10 -9 17.5t-23 11.5q-76 -41 -156 -41q-16 0 -32.5 2t-33.5 6h-20q-10 0 -23.5 -30.5t-21.5 -59.5v4q-6 -12 -6 -18v-8q-6 -6 -16.5 -9.5t-21.5 -1.5t-19.5 9.5t-8.5 17.5q0 -2 4 10.5t8 22.5q16 31 27.5 68.5t-2.5 52.5q-29 29 -50.5 84 t-35.5 125.5t-20.5 153.5t-6.5 167zM94 725q0 -86 6 -168t18.5 -148.5t29 -112.5t38.5 -58h-2q66 -39 138 -39q45 4 87 25.5t72 62.5q16 25 40 88t45.5 149t36.5 184.5t15 192.5q0 104 -23.5 189.5t-82.5 130.5q-41 29 -90 45t-98 16q-83 0 -136 -47q-23 -23 -40 -74 t-29.5 -120.5t-18.5 -151.5t-6 -164z" />
<glyph unicode="&#xa5;" horiz-adv-x="753" d="M6 1331q-6 20 3 37.5t25.5 27t34 6.5t25.5 -22q6 -14 19.5 -55t33 -100.5t41 -131t44 -143t43 -140.5t36.5 -120q2 -8 4 -15t4 -13l5 -17q23 -29 35 -28t32 38l29 86q25 76 58.5 174.5t64 192.5t56.5 172t36 115q16 47 43 47q18 0 31.5 -25.5t7.5 -64.5 q-4 -18 -19.5 -61.5t-38 -104t-49 -132t-55.5 -145.5l-96 -250q-4 -16 -2 -25t7 -12.5t11 -3.5h12q55 2 94.5 1t43.5 -7q8 -29 7 -50t-11 -25q-16 -8 -52.5 -9.5t-70.5 0.5q-35 2 -62.5 -2t-32.5 -16q-4 -14 -4 -36.5t2 -33.5q4 -23 45 -27.5t89 -2.5q35 2 62.5 2t29.5 -4 h-2q27 -63 -2 -74q-4 -4 -35 -5t-76 -3q-12 0 -25.5 -1t-27.5 -1q-12 0 -35 -7.5t-25 -25.5q0 -37 1 -77t2 -74t1 -58.5v-34.5q0 -16 -15 -27.5t-32 -11.5q-12 0 -23 10.5t-14 34.5q0 8 1.5 23.5t1.5 34.5q0 18 1 40.5t1 45.5q0 53 -7.5 90t-29.5 28h2q-49 -6 -94 -6 q-59 0 -92 11.5t-17 39.5v2q4 8 63.5 18.5t137.5 20.5q12 2 23.5 8.5t8.5 28.5l-1 16q-1 15 -8 31.5t-26.5 29.5t-56.5 9h-10h-45t-50.5 3t-35.5 10.5t-4 21.5q4 10 39 19.5t78 17.5q66 10 49 53q-33 94 -72 207t-74.5 212t-62.5 173t-33 90z" />
<glyph unicode="&#xa6;" horiz-adv-x="190" d="M35 195v188q0 18 9 26.5t19 8.5q16 0 36 -13.5t16 -31.5q0 -90 -1 -169t-3 -139.5t-4.5 -97.5t-4.5 -43q-8 -16 -31.5 -20t-31.5 18q-2 18 -3 93t-1 180zM35 561q0 152 2 307.5t3 285.5t3 221t4 116q2 18 13.5 26.5t27.5 8.5q14 0 25.5 -9.5t11.5 -25.5q-2 -29 -4 -121 t-3 -223t-2 -285.5t-1 -306.5v-2q2 -10 -16.5 -20.5t-37.5 -10.5q-27 0 -26 39z" />
<glyph unicode="&#xa7;" horiz-adv-x="579" d="M10 185.5q6 15.5 21.5 22.5t34 7t26.5 -6q10 -18 36 -42t59.5 -41t71.5 -23.5t73 10.5q49 23 69.5 62.5t20.5 84.5q0 76 -43 129q-18 23 -50 35t-71 22q-35 12 -79 30t-79 42q-18 20 -33.5 59t-25.5 91.5t-15.5 114t-5.5 126.5q0 74 6.5 147.5t18.5 136t29.5 112 t40.5 73.5q25 31 59.5 43.5t71.5 12.5q43 0 86 -16.5t77.5 -46.5t57.5 -71t27 -90q4 -37 -13.5 -53t-38.5 -16q-16 0 -30.5 12t-14.5 37q0 23 -10 49.5t-27.5 49t-42 37.5t-53.5 15q-51 0 -104 -59q-23 -29 -38.5 -105.5t-21.5 -172.5q4 -59 19.5 -106.5t32.5 -66.5 q29 -20 63.5 -30t65.5 -21q45 -14 89 -28.5t76 -55.5q27 -31 43.5 -78t16.5 -100q0 -29 -6 -59.5t-23 -63.5q29 -57 29 -127q0 -66 -36 -132t-95 -107q-16 -8 -39 -13.5t-41 -5.5q-47 0 -93 16.5t-84 39t-64.5 45t-33.5 32.5q-16 27 -10 42.5zM102 727q6 -53 18.5 -92 t31.5 -53q29 -23 61.5 -33t67.5 -21q29 -8 57.5 -17t62.5 -26q6 -2 10.5 2.5t8.5 36.5q-6 70 -41 115q-18 25 -49 36t-70 21q-31 8 -64.5 18.5t-64.5 28.5z" />
<glyph unicode="&#xa8;" horiz-adv-x="374" d="M10 608q4 10 21.5 16.5t38.5 6.5q16 0 29.5 -6.5t15.5 -22.5q2 -10 -2.5 -30.5t-16.5 -34.5t-29.5 -11.5t-32 16t-21.5 32t-1 34.5h-2zM219 608q4 10 21.5 16.5t38.5 6.5q16 0 29.5 -6.5t15.5 -22.5q2 -10 -2.5 -30.5t-16.5 -34.5t-29.5 -11.5t-32 16t-21.5 32t-1 34.5 h-2z" />
<glyph unicode="&#xa9;" horiz-adv-x="837" d="M12 631q0 113 8.5 224.5t21.5 204.5t33.5 157.5t45.5 85.5q47 35 125 56t164 21q72 0 142.5 -17t121.5 -52q16 -16 33.5 -78t31 -152t22.5 -199.5t9 -219.5q0 -78 -5 -154t-16.5 -143.5t-28.5 -124t-42 -93.5q-49 -70 -138 -99.5t-184 -29.5q-80 0 -148.5 18.5 t-98.5 49.5v-2q-25 25 -43.5 79t-29.5 128t-17.5 161t-6.5 179zM96 631q0 -84 5 -164t14.5 -145.5t24 -111.5t34.5 -63q29 -25 77 -37t101 -12q80 0 156 28t117 81q14 20 26.5 71.5t20.5 122t12 155.5t4 173t-5 174t-14.5 156.5t-24.5 121t-36 68.5q-35 29 -87 44.5 t-111 15.5q-70 0 -130.5 -19.5t-89.5 -54.5q-25 -29 -42 -91.5t-29.5 -144t-17.5 -178t-5 -190.5zM244 600q0 84 16 160t47 114q25 27 56.5 40.5t54.5 13.5t40 -6.5t25 -10.5q25 -14 24 -36.5t-34 -28.5q-8 -2 -18.5 -1t-20.5 3q-16 2 -31.5 1t-27.5 -11 q-35 -29 -48.5 -91.5t-13.5 -136.5q0 -80 14.5 -153.5t39.5 -102.5q16 -18 38.5 -14t43.5 10q16 8 28 10t23 -8h-2q20 -12 26 -27.5t-20 -31.5q-12 -6 -40 -15.5t-58 -9.5q-23 0 -44.5 5.5t-39.5 19.5t-33 45t-25 73t-15 91t-5 98z" />
<glyph unicode="&#xab;" horiz-adv-x="768" d="M10 473q0 29 14.5 53.5t34.5 46.5q41 41 90.5 101.5t96.5 116.5q37 45 65.5 80.5t44.5 48.5h2q23 23 50 22q29 0 43 -25.5t-9 -56.5q-4 -4 -21.5 -20.5t-41.5 -38.5q-31 -29 -69 -66t-74.5 -75.5t-69.5 -74.5t-51 -65q-20 -29 -13 -53.5t48 -58.5q37 -31 74.5 -61 t71.5 -55.5t60.5 -45t40.5 -27.5q0 -2 2 -2t2 -1t2 -1l-2 2q12 -10 13.5 -27.5t-6 -34t-20.5 -25.5t-30 -3q-16 6 -52 33.5t-79 63.5t-86 74t-73 64q-27 25 -42.5 54.5t-15.5 56.5zM268 475q0 35 23.5 74t52.5 67l137 146q47 51 85 91t57 56h2q12 12 26.5 17.5t24.5 5.5 q29 0 42 -25.5t-9 -56.5q-4 -4 -19.5 -18.5t-38.5 -30.5q-29 -23 -64.5 -52.5t-71.5 -62.5t-66.5 -63.5t-49.5 -57.5q-2 -4 -2 -6t-2 -2q-12 -14 -21 -27.5t-12.5 -25.5t3 -25.5t26.5 -27.5l115 -68l211 -131q8 -10 9 -28.5t-6 -34t-19.5 -24.5t-26.5 -1q-16 6 -66.5 40 t-109.5 75q-53 37 -105.5 72.5t-85.5 54.5q-23 12 -31 30.5t-8 38.5zM403 215h5h-5z" />
<glyph unicode="&#xac;" horiz-adv-x="598" d="M22 435.5q-7 9.5 1 21.5q6 8 50 18t105.5 17.5t131 12.5t124.5 5q39 0 66.5 -2t34.5 -10q4 -12 7 -44t3 -63q0 -39 -1 -73.5t-5 -47.5q-2 -12 -11.5 -19t-20.5 -7t-19.5 6t-10.5 18q-4 10 0 45q2 37 1 74t-29 37h-11q-25 0 -62.5 -1t-70.5 -3q-41 -2 -81 -4t-77 -2 q-31 0 -57.5 2t-43.5 6t-24 13.5z" />
<glyph unicode="&#xad;" horiz-adv-x="563" d="M22 443.5q-3 5.5 1 13.5q6 8 54 21.5t113.5 25.5t134 20t117.5 8q51 0 58 -8q8 -27 7 -49t-11 -29q-10 -2 -48 -7t-89.5 -10t-106.5 -9t-102.5 -7t-78 -4t-30.5 3q0 12 -14 22h2q-4 4 -7 9.5z" />
<glyph unicode="&#xae;" horiz-adv-x="837" d="M12 631q0 113 8.5 224.5t21.5 204.5t33.5 157.5t45.5 85.5q47 35 125 56t164 21q72 0 142.5 -17t121.5 -52q16 -16 33.5 -78t31 -152t22.5 -199.5t9 -219.5q0 -78 -5 -154t-16.5 -143.5t-28.5 -124t-42 -93.5q-49 -70 -138 -99.5t-184 -29.5q-80 0 -148.5 18.5 t-98.5 49.5v-2q-25 25 -43.5 79t-29.5 128t-17.5 161t-6.5 179zM96 631q0 -84 5 -164t14.5 -145.5t24 -111.5t34.5 -63q29 -25 77 -37t101 -12q80 0 156 28t117 81q14 20 26.5 71.5t20.5 122t12 155.5t4 173t-5 174t-14.5 156.5t-24.5 121t-36 68.5q-35 29 -87 44.5 t-111 15.5q-70 0 -130.5 -19.5t-89.5 -54.5q-25 -29 -42 -91.5t-29.5 -144t-17.5 -178t-5 -190.5zM250 383q0 33 1 88t3 117q2 59 3 115.5t1 101.5q0 23 -1 39t-1 26v19q0 18 11.5 22t25.5 9q2 0 5 1t7 1q8 0 48 -1t84 -22.5t78 -70t30 -140.5q-2 -66 -16.5 -109.5 t-37 -72.5t-49 -44.5t-53.5 -23.5q43 -39 85 -73.5t54 -40.5q6 -8 4 -20.5t-8 -24t-16 -18.5t-21 -3q-14 14 -30 29q-14 12 -30.5 27.5t-33.5 31.5l-78 74v-29v-33q-2 -25 -3 -45t-3 -26q-10 -16 -25.5 -19.5t-27.5 8.5q-6 18 -6 107zM313 840q0 -4 1 -50.5t2 -103.5 t2 -109.5t1 -68.5q0 -10 7 -12q10 0 36.5 5t54 23.5t49 55t21.5 100.5q0 63 -22.5 97t-50 49.5t-54 16.5t-34.5 1h-11.5t-1.5 -2v-2zM317 426q0 2 2 4q-2 -2 -2 -4zM379 451q2 -4 4 -5.5t4 -5.5q0 3 -8 11z" />
<glyph unicode="&#xaf;" horiz-adv-x="464" d="M25 590v2q2 6 21.5 9t49 6t65.5 4t72 1q63 0 115.5 -4t63.5 -14q6 -6 3 -18.5t-14 -18.5q-16 -6 -77.5 -12t-128.5 -6q-37 0 -72 2t-59.5 8t-37 15t-1.5 26z" />
<glyph unicode="&#xb0;" horiz-adv-x="421" d="M14 963q-2 100 38 160.5t126 62.5q170 4 180 -160q2 -43 -6 -82t-25.5 -68.5t-46 -49t-65.5 -21.5q-39 -2 -75 4t-63.5 24.5t-45 50t-17.5 79.5zM84 1001q-4 -59 21.5 -98t78.5 -39t81 37t28 92q0 53 -18.5 92t-77.5 43t-84 -31.5t-29 -95.5z" />
<glyph unicode="&#xb1;" horiz-adv-x="600" d="M-6 190.5q0 8.5 12 20.5q6 6 59.5 18.5t125 22.5t146.5 18.5t128 8.5q72 0 80 -21q14 -43 3 -56.5t-20 -15.5q-6 -2 -44 -3t-93 -3t-118.5 -4t-118 -3t-92 -2t-42.5 -1q-4 0 -11 2t-11 6t-4 12.5zM-1 551q-7 8 3 24q6 8 62.5 21.5t140.5 17.5q23 -4 25.5 19.5t2.5 71.5 v44.5t3 55.5q0 31 12 44t28 13q18 0 32 -12t16 -37v-133q0 -18 6 -37.5t49 -11.5h-2q51 4 96 7t47 -3q23 -59 10 -64q-8 -4 -26.5 -8t-38.5 -4h-54.5t-58.5 -4q-25 -2 -31 -14.5t-6 -34.5v-8l-6 -176q0 -12 -9 -18.5t-20.5 -6.5t-20.5 6t-11 19q-4 23 -6 69.5t-4 93.5v23 q-8 29 -16.5 33t-18.5 4l-74 -4q-41 -4 -72.5 -4t-42.5 2q-8 4 -15 12z" />
<glyph unicode="&#xb4;" horiz-adv-x="280" d="M8 513q-2 17 15 40q41 61 74.5 110.5t70.5 102.5q12 16 33.5 15t39 -11t19.5 -26.5t-24 -32.5l-158 -197q-12 -23 -28.5 -28t-28 2.5t-13.5 24.5zM236 711l4 4z" />
<glyph unicode="&#xb6;" horiz-adv-x="671" d="M14 918q-4 129 28 216t84 141t115.5 82.5t121 40t100.5 10.5t53 -3q4 0 11.5 -2t11.5 -2q23 -4 41 -11t16 -34q-2 -16 -2 -63.5v-116.5q0 -98 1 -225.5t5 -258.5q4 -154 6 -267.5t2 -191.5q0 -104 -3 -153t-9 -62q-8 -16 -26.5 -11t-28.5 26q-4 12 -7.5 61t-5.5 103 q-2 59 -4 108t-10 60v-3q-14 16 -36.5 19.5t-59.5 7.5q-16 0 -23.5 -3t-17.5 -26q-2 -68 -4 -127t-3 -105t-3 -77t-5 -39q-8 -16 -27.5 -21t-25.5 19q-4 12 -5 28.5t-1 35.5v44.5t2 45.5q4 12 4 26.5v22.5v14q2 18 3 52t1 61q0 25 -5 45.5t-13 28.5l-19 6q-51 16 -97 51 t-81 94.5t-57.5 145.5t-26.5 207zM379 504q0 -25 7 -31t13 -6q23 -6 39.5 -8t26.5 -2q37 -4 45 16.5t10 40.5v6q0 4 1 58.5t3 134.5t3 172t2 173t2 136t1 61v5q0 20 -7 29t-54 9h-35q-18 -8 -24 -18t-6 -20q-4 -57 -8.5 -142.5t-7.5 -186t-6 -211t-5 -216.5z" />
<glyph unicode="&#xb7;" horiz-adv-x="202" d="M37 479q0 20 17.5 36.5t58.5 16.5q27 0 38 -15t11 -34q0 -27 -15.5 -47t-48.5 -22q-27 -2 -44 18.5t-17 46.5z" />
<glyph unicode="&#xb8;" horiz-adv-x="329" d="M10.5 -223.5q-0.5 10.5 8 19.5t19.5 16.5t19 7.5q29 -10 61 -16.5t48 -6.5q8 0 19.5 8.5t18.5 19.5t6 21.5t-17 14.5h2q-25 10 -52 12q-23 4 -44 10t-36 21q-8 8 -9 25.5t2 37t8.5 40t9.5 36.5q8 27 23.5 37t28.5 7t18.5 -16.5t-3.5 -35.5q-10 -25 -16 -50.5t10 -33.5h-4 q4 -8 37 -14q31 -8 69.5 -21.5t45.5 -46.5q4 -35 -19.5 -76t-58.5 -57q-31 -12 -55 -12q-35 0 -68 10t-57 26q-14 6 -14.5 16.5z" />
<glyph unicode="&#xbb;" horiz-adv-x="774" d="M8 223.5q0 18.5 10 28.5q16 10 79 49t132 82l117 68q39 27 30 52t-32 52l-6 10q-18 27 -49 57.5t-67 63.5t-71.5 62.5t-64.5 52.5q-47 37 -59 49q-23 31 -8.5 56.5t42.5 25.5q27 0 50 -23h2q20 -16 58 -56t85 -91l137 -146q29 -29 52.5 -67.5t23.5 -73.5q0 -20 -9 -38.5 t-34 -30.5q-31 -18 -82 -54.5t-104 -72.5q-59 -41 -109.5 -75t-67.5 -40q-16 -8 -28 1t-19.5 24.5t-7.5 34zM285.5 916.5q13.5 25.5 42.5 25.5t51 -22h2q16 -12 45 -48t66 -81q47 -55 96 -116t90 -102q20 -23 33.5 -47t13.5 -53q0 -27 -14.5 -56.5t-40.5 -54.5 q-31 -27 -75 -64.5t-87 -73.5t-79 -63.5t-50 -33.5q-16 -6 -30.5 3t-22 25.5t-6 34t13.5 27.5l-6 -2l12 4q14 8 41 27.5t60.5 45t71.5 55.5t75 61q41 35 48 59.5t-15 52.5q-18 29 -51 65t-70 74.5t-75 75.5t-67 66q-27 23 -43 39l-20 20q-23 31 -9.5 56.5z" />
<glyph unicode="&#xbf;" horiz-adv-x="493" d="M12 547q8 92 34 153.5t57.5 101.5t68.5 65.5t72 45.5h-2q45 25 76.5 49.5t41.5 67.5q8 33 9 70q0 25 -3.5 42t-7.5 34q-6 27 -6 38q0 12 14.5 21.5t30 11.5t27.5 -4t12 -26q0 -8 1 -17.5t1 -23.5q2 -16 2 -34v-38q0 -45 -6 -90t-24 -76q-12 -16 -35 -31.5t-49 -34.5 q-33 -18 -70 -44.5t-69.5 -65.5t-56.5 -91.5t-30 -121.5q-6 -111 28 -189.5t84 -132t104.5 -85t84.5 -46.5v2l25 -12h-2q12 -8 11 -22.5t-9 -29t-21.5 -22.5t-27.5 -4q-20 6 -85 42t-132.5 102.5t-114.5 164t-33 230.5zM319 1376v2q4 35 21.5 49.5t40.5 14.5 q27 0 49.5 -19.5t20.5 -54.5q0 -35 -19.5 -50t-46.5 -15t-48.5 19t-17.5 54z" />
<glyph unicode="&#xc0;" horiz-adv-x="821" d="M4 27.5q-2 19.5 4 48t17.5 64.5t25.5 71q6 14 24.5 67.5t44 129t57.5 169t63.5 188.5t62.5 187t54.5 165t40 120t18.5 55l6 27q6 25 13.5 45t19.5 20q20 0 43.5 -15t23.5 -81q0 -20 12.5 -89t33 -164t45 -207.5t50 -223t48 -209t39.5 -166.5l20 -94q6 -23 6 -48.5 t-24 -37.5q-27 -12 -49.5 15.5t-30.5 56.5q-2 4 -5 24.5t-8 53.5q-6 41 -15 97t-19 116q-4 8 -54.5 5t-115.5 -7l-49 -4q-8 0 -16.5 -1.5t-16.5 -1.5q-70 -4 -125 -12t-60 -22q-25 -98 -37 -146.5t-14 -52.5q-6 -18 -17 -48t-26.5 -57.5t-35 -46t-40.5 -12.5q-12 2 -14 21.5 zM227 498v2q-6 -12 8.5 -17.5t42 -6.5t63.5 1t75 6q8 0 14 1t14 1q63 4 110.5 13.5t47.5 23.5q-18 104 -39.5 209t-41 187.5t-38 135t-30.5 52.5q-14 0 -40 -56.5t-57.5 -144.5t-64.5 -195.5t-64 -211.5zM378 1687.5q7 14.5 20 25t29.5 14t22.5 -6.5q39 -53 73 -102t75 -111 q14 -23 12 -40t-13.5 -24t-27.5 -2t-29 28l-157 196q-12 8 -5 22.5zM381 1669q0 -2 2 -4z" />
<glyph unicode="&#xc1;" horiz-adv-x="821" d="M4 27.5q-2 19.5 4 48t17.5 64.5t25.5 71q6 14 24.5 67.5t44 129t57.5 169t63.5 188.5t62.5 187t54.5 165t40 120t18.5 55l6 27q6 25 13.5 45t19.5 20q20 0 43.5 -15t23.5 -81q0 -20 12.5 -89t33 -164t45 -207.5t50 -223t48 -209t39.5 -166.5l20 -94q6 -23 6 -48.5 t-24 -37.5q-27 -12 -49.5 15.5t-30.5 56.5q-2 4 -5 24.5t-8 53.5q-6 41 -15 97t-19 116q-4 8 -54.5 5t-115.5 -7l-49 -4q-8 0 -16.5 -1.5t-16.5 -1.5q-70 -4 -125 -12t-60 -22q-25 -98 -37 -146.5t-14 -52.5q-6 -18 -17 -48t-26.5 -57.5t-35 -46t-40.5 -12.5q-12 2 -14 21.5 zM227 498v2q-6 -12 8.5 -17.5t42 -6.5t63.5 1t75 6q8 0 14 1t14 1q63 4 110.5 13.5t47.5 23.5q-18 104 -39.5 209t-41 187.5t-38 135t-30.5 52.5q-14 0 -40 -56.5t-57.5 -144.5t-64.5 -195.5t-64 -211.5zM332 1488q-2 17 15 40q41 61 74.5 110.5t70.5 102.5q12 16 33.5 15 t39 -11t19.5 -26.5t-24 -32.5l-158 -197q-12 -23 -28.5 -28t-28 2.5t-13.5 24.5zM560 1686l4 4z" />
<glyph unicode="&#xc2;" horiz-adv-x="821" d="M4 27.5q-2 19.5 4 48t17.5 64.5t25.5 71q6 14 24.5 67.5t44 129t57.5 169t63.5 188.5t62.5 187t54.5 165t40 120t18.5 55l6 27q6 25 13.5 45t19.5 20q20 0 43.5 -15t23.5 -81q0 -20 12.5 -89t33 -164t45 -207.5t50 -223t48 -209t39.5 -166.5l20 -94q6 -23 6 -48.5 t-24 -37.5q-27 -12 -49.5 15.5t-30.5 56.5q-2 4 -5 24.5t-8 53.5q-6 41 -15 97t-19 116q-4 8 -54.5 5t-115.5 -7l-49 -4q-8 0 -16.5 -1.5t-16.5 -1.5q-70 -4 -125 -12t-60 -22q-25 -98 -37 -146.5t-14 -52.5q-6 -18 -17 -48t-26.5 -57.5t-35 -46t-40.5 -12.5q-12 2 -14 21.5 zM227 498v2q-6 -12 8.5 -17.5t42 -6.5t63.5 1t75 6q8 0 14 1t14 1q63 4 110.5 13.5t47.5 23.5q-18 104 -39.5 209t-41 187.5t-38 135t-30.5 52.5q-14 0 -40 -56.5t-57.5 -144.5t-64.5 -195.5t-64 -211.5zM309 1485q-8 12 4 35v-2q14 23 30.5 49t33 51t30 44.5t21.5 27.5 q33 29 49 28q24 1 49 -34q10 -12 28.5 -35t37 -49.5t35 -51t22.5 -38.5q4 -10 -2 -22.5t-18.5 -18t-27.5 -1t-28 24.5l-39 57q-18 29 -31.5 50.5t-27.5 21.5q-8 0 -18.5 -11t-21.5 -28.5t-20.5 -37t-17.5 -38.5h2l-6 -12q-8 -14 -25.5 -21t-34 -4t-24.5 15z" />
<glyph unicode="&#xc3;" horiz-adv-x="821" d="M4 27.5q-2 19.5 4 48t17.5 64.5t25.5 71q6 14 24.5 67.5t44 129t57.5 169t63.5 188.5t62.5 187t54.5 165t40 120t18.5 55l6 27q6 25 13.5 45t19.5 20q20 0 43.5 -15t23.5 -81q0 -20 12.5 -89t33 -164t45 -207.5t50 -223t48 -209t39.5 -166.5l20 -94q6 -23 6 -48.5 t-24 -37.5q-27 -12 -49.5 15.5t-30.5 56.5q-2 4 -5 24.5t-8 53.5q-6 41 -15 97t-19 116q-4 8 -54.5 5t-115.5 -7l-49 -4q-8 0 -16.5 -1.5t-16.5 -1.5q-70 -4 -125 -12t-60 -22q-25 -98 -37 -146.5t-14 -52.5q-6 -18 -17 -48t-26.5 -57.5t-35 -46t-40.5 -12.5q-12 2 -14 21.5 zM227 498v2q-6 -12 8.5 -17.5t42 -6.5t63.5 1t75 6q8 0 14 1t14 1q63 4 110.5 13.5t47.5 23.5q-18 104 -39.5 209t-41 187.5t-38 135t-30.5 52.5q-14 0 -40 -56.5t-57.5 -144.5t-64.5 -195.5t-64 -211.5zM263 1495.5q-3 14.5 11 32.5l29 41q29 35 57.5 69.5t59.5 36.5 q18 2 39.5 -24.5t38.5 -48.5q10 -14 19 -25.5t22 -11.5q16 2 30.5 18.5t26.5 38.5l33 43q8 10 19 9t20.5 -7t13.5 -17t-2 -24q-6 -14 -23.5 -40.5t-38 -52.5t-42 -45t-35.5 -19q-29 2 -46.5 23.5t-31.5 43.5q-12 18 -21.5 31.5t-23.5 11.5q-23 -6 -38 -28.5t-30 -45.5 q-6 -10 -10 -17t-12 -15q-10 -10 -24.5 -9.5t-26 9t-14.5 23z" />
<glyph unicode="&#xc4;" horiz-adv-x="821" d="M4 27.5q-2 19.5 4 48t17.5 64.5t25.5 71q6 14 24.5 67.5t44 129t57.5 169t63.5 188.5t62.5 187t54.5 165t40 120t18.5 55l6 27q6 25 13.5 45t19.5 20q20 0 43.5 -15t23.5 -81q0 -20 12.5 -89t33 -164t45 -207.5t50 -223t48 -209t39.5 -166.5l20 -94q6 -23 6 -48.5 t-24 -37.5q-27 -12 -49.5 15.5t-30.5 56.5q-2 4 -5 24.5t-8 53.5q-6 41 -15 97t-19 116q-4 8 -54.5 5t-115.5 -7l-49 -4q-8 0 -16.5 -1.5t-16.5 -1.5q-70 -4 -125 -12t-60 -22q-25 -98 -37 -146.5t-14 -52.5q-6 -18 -17 -48t-26.5 -57.5t-35 -46t-40.5 -12.5q-12 2 -14 21.5 zM227 498v2q-6 -12 8.5 -17.5t42 -6.5t63.5 1t75 6q8 0 14 1t14 1q63 4 110.5 13.5t47.5 23.5q-18 104 -39.5 209t-41 187.5t-38 135t-30.5 52.5q-14 0 -40 -56.5t-57.5 -144.5t-64.5 -195.5t-64 -211.5zM319 1583q4 10 21.5 16.5t38.5 6.5q16 0 29.5 -6.5t15.5 -22.5 q2 -10 -2.5 -30.5t-16.5 -34.5t-29.5 -11.5t-32 16t-21.5 32t-1 34.5h-2zM528 1583q4 10 21.5 16.5t38.5 6.5q16 0 29.5 -6.5t15.5 -22.5q2 -10 -2.5 -30.5t-16.5 -34.5t-29.5 -11.5t-32 16t-21.5 32t-1 34.5h-2z" />
<glyph unicode="&#xc5;" horiz-adv-x="821" d="M4 27.5q-2 19.5 4 48t17.5 64.5t25.5 71q6 14 24.5 67.5t44 129t57.5 169t63.5 188.5t62.5 187t54.5 165t40 120t18.5 55l6 27q6 25 13.5 45t19.5 20q20 0 43.5 -15t23.5 -81q0 -20 12.5 -89t33 -164t45 -207.5t50 -223t48 -209t39.5 -166.5l20 -94q6 -23 6 -48.5 t-24 -37.5q-27 -12 -49.5 15.5t-30.5 56.5q-2 4 -5 24.5t-8 53.5q-6 41 -15 97t-19 116q-4 8 -54.5 5t-115.5 -7l-49 -4q-8 0 -16.5 -1.5t-16.5 -1.5q-70 -4 -125 -12t-60 -22q-25 -98 -37 -146.5t-14 -52.5q-6 -18 -17 -48t-26.5 -57.5t-35 -46t-40.5 -12.5q-12 2 -14 21.5 zM227 498v2q-6 -12 8.5 -17.5t42 -6.5t63.5 1t75 6q8 0 14 1t14 1q63 4 110.5 13.5t47.5 23.5q-18 104 -39.5 209t-41 187.5t-38 135t-30.5 52.5q-14 0 -40 -56.5t-57.5 -144.5t-64.5 -195.5t-64 -211.5zM311 1602q0 51 36 94t112 49q41 2 70.5 -9t48 -30.5t27.5 -45.5 t9 -52q0 -53 -31.5 -98.5t-95.5 -49.5q-43 -4 -76.5 7.5t-55 32t-33 47t-11.5 55.5zM381 1608q0 -31 23.5 -59.5t60.5 -26.5q41 2 62.5 29.5t21.5 60.5q0 29 -18.5 50.5t-53.5 21.5q-53 0 -74.5 -22.5t-21.5 -53.5z" />
<glyph unicode="&#xc6;" horiz-adv-x="1028" d="M2 27.5q-2 19.5 4 48t17.5 64.5t27.5 71q8 20 37 105t69 201t84 248t80.5 245.5t62.5 192.5t30 89l6 27q6 25 13.5 45t19.5 20h43.5t52.5 2q39 2 84 3.5t88 1.5q61 0 111.5 -3.5t72.5 -13.5q8 -4 16.5 -24.5t-12.5 -26.5h2q-10 -4 -42.5 -5t-73.5 -3q-31 -2 -63 -3 t-60.5 -4t-51 -7.5t-34.5 -10.5q-10 -6 -19.5 -61t-15.5 -136t-9 -175.5t-3 -180.5q0 -100 5 -170.5t15 -77.5q10 -8 53 -5t95 8q41 4 79.5 7t67.5 3q39 0 51 -8q10 -20 5 -44t-21 -34q-10 -4 -38 -4t-60 2q-25 0 -52.5 1t-52.5 1q-45 0 -79 -5t-42 -22q-8 -14 -11 -42 t-3 -56q0 -45 9 -89t28 -55q18 -8 68.5 -10t111.5 -6q68 -4 129 -8t76 -12q16 -14 17 -44t-9 -42q-10 -2 -38 -5.5t-67.5 -5.5t-86 -3t-91.5 -1q-68 0 -123 3t-65 10q-4 2 -8 28.5t-7 70.5t-7.5 104.5t-8.5 129.5q0 16 -9 27.5t-62 22.5q-8 0 -17.5 -1.5t-17.5 -1.5 q-72 -4 -126 -12t-59 -22q-51 -193 -53 -199l-16 -48t-25.5 -57.5t-35 -46t-42.5 -12.5q-12 2 -14 21.5zM227 498v2q-6 -12 8.5 -18.5t41 -7.5t62.5 2t77 7q43 10 49 22.5t6 22.5q-8 129 -10 264.5t-2 251.5q-4 29 -8.5 41.5t-9.5 12.5t-10 -8.5t-11 -20.5 q-18 -35 -41 -96.5t-49.5 -139t-52 -164.5t-50.5 -171z" />
<glyph unicode="&#xc7;" horiz-adv-x="598" d="M14 696q0 82 9.5 166t26 160t40 137.5t51.5 102.5q49 53 105.5 77.5t101.5 24.5q47 0 81 -11.5t44 -17.5q29 -16 29 -41q0 -27 -43 -34q-16 -4 -33.5 -3.5t-34.5 5.5q-41 4 -80 3t-75 -30q-37 -33 -65 -86t-44 -120.5t-24.5 -144.5t-8.5 -157q0 -88 9.5 -174t24.5 -162 t36.5 -135t48.5 -94q41 -47 98 -47q29 0 58.5 8t56.5 16q27 10 46.5 13.5t29.5 -0.5q27 -18 38 -37t-22 -39q-27 -16 -79 -32.5t-117 -16.5q-39 0 -80 11t-76 36q-35 31 -62.5 94t-48 147t-31 182.5t-10.5 198.5zM211 -194.5q0 10.5 8 19.5t19.5 16t19.5 7q29 -10 59.5 -16 t49.5 -6q8 0 19 8t18.5 18.5t6.5 20.5t-18 14h2q-25 10 -53 13q-23 4 -43 10t-35 22q-8 8 -9 24.5t2 37t8 40.5l9 36q6 18 7 30q2 -6 12 -10t22.5 -6t23.5 1t13 13q-2 -6 -4 -14t-8 -23q-10 -25 -16.5 -50t10.5 -34h-4q6 -6 39 -12q31 -8 68.5 -21.5t43.5 -47.5 q4 -35 -18.5 -75t-56.5 -57q-31 -12 -58 -12q-35 0 -66.5 10.5t-56.5 26.5q-14 6 -14 16.5z" />
<glyph unicode="&#xc8;" horiz-adv-x="630" d="M25 1057q0 133 4 220t12 97q10 10 59.5 15.5t108.5 5.5q43 0 87 -2t80 -4.5t60.5 -6.5t30.5 -6q4 -4 9 -11t8 -15.5t1 -16.5t-12 -10h2q-10 -4 -43 -5t-74 -3q-31 -2 -62.5 -3t-60 -4t-51 -7.5t-32.5 -10.5t-19.5 -59t-15.5 -131t-9.5 -169t-3.5 -173q0 -98 5.5 -165 t15.5 -73q10 -8 52 -5t95 7q39 4 79 7t69 3q37 0 49 -8q10 -23 6 -46t-20 -34q-10 -4 -38 -4t-63 2q-25 0 -51.5 1t-50.5 1q-47 0 -80 -5t-41 -21q-8 -14 -11 -44t-3 -65q0 -25 2 -55.5t7 -57t11 -46t17 -23.5q16 -8 67 -10t111 -6q70 -4 131 -8.5t76 -12.5q16 -14 17 -33.5 t-9 -31.5q-10 -2 -38 -5.5t-68 -5.5t-86 -3t-91 -1q-70 0 -124 3t-64 10q-8 4 -14.5 54t-11.5 132t-10 187.5t-8 219t-5 228t-2 213.5zM147 1687.5q7 14.5 20 25t29.5 14t22.5 -6.5q39 -53 73 -102t75 -111q14 -23 12 -40t-13.5 -24t-27.5 -2t-29 28l-157 196q-12 8 -5 22.5 zM150 1669q0 -2 2 -4z" />
<glyph unicode="&#xc9;" horiz-adv-x="630" d="M25 1057q0 133 4 220t12 97q10 10 59.5 15.5t108.5 5.5q43 0 87 -2t80 -4.5t60.5 -6.5t30.5 -6q4 -4 9 -11t8 -15.5t1 -16.5t-12 -10h2q-10 -4 -43 -5t-74 -3q-31 -2 -62.5 -3t-60 -4t-51 -7.5t-32.5 -10.5t-19.5 -59t-15.5 -131t-9.5 -169t-3.5 -173q0 -98 5.5 -165 t15.5 -73q10 -8 52 -5t95 7q39 4 79 7t69 3q37 0 49 -8q10 -23 6 -46t-20 -34q-10 -4 -38 -4t-63 2q-25 0 -51.5 1t-50.5 1q-47 0 -80 -5t-41 -21q-8 -14 -11 -44t-3 -65q0 -25 2 -55.5t7 -57t11 -46t17 -23.5q16 -8 67 -10t111 -6q70 -4 131 -8.5t76 -12.5q16 -14 17 -33.5 t-9 -31.5q-10 -2 -38 -5.5t-68 -5.5t-86 -3t-91 -1q-70 0 -124 3t-64 10q-8 4 -14.5 54t-11.5 132t-10 187.5t-8 219t-5 228t-2 213.5zM145 1488q-2 17 15 40q41 61 74.5 110.5t70.5 102.5q12 16 33.5 15t39 -11t19.5 -26.5t-24 -32.5l-158 -197q-12 -23 -28.5 -28t-28 2.5 t-13.5 24.5zM373 1686l4 4z" />
<glyph unicode="&#xca;" horiz-adv-x="630" d="M25 1057q0 133 4 220t12 97q10 10 59.5 15.5t108.5 5.5q43 0 87 -2t80 -4.5t60.5 -6.5t30.5 -6q4 -4 9 -11t8 -15.5t1 -16.5t-12 -10h2q-10 -4 -43 -5t-74 -3q-31 -2 -62.5 -3t-60 -4t-51 -7.5t-32.5 -10.5t-19.5 -59t-15.5 -131t-9.5 -169t-3.5 -173q0 -98 5.5 -165 t15.5 -73q10 -8 52 -5t95 7q39 4 79 7t69 3q37 0 49 -8q10 -23 6 -46t-20 -34q-10 -4 -38 -4t-63 2q-25 0 -51.5 1t-50.5 1q-47 0 -80 -5t-41 -21q-8 -14 -11 -44t-3 -65q0 -25 2 -55.5t7 -57t11 -46t17 -23.5q16 -8 67 -10t111 -6q70 -4 131 -8.5t76 -12.5q16 -14 17 -33.5 t-9 -31.5q-10 -2 -38 -5.5t-68 -5.5t-86 -3t-91 -1q-70 0 -124 3t-64 10q-8 4 -14.5 54t-11.5 132t-10 187.5t-8 219t-5 228t-2 213.5zM86 1485q-8 12 4 35v-2q14 23 30.5 49t33 51t30 44.5t21.5 27.5q33 29 49 28q24 1 49 -34q10 -12 28.5 -35t37 -49.5t35 -51t22.5 -38.5 q4 -10 -2 -22.5t-18.5 -18t-27.5 -1t-28 24.5l-39 57q-18 29 -31.5 50.5t-27.5 21.5q-8 0 -18.5 -11t-21.5 -28.5t-20.5 -37t-17.5 -38.5h2l-6 -12q-8 -14 -25.5 -21t-34 -4t-24.5 15z" />
<glyph unicode="&#xcb;" horiz-adv-x="630" d="M25 1057q0 133 4 220t12 97q10 10 59.5 15.5t108.5 5.5q43 0 87 -2t80 -4.5t60.5 -6.5t30.5 -6q4 -4 9 -11t8 -15.5t1 -16.5t-12 -10h2q-10 -4 -43 -5t-74 -3q-31 -2 -62.5 -3t-60 -4t-51 -7.5t-32.5 -10.5t-19.5 -59t-15.5 -131t-9.5 -169t-3.5 -173q0 -98 5.5 -165 t15.5 -73q10 -8 52 -5t95 7q39 4 79 7t69 3q37 0 49 -8q10 -23 6 -46t-20 -34q-10 -4 -38 -4t-63 2q-25 0 -51.5 1t-50.5 1q-47 0 -80 -5t-41 -21q-8 -14 -11 -44t-3 -65q0 -25 2 -55.5t7 -57t11 -46t17 -23.5q16 -8 67 -10t111 -6q70 -4 131 -8.5t76 -12.5q16 -14 17 -33.5 t-9 -31.5q-10 -2 -38 -5.5t-68 -5.5t-86 -3t-91 -1q-70 0 -124 3t-64 10q-8 4 -14.5 54t-11.5 132t-10 187.5t-8 219t-5 228t-2 213.5zM100 1583q4 10 21.5 16.5t38.5 6.5q16 0 29.5 -6.5t15.5 -22.5q2 -10 -2.5 -30.5t-16.5 -34.5t-29.5 -11.5t-32 16t-21.5 32t-1 34.5h-2z M309 1583q4 10 21.5 16.5t38.5 6.5q16 0 29.5 -6.5t15.5 -22.5q2 -10 -2.5 -30.5t-16.5 -34.5t-29.5 -11.5t-32 16t-21.5 32t-1 34.5h-2z" />
<glyph unicode="&#xcc;" d="M14.5 1309.5q3.5 27.5 14.5 40.5q10 4 50 9t94 9t112.5 7t103.5 3q55 0 72 -4q16 -14 24.5 -36.5t-12.5 -39.5q-10 -4 -28.5 -7t-34.5 -5q-27 -2 -54.5 -5t-44.5 -19q-6 -6 -9 -37t-5 -80t-3 -114.5t-1 -141.5v-82v-91t1 -91t1 -84q2 -92 2 -175v-153v-98 q0 -12 26.5 -14.5t61.5 1.5h-2q31 4 59.5 5.5t30.5 -3.5v2q23 -72 -4 -79q-6 -2 -39 -5.5t-80 -6.5t-100 -6t-99.5 -5t-79 -3t-36.5 1t-12 10.5t2 24.5q0 4 23.5 8t47.5 12q20 6 42 11.5t37 11.5t23.5 12t4.5 14q0 66 4 172.5t8 235.5q2 74 5 148.5t5 147.5t3 139.5t1 121.5 q0 86 -5 139.5t-15 57.5q-16 6 -44 5t-54 -5q-25 -4 -48.5 -6t-33.5 6q-18 14 -14.5 41.5zM142.5 1709.5q7.5 14.5 21.5 23t29.5 7.5t21.5 -9q37 -53 70.5 -102.5t74.5 -108.5q14 -25 12.5 -41.5t-13 -23.5t-28 -2t-28.5 26l-158 196q-10 20 -2.5 34.5zM143 1679l2 -4 q-2 2 -2 4z" />
<glyph unicode="&#xcd;" d="M14.5 1309.5q3.5 27.5 14.5 40.5q10 4 50 9t94 9t112.5 7t103.5 3q55 0 72 -4q16 -14 24.5 -36.5t-12.5 -39.5q-10 -4 -28.5 -7t-34.5 -5q-27 -2 -54.5 -5t-44.5 -19q-6 -6 -9 -37t-5 -80t-3 -114.5t-1 -141.5v-82v-91t1 -91t1 -84q2 -92 2 -175v-153v-98 q0 -12 26.5 -14.5t61.5 1.5h-2q31 4 59.5 5.5t30.5 -3.5v2q23 -72 -4 -79q-6 -2 -39 -5.5t-80 -6.5t-100 -6t-99.5 -5t-79 -3t-36.5 1t-12 10.5t2 24.5q0 4 23.5 8t47.5 12q20 6 42 11.5t37 11.5t23.5 12t4.5 14q0 66 4 172.5t8 235.5q2 74 5 148.5t5 147.5t3 139.5t1 121.5 q0 86 -5 139.5t-15 57.5q-16 6 -44 5t-54 -5q-25 -4 -48.5 -6t-33.5 6q-18 14 -14.5 41.5zM155 1499.5q-3 16.5 13 40.5q41 59 74.5 108.5t70.5 102.5q6 8 20.5 8t27 -7t19.5 -22.5t1 -33.5l-156 -197q-12 -20 -28.5 -25.5t-27.5 2t-14 24zM381 1696l4 4z" />
<glyph unicode="&#xce;" d="M14.5 1310q-4.5 -28 14.5 -42q10 -8 33.5 -6t48.5 6q27 4 54.5 5t43.5 -5q10 -4 15 -57.5t5 -139.5q0 -55 -1 -121.5t-3 -139.5t-5 -147.5t-5 -148.5q-4 -129 -8 -235.5t-4 -172.5q4 -8 -4.5 -14t-23.5 -12t-36.5 -11.5t-42.5 -11.5q-25 -8 -48 -12t-23 -8 q-10 -16 -2 -24.5t12 -10.5t36.5 -1t79 3t99.5 5t100 6t80 6.5t39 5.5q27 8 4 79v-2q-2 4 -30.5 3t-59.5 -5h2q-35 -4 -61.5 -2t-26.5 15v98v153t-2 175q0 39 -1 84t-1 91v91v82q0 76 1 141.5t3 114.5t5 79.5t9 37.5q16 16 44 19t55 5q16 2 34.5 5t28.5 7q20 16 12 39 t-24 37q-16 4 -72 4q-45 0 -103.5 -3t-112.5 -7t-94 -9t-50 -9q-10 -12 -14.5 -40zM81 1495q-7 12 5 37v-2q12 23 28.5 48.5t33 50t31 44t22.5 27.5q29 29 47 29q24 0 49 -35q10 -12 27.5 -35t36 -49.5t35 -50t22.5 -37.5q4 -12 -2 -23.5t-18.5 -17.5t-27 -2t-26.5 24 l-39 58q-18 29 -31.5 50t-27.5 21q-8 0 -18.5 -11t-21.5 -28.5t-20.5 -37t-17.5 -35.5h2l-6 -15q-8 -14 -25.5 -21t-34 -4t-23.5 15z" />
<glyph unicode="&#xcf;" d="M14.5 1310q-4.5 -28 14.5 -42q10 -8 33.5 -6t48.5 6q27 4 54.5 5t43.5 -5q10 -4 15 -57.5t5 -139.5q0 -55 -1 -121.5t-3 -139.5t-5 -147.5t-5 -148.5q-4 -129 -8 -235.5t-4 -172.5q4 -8 -4.5 -14t-23.5 -12t-36.5 -11.5t-42.5 -11.5q-25 -8 -48 -12t-23 -8 q-10 -16 -2 -24.5t12 -10.5t36.5 -1t79 3t99.5 5t100 6t80 6.5t39 5.5q27 8 4 79v-2q-2 4 -30.5 3t-59.5 -5h2q-35 -4 -61.5 -2t-26.5 15v98v153t-2 175q0 39 -1 84t-1 91v91v82q0 76 1 141.5t3 114.5t5 79.5t9 37.5q16 16 44 19t55 5q16 2 34.5 5t28.5 7q20 16 12 39 t-24 37q-16 4 -72 4q-45 0 -103.5 -3t-112.5 -7t-94 -9t-50 -9q-10 -12 -14.5 -40zM104 1593q4 10 20.5 16.5t37.5 6.5q16 0 30.5 -6t16.5 -23q2 -10 -2.5 -29.5t-18.5 -33.5q-12 -16 -29.5 -13.5t-31.5 16t-20.5 32t-0.5 34.5h-2zM311 1593q4 10 21.5 16.5t38.5 6.5 q16 0 29.5 -6t15.5 -23q2 -10 -2.5 -29.5t-16.5 -33.5q-12 -16 -29.5 -13.5t-31.5 16t-21.5 32t-1.5 34.5h-2z" />
<glyph unicode="&#xd0;" horiz-adv-x="788" d="M16 455q8 12 64.5 24.5t124 21.5t128 10t75.5 -9q10 -8 9 -30.5t-14 -27.5q-10 -4 -38.5 -9t-66.5 -9t-83 -8t-84 -4q-57 0 -93 9t-22 32zM123 63q0 6 1 44t3 98.5t4 136.5t6 158q4 123 9.5 256t8.5 244.5t4 189.5t1 94q-4 49 15.5 63.5t41.5 14.5q27 0 82 -13.5 t158 -60.5q74 -35 127 -94t85.5 -134t48 -162t15.5 -177q0 -78 -11 -157t-31.5 -149.5t-48.5 -132t-60 -106.5q-45 -55 -106.5 -90t-120 -52.5t-105.5 -22.5t-62 -3q-29 4 -46 14.5t-19 40.5zM213 303q0 -78 2 -126t8 -56q8 -14 38 -15.5t69 10t82 35t82 60.5q35 33 63.5 85 t48 116.5t30.5 137.5t11 148q0 111 -24.5 216.5t-81.5 191.5q-31 45 -74 75.5t-85 47t-76 19.5t-44 -5q-6 -4 -12 -54t-11.5 -129t-10.5 -177.5t-8 -201.5t-5 -201.5t-2 -176.5z" />
<glyph unicode="&#xd1;" horiz-adv-x="749" d="M39 1137q0 96 1 154.5t5 62.5q8 8 23.5 19t33 16.5t33 3.5t25.5 -19q4 -10 18.5 -48t33.5 -97.5t45 -135t54 -157.5q43 -125 89 -257t86 -240.5t70 -178.5t38 -65h2q8 4 11 42.5t3 104.5q0 51 -1 122t-3 150.5t-4 163.5t-4 162q-2 86 -4 166t-4 142.5t-2 100t2 40.5 q8 12 24.5 21t42.5 -13q6 -6 10.5 -55.5t7.5 -128t4 -181t1 -213.5q0 -137 -2 -274t-5 -249t-7 -184.5t-9 -78.5q-16 -23 -33.5 -27t-43.5 17q-6 6 -29 59t-54.5 137t-69.5 189.5t-77 214.5q-39 106 -76.5 207.5t-68.5 180.5t-53.5 126t-32.5 47q-10 -14 -10 -84 q0 -45 2 -109.5t5 -141.5t6 -161t7 -166q4 -86 7 -164.5t5 -142t2 -104.5t-2 -52q-8 -31 -29.5 -29.5t-35.5 19.5q-4 4 -9.5 61.5t-9.5 147.5t-7 203.5t-6 232.5t-4 234.5t-1 208.5zM167 1495.5q-3 14.5 11 32.5l29 41q29 35 57.5 69.5t59.5 36.5q18 2 39.5 -24.5 t38.5 -48.5q10 -14 19 -25.5t22 -11.5q16 2 30.5 18.5t26.5 38.5l33 43q8 10 19 9t20.5 -7t13.5 -17t-2 -24q-6 -14 -23.5 -40.5t-38 -52.5t-42 -45t-35.5 -19q-29 2 -46.5 23.5t-31.5 43.5q-12 18 -21.5 31.5t-23.5 11.5q-23 -6 -38 -28.5t-30 -45.5q-6 -10 -10 -17 t-12 -15q-10 -10 -24.5 -9.5t-26 9t-14.5 23z" />
<glyph unicode="&#xd2;" horiz-adv-x="839" d="M14 627q0 113 7.5 223.5t21.5 202.5t34.5 157.5t45.5 83.5q45 35 122 57.5t163 22.5q72 0 142.5 -18.5t119.5 -52.5q18 -14 34.5 -76t31 -151t22.5 -197.5t8 -219.5q0 -78 -5 -153.5t-15.5 -143t-28.5 -123t-43 -92.5q-25 -35 -59.5 -59.5t-76.5 -39.5t-89.5 -22.5 t-94.5 -7.5q-80 0 -147.5 18.5t-97.5 49.5v-2q-25 25 -42.5 79t-29.5 126.5t-17.5 160t-5.5 177.5zM96 627q0 -84 5 -163t14.5 -144.5t25 -110.5t33.5 -62q29 -25 76 -37t100 -12q80 0 156 27t117 80q14 20 25 70.5t19.5 121t12.5 155.5t4 173t-5 173t-14.5 155.5t-23.5 121 t-35 68.5q-35 29 -87 43t-111 14q-68 0 -128.5 -18t-89.5 -53q-25 -29 -42 -91.5t-28 -144.5t-17.5 -177t-6.5 -189zM311 1687.5q7 14.5 20 25t29.5 14t22.5 -6.5q39 -53 73 -102t75 -111q14 -23 12 -40t-13.5 -24t-27.5 -2t-29 28l-157 196q-12 8 -5 22.5zM314 1669 q0 -2 2 -4z" />
<glyph unicode="&#xd3;" horiz-adv-x="839" d="M14 627q0 113 7.5 223.5t21.5 202.5t34.5 157.5t45.5 83.5q45 35 122 57.5t163 22.5q72 0 142.5 -18.5t119.5 -52.5q18 -14 34.5 -76t31 -151t22.5 -197.5t8 -219.5q0 -78 -5 -153.5t-15.5 -143t-28.5 -123t-43 -92.5q-25 -35 -59.5 -59.5t-76.5 -39.5t-89.5 -22.5 t-94.5 -7.5q-80 0 -147.5 18.5t-97.5 49.5v-2q-25 25 -42.5 79t-29.5 126.5t-17.5 160t-5.5 177.5zM96 627q0 -84 5 -163t14.5 -144.5t25 -110.5t33.5 -62q29 -25 76 -37t100 -12q80 0 156 27t117 80q14 20 25 70.5t19.5 121t12.5 155.5t4 173t-5 173t-14.5 155.5t-23.5 121 t-35 68.5q-35 29 -87 43t-111 14q-68 0 -128.5 -18t-89.5 -53q-25 -29 -42 -91.5t-28 -144.5t-17.5 -177t-6.5 -189zM299 1488q-2 17 15 40q41 61 74.5 110.5t70.5 102.5q12 16 33.5 15t39 -11t19.5 -26.5t-24 -32.5l-158 -197q-12 -23 -28.5 -28t-28 2.5t-13.5 24.5z M527 1686l4 4z" />
<glyph unicode="&#xd4;" horiz-adv-x="839" d="M14 627q0 113 7.5 223.5t21.5 202.5t34.5 157.5t45.5 83.5q45 35 122 57.5t163 22.5q72 0 142.5 -18.5t119.5 -52.5q18 -14 34.5 -76t31 -151t22.5 -197.5t8 -219.5q0 -78 -5 -153.5t-15.5 -143t-28.5 -123t-43 -92.5q-25 -35 -59.5 -59.5t-76.5 -39.5t-89.5 -22.5 t-94.5 -7.5q-80 0 -147.5 18.5t-97.5 49.5v-2q-25 25 -42.5 79t-29.5 126.5t-17.5 160t-5.5 177.5zM96 627q0 -84 5 -163t14.5 -144.5t25 -110.5t33.5 -62q29 -25 76 -37t100 -12q80 0 156 27t117 80q14 20 25 70.5t19.5 121t12.5 155.5t4 173t-5 173t-14.5 155.5t-23.5 121 t-35 68.5q-35 29 -87 43t-111 14q-68 0 -128.5 -18t-89.5 -53q-25 -29 -42 -91.5t-28 -144.5t-17.5 -177t-6.5 -189zM256 1485q-8 12 4 35v-2q14 23 30.5 49t33 51t30 44.5t21.5 27.5q33 29 49 28q24 1 49 -34q10 -12 28.5 -35t37 -49.5t35 -51t22.5 -38.5q4 -10 -2 -22.5 t-18.5 -18t-27.5 -1t-28 24.5l-39 57q-18 29 -31.5 50.5t-27.5 21.5q-8 0 -18.5 -11t-21.5 -28.5t-20.5 -37t-17.5 -38.5h2l-6 -12q-8 -14 -25.5 -21t-34 -4t-24.5 15z" />
<glyph unicode="&#xd5;" horiz-adv-x="839" d="M14 627q0 113 7.5 223.5t21.5 202.5t34.5 157.5t45.5 83.5q45 35 122 57.5t163 22.5q72 0 142.5 -18.5t119.5 -52.5q18 -14 34.5 -76t31 -151t22.5 -197.5t8 -219.5q0 -78 -5 -153.5t-15.5 -143t-28.5 -123t-43 -92.5q-25 -35 -59.5 -59.5t-76.5 -39.5t-89.5 -22.5 t-94.5 -7.5q-80 0 -147.5 18.5t-97.5 49.5v-2q-25 25 -42.5 79t-29.5 126.5t-17.5 160t-5.5 177.5zM96 627q0 -84 5 -163t14.5 -144.5t25 -110.5t33.5 -62q29 -25 76 -37t100 -12q80 0 156 27t117 80q14 20 25 70.5t19.5 121t12.5 155.5t4 173t-5 173t-14.5 155.5t-23.5 121 t-35 68.5q-35 29 -87 43t-111 14q-68 0 -128.5 -18t-89.5 -53q-25 -29 -42 -91.5t-28 -144.5t-17.5 -177t-6.5 -189zM179 1495.5q-3 14.5 11 32.5l29 41q29 35 57.5 69.5t59.5 36.5q18 2 39.5 -24.5t38.5 -48.5q10 -14 19 -25.5t22 -11.5q16 2 30.5 18.5t26.5 38.5l33 43 q8 10 19 9t20.5 -7t13.5 -17t-2 -24q-6 -14 -23.5 -40.5t-38 -52.5t-42 -45t-35.5 -19q-29 2 -46.5 23.5t-31.5 43.5q-12 18 -21.5 31.5t-23.5 11.5q-23 -6 -38 -28.5t-30 -45.5q-6 -10 -10 -17t-12 -15q-10 -10 -24.5 -9.5t-26 9t-14.5 23z" />
<glyph unicode="&#xd6;" horiz-adv-x="839" d="M14 627q0 113 7.5 223.5t21.5 202.5t34.5 157.5t45.5 83.5q45 35 122 57.5t163 22.5q72 0 142.5 -18.5t119.5 -52.5q18 -14 34.5 -76t31 -151t22.5 -197.5t8 -219.5q0 -78 -5 -153.5t-15.5 -143t-28.5 -123t-43 -92.5q-25 -35 -59.5 -59.5t-76.5 -39.5t-89.5 -22.5 t-94.5 -7.5q-80 0 -147.5 18.5t-97.5 49.5v-2q-25 25 -42.5 79t-29.5 126.5t-17.5 160t-5.5 177.5zM96 627q0 -84 5 -163t14.5 -144.5t25 -110.5t33.5 -62q29 -25 76 -37t100 -12q80 0 156 27t117 80q14 20 25 70.5t19.5 121t12.5 155.5t4 173t-5 173t-14.5 155.5t-23.5 121 t-35 68.5q-35 29 -87 43t-111 14q-68 0 -128.5 -18t-89.5 -53q-25 -29 -42 -91.5t-28 -144.5t-17.5 -177t-6.5 -189zM272 1583q4 10 21.5 16.5t38.5 6.5q16 0 29.5 -6.5t15.5 -22.5q2 -10 -2.5 -30.5t-16.5 -34.5t-29.5 -11.5t-32 16t-21.5 32t-1 34.5h-2zM481 1583 q4 10 21.5 16.5t38.5 6.5q16 0 29.5 -6.5t15.5 -22.5q2 -10 -2.5 -30.5t-16.5 -34.5t-29.5 -11.5t-32 16t-21.5 32t-1 34.5h-2z" />
<glyph unicode="&#xd7;" horiz-adv-x="466" d="M15 666.5q3 11.5 11.5 17.5t18.5 8t21 -6q10 -8 38.5 -40t59.5 -64l22 -27q29 -18 38 -17t18 5q51 49 93 89t48 42q8 2 18.5 -1t14.5 -22q-2 -12 -38 -59t-91 -100q-16 -12 -4 -33t41 -56l63 -77q23 -27 24 -47.5t-11.5 -30.5t-33 -7t-40.5 23l-88 101q-4 8 -12.5 15 t-17.5 10t-19.5 -2t-22.5 -23v2q-18 -18 -36.5 -37t-33 -32t-25 -21.5t-12.5 -6.5q-57 31 -41 60q0 2 9.5 10t25.5 25q20 18 42 36.5t40 36.5h-2q25 23 19.5 36t-21.5 30q-29 33 -56.5 69.5t-56.5 71.5q-6 10 -3 21.5z" />
<glyph unicode="&#xd8;" horiz-adv-x="839" d="M12 616q0 113 7.5 223.5t21.5 203t34.5 158t45.5 83.5q45 35 121.5 57.5t163.5 22.5q72 0 142 -18.5t120 -53.5q18 -14 34.5 -75.5t31 -150.5t22.5 -197.5t8 -219.5q0 -78 -5 -153.5t-15.5 -143t-28.5 -123t-43 -92.5q-25 -35 -59.5 -59.5t-76.5 -39.5t-89.5 -22.5 t-94.5 -7.5q-80 0 -147.5 18.5t-98.5 49.5v-2q-25 25 -42 79t-29 126.5t-17.5 159.5t-5.5 177zM94 616q0 -84 5 -162.5t14.5 -144t25 -110.5t33.5 -62q29 -25 76 -37t100 -12q80 0 156 26.5t117 80.5q14 20 25 70t19.5 121t12.5 156t4 173t-5 173t-14.5 155.5t-23.5 120.5 t-35 69q-35 29 -87 43t-111 14q-68 0 -128.5 -18t-89.5 -53q-25 -29 -42 -91.5t-28.5 -144.5t-17.5 -177t-6 -190zM154 -104q0 27 12 67.5t24 75.5l15 51l51 191q27 100 62.5 226t72.5 257t72 257t62.5 224t46 158.5t20.5 62.5h2q6 6 18.5 6.5t25.5 -4t25.5 -11.5t18.5 -15 q6 -12 -4 -45t-27 -80l-24 -70q-4 -10 -15.5 -46t-27 -88t-35 -116.5t-39.5 -132.5q-31 -100 -63.5 -210.5t-66.5 -218t-63.5 -206t-53 -174t-40 -122t-18.5 -50.5q-10 -16 -31.5 -15t-19.5 28z" />
<glyph unicode="&#xd9;" horiz-adv-x="731" d="M25 662q0 106 2 215.5t4 200.5t4 150.5t2 63.5q2 23 14 29t25.5 3t26 -14.5t14.5 -23.5q2 -6 1 -49t-5 -109q-2 -57 -5.5 -125.5t-5.5 -142.5t-4 -148.5t-2 -142.5q0 -86 3 -154.5t12 -103.5q8 -37 24.5 -77.5t41 -76.5t58 -60.5t76.5 -26.5q55 -2 100.5 17t78 55t52 84 t23.5 104q10 137 15.5 260t5.5 233q0 131 -4 234.5t-9 175.5q-2 47 -4 76t2 37q2 12 16.5 21t31 11t30 -5t10.5 -25v-531v-156.5t-1 -142t-3 -115t-4 -71.5q-6 -47 -25.5 -101.5t-56.5 -103.5t-94 -84t-137 -43q-70 0 -122 31.5t-89 79t-59.5 101.5t-30.5 101 q-6 49 -9 143.5t-3 205.5zM196 1687.5q7 14.5 20 25t29.5 14t22.5 -6.5q39 -53 73 -102t75 -111q14 -23 12 -40t-13.5 -24t-27.5 -2t-29 28l-157 196q-12 8 -5 22.5zM199 1669q0 -2 2 -4z" />
<glyph unicode="&#xda;" horiz-adv-x="731" d="M25 662q0 106 2 215.5t4 200.5t4 150.5t2 63.5q2 23 14 29t25.5 3t26 -14.5t14.5 -23.5q2 -6 1 -49t-5 -109q-2 -57 -5.5 -125.5t-5.5 -142.5t-4 -148.5t-2 -142.5q0 -86 3 -154.5t12 -103.5q8 -37 24.5 -77.5t41 -76.5t58 -60.5t76.5 -26.5q55 -2 100.5 17t78 55t52 84 t23.5 104q10 137 15.5 260t5.5 233q0 131 -4 234.5t-9 175.5q-2 47 -4 76t2 37q2 12 16.5 21t31 11t30 -5t10.5 -25v-531v-156.5t-1 -142t-3 -115t-4 -71.5q-6 -47 -25.5 -101.5t-56.5 -103.5t-94 -84t-137 -43q-70 0 -122 31.5t-89 79t-59.5 101.5t-30.5 101 q-6 49 -9 143.5t-3 205.5zM244 1488q-2 17 15 40q41 61 74.5 110.5t70.5 102.5q12 16 33.5 15t39 -11t19.5 -26.5t-24 -32.5l-158 -197q-12 -23 -28.5 -28t-28 2.5t-13.5 24.5zM472 1686l4 4z" />
<glyph unicode="&#xdb;" horiz-adv-x="731" d="M25 662q0 106 2 215.5t4 200.5t4 150.5t2 63.5q2 23 14 29t25.5 3t26 -14.5t14.5 -23.5q2 -6 1 -49t-5 -109q-2 -57 -5.5 -125.5t-5.5 -142.5t-4 -148.5t-2 -142.5q0 -86 3 -154.5t12 -103.5q8 -37 24.5 -77.5t41 -76.5t58 -60.5t76.5 -26.5q55 -2 100.5 17t78 55t52 84 t23.5 104q10 137 15.5 260t5.5 233q0 131 -4 234.5t-9 175.5q-2 47 -4 76t2 37q2 12 16.5 21t31 11t30 -5t10.5 -25v-531v-156.5t-1 -142t-3 -115t-4 -71.5q-6 -47 -25.5 -101.5t-56.5 -103.5t-94 -84t-137 -43q-70 0 -122 31.5t-89 79t-59.5 101.5t-30.5 101 q-6 49 -9 143.5t-3 205.5zM174 1485q-8 12 4 35v-2q14 23 30.5 49t33 51t30 44.5t21.5 27.5q33 29 49 28q24 1 49 -34q10 -12 28.5 -35t37 -49.5t35 -51t22.5 -38.5q4 -10 -2 -22.5t-18.5 -18t-27.5 -1t-28 24.5l-39 57q-18 29 -31.5 50.5t-27.5 21.5q-8 0 -18.5 -11 t-21.5 -28.5t-20.5 -37t-17.5 -38.5h2l-6 -12q-8 -14 -25.5 -21t-34 -4t-24.5 15z" />
<glyph unicode="&#xdc;" horiz-adv-x="731" d="M25 662q0 106 2 215.5t4 200.5t4 150.5t2 63.5q2 23 14 29t25.5 3t26 -14.5t14.5 -23.5q2 -6 1 -49t-5 -109q-2 -57 -5.5 -125.5t-5.5 -142.5t-4 -148.5t-2 -142.5q0 -86 3 -154.5t12 -103.5q8 -37 24.5 -77.5t41 -76.5t58 -60.5t76.5 -26.5q55 -2 100.5 17t78 55t52 84 t23.5 104q10 137 15.5 260t5.5 233q0 131 -4 234.5t-9 175.5q-2 47 -4 76t2 37q2 12 16.5 21t31 11t30 -5t10.5 -25v-531v-156.5t-1 -142t-3 -115t-4 -71.5q-6 -47 -25.5 -101.5t-56.5 -103.5t-94 -84t-137 -43q-70 0 -122 31.5t-89 79t-59.5 101.5t-30.5 101 q-6 49 -9 143.5t-3 205.5zM198 1583q4 10 21.5 16.5t38.5 6.5q16 0 29.5 -6.5t15.5 -22.5q2 -10 -2.5 -30.5t-16.5 -34.5t-29.5 -11.5t-32 16t-21.5 32t-1 34.5h-2zM407 1583q4 10 21.5 16.5t38.5 6.5q16 0 29.5 -6.5t15.5 -22.5q2 -10 -2.5 -30.5t-16.5 -34.5t-29.5 -11.5 t-32 16t-21.5 32t-1 34.5h-2z" />
<glyph unicode="&#xdd;" horiz-adv-x="753" d="M8 1323q-6 20 3 37.5t24.5 27t33 7.5t25.5 -21q6 -14 21.5 -61t37 -113.5t45 -147.5l47 -162t45 -153.5t36.5 -124.5q4 -16 10 -29.5t10 -23.5q6 -10 10 -18q10 20 21 47q10 23 21.5 54.5t25.5 70.5q27 86 59.5 191.5t63.5 203.5t54.5 175t31.5 103q12 47 41 48 q20 0 34.5 -25t6.5 -66q-4 -16 -21.5 -67t-44 -125t-57.5 -161t-62 -171q-27 -78 -52 -149.5t-44.5 -129t-31 -94t-11.5 -40.5q2 -8 4 -58.5t4 -111t3 -115.5t1 -74q0 -16 -16 -27.5t-33 -11.5q-12 0 -22 10.5t-13 32.5q-2 20 -2 45v54q0 59 1 120.5t1 96.5v28q0 6 -21.5 73 t-54 164t-71.5 210.5t-74 215t-59.5 175.5t-30.5 90zM274 1488q-2 17 15 40q41 61 74.5 110.5t70.5 102.5q12 16 33.5 15t39 -11t19.5 -26.5t-24 -32.5l-158 -197q-12 -23 -28.5 -28t-28 2.5t-13.5 24.5zM502 1686l4 4z" />
<glyph unicode="&#xde;" horiz-adv-x="659" d="M72 301v210t1 229.5t2 225t3 199.5t3 152t3 82q2 18 13.5 26.5t25.5 8.5q10 0 20.5 -8.5t10.5 -24.5q-2 -27 -3 -88.5t-2.5 -144.5t-2.5 -183t-1 -205q0 -135 -1 -268t-3 -241.5t-4 -180.5t-6 -82q-6 -16 -26.5 -20t-28.5 18q-2 10 -3 91t-1 204zM129 520l2 70 q41 -16 99.5 -27.5t105.5 -11.5q68 0 116 36t50 136q0 35 -15.5 58.5t-42 36.5t-61.5 19.5t-72 6.5q-41 0 -92 -5t-84 -14l-4 82q33 4 87 8.5t95 4.5q51 0 101.5 -8.5t90.5 -32t65.5 -64.5t27.5 -106q2 -74 -13.5 -122t-42 -77t-63.5 -40t-76 -11q-33 0 -71.5 6t-75.5 15 t-70.5 19.5t-56.5 20.5z" />
<glyph unicode="&#xdf;" horiz-adv-x="741" d="M37 709q0 96 4 188t13 171t24.5 136.5t38.5 85.5q43 49 92 69.5t98 20.5q66 0 126.5 -30.5t98.5 -77.5q27 -29 51.5 -68t45 -84t33 -95t12.5 -99q0 -63 -22.5 -124t-80.5 -112q-61 -55 -83.5 -94t-22.5 -68t15.5 -50t35.5 -46q23 -23 43.5 -51.5t28.5 -67.5 q12 -68 -6.5 -115.5t-58.5 -79.5t-101.5 -50.5t-134.5 -26.5q-61 -6 -62 27q0 18 20.5 36.5t49.5 16.5q27 -2 65.5 3t73.5 25.5t56.5 60.5t15.5 109q-4 27 -21.5 51.5t-38.5 47.5q-25 25 -47 57.5t-22 65.5q0 31 21.5 69.5t70.5 85.5q59 59 88 124t29 122q0 76 -31 141.5 t-70 112.5q-41 47 -89 82t-97 35q-35 0 -65.5 -18.5t-59.5 -61.5q-14 -23 -24.5 -70t-16.5 -111.5t-8 -141t-2 -158.5q0 -72 2 -149t4 -149.5t5 -138t5 -114.5q2 -45 3 -76t1 -43q0 -37 -13 -55.5t-30 -18.5q-26 0 -32 49q-4 29 -9.5 94.5t-9.5 153.5t-8 192.5t-4 211.5z " />
<glyph unicode="&#xe0;" horiz-adv-x="724" d="M18 274q2 66 27 107t65 64.5t90 31.5t101 8q49 0 96 -5t80 -9q53 -10 66 -4q10 4 16 58.5t6 138.5q0 76 -4 168t-12 175t-19.5 147.5t-25.5 86.5q-27 29 -75 40t-95 11q-29 0 -53.5 -1t-47.5 -3q-18 -2 -33.5 -2h-27.5q-25 0 -36 11.5t-11 25.5t14.5 28.5t34.5 20.5 q23 4 61.5 6t83.5 2q39 0 79 -3t75 -9t59.5 -16.5t34.5 -24.5q25 -39 40.5 -122t23.5 -190.5t11 -230t3 -241.5q0 -98 -1 -202.5t-3 -176.5q-2 -47 -2 -80v-57q-10 -14 -24.5 -21.5t-28 -8.5t-23.5 5t-10 23q0 2 1 5t1 7q4 23 3 38t-21 25q-10 4 -60 -12q-25 -8 -55.5 -19.5 t-65 -21.5t-71.5 -17t-72 -7q-41 0 -77 11t-63.5 40.5t-42 78t-12.5 121.5zM115 289q0 -100 49 -137t117 -37q43 0 90 12t87 28.5t66.5 33t32.5 24.5q14 29 14 68q0 25 -7 49.5t-21 36.5q-6 4 -30 11t-57.5 13t-73.5 11.5t-79 5.5q-76 0 -132 -25t-56 -94zM191 1718.5 q6 14.5 21 25.5t32.5 14t25.5 -9q39 -53 72 -102.5t74 -110.5q16 -25 14 -41t-13 -23.5t-27.5 -2t-29.5 27.5l-159 197q-16 10 -10 24.5zM199 1698q0 -2 2 -4z" />
<glyph unicode="&#xe1;" horiz-adv-x="724" d="M18 274q2 66 27 107t65 64.5t90 31.5t101 8q49 0 96 -5t80 -9q53 -10 66 -4q10 4 16 58.5t6 138.5q0 76 -4 168t-12 175t-19.5 147.5t-25.5 86.5q-27 29 -75 40t-95 11q-29 0 -53.5 -1t-47.5 -3q-18 -2 -33.5 -2h-27.5q-25 0 -36 11.5t-11 25.5t14.5 28.5t34.5 20.5 q23 4 61.5 6t83.5 2q39 0 79 -3t75 -9t59.5 -16.5t34.5 -24.5q25 -39 40.5 -122t23.5 -190.5t11 -230t3 -241.5q0 -98 -1 -202.5t-3 -176.5q-2 -47 -2 -80v-57q-10 -14 -24.5 -21.5t-28 -8.5t-23.5 5t-10 23q0 2 1 5t1 7q4 23 3 38t-21 25q-10 4 -60 -12q-25 -8 -55.5 -19.5 t-65 -21.5t-71.5 -17t-72 -7q-41 0 -77 11t-63.5 40.5t-42 78t-12.5 121.5zM115 289q0 -100 49 -137t117 -37q43 0 90 12t87 28.5t66.5 33t32.5 24.5q14 29 14 68q0 25 -7 49.5t-21 36.5q-6 4 -30 11t-57.5 13t-73.5 11.5t-79 5.5q-76 0 -132 -25t-56 -94zM255 1495 q-3 16 13 41q41 61 75 110.5t71 102.5q8 10 25.5 12t32.5 -4t21.5 -22.5t-12.5 -40.5l-155 -197q-12 -23 -28.5 -28t-28 2.5t-14.5 23.5zM481 1694l4 4z" />
<glyph unicode="&#xe2;" horiz-adv-x="724" d="M18 274q2 66 27 107t65 64.5t90 31.5t101 8q49 0 96 -5t80 -9q53 -10 66 -4q10 4 16 58.5t6 138.5q0 76 -4 168t-12 175t-19.5 147.5t-25.5 86.5q-27 29 -75 40t-95 11q-29 0 -53.5 -1t-47.5 -3q-18 -2 -33.5 -2h-27.5q-25 0 -36 11.5t-11 25.5t14.5 28.5t34.5 20.5 q23 4 61.5 6t83.5 2q39 0 79 -3t75 -9t59.5 -16.5t34.5 -24.5q25 -39 40.5 -122t23.5 -190.5t11 -230t3 -241.5q0 -98 -1 -202.5t-3 -176.5q-2 -47 -2 -80v-57q-10 -14 -24.5 -21.5t-28 -8.5t-23.5 5t-10 23q0 2 1 5t1 7q4 23 3 38t-21 25q-10 4 -60 -12q-25 -8 -55.5 -19.5 t-65 -21.5t-71.5 -17t-72 -7q-41 0 -77 11t-63.5 40.5t-42 78t-12.5 121.5zM115 289q0 -100 49 -137t117 -37q43 0 90 12t87 28.5t66.5 33t32.5 24.5q14 29 14 68q0 25 -7 49.5t-21 36.5q-6 4 -30 11t-57.5 13t-73.5 11.5t-79 5.5q-76 0 -132 -25t-56 -94zM180 1513.5 q-8 12.5 4 34.5v-2q14 23 30.5 49.5t33 51t30 44t21.5 27.5q33 29 49 29q24 0 49 -35q10 -12 28.5 -35.5t37 -50.5t34 -50.5t21.5 -37.5q6 -10 0 -22.5t-18.5 -18.5t-27.5 -2t-28 27l-38 55q-18 31 -32 52.5t-28 21.5q-8 0 -18.5 -11.5t-21.5 -29t-20.5 -38t-17.5 -36.5h2 l-6 -12q-8 -16 -25.5 -22.5t-34 -3.5t-24.5 15.5z" />
<glyph unicode="&#xe3;" horiz-adv-x="724" d="M18 274q2 66 27 107t65 64.5t90 31.5t101 8q49 0 96 -5t80 -9q53 -10 66 -4q10 4 16 58.5t6 138.5q0 76 -4 168t-12 175t-19.5 147.5t-25.5 86.5q-27 29 -75 40t-95 11q-29 0 -53.5 -1t-47.5 -3q-18 -2 -33.5 -2h-27.5q-25 0 -36 11.5t-11 25.5t14.5 28.5t34.5 20.5 q23 4 61.5 6t83.5 2q39 0 79 -3t75 -9t59.5 -16.5t34.5 -24.5q25 -39 40.5 -122t23.5 -190.5t11 -230t3 -241.5q0 -98 -1 -202.5t-3 -176.5q-2 -47 -2 -80v-57q-10 -14 -24.5 -21.5t-28 -8.5t-23.5 5t-10 23q0 2 1 5t1 7q4 23 3 38t-21 25q-10 4 -60 -12q-25 -8 -55.5 -19.5 t-65 -21.5t-71.5 -17t-72 -7q-41 0 -77 11t-63.5 40.5t-42 78t-12.5 121.5zM115 289q0 -100 49 -137t117 -37q43 0 90 12t87 28.5t66.5 33t32.5 24.5q14 29 14 68q0 25 -7 49.5t-21 36.5q-6 4 -30 11t-57.5 13t-73.5 11.5t-79 5.5q-76 0 -132 -25t-56 -94zM163 1523.5 q-3 14.5 11 32.5l29 41q29 35 57 70t59 37q18 2 40 -24.5t38 -49.5q10 -14 19.5 -25.5t21.5 -11.5q16 2 30.5 18.5t27.5 39.5l32 43q8 10 19.5 9t21 -8t13.5 -18.5t-2 -21.5q-6 -14 -23.5 -41t-38 -52.5t-42 -45t-36.5 -19.5q-29 2 -46 23.5t-32 44.5l-21 31.5t-26 11.5 q-23 -6 -37 -29t-28 -45q-6 -10 -10 -17.5t-13 -15.5q-10 -10 -24.5 -9t-25.5 9t-14 22.5z" />
<glyph unicode="&#xe4;" horiz-adv-x="724" d="M18 274q2 66 27 107t65 64.5t90 31.5t101 8q49 0 96 -5t80 -9q53 -10 66 -4q10 4 16 58.5t6 138.5q0 76 -4 168t-12 175t-19.5 147.5t-25.5 86.5q-27 29 -75 40t-95 11q-29 0 -53.5 -1t-47.5 -3q-18 -2 -33.5 -2h-27.5q-25 0 -36 11.5t-11 25.5t14.5 28.5t34.5 20.5 q23 4 61.5 6t83.5 2q39 0 79 -3t75 -9t59.5 -16.5t34.5 -24.5q25 -39 40.5 -122t23.5 -190.5t11 -230t3 -241.5q0 -98 -1 -202.5t-3 -176.5q-2 -47 -2 -80v-57q-10 -14 -24.5 -21.5t-28 -8.5t-23.5 5t-10 23q0 2 1 5t1 7q4 23 3 38t-21 25q-10 4 -60 -12q-25 -8 -55.5 -19.5 t-65 -21.5t-71.5 -17t-72 -7q-41 0 -77 11t-63.5 40.5t-42 78t-12.5 121.5zM115 289q0 -100 49 -137t117 -37q43 0 90 12t87 28.5t66.5 33t32.5 24.5q14 29 14 68q0 25 -7 49.5t-21 36.5q-6 4 -30 11t-57.5 13t-73.5 11.5t-79 5.5q-76 0 -132 -25t-56 -94zM203 1612 q4 10 21.5 16t37.5 6q16 0 29.5 -6t15.5 -22q2 -10 -2 -31t-16 -35t-29.5 -11t-32 15t-21.5 31.5t-1 36.5h-2zM412 1612q4 10 21.5 16t37.5 6q16 0 29.5 -6t15.5 -22q2 -10 -2 -31t-16 -35t-29.5 -11t-32 15t-21.5 31.5t-1 36.5h-2z" />
<glyph unicode="&#xe5;" horiz-adv-x="724" d="M18 274q2 66 27 107t65 64.5t90 31.5t101 8q49 0 96 -5t80 -9q53 -10 66 -4q10 4 16 58.5t6 138.5q0 76 -4 168t-12 175t-19.5 147.5t-25.5 86.5q-27 29 -75 40t-95 11q-29 0 -53.5 -1t-47.5 -3q-18 -2 -33.5 -2h-27.5q-25 0 -36 11.5t-11 25.5t14.5 28.5t34.5 20.5 q23 4 61.5 6t83.5 2q39 0 79 -3t75 -9t59.5 -16.5t34.5 -24.5q25 -39 40.5 -122t23.5 -190.5t11 -230t3 -241.5q0 -98 -1 -202.5t-3 -176.5q-2 -47 -2 -80v-57q-10 -14 -24.5 -21.5t-28 -8.5t-23.5 5t-10 23q0 2 1 5t1 7q4 23 3 38t-21 25q-10 4 -60 -12q-25 -8 -55.5 -19.5 t-65 -21.5t-71.5 -17t-72 -7q-41 0 -77 11t-63.5 40.5t-42 78t-12.5 121.5zM115 289q0 -100 49 -137t117 -37q43 0 90 12t87 28.5t66.5 33t32.5 24.5q14 29 14 68q0 25 -7 49.5t-21 36.5q-6 4 -30 11t-57.5 13t-73.5 11.5t-79 5.5q-76 0 -132 -25t-56 -94zM193 1630 q0 51 35.5 94.5t111.5 47.5q82 4 119 -39t37 -97q0 -53 -32 -98t-95 -49q-43 -4 -77 6t-55.5 30.5t-32.5 48.5t-11 56zM262 1636q0 -31 23.5 -59.5t60.5 -26.5q41 2 62.5 30t21.5 60q0 29 -18.5 50.5t-53.5 21.5q-53 0 -74.5 -23.5t-21.5 -52.5z" />
<glyph unicode="&#xe6;" horiz-adv-x="1198" d="M14 274q2 66 28 107t65.5 64.5t90 31.5t101.5 8q49 0 95 -5t81 -9q51 -10 64 -4q10 2 12 16.5t6 42.5q0 2 1 5.5t1 5.5v110.5t2 122.5q-2 70 -7 144.5t-13.5 140t-17.5 116t-21 70.5q-27 29 -75 40t-97 11q-27 0 -51.5 -1t-49.5 -3q-16 -2 -31.5 -2h-27.5q-25 0 -37 11.5 t-12 25.5q0 16 14.5 30.5t36.5 18.5q18 4 53 6t76 2q39 0 81 -2t79 -8t64.5 -16.5t39.5 -26.5q25 -35 28 -51t4 -16t7 14t35 43q53 51 117 51q41 0 82 -17.5t77.5 -46t68.5 -64.5t52 -71q31 -51 52.5 -112.5t35 -127t19.5 -132t6 -125.5q0 -88 -11.5 -155.5t-27.5 -96.5 q-14 -23 -48 -34t-78 -17.5t-92 -6.5h-91q-55 0 -95 -1t-51 -17q-10 -16 -11 -47t14.5 -65.5t48 -67.5t90.5 -49q37 -10 80 -11q63 0 119.5 21.5t78.5 54.5q18 12 33.5 9t25 -14t12.5 -27.5t-3 -28.5q-16 -14 -44 -33.5t-64 -36t-80 -29t-93 -12.5q-23 0 -46 2t-48 8 q-33 8 -56.5 21.5t-37.5 26.5q-18 14 -28.5 20t-10.5 -20v-41q-27 -27 -55.5 -25t-28.5 25q0 2 1 5t1 7q4 23 3 38t-24 25q-10 4 -57 -12q-25 -8 -55.5 -19.5t-65.5 -21.5t-71.5 -17t-71.5 -7q-41 0 -78 11t-63.5 40.5t-42 78t-13.5 121.5zM111 289q0 -100 50 -137t118 -37 q41 0 86 11t83.5 27.5t67.5 32t39 25.5q8 12 12 33q-4 23 -5 45t-3 47q-4 10 -9 18.5t-11 12.5t-30 11t-56.5 13t-72.5 11.5t-79 5.5q-76 0 -133 -25t-57 -94zM635 895q4 -104 5 -212t1 -212q0 -18 14 -18q10 -2 32 -3t50 -1q45 0 99.5 3t102.5 9t82 16t38 23q8 53 11 105 t3 102q0 119 -23.5 222t-62.5 179q-45 78 -100.5 126t-102.5 48q-45 0 -82 -41q-12 -16 -23 -50t-19.5 -80t-14.5 -102.5t-10 -113.5z" />
<glyph unicode="&#xe7;" horiz-adv-x="598" d="M14 696q0 82 9.5 166t26 160t40 137.5t51.5 102.5q49 53 105.5 77.5t101.5 24.5q47 0 81 -11.5t44 -17.5q29 -16 29 -41q0 -27 -43 -34q-16 -4 -33.5 -3.5t-34.5 5.5q-41 4 -80 3t-75 -30q-37 -33 -65 -86t-44 -120.5t-24.5 -144.5t-8.5 -157q0 -88 9.5 -174t24.5 -162 t36.5 -135t48.5 -94q41 -47 98 -47q29 0 58.5 8t56.5 16q27 10 46.5 13.5t29.5 -0.5q27 -18 38 -37t-22 -39q-27 -16 -79 -32.5t-117 -16.5q-39 0 -80 11t-76 36q-35 31 -62.5 94t-48 147t-31 182.5t-10.5 198.5zM211 -196.5q0 10.5 8 19.5t19.5 16t19.5 9q29 -10 60.5 -17 t48.5 -7q8 0 19 8t18.5 19.5t6.5 21.5t-18 14h2q-25 10 -51 13q-23 4 -44 10t-36 20q-8 8 -9 25.5t2 38t8 41.5t9 37q6 14 7 28q2 -6 12 -10t23.5 -6t24.5 1t13 13q-2 -6 -4 -14t-8 -21q-10 -27 -16.5 -52t10.5 -34h-4q6 -6 37 -12q33 -8 70.5 -22.5t43.5 -46.5 q4 -35 -18.5 -76t-56.5 -56q-35 -12 -58 -12q-35 0 -67.5 10.5t-57.5 24.5q-14 6 -14 16.5z" />
<glyph unicode="&#xe8;" horiz-adv-x="698" d="M18 446v41v140.5t2.5 171.5t7.5 180t13 167t22.5 134t34.5 80q27 29 54.5 41t60.5 12q41 0 83 -18.5t80 -47t68.5 -64.5t51.5 -71q31 -53 52 -114.5t34.5 -127t19.5 -131t6 -126.5q0 -86 -11 -153.5t-28 -96.5q-14 -23 -49 -35t-79 -18.5t-92 -6.5h-91h-95t-50 -16 t-10.5 -54t15 -81t49.5 -82t89 -55q37 -10 80 -11q63 0 119.5 21.5t79.5 54.5q10 8 23 7t24.5 -10t17.5 -24.5t2 -33.5q-16 -14 -43 -33.5t-61.5 -38t-76.5 -31t-91 -12.5q-53 0 -103 14q-72 20 -112.5 60.5t-62 95.5t-28 125t-6.5 147zM86 711q0 -88 6 -149.5t23 -65.5 q10 -2 31.5 -3t50.5 -1q45 0 99 3t102 9t82 15t38 22q8 53 11 106t3 101q0 121 -23.5 223t-62.5 178q-45 78 -100 126t-102 48t-82 -39q-18 -23 -32.5 -86t-24 -145t-14.5 -173.5t-5 -168.5zM147 1697.5q7 14.5 20 25t29.5 14.5t22.5 -6q39 -53 73 -102.5t75 -110.5 q14 -23 12 -40.5t-13.5 -24.5t-27.5 -2t-29 28l-157 196q-12 8 -5 22.5zM150 1679q0 -2 2 -4z" />
<glyph unicode="&#xe9;" horiz-adv-x="694" d="M18 446v41v140.5t2.5 171.5t7.5 180t13 167t22.5 134t34.5 80q27 29 54.5 41t60.5 12q41 0 83 -18.5t80 -47t68.5 -64.5t51.5 -71q31 -53 52 -114.5t34.5 -127t19.5 -131t6 -126.5q0 -86 -11 -153.5t-28 -96.5q-14 -23 -49 -35t-79 -18.5t-92 -6.5h-91h-95t-50 -16 t-10.5 -54t15 -81t49.5 -82t89 -55q37 -10 80 -11q63 0 119.5 21.5t79.5 54.5q16 8 32.5 7t27.5 -10t14 -24.5t-7 -33.5q-16 -14 -43 -33.5t-61.5 -38t-76.5 -31t-91 -12.5q-53 0 -103 14q-72 20 -112.5 60.5t-62 95.5t-28 125t-6.5 147zM86 711q0 -88 6 -149.5t23 -65.5 q10 -2 31.5 -3t50.5 -1q45 0 99 3t102 9t82 15t38 22q8 53 11 106t3 101q0 121 -23.5 223t-62.5 178q-45 78 -100 126t-102 48t-82 -39q-18 -23 -32.5 -86t-24 -145t-14.5 -173.5t-5 -168.5zM145 1498.5q-2 17.5 15 39.5q41 61 74.5 110.5t70.5 102.5q12 16 33.5 15t39 -11 t19.5 -26.5t-24 -32.5l-158 -197q-12 -23 -28.5 -28t-28 2.5t-13.5 25zM373 1696l4 4z" />
<glyph unicode="&#xea;" horiz-adv-x="704" d="M18 446v41v140.5t2.5 171.5t7.5 180t13 167t22.5 134t34.5 80q27 29 54.5 41t60.5 12q41 0 83 -18.5t80 -47t68.5 -64.5t51.5 -71q31 -53 52 -114.5t34.5 -127t19.5 -131t6 -126.5q0 -86 -11 -153.5t-28 -96.5q-14 -23 -49 -35t-79 -18.5t-92 -6.5h-91h-95t-50 -16 t-10.5 -54t15 -81t49.5 -82t89 -55q37 -10 80 -11q63 0 119.5 21.5t79.5 54.5q14 8 31.5 6t28.5 -11t14 -24.5t-7 -31.5q-16 -14 -43 -33.5t-61.5 -38t-76.5 -31t-91 -12.5q-53 0 -103 14q-72 20 -112.5 60.5t-62 95.5t-28 125t-6.5 147zM84 1495q-8 12 4 35v-2 q14 23 30.5 49.5t33 51t30 44t21.5 27.5q33 29 49 29q24 0 49 -35q10 -12 28.5 -35t37 -49.5t35 -51t22.5 -38.5q4 -10 -2 -22.5t-18.5 -17.5t-28 -1t-27.5 24l-39 58q-18 29 -31.5 50t-27.5 21q-8 0 -18.5 -11t-21.5 -28.5t-20.5 -37t-17.5 -37.5h2l-6 -13 q-8 -14 -25.5 -21t-34 -4t-24.5 15zM86 711q0 -88 6 -149.5t23 -65.5q10 -2 31.5 -3t50.5 -1q45 0 99 3t102 9t82 15t38 22q8 53 11 106t3 101q0 121 -23.5 223t-62.5 178q-45 78 -100 126t-102 48t-82 -39q-18 -23 -32.5 -86t-24 -145t-14.5 -173.5t-5 -168.5z" />
<glyph unicode="&#xeb;" horiz-adv-x="694" d="M18 446v41v140.5t2.5 171.5t7.5 180t13 167t22.5 134t34.5 80q27 29 54.5 41t60.5 12q41 0 83 -18.5t80 -47t68.5 -64.5t51.5 -71q31 -53 52 -114.5t34.5 -127t19.5 -131t6 -126.5q0 -86 -11 -153.5t-28 -96.5q-14 -23 -49 -35t-79 -18.5t-92 -6.5h-91h-95t-50 -16 t-10.5 -54t15 -81t49.5 -82t89 -55q37 -10 80 -11q63 0 119.5 21.5t79.5 54.5q18 6 34.5 1t27.5 -15t13 -22.5t-8 -24.5q-16 -14 -43 -33.5t-61.5 -38t-76.5 -31t-91 -12.5q-53 0 -103 14q-72 20 -112.5 60.5t-62 95.5t-28 125t-6.5 147zM86 711q0 -88 6 -149.5t23 -65.5 q10 -2 31.5 -3t50.5 -1q45 0 99 3t102 9t82 15t38 22q8 53 11 106t3 101q0 121 -23.5 223t-62.5 178q-45 78 -100 126t-102 48t-82 -39q-18 -23 -32.5 -86t-24 -145t-14.5 -173.5t-5 -168.5zM98 1593q4 10 21.5 16.5t38.5 6.5q16 0 29.5 -6t15.5 -23q2 -10 -2.5 -30.5 t-16.5 -34.5t-29.5 -11.5t-31.5 16t-21.5 32t-1.5 34.5h-2zM307 1593q4 10 21.5 16.5t38.5 6.5q16 0 29.5 -6t15.5 -23q2 -10 -2.5 -30.5t-16.5 -34.5t-29.5 -11.5t-32 16t-21.5 32t-1 34.5h-2z" />
<glyph unicode="&#xec;" d="M14.5 1318q3.5 28 14.5 40q8 4 49 9t95 9t112.5 7t105.5 3q27 0 46.5 -1t25.5 -5q16 -12 24.5 -34.5t-12.5 -38.5q-10 -4 -28.5 -7.5t-34.5 -5.5q-29 -2 -55.5 -5t-43.5 -21q-6 -6 -9 -37t-5 -80t-3 -114.5t-1 -141.5v-82v-92t1 -93t1 -85q2 -92 2 -175v-153v-100 q0 -12 26.5 -14.5t61.5 1.5h-2q31 4 59.5 5.5t30.5 -3.5v2q10 -33 10 -54t-14 -25q-6 -2 -39 -5.5t-80 -6.5t-101 -6t-100.5 -5t-79 -3t-36.5 1t-12 10.5t2 24.5q0 4 22.5 8t48.5 14q20 6 42 11.5t37 10.5t23.5 11t4.5 14q0 66 4 173.5t8 236.5q2 74 5 149.5t5 149.5 t3 141.5t1 122.5q0 86 -5 138.5t-15 56.5q-16 8 -44 6t-54 -6q-25 -4 -48.5 -6t-33.5 6q-18 16 -14.5 44zM131 1709.5q4 16.5 19.5 29t35 15.5t29.5 -13q37 -53 70.5 -102.5t74.5 -110.5q16 -25 14.5 -41.5t-13 -23.5t-28 -2t-28.5 28l-160 194q-18 10 -14 26.5zM143 1688 q0 -2 2 -5z" />
<glyph unicode="&#xed;" d="M14.5 1318q3.5 28 14.5 40q8 4 49 9t95 9t112.5 7t105.5 3q27 0 46.5 -1t25.5 -5q16 -12 24.5 -34.5t-12.5 -38.5q-10 -4 -28.5 -7.5t-34.5 -5.5q-29 -2 -55.5 -5t-43.5 -21q-6 -6 -9 -37t-5 -80t-3 -114.5t-1 -141.5v-82v-92t1 -93t1 -85q2 -92 2 -175v-153v-100 q0 -12 26.5 -14.5t61.5 1.5h-2q31 4 59.5 5.5t30.5 -3.5v2q10 -33 10 -54t-14 -25q-6 -2 -39 -5.5t-80 -6.5t-101 -6t-100.5 -5t-79 -3t-36.5 1t-12 10.5t2 24.5q0 4 22.5 8t48.5 14q20 6 42 11.5t37 10.5t23.5 11t4.5 14q0 66 4 173.5t8 236.5q2 74 5 149.5t5 149.5 t3 141.5t1 122.5q0 86 -5 138.5t-15 56.5q-16 8 -44 6t-54 -6q-25 -4 -48.5 -6t-33.5 6q-18 16 -14.5 44zM155 1508.5q-3 17.5 13 39.5q41 61 74.5 110.5t72.5 102.5q8 10 25.5 10.5t32 -8t20.5 -24t-10 -33.5l-158 -197q-12 -23 -28.5 -27.5t-27.5 2.5t-14 24.5zM383 1706 l4 4z" />
<glyph unicode="&#xee;" d="M14.5 1318q-4.5 -28 14.5 -44q10 -8 33.5 -6t48.5 6q27 4 54.5 6t43.5 -6q10 -4 15 -56.5t5 -138.5q0 -55 -1 -122.5t-3 -141.5t-5 -149.5t-5 -149.5q-4 -129 -8 -236.5t-4 -173.5q4 -8 -4.5 -14t-23.5 -11t-36.5 -10t-42.5 -12q-27 -10 -49 -14t-22 -8q-10 -16 -2 -24.5 t12 -10.5t36.5 -1t79 3t100.5 5t101 6t80 6.5t39 5.5q14 4 14 25.5t-10 53.5v-2q-2 4 -30.5 3t-59.5 -5h2q-35 -4 -61.5 -2t-26.5 15v100v153t-2 175q0 39 -1 85t-1 93v92v82q0 76 1 141.5t3 114.5t5 80t9 37q16 18 43 21t56 5q16 2 34.5 5.5t28.5 7.5q20 16 12 38.5 t-24 34.5q-6 4 -25.5 5t-46.5 1q-47 0 -105.5 -3t-112.5 -7t-95 -9t-49 -9q-10 -12 -14.5 -40zM81 1503.5q-7 12.5 5 36.5v-2q12 23 29.5 49.5t34 51t30 43t21.5 28.5q29 29 47 29q26 0 51 -35q10 -12 27.5 -35.5t36 -50.5t35 -50.5t22.5 -37.5q4 -10 -2 -22.5t-18.5 -18.5 t-28 -2t-27.5 26l-37 56q-18 31 -32.5 52t-28.5 21q-8 0 -18.5 -11t-20.5 -28.5t-20.5 -38t-18.5 -36.5h2l-6 -12q-8 -16 -25.5 -22.5t-34 -4.5t-23.5 14.5z" />
<glyph unicode="&#xef;" d="M14.5 1318q-4.5 -28 14.5 -44q10 -8 33.5 -6t48.5 6q27 4 54.5 6t43.5 -6q10 -4 15 -56.5t5 -138.5q0 -55 -1 -122.5t-3 -141.5t-5 -149.5t-5 -149.5q-4 -129 -8 -236.5t-4 -173.5q4 -8 -4.5 -14t-23.5 -11t-36.5 -10t-42.5 -12q-27 -10 -49 -14t-22 -8q-10 -16 -2 -24.5 t12 -10.5t36.5 -1t79 3t100.5 5t101 6t80 6.5t39 5.5q14 4 14 25.5t-10 53.5v-2q-2 4 -30.5 3t-59.5 -5h2q-35 -4 -61.5 -2t-26.5 15v100v153t-2 175q0 39 -1 85t-1 93v92v82q0 76 1 141.5t3 114.5t5 80t9 37q16 18 43 21t56 5q16 2 34.5 5.5t28.5 7.5q20 16 12 38.5 t-24 34.5q-6 4 -25.5 5t-46.5 1q-47 0 -105.5 -3t-112.5 -7t-95 -9t-49 -9q-10 -12 -14.5 -40zM104 1604q4 10 20.5 16t37.5 6q16 0 30.5 -6t16.5 -23q2 -12 -2.5 -31.5t-16.5 -33.5q-14 -14 -31.5 -11t-30.5 15t-20.5 31.5t-1.5 36.5h-2zM313 1604q4 10 20.5 16t37.5 6 q16 0 30.5 -6t16.5 -23q2 -12 -2.5 -31.5t-16.5 -33.5q-14 -14 -31.5 -11t-30.5 15t-20.5 31.5t-1.5 36.5h-2z" />
<glyph unicode="&#xf0;" horiz-adv-x="620" d="M27 221q0 61 22.5 120.5t63.5 100.5q35 39 77.5 52.5t83.5 13.5t77 -7t67 -14q25 -6 44 -10t30 4q8 6 5 58.5t-14.5 131.5t-28 174t-34 187t-33.5 171t-27 126q-8 33 -8 60q0 43 23 43q20 0 45 -22.5t31 -57.5q6 -23 15 -79t21.5 -134t26.5 -171.5t27.5 -187.5t26 -184 l22.5 -162q6 -47 6 -90q0 -174 -92 -270.5t-266 -85.5q-55 4 -95.5 24.5t-66 53t-37.5 72.5t-12 83zM113 236q0 -33 9 -64t27.5 -55.5t47 -40t69.5 -15.5q39 0 88 17q94 35 131 99.5t37 121.5q0 27 -7 48.5t-17 33.5q-18 20 -68.5 38.5t-107.5 18.5q-51 0 -97.5 -18.5 t-81.5 -69.5q-31 -47 -30 -114zM289 594q0 8 17.5 32.5t46 55.5t62.5 63.5t65.5 59t57 41t35.5 10.5q23 -18 37.5 -36.5t5.5 -28.5q-4 -8 -46 -44t-93 -76t-94 -72t-51 -32q-18 -10 -29.5 0.5t-13.5 26.5z" />
<glyph unicode="&#xf1;" horiz-adv-x="798" d="M25 737q0 111 1 215.5t2 189.5t3 145.5t4 80.5v2q2 12 32.5 10t47.5 -18q6 -6 4 -29.5t-6 -50.5q-4 -35 -5.5 -60.5t17.5 -35.5q12 4 32.5 32.5t53.5 62.5t77 60.5t105 28.5q90 0 144.5 -33.5t85 -85t42 -110t17.5 -105.5q4 -37 11 -136t15.5 -224t15.5 -255t13 -228 q4 -61 6 -102.5t2 -53.5q2 -18 -10 -24.5t-28.5 -4.5t-32 10.5t-17.5 20.5t-5 57t-7 121q-6 135 -17.5 346t-33.5 475q-10 117 -57.5 180.5t-137.5 57.5q-72 -4 -120 -42t-78.5 -89t-47 -105.5t-24.5 -91.5q-8 -41 -13 -95t-8.5 -116.5t-4.5 -129t-1 -134.5q0 -59 1 -114.5 t1 -108.5q0 -41 1 -77t1 -67t-1 -56t-1 -42q0 -10 -9 -16t-21.5 -7t-23.5 5t-15 20q-2 8 -4 74t-3 168t-2 229t-1 256zM152 1503.5q-3 14.5 11 32.5l29 41q29 35 57.5 69.5t59.5 36.5q18 2 39.5 -24.5t38.5 -48.5q10 -14 19 -25.5t22 -11.5q16 2 30.5 18.5t26.5 38.5l33 43 q8 10 19 9t20.5 -7t13.5 -17t-2 -24q-6 -14 -23.5 -40.5t-38 -52.5t-42 -45t-35.5 -19q-29 2 -46.5 23.5t-31.5 43.5q-12 18 -21.5 31.5t-23.5 11.5q-23 -6 -38 -28.5t-30 -45.5q-6 -10 -10 -17t-12 -15q-10 -10 -24.5 -9.5t-26 9t-14.5 23z" />
<glyph unicode="&#xf2;" horiz-adv-x="761" d="M8 670q0 109 8.5 214t22.5 193t35.5 150.5t48.5 85.5q96 72 217 71q72 0 142.5 -26.5t129.5 -75.5q53 -47 77 -148.5t24 -228.5q0 -115 -16.5 -237.5t-41 -231t-55.5 -191.5t-59 -120q-47 -47 -110.5 -81t-133.5 -34q-90 0 -174 66q-29 25 -50.5 84t-35.5 139t-21.5 176 t-7.5 195zM88 682q0 -92 6 -181t18.5 -163t30 -127t37.5 -74q29 -20 64 -31.5t67 -11.5q49 0 95.5 23.5t80.5 77.5q18 27 42 98.5t46.5 165.5t38 202.5t15.5 212.5q0 115 -24.5 209.5t-86.5 147.5q-41 35 -92 53.5t-100 18.5q-41 0 -79 -14.5t-65 -43.5q-25 -27 -42 -83 t-29.5 -132t-17.5 -166t-5 -182zM231 1675.5q7 14.5 20 25t29.5 14t22.5 -6.5q39 -53 73 -102t75 -111q14 -23 12 -40t-13.5 -24t-27.5 -2t-29 28l-157 196q-12 8 -5 22.5zM234 1657q0 -2 2 -4z" />
<glyph unicode="&#xf3;" horiz-adv-x="761" d="M8 670q0 109 8.5 214t22.5 193t35.5 150.5t48.5 85.5q96 72 217 71q72 0 142.5 -26.5t129.5 -75.5q53 -47 77 -148.5t24 -228.5q0 -115 -16.5 -237.5t-41 -231t-55.5 -191.5t-59 -120q-47 -47 -110.5 -81t-133.5 -34q-90 0 -174 66q-29 25 -50.5 84t-35.5 139t-21.5 176 t-7.5 195zM88 682q0 -92 6 -181t18.5 -163t30 -127t37.5 -74q29 -20 64 -31.5t67 -11.5q49 0 95.5 23.5t80.5 77.5q18 27 42 98.5t46.5 165.5t38 202.5t15.5 212.5q0 115 -24.5 209.5t-86.5 147.5q-41 35 -92 53.5t-100 18.5q-41 0 -79 -14.5t-65 -43.5q-25 -27 -42 -83 t-29.5 -132t-17.5 -166t-5 -182zM239 1476q-2 17 15 40q41 61 74.5 110.5t70.5 102.5q12 16 33.5 15t39 -11t19.5 -26.5t-24 -32.5l-158 -197q-12 -23 -28.5 -28t-28 2.5t-13.5 24.5zM467 1674l4 4z" />
<glyph unicode="&#xf4;" horiz-adv-x="761" d="M8 670q0 109 8.5 214t22.5 193t35.5 150.5t48.5 85.5q96 72 217 71q72 0 142.5 -26.5t129.5 -75.5q53 -47 77 -148.5t24 -228.5q0 -115 -16.5 -237.5t-41 -231t-55.5 -191.5t-59 -120q-47 -47 -110.5 -81t-133.5 -34q-90 0 -174 66q-29 25 -50.5 84t-35.5 139t-21.5 176 t-7.5 195zM88 682q0 -92 6 -181t18.5 -163t30 -127t37.5 -74q29 -20 64 -31.5t67 -11.5q49 0 95.5 23.5t80.5 77.5q18 27 42 98.5t46.5 165.5t38 202.5t15.5 212.5q0 115 -24.5 209.5t-86.5 147.5q-41 35 -92 53.5t-100 18.5q-41 0 -79 -14.5t-65 -43.5q-25 -27 -42 -83 t-29.5 -132t-17.5 -166t-5 -182zM176 1473q-8 12 4 35v-2q14 23 30.5 49t33 51t30 44.5t21.5 27.5q33 29 49 28q24 1 49 -34q10 -12 28.5 -35t37 -49.5t35 -51t22.5 -38.5q4 -10 -2 -22.5t-18.5 -18t-27.5 -1t-28 24.5l-39 57q-18 29 -31.5 50.5t-27.5 21.5q-8 0 -18.5 -11 t-21.5 -28.5t-20.5 -37t-17.5 -38.5h2l-6 -12q-8 -14 -25.5 -21t-34 -4t-24.5 15z" />
<glyph unicode="&#xf5;" horiz-adv-x="761" d="M8 670q0 109 8.5 214t22.5 193t35.5 150.5t48.5 85.5q96 72 217 71q72 0 142.5 -26.5t129.5 -75.5q53 -47 77 -148.5t24 -228.5q0 -115 -16.5 -237.5t-41 -231t-55.5 -191.5t-59 -120q-47 -47 -110.5 -81t-133.5 -34q-90 0 -174 66q-29 25 -50.5 84t-35.5 139t-21.5 176 t-7.5 195zM88 682q0 -92 6 -181t18.5 -163t30 -127t37.5 -74q29 -20 64 -31.5t67 -11.5q49 0 95.5 23.5t80.5 77.5q18 27 42 98.5t46.5 165.5t38 202.5t15.5 212.5q0 115 -24.5 209.5t-86.5 147.5q-41 35 -92 53.5t-100 18.5q-41 0 -79 -14.5t-65 -43.5q-25 -27 -42 -83 t-29.5 -132t-17.5 -166t-5 -182zM165 1483.5q-3 14.5 11 32.5l29 41q29 35 57.5 69.5t59.5 36.5q18 2 39.5 -24.5t38.5 -48.5q10 -14 19 -25.5t22 -11.5q16 2 30.5 18.5t26.5 38.5l33 43q8 10 19 9t20.5 -7t13.5 -17t-2 -24q-6 -14 -23.5 -40.5t-38 -52.5t-42 -45t-35.5 -19 q-29 2 -46.5 23.5t-31.5 43.5q-12 18 -21.5 31.5t-23.5 11.5q-23 -6 -38 -28.5t-30 -45.5q-6 -10 -10 -17t-12 -15q-10 -10 -24.5 -9.5t-26 9t-14.5 23z" />
<glyph unicode="&#xf6;" horiz-adv-x="761" d="M8 670q0 109 8.5 214t22.5 193t35.5 150.5t48.5 85.5q96 72 217 71q72 0 142.5 -26.5t129.5 -75.5q53 -47 77 -148.5t24 -228.5q0 -115 -16.5 -237.5t-41 -231t-55.5 -191.5t-59 -120q-47 -47 -110.5 -81t-133.5 -34q-90 0 -174 66q-29 25 -50.5 84t-35.5 139t-21.5 176 t-7.5 195zM88 682q0 -92 6 -181t18.5 -163t30 -127t37.5 -74q29 -20 64 -31.5t67 -11.5q49 0 95.5 23.5t80.5 77.5q18 27 42 98.5t46.5 165.5t38 202.5t15.5 212.5q0 115 -24.5 209.5t-86.5 147.5q-41 35 -92 53.5t-100 18.5q-41 0 -79 -14.5t-65 -43.5q-25 -27 -42 -83 t-29.5 -132t-17.5 -166t-5 -182zM192 1571q4 10 21.5 16.5t38.5 6.5q16 0 29.5 -6.5t15.5 -22.5q2 -10 -2.5 -30.5t-16.5 -34.5t-29.5 -11.5t-32 16t-21.5 32t-1 34.5h-2zM401 1571q4 10 21.5 16.5t38.5 6.5q16 0 29.5 -6.5t15.5 -22.5q2 -10 -2.5 -30.5t-16.5 -34.5 t-29.5 -11.5t-32 16t-21.5 32t-1 34.5h-2z" />
<glyph unicode="&#xf7;" horiz-adv-x="593" d="M20 433.5q-7 7.5 3 23.5q6 8 58 21.5t123.5 25.5t146.5 20t128 8q55 0 62 -8q8 -27 7 -49t-11 -29q-12 -2 -52.5 -5t-94.5 -6t-115.5 -6t-113.5 -5t-87 -3t-39 1q-8 4 -15 11.5zM236 287q-4 24 2 51q2 10 19 16t40 6q18 0 33.5 -5t15.5 -15v-21.5t-1 -13.5t-3 -14t-4 -21 q-2 -10 -18.5 -14t-36.5 -4q-16 0 -30.5 2t-14.5 8t-1 12.5t-1 12.5zM236 627q-4 22 2 53q2 10 19 15t40 5q18 0 33.5 -4t15.5 -14v-22.5t-1 -14.5t-3 -14t-4 -21q-2 -10 -18.5 -13t-36.5 -3q-16 0 -30.5 2t-14.5 6q0 6 -1 12.5t-1 12.5z" />
<glyph unicode="&#xf8;" horiz-adv-x="761" d="M8 670q0 109 8.5 214t22.5 193t35.5 150.5t48.5 85.5q96 72 217 71q72 0 142.5 -26.5t129.5 -75.5q53 -47 77 -148.5t24 -228.5q0 -115 -16.5 -237.5t-41 -231t-55.5 -191.5t-59 -120q-47 -47 -110.5 -81t-133.5 -34q-90 0 -174 66q-29 25 -50.5 84t-35.5 139t-21.5 176 t-7.5 195zM88 682q0 -92 6 -181t18.5 -163t30 -127t37.5 -74q29 -20 64 -31.5t67 -11.5q49 0 95.5 23.5t80.5 77.5q18 27 42 98.5t46.5 165.5t38 202.5t15.5 212.5q0 115 -24.5 209.5t-86.5 147.5q-41 35 -92 53.5t-100 18.5q-41 0 -79 -14.5t-65 -43.5q-25 -27 -42 -83 t-29.5 -132t-17.5 -166t-5 -182zM156 72q0 25 12 66.5t24 76.5l15 43q4 8 19.5 70.5t37.5 152.5q20 80 46 178.5t51.5 197.5t50 192.5t44 166t32 116.5t14.5 46h2q6 6 19 6t26.5 -3t26 -11t18.5 -16q6 -12 -4.5 -45t-26.5 -80l-24 -74q-4 -12 -14.5 -45t-25 -80t-31 -105.5 t-34.5 -119.5q-35 -119 -73 -248t-69.5 -237.5t-55 -181t-27.5 -79.5q-12 -16 -34 -16t-19 29z" />
<glyph unicode="&#xf9;" horiz-adv-x="802" d="M10 1317q-2 18 11.5 24.5t30 4t30.5 -10.5t18 -20q2 -10 4 -56.5t7 -121.5q6 -135 18 -345t35 -477q10 -115 57 -178t137 -59q72 4 119 42t78 89t46 105.5t22 91.5q16 82 22 212t6 265q0 57 -2 112.5t-2 108.5q-2 39 -2 74.5v66.5q0 33 -2 57.5t0 43.5q2 10 12.5 16 t23.5 7t25.5 -5t16.5 -21q2 -8 4 -73.5t3 -168t2 -229.5t1 -256q0 -111 -1 -215t-2 -189t-3 -145.5t-4 -80.5v-2q0 -6 -10.5 -8.5t-22.5 -1.5t-25.5 5.5t-21.5 12.5q-6 6 -4 29.5t6 52.5q4 31 6 58.5t-18 37.5q-25 -6 -28 -17.5t-15 -25.5q-16 -18 -37 -43t-48.5 -47.5 t-62 -37.5t-75.5 -15q-92 0 -146.5 33.5t-84.5 85t-41 109.5t-17 105q-4 37 -11.5 136.5t-15.5 224.5t-16 255t-15 228q-4 61 -6 103.5t-2 52.5zM227 1695.5q7 14.5 20 25t29.5 14t22.5 -6.5q39 -53 73 -102t75 -111q14 -23 12 -40t-13.5 -24t-27.5 -2t-29 28l-157 196 q-12 8 -5 22.5zM230 1677q0 -2 2 -4z" />
<glyph unicode="&#xfa;" horiz-adv-x="802" d="M10 1317q-2 18 11.5 24.5t30 4t30.5 -10.5t18 -20q2 -10 4 -56.5t7 -121.5q6 -135 18 -345t35 -477q10 -115 57 -178t137 -59q72 4 119 42t78 89t46 105.5t22 91.5q16 82 22 212t6 265q0 57 -2 112.5t-2 108.5q-2 39 -2 74.5v66.5q0 33 -2 57.5t0 43.5q2 10 12.5 16 t23.5 7t25.5 -5t16.5 -21q2 -8 4 -73.5t3 -168t2 -229.5t1 -256q0 -111 -1 -215t-2 -189t-3 -145.5t-4 -80.5v-2q0 -6 -10.5 -8.5t-22.5 -1.5t-25.5 5.5t-21.5 12.5q-6 6 -4 29.5t6 52.5q4 31 6 58.5t-18 37.5q-25 -6 -28 -17.5t-15 -25.5q-16 -18 -37 -43t-48.5 -47.5 t-62 -37.5t-75.5 -15q-92 0 -146.5 33.5t-84.5 85t-41 109.5t-17 105q-4 37 -11.5 136.5t-15.5 224.5t-16 255t-15 228q-4 61 -6 103.5t-2 52.5zM239 1496q-2 17 15 40q41 61 74.5 110.5t70.5 102.5q12 16 33.5 15t39 -11t19.5 -26.5t-24 -32.5l-158 -197q-12 -23 -28.5 -28 t-28 2.5t-13.5 24.5zM467 1694l4 4z" />
<glyph unicode="&#xfb;" horiz-adv-x="802" d="M10 1317q-2 18 11.5 24.5t30 4t30.5 -10.5t18 -20q2 -10 4 -56.5t7 -121.5q6 -135 18 -345t35 -477q10 -115 57 -178t137 -59q72 4 119 42t78 89t46 105.5t22 91.5q16 82 22 212t6 265q0 57 -2 112.5t-2 108.5q-2 39 -2 74.5v66.5q0 33 -2 57.5t0 43.5q2 10 12.5 16 t23.5 7t25.5 -5t16.5 -21q2 -8 4 -73.5t3 -168t2 -229.5t1 -256q0 -111 -1 -215t-2 -189t-3 -145.5t-4 -80.5v-2q0 -6 -10.5 -8.5t-22.5 -1.5t-25.5 5.5t-21.5 12.5q-6 6 -4 29.5t6 52.5q4 31 6 58.5t-18 37.5q-25 -6 -28 -17.5t-15 -25.5q-16 -18 -37 -43t-48.5 -47.5 t-62 -37.5t-75.5 -15q-92 0 -146.5 33.5t-84.5 85t-41 109.5t-17 105q-4 37 -11.5 136.5t-15.5 224.5t-16 255t-15 228q-4 61 -6 103.5t-2 52.5zM190 1493q-8 12 4 35v-2q14 23 30.5 49t33 51t30 44.5t21.5 27.5q33 29 49 28q24 1 49 -34q10 -12 28.5 -35t37 -49.5t35 -51 t22.5 -38.5q4 -10 -2 -22.5t-18.5 -18t-27.5 -1t-28 24.5l-39 57q-18 29 -31.5 50.5t-27.5 21.5q-8 0 -18.5 -11t-21.5 -28.5t-20.5 -37t-17.5 -38.5h2l-6 -12q-8 -14 -25.5 -21t-34 -4t-24.5 15z" />
<glyph unicode="&#xfc;" horiz-adv-x="802" d="M10 1317q-2 18 11.5 24.5t30 4t30.5 -10.5t18 -20q2 -10 4 -56.5t7 -121.5q6 -135 18 -345t35 -477q10 -115 57 -178t137 -59q72 4 119 42t78 89t46 105.5t22 91.5q16 82 22 212t6 265q0 57 -2 112.5t-2 108.5q-2 39 -2 74.5v66.5q0 33 -2 57.5t0 43.5q2 10 12.5 16 t23.5 7t25.5 -5t16.5 -21q2 -8 4 -73.5t3 -168t2 -229.5t1 -256q0 -111 -1 -215t-2 -189t-3 -145.5t-4 -80.5v-2q0 -6 -10.5 -8.5t-22.5 -1.5t-25.5 5.5t-21.5 12.5q-6 6 -4 29.5t6 52.5q4 31 6 58.5t-18 37.5q-25 -6 -28 -17.5t-15 -25.5q-16 -18 -37 -43t-48.5 -47.5 t-62 -37.5t-75.5 -15q-92 0 -146.5 33.5t-84.5 85t-41 109.5t-17 105q-4 37 -11.5 136.5t-15.5 224.5t-16 255t-15 228q-4 61 -6 103.5t-2 52.5zM194 1591q4 10 21.5 16.5t38.5 6.5q16 0 29.5 -6.5t15.5 -22.5q2 -10 -2.5 -30.5t-16.5 -34.5t-29.5 -11.5t-32 16t-21.5 32 t-1 34.5h-2zM403 1591q4 10 21.5 16.5t38.5 6.5q16 0 29.5 -6.5t15.5 -22.5q2 -10 -2.5 -30.5t-16.5 -34.5t-29.5 -11.5t-32 16t-21.5 32t-1 34.5h-2z" />
<glyph unicode="&#xfd;" horiz-adv-x="753" d="M8 1323q-6 20 3 37.5t24.5 27t33 7.5t25.5 -21q6 -14 21.5 -61t37 -113.5t45 -147.5l47 -162t45 -153.5t36.5 -124.5q4 -16 10 -29.5t10 -23.5q6 -10 10 -18q10 20 21 47q10 23 21.5 54.5t25.5 70.5q27 86 59.5 191.5t63.5 203.5t54.5 175t31.5 103q12 47 41 48 q20 0 34.5 -25t6.5 -66q-4 -16 -21.5 -67t-44 -125t-57.5 -161t-62 -171q-27 -78 -52 -149.5t-44.5 -129t-31 -94t-11.5 -40.5q2 -8 4 -58.5t4 -111t3 -115.5t1 -74q0 -16 -16 -27.5t-33 -11.5q-12 0 -22 10.5t-13 32.5q-2 20 -2 45v54q0 59 1 120.5t1 96.5v28q0 6 -21.5 73 t-54 164t-71.5 210.5t-74 215t-59.5 175.5t-30.5 90zM274 1488q-2 17 15 40q41 61 74.5 110.5t70.5 102.5q12 16 33.5 15t39 -11t19.5 -26.5t-24 -32.5l-158 -197q-12 -23 -28.5 -28t-28 2.5t-13.5 24.5zM502 1686l4 4z" />
<glyph unicode="&#xfe;" horiz-adv-x="550" d="M74 315v211t1 230.5t3 227.5t3 202t3 151.5t4 81.5q2 18 12.5 26.5t24.5 8.5q10 0 20.5 -8t10.5 -25q-2 -27 -3 -88t-2 -145t-2.5 -184.5t-1.5 -204.5q0 -135 -1 -270.5t-3 -245t-4 -181t-6 -82.5q-6 -16 -25.5 -20t-29.5 18q-2 10 -3 91t-1 206zM131 236l4 106 q43 12 89 38t86 71t64.5 112.5t24.5 165.5q0 100 -26.5 172t-66.5 120t-87 76.5t-88 43.5v84q57 -14 113.5 -48t103.5 -94.5t79 -152.5t38 -221q-2 -109 -35 -190t-82 -138t-107.5 -93t-109.5 -52z" />
<glyph unicode="&#xff;" horiz-adv-x="753" d="M8 1323q-6 20 3 37.5t24.5 27t33 7.5t25.5 -21q6 -14 21.5 -61t37 -113.5t45 -147.5l47 -162t45 -153.5t36.5 -124.5q4 -16 10 -29.5t10 -23.5q6 -10 10 -18q10 20 21 47q10 23 21.5 54.5t25.5 70.5q27 86 59.5 191.5t63.5 203.5t54.5 175t31.5 103q12 47 41 48 q20 0 34.5 -25t6.5 -66q-4 -16 -21.5 -67t-44 -125t-57.5 -161t-62 -171q-27 -78 -52 -149.5t-44.5 -129t-31 -94t-11.5 -40.5q2 -8 4 -58.5t4 -111t3 -115.5t1 -74q0 -16 -16 -27.5t-33 -11.5q-12 0 -22 10.5t-13 32.5q-2 20 -2 45v54q0 59 1 120.5t1 96.5v28q0 6 -21.5 73 t-54 164t-71.5 210.5t-74 215t-59.5 175.5t-30.5 90zM205 1583q4 10 21.5 16.5t38.5 6.5q16 0 29.5 -6.5t15.5 -22.5q2 -10 -2.5 -30.5t-16.5 -34.5t-29.5 -11.5t-32 16t-21.5 32t-1 34.5h-2zM414 1583q4 10 21.5 16.5t38.5 6.5q16 0 29.5 -6.5t15.5 -22.5q2 -10 -2.5 -30.5 t-16.5 -34.5t-29.5 -11.5t-32 16t-21.5 32t-1 34.5h-2z" />
<glyph unicode="&#x152;" horiz-adv-x="1052" d="M12 627q0 113 8.5 223.5t21.5 202.5t33.5 157.5t45.5 83.5q27 20 89 39t142 32t169 20.5t173 7.5q61 0 116.5 -4.5t96.5 -14.5q10 -4 16.5 -20.5t-14.5 -22.5h2q-12 -4 -43.5 -5t-72.5 -3q-31 -2 -63 -3t-60.5 -3t-51 -6t-34.5 -11q-10 -6 -17.5 -50t-12.5 -109.5 t-7 -144t-2 -154.5q0 -57 1 -111.5t4 -97.5t8 -74t11 -39q12 -6 54.5 -4t89.5 6q66 6 124 9.5t66 -7.5q12 -23 8 -47t-24 -33q-8 -4 -35 -4t-61 2q-23 0 -49.5 1t-49.5 1q-43 0 -71.5 -5t-36.5 -21q-4 -8 -8.5 -26.5t-6.5 -43t-3 -51.5t-1 -51q0 -49 6.5 -99.5t20.5 -58.5 q10 -6 34.5 -8t61.5 -2q18 0 38 1t42 1q27 0 52.5 1t49.5 1q39 0 66 -2t35 -6q16 -16 21 -30.5t-11 -18.5q-37 -6 -86 -12.5t-105.5 -10.5t-117 -7t-121.5 -3q-72 0 -141.5 4t-129 15.5t-104.5 28.5t-69 44q-25 25 -43.5 79t-29.5 126.5t-17.5 160t-6.5 177.5zM88 627 q0 -84 4 -164t13.5 -146.5t24 -113t32.5 -62.5q14 -12 41.5 -25.5t59.5 -22.5t67 -15t63 -6q35 0 59.5 5t30.5 15q4 8 6.5 72.5t2.5 150.5q0 76 -1.5 172.5t-3.5 196.5t-5 199.5t-6 182.5t-7 141.5t-8 78.5q-4 6 -42 5t-84 -9t-91 -21.5t-64 -31.5q-23 -33 -40 -96.5 t-28.5 -145.5t-17.5 -175t-6 -185z" />
<glyph unicode="&#x153;" horiz-adv-x="1130" d="M6 670q0 109 8.5 214t22.5 193t35.5 150.5t50.5 85.5q45 35 99 53t114 18q106 0 207 -53q4 6 7 12.5t11 14.5q25 29 54.5 42t58.5 13q41 0 83 -18.5t79.5 -47t69.5 -64.5t52 -71q31 -53 52.5 -114.5t35 -127t19.5 -131t6 -126.5q0 -86 -11 -153.5t-30 -96.5 q-14 -23 -48 -35t-78 -18.5t-93 -6.5h-92h-94t-52 -16q-10 -16 -10 -54t15.5 -81t49.5 -82t89 -55q41 -10 80 -11q63 0 120.5 21.5t77.5 54.5q18 14 33.5 12t27 -12t14.5 -27.5t-5 -33.5q-18 -14 -45 -33.5t-61.5 -38t-76.5 -31t-91 -12.5q-23 0 -49.5 3t-53.5 11 q-39 10 -69.5 29t-53.5 41v-2q-10 12 -18 17.5t-29 0.5q-45 -41 -102.5 -67.5t-120.5 -26.5q-90 0 -172 66q-29 25 -51.5 84t-37 139t-21.5 176t-7 195zM86 682q0 -92 7 -181t19.5 -163t29 -127t36.5 -74q25 -16 56.5 -23.5t62.5 -7.5q35 0 68.5 7.5t60.5 20.5t44 30.5 t17 36.5q-4 49 -4 99t-2 89q0 14 -1 28.5t-1 28.5q-2 45 -2 89.5v85.5q0 117 4 222t8 185q6 100 7 160q0 63 -19 69q-35 23 -75 34.5t-76 11.5q-90 0 -146 -58q-25 -27 -42 -83t-28.5 -132t-17.5 -166t-6 -182zM549 711q0 -88 6 -149.5t20 -65.5q10 -2 32 -3t52 -1 q43 0 97.5 3t102.5 9t82 15t38 22q8 53 11 106t3 101q0 121 -22.5 223t-63.5 178q-43 78 -99 126t-103 48q-43 0 -82 -39q-18 -23 -33 -86t-24 -145t-13 -173.5t-4 -168.5z" />
<glyph unicode="&#x178;" horiz-adv-x="753" d="M8 1323q-6 20 3 37.5t24.5 27t33 7.5t25.5 -21q6 -14 21.5 -61t37 -113.5t45 -147.5l47 -162t45 -153.5t36.5 -124.5q4 -16 10 -29.5t10 -23.5q6 -10 10 -18q10 20 21 47q10 23 21.5 54.5t25.5 70.5q27 86 59.5 191.5t63.5 203.5t54.5 175t31.5 103q12 47 41 48 q20 0 34.5 -25t6.5 -66q-4 -16 -21.5 -67t-44 -125t-57.5 -161t-62 -171q-27 -78 -52 -149.5t-44.5 -129t-31 -94t-11.5 -40.5q2 -8 4 -58.5t4 -111t3 -115.5t1 -74q0 -16 -16 -27.5t-33 -11.5q-12 0 -22 10.5t-13 32.5q-2 20 -2 45v54q0 59 1 120.5t1 96.5v28q0 6 -21.5 73 t-54 164t-71.5 210.5t-74 215t-59.5 175.5t-30.5 90zM205 1583q4 10 21.5 16.5t38.5 6.5q16 0 29.5 -6.5t15.5 -22.5q2 -10 -2.5 -30.5t-16.5 -34.5t-29.5 -11.5t-32 16t-21.5 32t-1 34.5h-2zM414 1583q4 10 21.5 16.5t38.5 6.5q16 0 29.5 -6.5t15.5 -22.5q2 -10 -2.5 -30.5 t-16.5 -34.5t-29.5 -11.5t-32 16t-21.5 32t-1 34.5h-2z" />
<glyph unicode="&#x2c6;" horiz-adv-x="395" d="M8 510q-8 12 4 35v-2q14 23 30.5 49t33 51t30 44.5t21.5 27.5q33 29 49 28q24 1 49 -34q10 -12 28.5 -35t37 -49.5t35 -51t22.5 -38.5q4 -10 -2 -22.5t-18.5 -18t-27.5 -1t-28 24.5l-39 57q-18 29 -31.5 50.5t-27.5 21.5q-8 0 -18.5 -11t-21.5 -28.5t-20.5 -37 t-17.5 -38.5h2l-6 -12q-8 -14 -25.5 -21t-34 -4t-24.5 15z" />
<glyph unicode="&#x2dc;" horiz-adv-x="471" d="M7 520.5q-3 14.5 11 32.5l29 41q29 35 57.5 69.5t59.5 36.5q18 2 39.5 -24.5t38.5 -48.5q10 -14 19 -25.5t22 -11.5q16 2 30.5 18.5t26.5 38.5l33 43q8 10 19 9t20.5 -7t13.5 -17t-2 -24q-6 -14 -23.5 -40.5t-38 -52.5t-42 -45t-35.5 -19q-29 2 -46.5 23.5t-31.5 43.5 q-12 18 -21.5 31.5t-23.5 11.5q-23 -6 -38 -28.5t-30 -45.5q-6 -10 -10 -17t-12 -15q-10 -10 -24.5 -9.5t-26 9t-14.5 23z" />
<glyph unicode="&#x2000;" horiz-adv-x="886" />
<glyph unicode="&#x2001;" horiz-adv-x="1772" />
<glyph unicode="&#x2002;" horiz-adv-x="886" />
<glyph unicode="&#x2003;" horiz-adv-x="1772" />
<glyph unicode="&#x2004;" horiz-adv-x="590" />
<glyph unicode="&#x2005;" horiz-adv-x="443" />
<glyph unicode="&#x2006;" horiz-adv-x="295" />
<glyph unicode="&#x2007;" horiz-adv-x="295" />
<glyph unicode="&#x2008;" horiz-adv-x="221" />
<glyph unicode="&#x2009;" horiz-adv-x="354" />
<glyph unicode="&#x200a;" horiz-adv-x="98" />
<glyph unicode="&#x2010;" horiz-adv-x="563" d="M22 443.5q-3 5.5 1 13.5q6 8 54 21.5t113.5 25.5t134 20t117.5 8q51 0 58 -8q8 -27 7 -49t-11 -29q-10 -2 -48 -7t-89.5 -10t-106.5 -9t-102.5 -7t-78 -4t-30.5 3q0 12 -14 22h2q-4 4 -7 9.5z" />
<glyph unicode="&#x2011;" horiz-adv-x="563" d="M22 443.5q-3 5.5 1 13.5q6 8 54 21.5t113.5 25.5t134 20t117.5 8q51 0 58 -8q8 -27 7 -49t-11 -29q-10 -2 -48 -7t-89.5 -10t-106.5 -9t-102.5 -7t-78 -4t-30.5 3q0 12 -14 22h2q-4 4 -7 9.5z" />
<glyph unicode="&#x2012;" horiz-adv-x="563" d="M22 443.5q-3 5.5 1 13.5q6 8 54 21.5t113.5 25.5t134 20t117.5 8q51 0 58 -8q8 -27 7 -49t-11 -29q-10 -2 -48 -7t-89.5 -10t-106.5 -9t-102.5 -7t-78 -4t-30.5 3q0 12 -14 22h2q-4 4 -7 9.5z" />
<glyph unicode="&#x2013;" horiz-adv-x="694" d="M18.5 435.5q0.5 13.5 4.5 21.5q6 8 66.5 21.5t142 25.5t169.5 20t150 8q57 0 74 -8q8 -27 6 -49t-13 -29q-12 -2 -58 -6t-109.5 -8t-133 -9t-130 -8t-101.5 -4t-45 1q-23 10 -22.5 23.5z" />
<glyph unicode="&#x2014;" horiz-adv-x="817" d="M17.5 434.5q-5.5 8.5 2.5 22.5q4 6 39 14t88.5 16.5t119 16.5t133 14t131 10t110.5 4q37 0 59.5 -2t26.5 -6q8 -27 7 -49t-11 -29q-10 -2 -48 -4t-94.5 -6t-123 -7t-133 -5t-127 -4t-101.5 -2q-16 0 -32.5 1t-28.5 4t-17.5 11.5z" />
<glyph unicode="&#x2018;" horiz-adv-x="251" d="M23 1100q0 51 10 105.5t24.5 100.5t27.5 78.5t17 40.5q6 10 17.5 11.5t24 -4t20.5 -15.5t6 -22l-20 -76v2q-10 -31 -21.5 -67.5t-20 -72.5t-10.5 -67t4 -49q16 -29 34 -42t34 -24q8 -4 20 -16v2q6 -8 7.5 -20.5t-3 -24.5t-14.5 -20.5t-24 -8.5q-16 0 -37 10.5t-49 34.5 q-29 27 -38 64t-9 80z" />
<glyph unicode="&#x2019;" horiz-adv-x="253" d="M15.5 1376.5q-1.5 12.5 3 24.5t13.5 21.5t25 9.5t37 -10.5t49 -35.5q29 -27 38 -63.5t9 -79.5q0 -51 -11 -105.5t-24.5 -100.5t-26.5 -78.5t-17 -40.5q-6 -10 -17.5 -11.5t-24 3.5t-20.5 15.5t-6 22.5q4 23 20 76v-2q10 31 21.5 67.5t20 72.5t10.5 65.5t-4 48.5 q-16 31 -34 44t-34 23q-8 4 -20 17v-2q-6 6 -7.5 18.5z" />
<glyph unicode="&#x201c;" horiz-adv-x="460" d="M20 1100q0 51 11.5 105.5t26 100.5t27.5 78.5t17 40.5q4 10 16.5 11.5t24 -4t20.5 -15.5t7 -22l-23 -76v2q-10 -31 -21 -67.5t-18.5 -72.5t-9.5 -67t4 -49q14 -29 32 -42t36 -24q8 -4 20 -16v2q6 -8 7.5 -20.5t-3 -24.5t-14.5 -20.5t-26 -8.5q-33 0 -84 45 q-29 27 -39.5 64t-10.5 80zM229 1100q0 51 11.5 105.5t26 100.5t27.5 78.5t17 40.5q4 10 16.5 11.5t23.5 -4t20.5 -15.5t7.5 -22l-23 -76v2q-10 -31 -21 -67.5t-18.5 -72.5t-9.5 -67t4 -49q14 -29 31.5 -42t36.5 -24q8 -4 20 -16v2q6 -8 7.5 -20.5t-3 -24.5t-14.5 -20.5 t-24 -8.5q-35 0 -86 45q-29 27 -39.5 64t-10.5 80z" />
<glyph unicode="&#x201d;" horiz-adv-x="460" d="M13 1376.5q-1 12.5 3 24.5t14.5 21.5t26.5 9.5t36 -10.5t48 -35.5q29 -27 39 -63.5t10 -79.5q0 -51 -11 -105.5t-25.5 -100.5t-27.5 -78.5t-17 -40.5q-4 -10 -16.5 -11.5t-24 3.5t-20.5 15.5t-7 22.5q2 10 8 30.5t14 45.5v-2q10 31 20.5 67.5t19 72.5t10.5 65.5t-4 48.5 q-14 31 -32 44t-36 23q-8 4 -21 17v-2q-6 6 -7 18.5zM222 1376.5q-1 12.5 3 24.5t14.5 21.5t26.5 9.5t36 -10.5t48 -35.5q29 -27 39 -63.5t10 -79.5q0 -51 -11 -105.5t-25.5 -100.5t-28 -78.5t-17.5 -40.5q-4 -10 -16 -11.5t-23.5 3.5t-20.5 15.5t-7 22.5q2 10 8 30.5 t14 45.5v-2q10 31 20.5 67.5t18.5 72.5t10.5 65.5t-4.5 48.5q-14 31 -31.5 44t-35.5 23q-8 4 -21 17v-2q-6 6 -7 18.5z" />
<glyph unicode="&#x2022;" horiz-adv-x="288" d="M16 426q-4 23 4.5 53.5t32.5 59.5v-2q33 33 66 32q27 0 51.5 -15t40.5 -37.5t22.5 -50.5t-6.5 -54q-10 -20 -43.5 -33.5t-72.5 -13.5q-35 0 -63 13t-32 48z" />
<glyph unicode="&#x2026;" horiz-adv-x="559" d="M20 27q-2 12 2.5 28.5t16.5 30.5q29 31 65 0q12 -10 20.5 -25.5t-1.5 -37.5h2q-4 -10 -21.5 -16.5t-37.5 -6.5q-16 0 -29.5 6t-16.5 21zM211 27q-2 12 2 28.5t16 30.5q29 31 66 0q12 -10 20.5 -25.5t-2.5 -37.5h2q-4 -10 -22.5 -16.5t-36.5 -6.5q-16 0 -29.5 6t-15.5 21z M401 27q-2 12 2.5 28.5t16.5 30.5q29 33 63 0q14 -10 22.5 -25.5t-1.5 -37.5h2q-4 -10 -22.5 -16.5t-37.5 -6.5q-16 0 -29.5 6t-15.5 21z" />
<glyph unicode="&#x202f;" horiz-adv-x="354" />
<glyph unicode="&#x2039;" horiz-adv-x="546" d="M12 463q0 29 13.5 58.5t33.5 51.5q37 39 88.5 87.5t100.5 94.5t90 81.5t57 52.5h2q23 23 49 22q29 0 42.5 -26.5t-9.5 -55.5q-2 -4 -21.5 -18t-47.5 -35q-35 -25 -78 -57.5t-84 -67.5t-77 -69.5t-54 -61.5q-20 -29 -15.5 -56.5t48.5 -55.5q20 -12 49.5 -29t62.5 -33 t66.5 -32.5t62.5 -30.5q37 -18 62.5 -31.5t35.5 -20.5q12 -10 13.5 -27.5t-6 -33.5t-21.5 -25.5t-31 -3.5q-12 6 -45.5 25.5t-78 44.5t-91.5 53.5t-88 52.5l-73 45q-29 18 -42.5 45t-13.5 56z" />
<glyph unicode="&#x203a;" horiz-adv-x="546" d="M7 203.5q1 17.5 13 27.5q14 8 31 17q14 8 31.5 16t36.5 19q59 29 128.5 64.5t110.5 60.5q45 29 50.5 56.5t-15.5 55.5q-20 27 -55 61.5t-77 69.5t-84 68t-77 57q-29 20 -49 34.5t-22 18.5q-10 14 -12.5 28.5t4 27t16.5 19.5t24 7q29 0 52 -22h2q16 -16 56 -52t89 -82 t100.5 -94.5t88.5 -87.5q20 -23 34.5 -52t14.5 -58t-13.5 -55.5t-44.5 -45.5l-73 -45q-41 -25 -88.5 -53t-90.5 -53t-76.5 -44.5t-48.5 -25.5q-16 -6 -29.5 3.5t-20.5 25.5t-6 33.5z" />
<glyph unicode="&#x205f;" horiz-adv-x="443" />
<glyph unicode="&#x20ac;" horiz-adv-x="722" d="M12 569v2q2 4 29 9.5t61 13.5q6 0 11.5 5t11.5 22q-2 115 4 228.5t21.5 209.5t38 163.5t51.5 90.5q94 72 186 71q59 0 117.5 -25.5t118.5 -72.5q6 -33 -5.5 -47t-28 -16t-32.5 2t-23 8q-43 31 -93 46t-85 15q-49 0 -98 -49q-25 -25 -42 -79t-28.5 -127.5t-17.5 -160.5 t-6 -178v-69q6 -14 10 -16.5t12 -2.5q61 6 124 10.5t112 4.5q82 0 92 -11q6 -4 9 -15t4 -23.5t0 -22.5t-3 -10q-12 -6 -36.5 -7t-55.5 -1h-84t-85 -3.5t-65.5 -9.5t-23.5 -18v-72q0 -18 4 -24.5t27 -6.5q57 6 115.5 10.5t105.5 4.5q37 0 60.5 -3t27.5 -7q12 -16 9 -44 t-13 -34q-10 -2 -37 -4t-65.5 -4.5t-85 -4.5t-93.5 -2q-31 0 -34 -11t2 -34q10 -51 24 -87t37 -46h-2q63 -43 131 -43q47 0 94 26.5t82 74.5q18 23 47 22q14 0 26.5 -7t12.5 -24q0 -27 -33 -61q-47 -49 -109.5 -82t-133.5 -33q-43 0 -87 15.5t-85 50.5q-14 10 -30.5 37.5 t-30 61.5t-24 67.5t-14.5 56.5q-4 4 -15 8t-22 4q-14 0 -31.5 2t-31.5 6.5t-22.5 15.5t-4.5 30q2 8 28 13t73 9q20 0 21 5t1 16v8l-6 69q0 10 -4 24.5t-21 14.5q-12 0 -31.5 1t-35.5 5.5t-25.5 13.5t-1.5 25z" />
<glyph unicode="&#x2122;" horiz-adv-x="690" d="M17 975q-2 19 8 29q2 2 27.5 5t60 6t69.5 5t56 2q10 -12 20 -29.5t-6 -27.5q-16 -8 -39 -9q-29 0 -35 -6q-2 -2 -2 -30.5v-75.5v-80q0 -23 1 -44.5t1 -41.5q0 -16 1 -31.5t1 -32.5v-47q0 -29 -1 -50t-1 -30q-12 -18 -29.5 -18t-27.5 10q-2 2 -3 20.5t-1 47v64.5t2 73 q2 49 3 108.5t1 98.5v57q-4 4 -17.5 3t-23.5 -3q-8 -2 -15.5 -2h-13.5h-16q-18 10 -20 29zM236 485v19.5t2 19.5q4 20 4 33l2 31l26 248l6 47q4 41 9.5 73.5t7.5 40.5q8 14 33.5 12.5t35.5 -12.5q10 -29 22.5 -67.5t21.5 -75.5l43 -141l40 127l9 18l-2 -2l36 133 q4 16 16.5 22.5t25 4.5t23.5 -10.5t13 -20.5q2 -16 6.5 -73.5t9.5 -124t9 -125t4 -74.5l4 -58q2 -8 2 -18v-16l-8 -4q-8 -4 -24.5 -4.5t-16.5 4.5l-8 10l-25 395q-10 -33 -23.5 -80t-27.5 -90t-27.5 -76t-19.5 -35q-6 -4 -25.5 1.5t-29.5 21.5q-12 29 -19.5 70t-17.5 67 l-15 39l-26 88v-8q-4 -45 -13.5 -140.5t-21.5 -271.5q-8 -10 -31.5 -9t-29.5 11zM446 702v5v-5z" />
<glyph unicode="&#x25fc;" horiz-adv-x="1443" d="M0 0v1444h1444v-1444h-1444z" />
<glyph unicode="&#xfb01;" horiz-adv-x="772" d="M4 475q0 14 7 24.5t24 10.5h39q35 -2 71.5 0t47.5 14v-2q6 6 6 76q0 29 -1 69t-1 87q-2 49 -2 103v108q0 61 1 120.5t4 108.5t9 86t14 53q16 35 42 53.5t55.5 26.5t58.5 9t51 1q33 -6 33 -51q0 -16 -7 -27.5t-18 -13.5q-35 2 -77 -4t-64 -35q-6 -12 -11 -54t-7.5 -103.5 t-3.5 -134t-1 -146.5q0 -61 1 -116.5t2.5 -99.5t2.5 -71.5t1 -31.5q4 -16 36.5 -22.5t75.5 -6.5q23 0 44.5 1t43.5 1h64q33 0 58.5 -2t35.5 -6q4 -4 6 -36t2 -75q0 -53 -3 -114.5t-7 -117t-9 -96.5t-10 -49q-6 -16 -26.5 -22t-26.5 20q-4 12 -4 52v88q0 27 1 51t1 49 q0 72 -7 122t-28 52q-27 2 -58.5 3t-66.5 1q-43 0 -77.5 -2t-42.5 -8q-6 -4 -7.5 -25.5t1 -52.5t6.5 -67.5t8 -73.5q6 -47 10 -88t4 -64q0 -20 -15.5 -28.5t-31.5 -8.5q-23 0 -42 10.5t-17 26.5q2 20 1 75.5t-3 115t-5.5 109.5t-7.5 63q-6 18 -33.5 21t-60.5 1 q-16 0 -32.5 -1t-26.5 3q-12 2 -19.5 14.5t-7.5 26.5zM543 625q-4 22 2 53q2 10 18.5 15t38.5 5q20 0 35.5 -4t15.5 -14v-22.5t-1 -14.5t-3 -14t-4 -21q-2 -10 -19.5 -13t-35.5 -3q-16 0 -30.5 2t-14.5 6q0 6 -1 12t-1 13z" />
<glyph unicode="&#xfb02;" horiz-adv-x="1089" d="M2 475q0 14 7 24.5t24 10.5h39q35 -2 71.5 0t46.5 14v-2q6 6 7 76q0 29 -1 69t-1 87q-2 49 -2 103v108q0 61 1 120.5t4 108.5t9 86t14 53h-2q12 25 46 41.5t80 24.5t97.5 11t96.5 3h60.5t43.5 -2h12q20 -2 28.5 -22.5t4.5 -40.5q2 -10 1 -48t-3 -96.5t-6 -133.5t-8 -157 q-4 -90 -9.5 -184t-9.5 -183t-6 -167t-2 -135q0 -51 2 -83t8 -38v2q16 -16 70.5 -13t120.5 9q33 4 64.5 7t56 4t40 -1t17.5 -8q4 -31 4 -49.5t-14 -18.5q-8 0 -29.5 -4t-50.5 -8q-45 -6 -102.5 -13t-109.5 -11.5t-91 -5.5t-47 5q-2 4 -1 30t-1 69q0 45 -2 97t-5.5 97 t-9.5 76t-14 33q-4 0 -12.5 1t-12.5 1q-33 4 -70.5 5t-70.5 1q-39 0 -67.5 -2t-36.5 -8q-6 -4 -7.5 -25.5t0.5 -52.5t6.5 -67.5t8.5 -73.5q6 -47 10 -88t4 -64q0 -20 -15.5 -28.5t-31.5 -8.5q-23 0 -42 10.5t-17 26.5q2 20 1 75.5t-3 115t-5.5 109.5t-7.5 63q-6 18 -33.5 21 t-60.5 1q-16 0 -32.5 -1t-26.5 3q-12 2 -19.5 14.5t-7.5 26.5zM272 729.5q0 -53.5 1 -96.5t2.5 -70t3.5 -31q4 -12 52 -18t105 -6q53 0 98.5 7t45.5 24q0 111 2 223t4 213.5t5 183.5t7 131q0 12 -3 18.5t-20 12.5q-20 2 -45.5 2h-50.5q-63 0 -115.5 -7t-68.5 -24 q-6 -12 -11 -56t-7.5 -106.5t-3.5 -138.5t-1 -149v-112.5z" />
<glyph unicode="&#xfb03;" horiz-adv-x="1073" d="M3 475q-1 14 6 24.5t24 10.5h39q35 -2 71.5 0t46.5 14v-2q6 6 7 76q0 29 -1 69t-1 87q-2 49 -2 103v108q0 61 2 120.5t5 108.5t8 86t13 53q16 35 42 53.5t55.5 26.5t58.5 9t51 1q33 -6 33 -51q0 -16 -7.5 -27.5t-17.5 -13.5q-35 2 -77 -4t-64 -35q-6 -12 -11 -56 t-7.5 -106.5t-3.5 -138.5t-1 -149v-112.5t1 -96.5t2 -69.5t4 -31.5v3q4 -12 50 -17.5t99 -5.5q45 0 82 3t41 9v-2q6 6 6 76q0 29 -1 69t-1 87q-2 49 -2 103v108q0 61 1 120.5t4 108.5t8 86t14 53q16 35 42.5 53.5t55.5 26.5t57.5 9t50.5 1q35 -6 35 -51q0 -16 -8 -27.5 t-18 -13.5q-35 2 -76 -4t-64 -35q-6 -12 -11 -56t-7 -106.5t-3 -138.5t-1 -149v-108.5t1 -95.5t2 -70.5t3 -35.5q2 -6 10 -11t28.5 -8t56.5 -4t95 -1q25 -2 45.5 -1t38.5 1q31 0 51.5 -2t26.5 -6q4 -4 6 -35t2 -76q0 -53 -3 -114.5t-7 -117t-8 -96.5t-8 -49 q-6 -16 -26.5 -22t-26.5 20q-4 12 -5.5 52t-1.5 88q0 27 2.5 51t2.5 49q0 72 -8.5 124t-35.5 48q-10 -4 -44.5 -3t-73.5 5q-37 4 -70 3t-45 -9q-6 -6 -7 -27.5t1 -52.5t6 -66.5t8 -72.5q6 -47 10.5 -88t4.5 -64q0 -20 -15.5 -28.5t-32.5 -8.5q-23 0 -42 10.5t-17 26.5 q2 20 1 73.5t-3 113t-5 109.5t-7 67q-4 10 -37 13t-74 3q-53 0 -102 -3t-51 -5h2q-6 -4 -7.5 -25.5t0.5 -52.5t6.5 -67.5t8.5 -73.5q6 -47 11 -88t5 -64q0 -20 -16.5 -28.5t-32.5 -8.5q-20 0 -37.5 10.5t-21.5 26.5q2 31 1 87t-3 113.5t-5.5 104.5t-7.5 58q-6 18 -33.5 21 t-60.5 1q-16 0 -32.5 -1t-26.5 3q-12 2 -18.5 14.5t-7.5 26.5zM279 535q-4 2 0 6v-6zM895 625q-4 22 2 53q2 10 19.5 15t39.5 5q18 0 34 -4t16 -14v-22.5t-1 -14.5t-3.5 -14t-4.5 -21q-2 -10 -18 -13t-35 -3q-16 0 -31.5 2t-15.5 6q0 6 -1 12t-1 13z" />
<glyph unicode="&#xfb04;" horiz-adv-x="1409" d="M2 475q0 14 6 24.5t23 10.5h39q35 -2 71.5 0t48.5 14v-2q6 6 7 76q0 29 -1 69t-1 87q-2 49 -2 103v108q0 61 1 120.5t4 108.5t8 86t13 53q16 35 42 53.5t55.5 26.5t58 9t51.5 1q33 -6 33 -51q0 -16 -7.5 -27.5t-17.5 -13.5q-35 2 -76 -4t-63 -35q-8 -12 -12 -56 t-7.5 -106.5t-4.5 -138.5t-1 -149v-112.5t1 -96.5t2 -69.5t3 -31.5v3q4 -12 50.5 -17.5t99.5 -5.5q45 0 82 3t41 9v-2q6 6 6 76q0 29 -1 69t-1 87q-2 49 -2 103v108q0 61 1 119.5t4 107.5t8 86t14 55q18 27 63 45.5t100.5 27.5t112.5 13t100 4h62q23 -2 30 -27.5t-2 -47.5 q2 -10 2.5 -48t-2 -96.5t-6.5 -133.5t-8 -157q-4 -90 -9 -184t-9 -183t-7.5 -167t-3.5 -135q0 -51 2.5 -83t10.5 -38v2q16 -16 70.5 -13t117.5 9q33 4 64.5 7t56.5 4t41 -1t16 -8q4 -31 4 -49.5t-12 -18.5q-8 0 -30.5 -4t-51.5 -8q-45 -6 -103.5 -13t-111.5 -12.5t-91 -5.5 t-42 6v-2q-2 4 -3 71t-1 173v160q-18 0 -44 1t-54.5 2l-57 2t-53.5 1q-35 0 -59.5 -2t-30.5 -6t-7 -25.5t1 -52.5t6 -67.5t8 -73.5q6 -47 10.5 -88t4.5 -64q0 -20 -15.5 -28.5t-32.5 -8.5q-23 0 -42 10.5t-17 26.5q2 20 1 73.5t-3 113t-5 109.5t-7 67q-4 10 -37 13t-74 3 q-53 0 -102 -3t-52 -5h3q-6 -4 -7.5 -25.5t0.5 -52.5t6.5 -67.5t8.5 -73.5q8 -47 12 -88t4 -64q0 -20 -16.5 -28.5t-32.5 -8.5q-20 0 -37.5 10.5t-19.5 26.5v87t-2 113.5t-6.5 104.5t-8.5 58q-6 18 -33.5 21t-58.5 1q-18 0 -34.5 -1t-26.5 3q-12 2 -18.5 14.5t-6.5 26.5z M276 535q-4 2 0 6v-6zM631 729.5q0 -53.5 1 -96.5t2 -70t3 -31q6 -16 60.5 -21t119.5 -5q29 0 63.5 1t57.5 1q2 123 4 253t5 244.5t6 201.5t5 124q-41 0 -90 -1t-93 -5t-78.5 -12t-43.5 -21q-6 -10 -11 -54t-7 -106.5t-3 -139.5t-1 -150v-112.5z" />
</font>
</defs>
</svg>
